<svg width="33" height="22" viewBox="0 0 33 22" fill="none" xmlns="http://www.w3.org/2000/svg">
<path d="M16.5 0.0908203C9.22727 0.0908203 3.01636 4.61446 0.5 10.9999C3.01636 17.3854 9.22727 21.909 16.5 21.909C23.7727 21.909 29.9836 17.3854 32.5 10.9999C29.9836 4.61446 23.7727 0.0908203 16.5 0.0908203ZM16.5 18.2726C12.4855 18.2726 9.22727 15.0145 9.22727 10.9999C9.22727 6.98537 12.4855 3.72718 16.5 3.72718C20.5145 3.72718 23.7727 6.98537 23.7727 10.9999C23.7727 15.0145 20.5145 18.2726 16.5 18.2726ZM16.5 6.63628C14.0855 6.63628 12.1364 8.58537 12.1364 10.9999C12.1364 13.4145 14.0855 15.3635 16.5 15.3635C18.9145 15.3635 20.8636 13.4145 20.8636 10.9999C20.8636 8.58537 18.9145 6.63628 16.5 6.63628Z" fill="#CCCCCC"/>
</svg>
