<svg width="1440" height="768" viewBox="0 0 1440 768" fill="none" xmlns="http://www.w3.org/2000/svg">
<g clip-path="url(#clip0_726_11354)">
<g opacity="0.5" clip-path="url(#clip1_726_11354)" filter="url(#filter0_f_726_11354)">
<path d="M525.573 835.993C549.085 718.223 608.926 580.186 660.217 502.366C711.507 424.546 751.05 380.08 783.104 383.786C815.166 387.492 766.005 469.945 723.263 557.956C680.522 645.968 636.705 771.262 616.399 836H525.565L525.573 835.993Z" fill="#369E85"/>
<path d="M779.905 501.439C830.24 433.165 895.989 349.361 947.679 366.182C1001.11 383.57 901.13 488.664 869.67 538.5C819.169 618.512 756.393 718.457 721.133 836H612.433C612.433 836 677.677 640.102 779.905 501.446V501.439Z" fill="#369E85"/>
<path d="M935.878 486.622C999.241 428.95 1076.93 392.823 1104.98 412.971C1133.03 433.119 1056.86 488.051 1003.2 538.735C938.324 600.002 835.697 726.105 801.227 836H715.21C715.21 836 801.648 608.79 935.87 486.622H935.878Z" fill="#369E85"/>
<path d="M505.011 619.151C450.642 604.105 454.044 740.302 443.123 796.316C440.632 809.118 438.043 822.363 435.273 836H537.344C538.367 829.116 539.285 822.252 540.068 815.434C549.333 734.801 557.604 633.708 505.011 619.151Z" fill="#369E85"/>
<path d="M732.73 364.515H612V373.678H732.73V364.515Z" fill="#C1885B"/>
<path d="M670.671 327.596H623.001V337.672H670.671V327.596Z" fill="#F7E4D5"/>
<path d="M624.664 337.672C624.085 337.672 623.614 337.201 623.614 336.624V328.647C623.614 328.067 624.085 327.596 624.664 327.596H670.668C670.365 326.753 669.565 326.147 668.62 326.147H624.45C623.242 326.147 622.264 327.125 622.264 328.334V336.934C622.264 338.143 623.242 339.121 624.45 339.121H668.62C669.568 339.121 670.365 338.515 670.668 337.672H624.664V337.672Z" fill="#282444"/>
<path d="M659.762 332.567H664.405V338.258L662.083 336.496L659.762 338.209V332.567Z" fill="#706B09"/>
<path d="M614.13 324.698H668.409V314.623H614.13V324.698Z" fill="#FFF0E6"/>
<path d="M666.743 324.698C667.323 324.698 667.794 324.227 667.794 323.65V315.673C667.794 315.094 667.323 314.623 666.743 314.623H614.127C614.43 313.779 615.23 313.173 616.175 313.173H666.957C668.166 313.173 669.144 314.152 669.144 315.36V323.96C669.144 325.169 668.166 326.147 666.957 326.147H616.179C615.23 326.147 614.433 325.541 614.13 324.698H666.743V324.698Z" fill="#C1885B"/>
<path d="M625.037 319.593H620.394V325.284L622.715 323.522L625.037 325.235V319.593Z" fill="#EA9E94"/>
<path d="M614.585 363.619H662.255V353.544H614.585V363.619Z" fill="#FFF0E6"/>
<path d="M660.592 363.619C661.172 363.619 661.643 363.148 661.643 362.568V354.591C661.643 354.012 661.172 353.541 660.592 353.541H614.588C614.891 352.697 615.691 352.091 616.64 352.091H660.806C662.015 352.091 662.993 353.07 662.993 354.278V362.878C662.993 364.087 662.015 365.065 660.806 365.065H616.637C615.688 365.065 614.891 364.459 614.585 363.616H660.592V363.619Z" fill="#706B09"/>
<path d="M625.495 358.511H620.852V364.202L623.173 362.443L625.495 364.153V358.511Z" fill="#282444"/>
<path d="M672.466 340.57H618.187V350.645H672.466V340.57Z" fill="#FFF0E6"/>
<path d="M619.85 350.645C619.27 350.645 618.803 350.174 618.803 349.598V341.621C618.803 341.041 619.274 340.57 619.85 340.57H672.466C672.163 339.727 671.363 339.121 670.418 339.121H619.636C618.427 339.121 617.449 340.099 617.449 341.308V349.907C617.449 351.116 618.427 352.094 619.636 352.094H670.418C671.366 352.094 672.163 351.488 672.466 350.645H619.85V350.645Z" fill="#C1885B"/>
<path d="M661.56 343.913H666.199V349.601L663.878 347.842L661.56 349.555V343.913Z" fill="#EF6545"/>
<path d="M680.509 334.829H721.643V323.044H680.509V334.829Z" fill="#EE7755"/>
<path d="M688.722 333.541H713.43H719.785L714.193 364.396H713.43H688.722H687.958L682.366 333.541H688.722Z" fill="#EE7755"/>
<path d="M683.312 334.724L719.525 334.823L718.228 342.009L683.312 334.724Z" fill="#E55D42"/>
<path d="M711.407 305.726C711.407 305.726 716.251 303.506 715.645 295.835C715.039 288.164 721.701 290.183 720.69 282.918C719.683 275.652 721.698 271.614 721.698 271.614C721.698 271.614 709.385 280.497 708.177 289.983C706.965 299.472 704.946 295.434 703.333 302.699C701.719 309.965 702.526 313.601 702.526 313.601L702.292 316.194C702.292 316.194 709.188 306.336 711.407 305.73V305.726Z" fill="#706B09"/>
<path d="M702.866 313.802C702.866 313.802 705.085 304.112 702.461 298.866C699.836 293.619 704.278 287.157 698.628 281.91C692.977 276.663 695.802 273.432 692.371 270C692.371 270 692.371 273.432 691.159 281.103C689.947 288.774 693.378 290.793 691.159 294.831C688.939 298.869 701.621 317.136 701.621 317.136L702.866 313.806V313.802Z" fill="#515100"/>
<path d="M702.157 317.501C702.157 317.501 708.819 307.205 713.66 305.693C718.504 304.178 726.374 300.545 731.521 299.03C735.413 297.884 742.553 302.186 745.803 304.35C746.198 304.613 745.951 305.226 745.484 305.143C741.884 304.508 734.541 303.424 732.733 304.781C730.313 306.599 725.468 311.744 721.533 315.077C717.598 318.407 700.813 319.418 700.813 319.418L702.16 317.501H702.157Z" fill="#515100"/>
<path d="M704.446 317.132C704.446 317.132 713.999 312.557 717.397 319.385C719.752 324.118 724.662 319.082 729.809 326.954C734.956 334.826 736.168 336.038 736.168 336.038C736.168 336.038 723.453 339.671 715.583 333.617C707.712 327.56 706.244 334.309 699.335 328.166C695.999 325.199 691.596 318.493 700.25 316.474C701.018 316.296 703.468 317.228 704.449 317.129L704.446 317.132Z" fill="#706B09"/>
<path d="M701.755 314.306C701.755 314.306 700.544 303.945 695.298 299.235C690.052 294.525 687.898 287.931 681.441 287.124C674.983 286.317 671.617 287.259 668.792 289.278C668.792 289.278 679.287 289.008 681.842 294.258C684.398 299.505 689.512 305.562 689.512 305.562C689.512 305.562 696.24 313.77 699.2 316.194C702.16 318.615 701.755 314.31 701.755 314.31V314.306Z" fill="#706B09"/>
<path d="M702.796 316.556C702.796 316.556 697.458 305.117 689.528 302.677C681.599 300.236 676.261 298.559 676.261 298.559C676.261 298.559 664.366 299.475 661.926 302.983C659.486 306.491 657.046 310.15 657.046 310.15C657.046 310.15 670.617 304.353 673.211 305.42C675.803 306.487 680.124 309.205 684.395 309.053C688.666 308.902 698.374 316.25 698.374 316.25L702.796 316.556Z" fill="#515100"/>
<path d="M692.338 312.287C692.338 312.287 698.93 311.345 700.679 315.785C701.46 317.765 695.835 321.302 691.261 321.437C686.687 321.572 685.88 323.993 685.88 323.993C685.88 323.993 681.306 329.243 674.578 328.973C671.216 328.838 667.581 331.529 667.581 331.529C667.581 331.529 667.044 324.8 670.676 321.437C674.308 318.071 675.385 319.016 678.882 313.901C682.38 308.786 690.589 309.326 692.338 312.287V312.287Z" fill="#706B09"/>
<path d="M905.965 205C912.718 205 918.192 199.525 918.192 192.771C918.192 186.016 912.718 180.541 905.965 180.541C899.213 180.541 893.738 186.016 893.738 192.771C893.738 199.525 899.213 205 905.965 205Z" fill="#FFD622"/>
<path d="M862 195.633H953.833C953.833 179.334 945.852 164.065 932.47 154.763L907.787 137.608L885.044 152.083C870.692 161.219 862 177.054 862 194.069V195.633V195.633Z" fill="#3F9FCD"/>
<path d="M907.786 137.608V-2" stroke="black" stroke-width="2.83" stroke-miterlimit="10"/>
</g>
<g clip-path="url(#clip2_726_11354)">
<path d="M285.5 495C1043 597 1105.87 357.227 1400.39 273.257C1690.72 190.485 1903.67 297.337 2046.61 357.668C2095.5 378.305 2136.2 393.499 2169 393.796V768L-9.22747 768C-78.5639 677.289 -60.3814 448.426 285.5 495Z" fill="#7EE2A1"/>
</g>
</g>
<defs>
<filter id="filter0_f_726_11354" x="-4" y="-4" width="1448" height="844" filterUnits="userSpaceOnUse" color-interpolation-filters="sRGB">
<feFlood flood-opacity="0" result="BackgroundImageFix"/>
<feBlend mode="normal" in="SourceGraphic" in2="BackgroundImageFix" result="shape"/>
<feGaussianBlur stdDeviation="2" result="effect1_foregroundBlur_726_11354"/>
</filter>
<clipPath id="clip0_726_11354">
<rect width="1440" height="768" fill="white"/>
</clipPath>
<clipPath id="clip1_726_11354">
<rect width="1440" height="836" fill="white"/>
</clipPath>
<clipPath id="clip2_726_11354">
<rect width="1440" height="696" fill="white" transform="translate(0 72)"/>
</clipPath>
</defs>
</svg>
