<svg width="1440" height="768" viewBox="0 0 1440 768" fill="none" xmlns="http://www.w3.org/2000/svg">
<g opacity="0.5" clip-path="url(#clip0_191_3332)" filter="url(#filter0_f_191_3332)">
<path d="M525.573 835.993C549.085 718.222 608.926 580.186 660.217 502.366C711.507 424.546 751.05 380.08 783.104 383.786C815.166 387.492 766.005 469.944 723.263 557.956C680.522 645.968 636.705 771.262 616.399 836H525.565L525.573 835.993Z" fill="#369E85"/>
<path d="M779.905 501.439C830.24 433.165 895.989 349.361 947.679 366.182C1001.11 383.57 901.129 488.664 869.67 538.5C819.169 618.512 756.393 718.457 721.133 836H612.432C612.432 836 677.677 640.102 779.905 501.446V501.439Z" fill="#369E85"/>
<path d="M935.878 486.622C999.241 428.95 1076.93 392.823 1104.98 412.971C1133.03 433.119 1056.86 488.051 1003.2 538.735C938.324 600.002 835.696 726.105 801.227 836H715.21C715.21 836 801.648 608.791 935.87 486.622H935.878Z" fill="#369E85"/>
<path d="M505.011 619.151C450.642 604.105 454.044 740.302 443.123 796.316C440.632 809.118 438.043 822.363 435.273 836H537.344C538.367 829.116 539.285 822.252 540.068 815.434C549.333 734.801 557.604 633.708 505.011 619.151Z" fill="#369E85"/>
<path d="M732.73 364.515H612V373.678H732.73V364.515Z" fill="#C1885B"/>
<path d="M670.672 327.596H623.002V337.672H670.672V327.596Z" fill="#F7E4D5"/>
<path d="M624.665 337.671C624.085 337.671 623.615 337.2 623.615 336.624V328.647C623.615 328.067 624.085 327.596 624.665 327.596H670.669C670.366 326.753 669.566 326.147 668.621 326.147H624.451C623.242 326.147 622.264 327.125 622.264 328.334V336.934C622.264 338.142 623.242 339.121 624.451 339.121H668.621C669.569 339.121 670.366 338.515 670.669 337.671H624.665Z" fill="#282444"/>
<path d="M659.762 332.566H664.406V338.258L662.084 336.496L659.762 338.208V332.566Z" fill="#706B09"/>
<path d="M614.131 324.698H668.41V314.622H614.131V324.698Z" fill="#FFF0E6"/>
<path d="M666.744 324.698C667.323 324.698 667.794 324.227 667.794 323.65V315.673C667.794 315.094 667.323 314.623 666.744 314.623H614.127C614.43 313.779 615.23 313.173 616.176 313.173H666.958C668.166 313.173 669.144 314.152 669.144 315.36V323.96C669.144 325.169 668.166 326.147 666.958 326.147H616.179C615.23 326.147 614.434 325.541 614.131 324.698H666.744Z" fill="#C1885B"/>
<path d="M625.037 319.593H620.394V325.284L622.716 323.522L625.037 325.235V319.593Z" fill="#EA9E94"/>
<path d="M614.585 363.619H662.255V353.544H614.585V363.619Z" fill="#FFF0E6"/>
<path d="M660.592 363.619C661.172 363.619 661.643 363.148 661.643 362.568V354.591C661.643 354.012 661.172 353.541 660.592 353.541H614.588C614.891 352.697 615.692 352.091 616.64 352.091H660.806C662.015 352.091 662.993 353.07 662.993 354.278V362.878C662.993 364.087 662.015 365.065 660.806 365.065H616.637C615.688 365.065 614.891 364.459 614.585 363.616H660.592V363.619Z" fill="#706B09"/>
<path d="M625.495 358.511H620.852V364.202L623.173 362.443L625.495 364.153V358.511Z" fill="#282444"/>
<path d="M672.467 340.57H618.188V350.645H672.467V340.57Z" fill="#FFF0E6"/>
<path d="M619.851 350.645C619.271 350.645 618.803 350.174 618.803 349.598V341.621C618.803 341.041 619.274 340.57 619.851 340.57H672.467C672.164 339.727 671.364 339.121 670.419 339.121H619.637C618.428 339.121 617.45 340.099 617.45 341.308V349.908C617.45 351.116 618.428 352.095 619.637 352.095H670.419C671.367 352.095 672.164 351.489 672.467 350.645H619.851Z" fill="#C1885B"/>
<path d="M661.56 343.913H666.2V349.601L663.879 347.842L661.56 349.555V343.913Z" fill="#EF6545"/>
<path d="M680.509 334.829H721.642V323.044H680.509V334.829Z" fill="#EE7755"/>
<path d="M688.721 333.541H713.429H719.785L714.193 364.396H713.429H688.721H687.957L682.366 333.541H688.721Z" fill="#EE7755"/>
<path d="M683.311 334.724L719.525 334.823L718.227 342.009L683.311 334.724Z" fill="#E55D42"/>
<path d="M711.407 305.726C711.407 305.726 716.251 303.506 715.645 295.835C715.039 288.164 721.701 290.183 720.69 282.918C719.683 275.652 721.698 271.614 721.698 271.614C721.698 271.614 709.385 280.497 708.177 289.983C706.965 299.472 704.946 295.434 703.333 302.699C701.719 309.965 702.526 313.601 702.526 313.601L702.292 316.194C702.292 316.194 709.188 306.336 711.407 305.73V305.726Z" fill="#706B09"/>
<path d="M702.865 313.802C702.865 313.802 705.084 304.112 702.46 298.866C699.835 293.619 704.278 287.157 698.627 281.91C692.976 276.663 695.801 273.432 692.37 270C692.37 270 692.37 273.432 691.158 281.103C689.946 288.774 693.378 290.793 691.158 294.831C688.939 298.869 701.62 317.136 701.62 317.136L702.865 313.806V313.802Z" fill="#515100"/>
<path d="M702.157 317.501C702.157 317.501 708.819 307.205 713.66 305.694C718.504 304.178 726.374 300.546 731.521 299.03C735.413 297.884 742.553 302.186 745.803 304.35C746.198 304.613 745.951 305.226 745.484 305.144C741.884 304.508 734.541 303.424 732.733 304.781C730.312 306.599 725.468 311.744 721.533 315.077C717.598 318.407 700.813 319.418 700.813 319.418L702.16 317.501H702.157Z" fill="#515100"/>
<path d="M704.446 317.132C704.446 317.132 713.999 312.557 717.397 319.385C719.752 324.118 724.662 319.082 729.809 326.954C734.956 334.826 736.168 336.038 736.168 336.038C736.168 336.038 723.453 339.671 715.583 333.617C707.712 327.56 706.244 334.309 699.335 328.166C695.999 325.199 691.596 318.493 700.25 316.474C701.018 316.296 703.468 317.228 704.449 317.129L704.446 317.132Z" fill="#706B09"/>
<path d="M701.755 314.306C701.755 314.306 700.543 303.945 695.298 299.235C690.052 294.525 687.898 287.931 681.44 287.124C674.983 286.317 671.617 287.259 668.792 289.278C668.792 289.278 679.287 289.008 681.842 294.258C684.398 299.505 689.512 305.562 689.512 305.562C689.512 305.562 696.239 313.77 699.2 316.194C702.16 318.615 701.755 314.31 701.755 314.31V314.306Z" fill="#706B09"/>
<path d="M702.796 316.556C702.796 316.556 697.458 305.117 689.528 302.677C681.598 300.236 676.26 298.56 676.26 298.56C676.26 298.56 664.366 299.475 661.926 302.983C659.486 306.491 657.046 310.15 657.046 310.15C657.046 310.15 670.616 304.353 673.211 305.42C675.803 306.487 680.123 309.205 684.394 309.053C688.665 308.902 698.373 316.25 698.373 316.25L702.796 316.556Z" fill="#515100"/>
<path d="M692.337 312.287C692.337 312.287 698.93 311.345 700.678 315.785C701.459 317.765 695.834 321.302 691.26 321.437C686.686 321.572 685.879 323.993 685.879 323.993C685.879 323.993 681.305 329.243 674.578 328.973C671.215 328.838 667.58 331.529 667.58 331.529C667.58 331.529 667.043 324.8 670.675 321.437C674.308 318.071 675.384 319.016 678.882 313.901C682.379 308.786 690.588 309.326 692.337 312.287Z" fill="#706B09"/>
<path d="M905.966 205C912.718 205 918.193 199.525 918.193 192.77C918.193 186.016 912.718 180.541 905.966 180.541C899.213 180.541 893.738 186.016 893.738 192.77C893.738 199.525 899.213 205 905.966 205Z" fill="#FFD622"/>
<path d="M862 195.633H953.833C953.833 179.334 945.852 164.065 932.47 154.763L907.787 137.608L885.044 152.083C870.692 161.219 862 177.054 862 194.069V195.633Z" fill="#3F9FCD"/>
<path d="M907.787 137.608V-2" stroke="black" stroke-width="2.83" stroke-miterlimit="10"/>
</g>
<defs>
<filter id="filter0_f_191_3332" x="-4" y="-4" width="1448" height="844" filterUnits="userSpaceOnUse" color-interpolation-filters="sRGB">
<feFlood flood-opacity="0" result="BackgroundImageFix"/>
<feBlend mode="normal" in="SourceGraphic" in2="BackgroundImageFix" result="shape"/>
<feGaussianBlur stdDeviation="2" result="effect1_foregroundBlur_191_3332"/>
</filter>
<clipPath id="clip0_191_3332">
<rect width="1440" height="836" fill="white"/>
</clipPath>
</defs>
</svg>
