<svg width="28" height="28" viewBox="0 0 28 28" fill="none" xmlns="http://www.w3.org/2000/svg">
<path d="M23.3332 23.3334H4.6665C2.73684 23.3334 1.1665 21.7631 1.1665 19.8334V8.16675C1.1665 6.23708 2.73684 4.66675 4.6665 4.66675H23.3332C25.2628 4.66675 26.8332 6.23708 26.8332 8.16675V19.8334C26.8332 21.7631 25.2628 23.3334 23.3332 23.3334ZM4.6665 7.00008C4.02367 7.00008 3.49984 7.52391 3.49984 8.16675V19.8334C3.49984 20.4762 4.02367 21.0001 4.6665 21.0001H23.3332C23.976 21.0001 24.4998 20.4762 24.4998 19.8334V8.16675C24.4998 7.52391 23.976 7.00008 23.3332 7.00008H4.6665ZM11.6665 17.5001H6.99984C6.69042 17.5001 6.39367 17.3772 6.17488 17.1584C5.95609 16.9396 5.83317 16.6428 5.83317 16.3334C5.83317 16.024 5.95609 15.7272 6.17488 15.5085C6.39367 15.2897 6.69042 15.1667 6.99984 15.1667H11.6665C11.9759 15.1667 12.2727 15.2897 12.4915 15.5085C12.7103 15.7272 12.8332 16.024 12.8332 16.3334C12.8332 16.6428 12.7103 16.9396 12.4915 17.1584C12.2727 17.3772 11.9759 17.5001 11.6665 17.5001ZM11.6665 12.8334H6.99984C6.69042 12.8334 6.39367 12.7105 6.17488 12.4917C5.95609 12.2729 5.83317 11.9762 5.83317 11.6667C5.83317 11.3573 5.95609 11.0606 6.17488 10.8418C6.39367 10.623 6.69042 10.5001 6.99984 10.5001H11.6665C11.9759 10.5001 12.2727 10.623 12.4915 10.8418C12.7103 11.0606 12.8332 11.3573 12.8332 11.6667C12.8332 11.9762 12.7103 12.2729 12.4915 12.4917C12.2727 12.7105 11.9759 12.8334 11.6665 12.8334Z" fill="white"/>
<path d="M18.6668 14.5834C19.9555 14.5834 21.0002 13.5387 21.0002 12.2501C21.0002 10.9614 19.9555 9.91675 18.6668 9.91675C17.3782 9.91675 16.3335 10.9614 16.3335 12.2501C16.3335 13.5387 17.3782 14.5834 18.6668 14.5834Z" fill="white"/>
<path d="M18.6667 15.582C16.8443 15.582 15.75 16.4162 15.75 17.2492C15.75 17.6657 16.8443 18.0834 18.6667 18.0834C20.377 18.0834 21.5833 17.6669 21.5833 17.2492C21.5833 16.4162 20.44 15.582 18.6667 15.582Z" fill="white"/>
</svg>
