<svg width="12" height="19" viewBox="0 0 12 19" fill="none" xmlns="http://www.w3.org/2000/svg">
<path d="M11.21 10.6295L2.987 17.8235C2.018 18.6725 0.500001 17.9825 0.500001 16.694V2.306C0.499753 2.01764 0.582632 1.73531 0.738711 1.49284C0.894791 1.25036 1.11746 1.05801 1.38004 0.938831C1.64262 0.819647 1.934 0.778679 2.21927 0.820831C2.50454 0.862984 2.77161 0.986471 2.9885 1.1765L11.2085 8.37051C11.3696 8.5113 11.4987 8.68493 11.5872 8.87974C11.6757 9.07455 11.7215 9.28604 11.7215 9.5C11.7215 9.71397 11.6757 9.92546 11.5872 10.1203C11.4987 10.3151 11.3696 10.4887 11.2085 10.6295H11.21Z" fill="#2B5F75"/>
</svg>
