<svg width="12" height="19" viewBox="0 0 12 19" fill="none" xmlns="http://www.w3.org/2000/svg">
<path d="M0.790033 10.6295L9.01303 17.8235C9.98203 18.6725 11.5 17.9825 11.5 16.694V2.306C11.5003 2.01764 11.4174 1.73531 11.2613 1.49284C11.1052 1.25036 10.8826 1.05801 10.62 0.938831C10.3574 0.819647 10.066 0.778679 9.78077 0.820831C9.4955 0.862984 9.22843 0.986471 9.01153 1.1765L0.791534 8.37051C0.63042 8.5113 0.50129 8.68493 0.412814 8.87974C0.324339 9.07455 0.278564 9.28604 0.278564 9.5C0.278564 9.71397 0.324339 9.92546 0.412814 10.1203C0.50129 10.3151 0.63042 10.4887 0.791534 10.6295H0.790033Z" fill="#2B5F75"/>
</svg>
