<svg width="241" height="225" viewBox="0 0 241 225" fill="none" xmlns="http://www.w3.org/2000/svg">
<g clip-path="url(#clip0_40_1140)">
<path d="M117.056 223.954C181.705 223.954 234.112 217.286 234.112 209.061C234.112 200.835 181.705 194.167 117.056 194.167C52.4078 194.167 0 200.835 0 209.061C0 217.286 52.4078 223.954 117.056 223.954Z" fill="#3EB8B2"/>
<path d="M175.667 151.167C175.36 153.705 170.255 193.511 174.683 199.952C179.112 206.393 190.366 206.915 199.412 206.884C206.857 206.858 217.189 203.459 219.896 198.58C222.602 193.702 218.112 150.307 217.619 149.429C217.127 148.552 209.623 144.247 196.335 144.877C183.049 145.507 175.974 148.629 175.666 151.167H175.667Z" fill="#CC9E87"/>
<path d="M197.963 155.027C182.954 155.027 176.338 152.334 176.273 152.307C176.179 152.267 176.135 152.16 176.173 152.066C176.212 151.972 176.32 151.928 176.415 151.966C176.479 151.993 183.044 154.658 197.963 154.658H198.12C213.729 154.638 216.957 151.083 216.988 151.047C217.055 150.97 217.172 150.962 217.249 151.027C217.326 151.094 217.336 151.21 217.269 151.288C217.139 151.441 213.899 155.007 198.121 155.027H197.964H197.963Z" fill="#AD7B61"/>
<path d="M179.398 154.984C178.763 156.221 178.09 157.595 178.405 159.022C178.612 159.961 178.906 160.629 178.654 161.616C178.475 162.321 178.164 162.988 178.086 163.717C178.008 164.445 178.244 165.055 178.489 165.728C178.687 166.277 178.808 166.81 178.58 167.372C178.448 167.701 178.211 167.976 178.095 168.314C177.857 168.997 178.06 169.742 178.086 170.443C178.123 171.518 177.936 172.565 177.589 173.581C177.512 173.806 177.868 173.903 177.945 173.679C178.21 172.904 178.388 172.115 178.442 171.298C178.508 170.318 178.132 169.164 178.528 168.237C178.768 167.673 179.129 167.305 179.103 166.651C179.077 165.995 178.713 165.411 178.546 164.79C178.122 163.216 179.357 161.856 179.144 160.289C179.039 159.51 178.65 158.866 178.699 158.05C178.758 157.021 179.257 156.068 179.717 155.171C179.825 154.96 179.508 154.774 179.398 154.984Z" fill="#AD7B61"/>
<path d="M181.329 204.071C178.75 199.886 177.764 194.978 178.445 190.118C178.567 189.245 178.62 188.488 178.243 187.667C177.958 187.048 177.57 186.496 177.516 185.793C177.471 185.202 177.65 184.606 177.686 184.014C177.827 181.613 176.308 178.971 177.887 176.789C178.026 176.596 177.706 176.411 177.568 176.602C176.127 178.593 177.16 180.952 177.308 183.146C177.389 184.331 176.905 185.541 177.35 186.687C177.55 187.204 177.895 187.661 178.065 188.192C178.31 188.958 178.122 189.729 178.02 190.501C177.397 195.275 178.489 200.165 181.012 204.256C181.136 204.458 181.456 204.273 181.331 204.07L181.329 204.071Z" fill="#AD7B61"/>
<path d="M187.024 204.8C186.354 203.175 186.444 201.323 186.403 199.596C186.36 197.781 186.376 195.966 186.597 194.163C186.686 193.428 186.813 192.696 186.725 191.954C186.628 191.141 186.48 190.431 186.562 189.605C186.712 188.115 186.008 186.758 185.904 185.281C185.686 182.168 186.776 179.117 186.497 176.005C186.366 174.541 185.574 173.175 185.565 171.715C185.561 170.917 185.809 170.138 185.835 169.342C185.856 168.643 185.668 168.01 185.473 167.345C184.882 165.331 185.543 163.435 185.6 161.405C185.652 159.527 185.332 157.661 185.018 155.816C184.979 155.583 184.622 155.682 184.662 155.914C184.971 157.728 185.283 159.559 185.231 161.405C185.185 163.006 184.645 164.619 184.84 166.225C184.927 166.949 185.212 167.613 185.367 168.321C185.574 169.265 185.349 170.145 185.243 171.083C185.08 172.547 185.749 173.743 186.013 175.148C186.608 178.318 185.456 181.492 185.511 184.668C185.523 185.298 185.58 185.926 185.704 186.543C185.866 187.356 186.232 188.149 186.241 188.99C186.248 189.673 186.07 190.319 186.176 191.005C186.313 191.881 186.416 192.645 186.31 193.532C186.071 195.558 185.984 197.556 186.034 199.596C186.077 201.356 185.986 203.241 186.668 204.899C186.758 205.115 187.114 205.02 187.024 204.8Z" fill="#AD7B61"/>
<path d="M216.498 173.743C216.277 172.571 215.883 171.453 215.94 170.245C215.988 169.241 216.168 168.265 216.032 167.26C215.877 166.103 215.475 165.003 215.481 163.823C215.488 162.704 215.717 161.601 215.773 160.485C215.88 158.333 215.532 156.191 214.816 154.162C214.738 153.94 214.38 154.036 214.46 154.261C215.203 156.367 215.539 158.588 215.384 160.821C215.307 161.932 215.072 163.039 215.116 164.157C215.156 165.137 215.467 166.065 215.623 167.026C215.811 168.175 215.592 169.261 215.561 170.409C215.534 171.42 215.819 172.356 216.035 173.333C216.545 175.646 216.528 178.031 216.512 180.387C216.511 180.624 216.88 180.624 216.881 180.387C216.897 178.169 216.91 175.933 216.497 173.745L216.498 173.743Z" fill="#AD7B61"/>
<path d="M217.254 187.927C217.063 186.164 216.872 184.402 216.681 182.638C216.655 182.405 216.286 182.402 216.312 182.638C216.49 184.284 216.668 185.929 216.846 187.575C216.922 188.279 217.026 188.984 217.066 189.691C217.117 190.606 216.915 191.448 216.755 192.337C216.241 195.204 217.467 198.596 215.512 201.087C215.366 201.272 215.626 201.534 215.772 201.348C217.679 198.916 216.699 195.865 217.017 193.052C217.105 192.27 217.34 191.514 217.42 190.732C217.516 189.799 217.352 188.856 217.252 187.929L217.254 187.927Z" fill="#AD7B61"/>
<path d="M212.568 188.558C212.377 186.161 212.266 183.758 212.237 181.354C212.209 179.005 212.412 176.619 212.162 174.279C211.901 171.833 210.995 169.44 211.461 166.963C211.505 166.731 211.149 166.631 211.105 166.865C210.717 168.927 211.232 170.919 211.595 172.944C212.029 175.371 211.855 177.821 211.86 180.273C211.864 182.557 211.942 184.841 212.093 187.121C212.173 188.32 212.277 189.518 212.392 190.715C212.509 191.923 212.622 193.129 212.056 194.251C211.949 194.464 212.268 194.65 212.375 194.438C213.278 192.645 212.719 190.465 212.566 188.56L212.568 188.558Z" fill="#AD7B61"/>
<path d="M212.264 196.55C212.263 196.312 211.894 196.312 211.895 196.55C211.901 197.364 211.998 198.235 211.911 199.046C211.85 199.618 211.652 199.761 211.485 200.194C211.371 200.49 211.371 200.806 211.32 201.118C211.076 202.59 210.314 203.873 209.199 204.85C209.019 205.007 209.281 205.267 209.46 205.111C210.543 204.162 211.327 202.91 211.625 201.491C211.696 201.151 211.683 200.742 211.793 200.415C211.917 200.046 212.179 199.801 212.263 199.413C212.449 198.547 212.27 197.441 212.263 196.552L212.264 196.55Z" fill="#AD7B61"/>
<path d="M193.77 189.179C193.394 188.178 193.39 187.31 193.527 186.261C193.707 184.869 193.547 183.824 193.125 182.495C192.796 181.459 192.841 180.622 193.151 179.593C193.334 178.985 193.517 178.39 193.504 177.746C193.491 177.108 193.309 176.48 193.195 175.856C193.015 174.864 192.914 173.86 192.851 172.856C192.75 171.246 192.737 169.633 192.702 168.02C192.621 164.407 192.538 160.793 192.457 157.181C192.451 156.944 192.082 156.943 192.088 157.181C192.172 160.911 192.256 164.642 192.34 168.373C192.381 170.208 192.39 172.05 192.561 173.879C192.715 175.525 193.387 177.279 192.974 178.905C192.794 179.615 192.487 180.297 192.477 181.04C192.468 181.683 192.672 182.287 192.869 182.889C193.166 183.798 193.344 184.623 193.246 185.586C193.162 186.413 192.963 187.239 193.069 188.075C193.151 188.702 193.44 189.24 193.625 189.834C193.945 190.867 193.619 191.762 193.319 192.744C192.99 193.823 192.814 194.954 193.564 195.892C193.712 196.077 193.971 195.815 193.824 195.632C192.696 194.216 194.046 192.491 194.143 190.975C194.185 190.327 193.994 189.773 193.77 189.178V189.179Z" fill="#AD7B61"/>
<path d="M196.139 205.991C193.719 204.025 193.575 201.292 193.877 198.402C193.901 198.166 193.532 198.168 193.508 198.402C193.196 201.397 193.382 204.223 195.878 206.252C196.06 206.4 196.324 206.141 196.139 205.991Z" fill="#AD7B61"/>
<path d="M200.755 168.779C200.745 167.495 200.954 166.136 200.79 164.861C200.709 164.223 200.416 163.636 200.423 162.984C200.43 162.287 200.665 161.612 200.755 160.925C200.903 159.8 200.559 158.812 200.134 157.782C200.044 157.565 199.686 157.661 199.777 157.88C200.332 159.225 200.508 160.292 200.229 161.733C200.131 162.243 200.02 162.76 200.059 163.283C200.101 163.841 200.336 164.358 200.41 164.912C200.588 166.225 200.37 167.631 200.386 168.957C200.401 170.325 200.48 171.688 200.609 173.05C200.632 173.285 201.001 173.286 200.978 173.05C200.844 171.63 200.763 170.207 200.753 168.779H200.755Z" fill="#AD7B61"/>
<path d="M207.166 165.831C207.667 163.106 206.195 160.611 206.198 157.913C206.198 157.675 205.829 157.675 205.829 157.913C205.824 160.75 207.38 163.333 206.712 166.197C206.421 167.448 205.906 168.653 205.81 169.943C205.709 171.295 206.136 172.584 206.425 173.887C206.8 175.569 206.586 177.106 206.331 178.788C206.119 180.193 206.118 181.528 206.26 182.939C206.572 186.047 206.386 189.125 206.136 192.23C206.118 192.467 206.487 192.465 206.505 192.23C206.749 189.186 206.947 186.157 206.646 183.109C206.485 181.476 206.515 179.998 206.767 178.373C206.972 177.046 207.139 175.746 206.907 174.411C206.658 172.974 206.095 171.581 206.17 170.101C206.246 168.627 206.9 167.268 207.165 165.83L207.166 165.831Z" fill="#AD7B61"/>
<path d="M205.785 194.921C205.715 194.694 205.357 194.791 205.428 195.019C206.021 196.928 206.455 198.827 206.058 200.825C205.699 202.628 204.873 204.29 204.058 205.924C203.953 206.136 204.27 206.323 204.377 206.111C205.252 204.356 206.153 202.551 206.474 200.598C206.796 198.64 206.364 196.788 205.785 194.922V194.921Z" fill="#AD7B61"/>
<path d="M215.406 150.045C215.406 148.976 207.104 146.354 197.689 146.354C188.274 146.354 178.866 148.976 178.866 150.045C178.866 151.113 188.274 152.136 197.689 152.136C207.104 152.136 215.406 151.113 215.406 150.045Z" fill="#6B3939"/>
<path d="M210.336 109.406C209.739 107.275 208.499 105.334 206.577 103.707C204.102 101.612 199.065 100.756 197.055 103.874C195.819 105.792 196.491 107.603 197.357 109.491C199.178 113.457 197.631 119.372 202.542 121.526C206.678 123.339 209.346 119.613 210.283 116.022C210.886 113.713 210.913 111.47 210.336 109.405V109.406Z" fill="#456664"/>
<path d="M216.441 77.8576C215.765 75.1627 213.577 66.8316 209.218 68.7559C205.412 70.4366 202.178 73.9264 202.36 78.198C202.511 81.7262 203.915 85.1732 206.275 87.8011C206.757 88.3367 207.277 88.8395 207.701 89.4221C208.284 90.2197 208.683 91.1598 209.402 91.8378C211.081 93.4217 213.694 92.8448 215.386 91.6156C217.233 90.2739 217.312 88.3866 217.368 86.2514C217.444 83.434 217.128 80.5924 216.441 77.859V77.8576Z" fill="#456664"/>
<path d="M218.949 60.9105C218.453 58.405 216.585 56.5106 215.795 54.1262C214.827 51.2034 213.881 48.2692 212.646 45.4446C211.739 43.3679 209.793 41.9749 207.453 42.2882C200.888 43.1628 202.968 52.0438 204.532 56.0007C205.578 58.65 206.529 61.0543 208.974 62.6995C210.494 63.7222 212.153 64.6551 213.797 65.4627C214.672 65.8929 215.508 66.2362 216.493 65.9641C218.683 65.3573 219.344 62.8975 218.95 60.9119L218.949 60.9105Z" fill="#456664"/>
<path d="M225.667 120.181C222.011 120.874 217.35 122.346 214.493 124.83C213.698 125.521 213.201 126.393 212.701 127.309C212.182 128.257 211.453 129.199 211.148 130.249C209.819 134.817 216.984 133.989 219.38 133.674C221.833 133.351 224.237 132.709 226.523 131.763C228.215 131.064 230.718 130.239 231.077 128.162C231.665 124.761 229.946 119.372 225.665 120.181H225.667Z" fill="#58867B"/>
<path d="M236.715 88.1942C236.918 86.6118 237.16 84.5137 235.506 83.6562C231.149 81.3971 226.874 86.381 224.51 89.4277C221.354 93.4972 219.005 98.5152 218.589 103.69C218.555 104.109 218.538 104.552 218.737 104.928C218.864 105.163 219.206 105.378 219.402 105.554C218.528 107.489 217.868 109.974 218.502 112.125C219.029 113.913 220.653 115.224 222.443 115.611C224.37 116.026 226.015 115.243 227.403 113.951C228.441 112.984 229.283 111.87 230.444 111.031C231.401 110.339 232.456 109.795 233.428 109.124C235.26 107.858 236.542 106.21 236.617 103.902C236.685 101.808 236.017 98.7631 234.404 97.2846C234.16 97.0609 233.899 96.8857 233.627 96.7433C233.78 96.4556 233.929 96.1707 234.075 95.8873C235.319 93.4672 236.369 90.9091 236.715 88.1914V88.1942Z" fill="#58867B"/>
<path d="M239.604 60.7808C238.959 55.7671 233.85 57.1145 230.829 59.2724C226.456 62.3961 224.475 67.5081 224.059 72.7028C223.97 73.3709 223.945 74.0489 224.003 74.7354C224.143 76.3905 224.698 78.7379 226.291 79.6224C229.666 81.4983 234.341 76.3521 236.025 74.0047C238.582 70.4395 240.171 65.1822 239.604 60.7808Z" fill="#58867B"/>
<path d="M238.624 46.5144C235.491 44.2126 231.293 46.8662 228.85 49.4144C227.007 50.796 221.83 55.2343 225.342 57.1045C227.107 58.0446 228.728 56.8553 230.4 56.3881C231.86 55.9807 233.645 56.0206 235.135 55.4537C236.679 54.8669 237.558 53.5949 238.649 52.4255C239.214 51.8201 239.879 51.219 240.127 50.4C240.566 48.9543 239.794 47.3732 238.624 46.5144Z" fill="#58867B"/>
<path d="M231.436 35.306C230.507 35.3729 229.64 35.6521 228.862 36.0822C228.799 32.98 228.42 29.9717 226.503 27.2611C225.57 25.9407 224.28 24.4651 222.7 23.9366C220.959 23.3555 218.359 23.7443 216.658 24.381C215.363 24.8653 214.162 25.7954 213.682 27.1315C212.91 29.2823 214.121 31.7849 214.473 33.9101C215.29 38.8655 216.122 47.8162 222.644 48.9272C224.382 49.2235 225.975 48.3788 227.324 47.3718C229.249 45.936 231.352 44.1883 232.802 42.2697C234.478 40.0505 235.693 34.9969 231.436 35.3074V35.306Z" fill="#58867B"/>
<path d="M219.351 86.8611C219.571 86.3284 219.851 85.8341 220.237 85.2985C220.944 84.32 221.738 83.4084 222.56 82.5253C224.232 80.7292 226.033 79.0427 227.531 77.0927C230.33 73.4492 232.393 69.3313 233.726 64.9386C233.934 64.2549 232.866 63.9629 232.658 64.6437C231.248 69.2929 228.983 73.6301 225.89 77.3847C223.999 79.6808 221.72 81.6521 219.875 83.9639C221.156 77.7351 221.906 71.475 222.305 65.0967C222.384 63.8361 222.458 62.577 222.528 61.3164C223.788 56.4152 227.926 53.3898 232.414 51.4826C233.068 51.2048 232.504 50.2505 231.856 50.5268C228.142 52.105 224.677 54.4752 222.714 57.9079C222.811 56.0875 222.905 54.2658 223.003 52.4454C223.102 50.618 223.197 48.7933 223.225 46.9716C224.764 44.1485 227.12 41.9478 230.085 40.5904C230.732 40.2941 230.171 39.3398 229.527 39.6346C226.97 40.8055 224.812 42.6102 223.225 44.8692C223.194 43.2825 223.092 41.6971 222.865 40.1118C222.859 40.0748 222.851 40.0406 222.839 40.0093C222.435 36.5808 221.711 33.2221 220.642 29.9318C220.422 29.2567 219.353 29.5458 219.573 30.2267C220.713 33.7306 221.473 37.3001 221.841 40.9679C221.847 41.0291 221.864 41.0832 221.884 41.1331C222.057 41.5675 222.001 42.2583 222.033 42.7255C222.076 43.3323 222.104 43.9391 222.12 44.5473C222.134 45.0928 222.159 45.6469 222.14 46.1924C222.073 48.1666 222.019 50.1308 221.912 52.0993C221.717 55.7144 221.409 59.3251 221.324 62.9459C221.31 63.5726 221.25 64.2036 221.209 64.8289C221.17 65.4286 221.129 66.0282 221.085 66.6265C221.05 67.0994 220.801 67.9768 220.945 68.4212C220.083 65.7462 217.858 63.7891 215.85 61.7466C212.638 58.4819 211.098 54.3185 209.651 50.061C209.423 49.3902 208.354 49.6779 208.583 50.3559C209.777 53.867 211.004 57.4763 213.266 60.4675C214.726 62.3989 216.752 63.829 218.287 65.6992C219.548 67.2347 220.018 69.1732 220.1 71.1232C220.187 73.1885 220.162 75.2695 220.046 77.3335C220.009 77.9986 219.75 78.6282 219.643 79.282C219.484 80.2548 219.311 81.2248 219.125 82.192C218.937 83.1634 218.72 84.1291 218.518 85.0977C218.132 86.9508 217.636 88.8011 217.192 90.6413C217.058 91.1997 216.924 91.7581 216.793 92.3178C216.743 92.5315 216.313 93.7394 216.43 93.8846C215.384 92.5885 214.689 91.0402 214.004 89.5261C212.966 87.2328 212.14 84.837 212.571 82.2888C212.689 81.5923 211.623 81.2918 211.503 81.994C211.066 84.5807 211.695 86.9522 212.716 89.3352C213.608 91.4134 214.551 93.567 216.131 95.2178C215.319 98.9212 214.664 102.653 214.478 106.453C214.389 108.302 214.43 110.152 214.37 112.001C214.339 112.961 214.283 113.92 214.166 114.874C214.013 116.132 213.79 117.502 213.392 118.706C213.014 119.845 212.377 120.889 211.805 121.939C211.392 122.697 210.95 123.437 210.502 124.175C210.268 124.558 210.033 124.942 209.799 125.325C209.677 125.527 209.133 126.164 209.158 126.386C208.761 122.848 205.099 120.086 206.011 116.427C206.183 115.736 205.116 115.44 204.942 116.132C204.378 118.397 205.515 120.414 206.582 122.325C207.112 123.275 207.647 124.245 207.928 125.305C208.277 126.628 208.144 128.139 207.509 129.361C207.107 130.135 206.721 130.918 206.352 131.709C205.616 133.288 204.947 134.898 204.344 136.533C203.14 139.805 202.21 143.176 201.558 146.601C201.434 147.253 201.32 147.907 201.216 148.562C201.105 149.258 202.172 149.559 202.284 148.857C202.314 148.67 202.348 148.484 202.378 148.297C202.398 148.256 202.415 148.212 202.427 148.16C203.028 145.351 203.928 142.632 205.207 140.057C206.466 137.522 208.045 134.636 210.369 132.929C212.447 131.405 215.005 130.394 217.294 129.232C220.174 127.769 223.045 126.175 226.348 126.058C227.058 126.033 227.061 124.926 226.348 124.952C223.297 125.058 220.619 126.312 217.941 127.664C215.111 129.092 211.793 130.343 209.316 132.354C207.7 133.667 206.351 135.396 205.231 137.324C206.315 134.307 207.633 131.374 209.19 128.555C210.788 125.662 212.754 122.952 214.015 119.882C214.392 118.966 214.669 118.036 214.877 117.096C216.215 115.814 218.103 115.398 219.556 114.252C221.237 112.927 222.585 111.078 224.002 109.489C225.567 107.732 227.036 105.744 229.078 104.52C230.518 103.659 231.893 102.956 232.921 101.598C233.351 101.029 232.39 100.477 231.965 101.039C230.762 102.63 228.79 103.203 227.268 104.405C225.554 105.757 224.18 107.627 222.733 109.251C221.305 110.852 219.919 112.815 218.065 113.943C217.102 114.528 216.087 114.921 215.168 115.494C215.444 113.558 215.485 111.582 215.508 109.597C215.511 109.309 215.521 109.024 215.53 108.738C215.611 108.694 215.685 108.625 215.742 108.523C219.773 101.177 225.228 94.7763 231.832 89.6201C232.393 89.1814 231.604 88.4037 231.048 88.8367C224.829 93.6924 219.615 99.6662 215.638 106.465C215.88 102.938 216.447 99.4411 217.156 95.9799C217.508 94.2621 217.895 92.5529 218.294 90.8465C218.499 89.9705 218.707 89.0945 218.915 88.2185C219.035 87.7171 219.17 87.2756 219.341 86.8582L219.351 86.8611Z" fill="#456664"/>
<path d="M232.592 96.2149C229.771 96.5752 227.565 97.2603 225.273 98.9724C223.189 100.531 221.396 102.378 219.821 104.445C219.389 105.012 220.351 105.563 220.777 105.003C222.229 103.097 223.912 101.37 225.832 99.9282C227.938 98.3457 229.992 97.6535 232.59 97.3216C233.287 97.2333 233.297 96.1237 232.59 96.2149H232.592Z" fill="#456664"/>
<path d="M184.725 116.558C184.457 116.266 184.159 115.995 183.843 115.747C182.977 111.401 180.227 107.772 176.6 105.204C172.135 102.042 165.947 99.7472 160.498 99.2772C156.351 98.9197 151.019 100.975 150.66 105.774C150.501 107.883 151.608 110.692 152.988 112.28C153.572 112.953 154.295 113.31 155.168 113.463C155.73 113.561 156.303 113.541 156.864 113.655C157.888 113.863 158.549 114.45 159.261 115.163C161.03 116.935 162.845 117.847 165.254 118.189C165.066 118.345 164.881 118.506 164.698 118.676C161.814 121.386 159.995 126.343 162.834 129.754C165.932 133.478 172.575 132.374 176.687 131.609C179.126 131.156 182.172 130.645 184.232 129.165C185.938 127.94 186.532 125.79 186.747 123.796C187.025 121.235 186.514 118.503 184.725 116.556V116.558Z" fill="#58867B"/>
<path d="M213.972 97.2703C211.33 91.1626 204.07 94.6139 200.269 97.5552C195.953 100.895 193 105.731 191.952 111.034C191.137 112.309 190.503 113.675 190.275 115.225C189.921 117.645 190.893 120.287 193.161 121.443C195.503 122.638 197.812 121.318 199.611 119.797C202.327 117.501 205.17 115.337 207.842 112.993C212.05 109.302 216.508 103.134 213.972 97.2717V97.2703Z" fill="#58867B"/>
<path d="M176.344 87.4507C173.471 84.0293 169.789 81.3415 165.422 80.0397C161.241 78.7933 152.363 78.1424 151.115 83.9837C150.551 86.626 152.433 88.8964 154.306 90.4917C155.223 91.2737 156.264 92.1781 157.397 92.6126C158.219 92.9288 159.018 92.7921 159.851 93.0128C160.795 93.2621 161.443 93.9216 162.106 94.5967C162.908 95.4143 163.68 96.2889 164.741 96.776C166.251 97.4683 168.162 97.4797 169.787 97.709C172.739 98.1249 176.634 99.3427 179.503 98.0693C184.904 95.6736 180.541 89.6627 176.342 87.4507H176.344Z" fill="#58867B"/>
<path d="M181.586 75.3193C180.477 72.7441 178.913 69.639 176.497 68.0479C174.248 66.5666 170.901 65.2633 168.202 65.5012C165.967 65.6977 162.961 67.048 161.986 69.1974C161.429 70.4224 161.551 71.72 162.128 72.8139C162.265 75.2382 164.46 76.6127 166.42 77.8462C168.673 79.2649 170.428 81.7646 173.07 82.5167C175.41 83.1819 178.312 82.4241 180.307 81.0923C182.542 79.5996 182.582 77.6325 181.588 75.3208L181.586 75.3193Z" fill="#58867B"/>
<path d="M209.284 72.8993C206.554 68.1035 198.762 73.6201 195.894 75.4789C193.358 77.1226 190.965 79.1538 189.556 81.8786C188.254 84.394 187.821 87.2057 187.568 90.0046C187.202 91.0914 187.006 92.2166 187.12 93.3675C187.34 95.5853 188.602 97.3985 191.005 96.9156C193.977 96.3203 196.782 94.4558 199.22 92.7479C201.545 91.1213 203.919 89.4477 205.972 87.4792C207.795 85.7315 209.392 83.6362 210.043 81.1578C210.682 78.7193 210.563 75.1441 209.284 72.8993Z" fill="#58867B"/>
<path d="M202.239 50.1308C201.172 49.8018 199.998 49.8374 198.749 50.3131C199.002 49.1408 199.302 47.9885 199.386 46.9815C199.522 45.325 199.962 42.9762 198.366 41.8922C194.876 39.5221 189.764 41.9763 187.157 44.5359C183.581 48.0498 183.178 53.092 183.628 57.8779C183.89 60.6668 185.028 63.0925 186.961 64.6565C186.925 64.6978 186.892 64.7434 186.863 64.7975C185.722 66.8586 184.094 70.579 185.123 72.9535C185.962 74.8878 188.864 74.553 190.527 74.3793C195.991 73.8095 200.979 70.9209 204.173 66.4526C207.311 62.0627 208.888 56.9706 205.273 52.3613C204.408 51.2589 203.382 50.484 202.236 50.1294L202.239 50.1308Z" fill="#58867B"/>
<path d="M172.072 51.293C170.072 49.4584 167.478 49.3132 164.954 48.836C160.969 48.0825 157.514 45.5015 153.38 45.9004C151.06 46.124 148.486 47.0057 146.862 48.7577C145.094 50.6635 145.52 53.055 146.589 55.2186C147.607 57.2811 149.231 59.1954 151.538 59.7837C152.88 60.1256 154.253 59.9831 155.621 59.9589C157.535 59.9261 158.892 60.4589 160.577 61.2907C162.824 62.3989 164.879 62.8333 167.268 61.8362C169.354 60.9659 171.981 59.5629 173.249 57.6044C174.633 55.4636 173.86 52.9325 172.073 51.293H172.072Z" fill="#58867B"/>
<path d="M168.396 37.9082C165.97 35.8272 162.952 34.4755 159.7 34.1892C157.967 34.0368 156.336 34.4086 156.01 36.3429C155.585 38.8526 156.427 41.9976 157.978 43.9889C159.69 46.1881 162.8 46.9829 165.435 47.3191C167.658 47.6025 170.359 47.6281 172.155 46.0528C176.004 42.677 171.969 39.1118 168.396 37.9068V37.9082Z" fill="#58867B"/>
<path d="M202.205 26.9905C202.06 24.5235 200.469 22.3869 198.205 21.4326C195.762 20.4028 193.234 21.1207 191.109 22.5365C188.898 24.0093 186.964 25.9379 185.363 28.0716C182.405 30.0429 180.439 33.5084 180.694 37.1463C180.864 39.572 182.043 40.6032 184.446 40.4864C185.568 40.4323 186.723 40.3141 187.748 39.8184C189.208 39.1105 189.754 37.5152 191.162 36.766C192.434 36.0894 193.981 36.0039 195.344 35.5923C196.591 35.2162 197.774 34.6465 198.818 33.8631C200.963 32.255 202.369 29.7125 202.208 26.9891L202.205 26.9905Z" fill="#58867B"/>
<path d="M205.202 102.767C203.376 103.696 202.188 105.235 201.132 106.949C199.625 109.397 198.365 111.494 196.039 113.283C194.058 114.807 192.516 116.345 191.511 118.677C190.97 119.932 190.605 121.241 190.327 122.573C189.821 120.658 189.267 118.755 188.685 116.858C187.52 113.062 186.899 109.44 186.723 105.475C186.645 103.69 186.431 101.965 186.118 100.253C188.5 96.4171 190.985 92.6496 193.602 88.9691C195.02 86.9735 196.392 84.8071 198.224 83.1591C199.888 81.6635 201.941 80.7091 203.551 79.1366C204.061 78.6381 203.279 77.8547 202.768 78.3532C201.093 79.9898 198.923 80.9684 197.223 82.5736C195.603 84.1006 194.341 86.0406 193.053 87.8395C190.524 91.3734 188.112 94.987 185.8 98.6662C185.595 97.7304 185.366 96.7946 185.11 95.8516C184.175 92.4175 183.308 89.0389 183.529 85.4466C183.71 82.4896 184.091 79.6622 183.969 76.7494C185.5 73.1173 188.823 70.6545 192.072 68.5237C193.599 67.5209 194.952 66.5879 195.97 65.0368C197.277 63.0484 198.315 60.8435 199.457 58.7596C199.801 58.1343 198.845 57.5745 198.502 58.2012C197.319 60.3577 196.264 62.6951 194.855 64.7135C193.482 66.6805 191.13 67.7459 189.232 69.1333C187.102 70.6887 185.135 72.4734 183.789 74.6784C183.789 74.6727 183.789 74.6684 183.788 74.6627C183.57 73.0517 183.286 71.4479 182.982 69.8483C184.339 66.1207 185.739 62.3718 187.89 59.0174C189.72 56.1615 192.632 53.7871 193.209 50.2917C193.324 49.5952 192.257 49.2947 192.14 49.9969C191.528 53.7059 188.104 56.3923 186.268 59.5487C184.755 62.1482 183.623 64.9414 182.574 67.7573C182.356 66.6563 182.136 65.5567 181.926 64.4571C181.14 60.325 180.347 56.1943 179.569 52.0608C179.22 50.2077 178.897 48.3531 178.679 46.4929C180.139 42.4406 182.7 38.9452 185.442 35.625C188.79 31.5698 192.063 27.7696 197.597 27.1015C198.295 27.0175 198.304 25.9093 197.597 25.9948C191.934 26.6785 188.547 30.1725 185.058 34.3616C182.533 37.3926 180.114 40.5476 178.465 44.1057C178.361 42.3808 178.377 40.6487 178.58 38.9039C178.61 38.6503 178.397 38.421 178.214 38.2658C176.7 36.9781 176.373 36.4739 176.373 36.4739L174.079 32.9372C174.079 32.9372 174.161 35.3786 174.692 36.5166C174.97 37.1092 175.324 37.6633 175.757 38.1561C176.109 38.5563 176.873 38.9993 177.029 39.4423C177.261 40.0989 176.892 41.7227 176.897 42.4221C176.904 43.3636 176.959 44.3037 177.043 45.2409C177.063 45.4688 177.089 45.6953 177.115 45.9232C176.757 45.3192 176.29 44.8236 175.329 44.3962C173.495 43.5815 171.48 43.4092 169.553 42.9277C168.573 42.6827 167.593 42.3679 166.74 41.8124C165.657 41.1074 164.918 40.022 163.872 39.2771C162.644 38.4025 161.385 38.1333 159.992 38.7315C159.34 39.0121 159.903 39.9665 160.551 39.6873C162.781 38.7301 164.291 41.3894 165.743 42.462C166.789 43.2354 168.004 43.6784 169.258 43.9946C170.667 44.3492 172.117 44.5202 173.514 44.9218C174.749 45.2765 175.824 45.6511 176.502 46.8989C177.212 48.205 177.623 49.6052 177.885 51.0566C178.592 54.9608 179.361 58.855 180.103 62.7521C177.827 59.8535 174.041 58.4192 170.705 56.7598C168.353 55.5889 166.218 53.9623 163.684 53.1846C160.716 52.2744 157.495 51.9212 154.449 51.3458C153.752 51.2147 153.454 52.2816 154.154 52.414C156.682 52.8912 159.225 53.327 161.743 53.8541C164.475 54.4252 166.589 55.8026 168.993 57.1187C173.242 59.4447 179.02 60.8534 180.616 66.0538C181.064 67.5152 181.356 68.978 181.638 70.4836C181.959 72.2014 182.242 73.9263 182.436 75.6626C182.493 76.1754 182.577 76.7351 182.542 77.2508C182.433 78.8318 182.45 80.4499 182.302 82.0651C181.121 79.4115 179.149 77.473 176.579 75.8834C175.126 74.9846 174.314 73.4021 172.968 72.3467C171.493 71.1887 169.849 70.7072 167.999 70.9579C167.296 71.0533 167.596 72.1202 168.294 72.0262C172.196 71.4977 173.29 75.1683 176.022 76.8405C177.565 77.7849 178.993 78.9443 180.073 80.4072C180.772 81.353 181.459 82.4355 181.814 83.6006C182.21 84.9039 181.972 86.1517 182.007 87.4806C182.103 91.0244 183.229 94.4159 184.11 97.8187C184.343 98.7217 184.516 99.6205 184.654 100.521C184.647 100.534 184.638 100.545 184.631 100.558C182.745 97.0894 179.832 94.2378 176.196 92.5642C173.394 91.2737 170.62 90.6384 168.234 88.5745C166.421 87.0049 164.637 85.4594 162.07 85.9864C161.373 86.1289 161.669 87.1971 162.365 87.0547C165.347 86.4437 167.183 89.4932 169.409 90.8834C171.269 92.0457 173.441 92.5528 175.431 93.4345C178.421 94.7591 181.035 96.9968 182.855 99.7088C183.719 100.996 184.439 102.427 184.842 103.929C185.363 105.875 185.292 107.915 185.528 109.902C185.994 113.816 187.419 117.515 188.473 121.292C188.81 122.502 189.116 123.717 189.408 124.936C187.149 122.651 183.309 121.278 180.325 121.654C178.605 121.872 177.531 121.576 175.893 121.371C175.048 121.265 174.208 121.268 173.363 121.371C171.178 121.638 169.245 122.566 167.583 123.989C167.04 124.453 167.826 125.234 168.366 124.772C169.97 123.398 171.946 122.533 174.068 122.41C175.799 122.311 177.415 123.143 179.109 123.01C180.382 122.91 181.388 122.707 182.678 122.957C183.453 123.108 184.224 123.306 184.973 123.554C186.958 124.209 189.081 125.493 189.94 127.504C190.555 128.947 190.652 130.836 190.904 132.375C191.202 134.2 191.451 136.032 191.652 137.869C192.049 141.498 192.257 145.148 192.279 148.798C192.284 149.748 193.761 149.75 193.754 148.798C193.71 141.598 192.967 134.415 191.478 127.369C191.324 126.641 191.159 125.917 190.988 125.195C191.299 123.071 191.7 120.933 192.58 118.978C193.697 116.495 195.594 115.105 197.643 113.435C200.956 110.736 201.877 105.703 205.764 103.726C206.4 103.402 205.84 102.446 205.206 102.77L205.202 102.767Z" fill="#456664"/>
<path d="M190.848 5.38702C190.126 1.50561 185.968 -1.03689 182.2 0.411693C179.065 1.61814 177.164 4.91698 175.994 8.39102C175.909 8.33974 175.825 8.28846 175.735 8.24288C173.536 7.10339 170.843 7.63325 168.838 8.9451C166.357 10.5689 164.746 13.2552 163.094 15.6411C159.505 20.8201 159.042 25.925 163.675 30.8206C167.549 34.9128 175.1 38.2743 178.551 32.0555C179.79 29.8221 179.981 27.2155 179.977 24.6872C181.32 25.2954 182.809 25.4535 184.15 24.6103C186.042 23.421 187.379 21.2588 188.273 19.2647C189.23 17.1253 189.79 14.8391 190.261 12.5516C190.742 10.2228 191.291 7.76429 190.849 5.38702H190.848Z" fill="#58867B"/>
<path d="M176.369 36.4767C175.654 35.4853 172.051 30.2294 171.915 26.8337C171.759 22.8939 172.098 18.8758 172.45 14.9545C172.514 14.2451 171.406 14.2494 171.343 14.9545C170.977 19.0467 170.501 23.364 170.841 27.4704C171.106 30.6724 173.972 34.3202 174.515 36.1092C174.721 36.7886 176.784 37.0493 176.371 36.4781L176.369 36.4767Z" fill="#456664"/>
<path d="M179.249 22.1703C177.941 20.4383 177.067 18.9014 176.644 16.7463C176.199 14.4844 176.242 12.1941 176.669 9.935C176.802 9.23848 175.735 8.94079 175.601 9.64016C175.177 11.8821 175.09 14.1412 175.46 16.4002C175.886 18.9983 176.748 20.6804 178.293 22.7287C178.718 23.2899 179.679 22.7387 179.249 22.1703Z" fill="#456664"/>
<path d="M183.259 11.8608C181.864 16.735 182.663 21.914 181.072 26.7512C179.651 31.0713 177.148 35.088 177.502 39.7942C177.554 40.5007 178.406 40.6417 178.48 39.9309C178.919 35.6549 180.981 30.8961 182.329 26.4549C183.743 21.7958 182.991 16.8262 184.327 12.1543C184.524 11.4677 183.455 11.1743 183.259 11.8594V11.8608Z" fill="#456664"/>
<path d="M197.945 51.2987C196.06 56.5319 193.477 61.8633 188.079 64.1736C187.425 64.4528 187.989 65.4071 188.637 65.1293C194.299 62.7065 197.035 57.0788 199.012 51.5936C199.254 50.9227 198.185 50.6321 197.944 51.2987H197.945Z" fill="#456664"/>
<path d="M182.574 115.88C179.983 114.645 177 115.089 174.234 115.36C171.368 115.639 168.588 116.199 166.035 117.578C165.408 117.917 165.967 118.872 166.594 118.533C168.974 117.247 171.562 116.727 174.234 116.467C176.736 116.223 179.674 115.72 182.015 116.835C182.655 117.14 183.217 116.186 182.574 115.88Z" fill="#456664"/>
<path d="M177.51 113.551C174.619 111.403 171.655 109.254 168.535 107.446C165.801 105.862 162.349 105.926 159.284 105.56C158.578 105.476 158.585 106.584 159.284 106.667C160.985 106.871 162.688 107.057 164.388 107.278C166.206 107.514 167.483 108.083 169.015 109.047C171.734 110.759 174.374 112.589 176.953 114.505C177.526 114.931 178.079 113.97 177.512 113.549L177.51 113.551Z" fill="#456664"/>
<path d="M109.741 68.2274L199.101 67.0522L198.317 124.273L195.572 197.956L181.856 204.228L103.078 203.835L109.741 68.2274Z" fill="white"/>
<path d="M52.9713 193.004C52.9713 193.004 50.0642 200.812 52.6195 201.768C55.1748 202.722 58.8597 203.537 57.6589 193.361C56.4582 183.184 52.9713 193.004 52.9713 193.004Z" fill="#225262"/>
<path d="M24.3683 194.797C24.3683 194.797 20.5824 202.219 23.0095 203.463C25.438 204.706 29.0047 205.94 28.9833 195.691C28.9619 185.444 24.3683 194.797 24.3683 194.797Z" fill="#225262"/>
<path d="M25.7173 201.909C25.7173 201.909 22.494 198.811 20.816 202.239C19.1381 205.668 18.02 208.457 28.1416 208.075C38.2646 207.695 44.0988 207.803 41.5292 205.464C38.9597 203.125 27.9635 202.46 25.7159 201.907L25.7173 201.909Z" fill="#393939"/>
<path d="M54.6265 199.96C54.6265 199.96 51.4031 196.862 49.7252 200.291C48.0473 203.719 46.9292 206.508 57.0508 206.126C67.1723 205.745 73.008 205.854 70.4384 203.515C67.8688 201.177 56.8727 200.511 54.6251 199.959L54.6265 199.96Z" fill="#393939"/>
<path d="M108.077 44.7209C108.077 44.7209 87.3197 63.3873 88.7212 65.4085C90.1242 67.4297 91.4817 67.6889 92.9331 66.2289C94.3831 64.7675 110.248 46.5669 110.248 46.5669L108.076 44.7209H108.077Z" fill="#F2A832"/>
<path d="M96.7253 46.0528C96.7253 46.0528 104.672 56.2555 110.443 57.5873C112.842 58.1414 120.058 50.2603 118.955 47.7321C118.149 45.8832 106.311 33.5895 103.198 34.8387C100.083 36.0893 94.5673 42.9348 96.7253 46.0528Z" fill="#393939"/>
<path d="M59.5514 57.3608C59.5514 57.3608 63.7932 55.069 72.3722 63.8944C80.9512 72.7212 83.7045 76.4032 85.7214 74.1171C88.0616 71.4649 99.2316 63.1623 107.553 60.5058C112.602 58.8934 120.456 61.6667 119.827 62.7521C118.331 65.3302 110.07 63.0156 109.342 63.8417C99.0122 75.5472 90.2338 83.1661 87.0746 84.5065C76.9886 88.7824 61.876 74.345 58.6712 68.0735C55.4664 61.802 57.4804 57.5987 59.55 57.3637L59.5514 57.3608Z" fill="#F5C89F"/>
<path d="M82.8655 87.4421C81.9995 87.1686 80.9882 86.7527 79.8174 86.2385C78.5668 85.6773 77.1552 84.9708 75.5357 84.1532C74.268 83.5123 73.0331 82.7901 71.8466 82.0195C71.8309 82.0038 71.8152 82.0038 71.8152 82.0038C70.7569 81.3144 69.73 80.5923 68.7514 79.8388C68.2216 79.4371 67.7245 79.0369 67.2274 78.6195C66.7616 78.235 66.3129 77.849 65.8642 77.4487C64.7575 76.4702 63.6992 75.4432 62.7206 74.402C61.1011 72.6699 59.6725 70.9052 58.486 69.1404C57.7482 68.0493 57.1072 66.9753 56.5773 65.9327C56.0005 64.7946 55.5347 63.6879 55.2142 62.6452C54.9422 61.7949 54.7655 61.0086 54.7014 60.2551V60.1754C54.6217 59.6142 54.6217 59.053 54.6687 58.5388V58.4903C54.7655 57.5916 55.0376 56.7896 55.4863 56.1002C55.6942 55.7954 55.9349 55.5063 56.2241 55.2342C56.3039 55.1545 56.4007 55.0733 56.4976 55.0263H56.5132C57.1072 54.5776 57.8279 54.4166 58.6626 54.4651C58.8392 54.4651 59.0315 54.4964 59.2395 54.5292C59.513 54.5619 59.8164 54.6417 60.1212 54.7215C60.1212 54.7215 60.1368 54.7215 60.1368 54.7371C60.5385 54.8497 60.9544 54.9935 61.3874 55.1858C63.024 55.8752 64.8515 57.0147 66.7288 58.3935C66.7773 58.4262 66.8257 58.4576 66.8727 58.4903C67.498 58.9561 68.1247 59.4375 68.7657 59.9503C68.8939 60.0472 69.0221 60.1426 69.1503 60.2395C70.0647 60.9773 70.9635 61.7479 71.8608 62.517C71.8922 62.5327 71.9093 62.5655 71.9406 62.5811C73.224 63.6879 74.4745 64.8103 75.661 65.8857C77.2492 67.3286 78.7092 68.676 79.927 69.7671C81.0979 70.7941 82.0437 71.596 82.686 71.9962C83.1675 72.301 83.4723 72.3808 83.5677 72.2042C84.5463 70.408 86.3752 72.9904 86.3752 72.9904C86.4877 73.6642 86.5988 74.3051 86.7113 74.9304C86.8879 76.0372 87.0646 77.0798 87.2241 78.0427C88.5559 86.3197 88.3636 89.2382 82.8612 87.4421H82.8655Z" fill="#F6805F"/>
<path d="M51.0436 55.1488C51.0436 55.1488 55.7483 54.0933 61.6095 64.9171C67.4708 75.7409 69.4792 80.6336 71.2539 78.1552C73.2822 75.3236 82.609 63.8189 89.4389 58.3736C96.0893 53.0706 101.349 60.5528 99.5633 62.1139C91.6324 69.0407 91.6068 62.0071 89.9217 65.541C81.055 84.1433 73.7509 93.4829 70.2882 92.2522C58.2523 87.9748 48.672 72.1244 47.2903 65.2177C45.9087 58.3109 48.9868 54.8126 51.0436 55.1488Z" fill="#FBD3AE"/>
<path d="M66.8101 70.7599C66.7616 71.096 66.7146 71.482 66.6662 71.915C66.5694 72.6372 66.4582 73.4705 66.3457 74.3849C66.2019 75.3307 66.0566 76.3577 65.8643 77.4487C65.8002 77.8333 65.7361 78.2193 65.6563 78.6196C65.1436 81.3942 64.4057 84.5065 63.299 87.6016C63.091 88.1956 62.866 88.7881 62.6253 89.3821C62.4002 89.9433 62.1595 90.5045 61.9031 91.05C60.8448 93.376 59.513 95.6052 57.8935 97.5623C57.1557 98.4439 56.3538 99.2786 55.4877 100.032C55.1673 100.321 54.8297 100.593 54.4935 100.85C51.9909 102.758 48.9599 104.106 45.2707 104.57C45.1098 104.601 44.9503 104.619 44.7736 104.634C43.9076 104.73 43.0088 104.762 42.0787 104.762C40.6999 104.747 39.2243 104.617 37.6675 104.361C36.4482 104.168 35.1648 103.895 33.8174 103.526C33.8174 103.526 33.8658 102.724 33.994 101.313C34.202 99.1319 34.5709 95.4741 35.2289 91.0629C35.3899 89.9561 35.5822 88.7853 35.7745 87.5817C36.2872 84.5991 36.8969 81.3586 37.6675 78.0697C37.9082 77.0271 38.1646 75.9688 38.438 74.9105C38.599 74.2852 38.7585 73.6599 38.9351 73.0332C39.7057 70.2585 40.6031 67.773 41.5973 65.5595C41.7896 65.1265 41.9819 64.7092 42.1913 64.2918V64.2761C42.4163 63.8104 42.657 63.3774 42.8977 62.9444C43.4433 61.9331 44.0201 61.0029 44.5984 60.154V60.1384C46.2991 57.6357 48.1437 55.7912 50.0039 54.589H50.0196C51.5921 53.562 53.1475 53.0008 54.6716 52.9367C55.5063 52.8883 56.3082 52.9852 57.0944 53.2259C57.6229 53.3854 58.1527 53.6105 58.6499 53.8825C58.8108 53.9466 58.986 54.0278 59.147 54.1232C59.4845 54.2999 59.805 54.5078 60.1255 54.7172C60.1255 54.7172 60.1412 54.7172 60.1412 54.7329C60.3335 54.8611 60.5257 55.0049 60.7195 55.1659C62.6765 56.6743 64.3117 58.8066 65.4185 61.2935C65.5951 61.6952 65.7717 62.0954 65.9156 62.5284C66.3172 63.6352 66.6221 64.806 66.7972 66.0082C67.0052 67.5479 67.038 69.1518 66.8129 70.7556L66.8101 70.7599Z" fill="#F6805F"/>
<path d="M66.835 46.1126C66.835 46.1126 67.201 54.1261 72.088 56.0746C76.9751 58.0231 77.3981 49.7732 80.1443 50.3743C82.2523 50.8358 82.2823 49.2918 82.3506 46.3405C82.419 43.3892 85.8133 39.0733 83.8277 35.4569C81.8421 31.839 69.1097 26.6015 66.835 46.114V46.1126Z" fill="#FBD3AE"/>
<path d="M67.2472 44.5458C67.2472 44.5458 64.2418 48.2306 60.6068 53.1803C58.6284 55.8738 65.8969 62.5968 68.3027 58.5502C70.7099 54.5035 73.7153 51.4098 72.3892 49.6237C71.0631 47.8375 67.2458 44.5458 67.2458 44.5458H67.2472Z" fill="#FBD3AE"/>
<path d="M69.6879 41.321C69.6879 41.321 71.692 42.6371 72.5623 40.4336C73.4326 38.2315 75.0735 33.7675 77.9963 36.3841C80.9191 39.0007 87.1122 41.4506 87.8643 37.6888C88.6149 33.9271 84.7549 36.1847 82.8477 34.276C80.9404 32.3674 79.1115 27.8009 74.79 29.2979C70.4699 30.7949 69.356 28.9617 67.5485 30.9601C65.741 32.9571 62.9891 45.295 65.6612 46.3262C67.2124 46.9244 68.3974 43.0402 69.6879 41.3224V41.321Z" fill="#393939"/>
<path d="M70.2875 41.66C70.2875 41.66 67.5855 37.2003 65.7722 41.0105C64.3635 43.9689 67.5299 46.9586 68.3845 46.6054C69.2406 46.2521 70.2875 41.66 70.2875 41.66Z" fill="#FBD3AE"/>
<path d="M78.8391 53.1233C78.8391 53.1233 80.5954 50.8443 79.3063 49.6251C78.0187 48.4058 76.1826 50.2376 74.6443 48.2819C73.106 46.3262 70.649 41.9207 68.84 44.9047C67.0325 47.8888 66.3046 51.2545 67.7603 54.975C69.2175 58.6955 77.8748 60.4389 78.8391 53.1233Z" fill="#393939"/>
<path d="M79.1378 44.7067C79.3401 44.1327 79.1763 43.5515 78.7718 43.4091C78.3673 43.2666 77.8744 43.6156 77.6736 44.1896C77.4713 44.7637 77.6351 45.3448 78.0396 45.4872C78.4442 45.6297 78.937 45.2807 79.1378 44.7067Z" fill="#393939"/>
<path d="M78.4194 42.4448C79.0761 42.4776 81.0474 42.6556 80.9976 41.9449C80.9377 41.0888 77.3326 41.2369 77.3754 41.8622C77.4181 42.4875 78.1203 42.4306 78.4194 42.4448Z" fill="#393939"/>
<path d="M66.8745 58.4903C66.9386 59.7253 65.7036 61.0086 65.4629 61.2493C65.4316 61.2821 65.4145 61.2978 65.4145 61.2978C64.2593 64.1052 60.65 56.9349 59.576 55.1388C59.5119 55.0106 59.4478 54.9137 59.3994 54.8496C59.3196 54.7371 59.2712 54.6417 59.2384 54.5291C59.1743 54.401 59.1416 54.2557 59.1416 54.1275C59.1102 53.3412 59.8794 52.5721 60.489 51.9624C60.5859 51.8656 60.6813 51.7858 60.7938 51.7217C61.3237 51.3528 61.8521 51.3841 62.382 51.6733C63.4246 52.2516 64.4188 53.7899 65.2364 55.2342C65.8147 56.2284 66.2791 57.1756 66.6166 57.7041C66.7292 57.8964 66.8089 58.0886 66.8403 58.2824C66.8559 58.3465 66.8559 58.4106 66.8716 58.4903H66.8745Z" fill="#F6805F"/>
<path d="M69.2805 60.0785C69.2492 60.1426 69.2007 60.191 69.1523 60.2395C69.0398 60.399 68.8959 60.5443 68.752 60.6725V60.6881C67.6453 61.651 65.9289 62.0199 65.4646 61.2493C65.3207 61.0243 65.288 60.7195 65.4005 60.3035C65.4005 60.3035 65.9133 59.2296 66.7323 58.3949C66.7807 58.3636 66.8121 58.3308 66.8448 58.2824C67.3747 57.7696 68.0157 57.3679 68.7221 57.3679C68.7706 57.3679 68.8176 57.3679 68.866 57.3836C70.2619 57.4804 69.8445 59.2609 69.2833 60.0785H69.2805Z" fill="#F6805F"/>
<path d="M71.8466 77.4003C71.8466 77.802 71.8466 78.2022 71.8309 78.5868C71.8309 79.7263 71.8153 80.8644 71.8153 82.0039V82.6933C71.7027 84.6176 71.5432 86.2699 71.3338 87.6173C71.1259 89.093 70.8367 90.2325 70.4678 91.0657H70.4521C70.2599 91.4987 70.0505 91.852 69.7941 92.1083C69.4095 91.9801 69.0406 91.8192 68.6717 91.6597C68.27 91.4674 67.8698 91.2751 67.4681 91.0814C65.6549 90.1356 63.9072 88.9648 62.2549 87.6016C60.859 86.4792 59.5287 85.2272 58.2937 83.9125C57.0901 82.6448 55.9677 81.3145 54.9408 79.967C54.5562 79.4856 54.1873 78.9885 53.8497 78.4914C52.9039 77.1767 52.0536 75.8606 51.2986 74.5772C49.2931 71.2086 47.93 68.0322 47.3845 65.7233C47.336 65.5638 47.3047 65.4028 47.2719 65.259C47.0953 64.4086 46.9999 63.591 46.9515 62.8375C46.6466 57.5446 49.229 54.9138 51.0252 55.2029C51.0252 55.2029 52.421 54.8824 54.6502 56.3581C55.7726 57.0959 57.12 58.3152 58.6114 60.2722C59.1241 60.946 59.654 61.6995 60.1839 62.5655C60.6496 63.3033 61.114 64.0896 61.5954 64.9712C61.7877 65.3074 61.9643 65.645 62.1409 65.9811C64.0183 69.4623 65.4768 72.2854 66.6477 74.3863C67.4652 75.8463 68.139 76.953 68.7329 77.7065C69.0534 78.1082 69.3426 78.4116 69.6146 78.6053C70.0804 78.9101 70.4963 78.9258 70.8823 78.5896C70.9948 78.5099 71.123 78.3646 71.2355 78.2051C71.3951 77.98 71.5888 77.708 71.8452 77.4031L71.8466 77.4003Z" fill="#FBD3AE"/>
<path d="M72.0876 76.9673C72.0719 77.5285 72.0392 78.0584 72.0235 78.5868C71.9751 79.8217 71.9281 80.9612 71.8469 82.0195C71.8469 82.2603 71.8312 82.4853 71.8155 82.6933C71.703 84.6176 71.5435 86.2699 71.3341 87.6173C71.1262 89.093 70.837 90.2325 70.4681 91.0657H70.4524C70.0037 92.0756 69.4255 92.6211 68.6563 92.718C67.6778 92.8775 66.4101 92.3163 64.7265 91.0657H64.7108C64.0855 90.6014 63.3947 90.0387 62.6255 89.3821C62.0159 88.8522 61.3578 88.2597 60.6684 87.6173C60.0588 87.0404 59.4178 86.4137 58.727 85.7571C58.5661 85.6132 58.4222 85.4523 58.2612 85.2913C57.0904 84.1361 55.9993 82.9169 54.9738 81.6663V81.6506C54.1078 80.608 53.3059 79.534 52.5837 78.4586C51.6849 77.1752 50.8987 75.8762 50.1936 74.5929C48.4929 71.5134 47.3221 68.4652 46.7452 65.7062C46.5202 64.712 46.392 63.7491 46.3435 62.8518C46.1356 59.2752 47.1611 56.5005 49.6637 55.2485C50.3702 54.8952 51.091 54.7357 51.7974 54.7357C51.9584 54.7514 52.1023 54.7514 52.2632 54.7685H52.3587C53.1292 54.8653 53.8984 55.1374 54.6519 55.5704C54.941 55.7143 55.2131 55.8909 55.4866 56.0988C56.5605 56.8367 57.6032 57.8636 58.6302 59.0501C59.5289 60.1084 60.4106 61.2949 61.2453 62.547C61.9988 63.6694 62.7053 64.8245 63.379 65.9954H63.3947C64.6139 68.0806 65.7207 70.1503 66.6665 71.9136C67.1636 72.8437 67.6293 73.6941 68.0139 74.3992C68.2703 74.8478 68.511 75.2495 68.7204 75.57C69.2659 76.4517 69.6662 76.8847 69.8912 76.6767C70.8854 75.7138 71.5435 76.1796 71.8483 76.597C72.0093 76.7892 72.089 76.9659 72.089 76.9659L72.0876 76.9673Z" fill="#F6805F"/>
<path d="M95.6492 64.9926C95.531 64.9926 95.4142 64.9413 95.3345 64.8402C94.779 64.1394 94.1708 63.4685 93.5298 62.8475C93.3703 62.6937 93.366 62.4401 93.5198 62.2806C93.6765 62.1225 93.93 62.1182 94.0867 62.2706C94.7533 62.9159 95.3843 63.6124 95.9626 64.3417C96.1008 64.5154 96.0709 64.7676 95.8971 64.9043C95.823 64.9627 95.7361 64.9912 95.6478 64.9912L95.6492 64.9926Z" fill="#F7BC94"/>
<path d="M97.1336 63.3759C96.9884 63.3759 96.8502 63.2962 96.7776 63.1594C96.4599 62.5441 96.0112 61.9843 95.4814 61.5385C95.3119 61.396 95.2891 61.1425 95.4315 60.9744C95.574 60.8035 95.8261 60.7807 95.9956 60.9246C96.6052 61.4374 97.1222 62.0826 97.4897 62.7891C97.5923 62.9856 97.5154 63.2278 97.3188 63.3303C97.259 63.3603 97.1963 63.3745 97.1336 63.3745V63.3759Z" fill="#F7BC94"/>
<path d="M98.5386 62.507C98.3975 62.507 98.2608 62.4315 98.1882 62.2991C97.8449 61.6766 97.4389 61.0884 96.9803 60.5471C96.8364 60.379 96.8578 60.1255 97.0259 59.9831C97.1954 59.8406 97.4489 59.8591 97.5899 60.0286C98.0828 60.6084 98.52 61.2422 98.889 61.9117C98.9958 62.1054 98.926 62.3489 98.7309 62.4558C98.6696 62.4899 98.6027 62.5056 98.5371 62.5056L98.5386 62.507Z" fill="#F7BC94"/>
<path d="M66.8361 42.8892C66.7934 42.8892 66.7506 42.8821 66.7079 42.8678C66.4985 42.7966 66.3846 42.5687 66.4558 42.3593C66.7449 41.5005 67.1723 41.0147 67.7263 40.915C68.5567 40.7683 69.2419 41.5731 69.3174 41.6657C69.4569 41.8366 69.4313 42.0887 69.2604 42.2283C69.0895 42.3679 68.8374 42.3423 68.6963 42.1713C68.581 42.0317 68.1921 41.6386 67.8674 41.7041C67.6295 41.7483 67.3987 42.0716 67.215 42.6172C67.158 42.7838 67.0028 42.8892 66.8347 42.8892H66.8361Z" fill="#F7BC94"/>
<path d="M58.6913 84.7116C58.5845 84.7116 58.4762 84.6689 58.3979 84.5834C54.9167 80.833 51.9426 76.6354 49.5568 72.1073C49.4543 71.9108 49.5283 71.6686 49.7249 71.5647C49.9229 71.4635 50.1636 71.5347 50.2676 71.7327C52.6206 76.1981 55.5534 80.3388 58.9862 84.0379C59.1371 84.2002 59.1272 84.4538 58.9648 84.6048C58.8879 84.6774 58.7896 84.7116 58.6927 84.7116H58.6913Z" fill="#D16445"/>
<path d="M67.6679 72.9292C67.5269 72.9292 67.3901 72.8551 67.3175 72.7227C66.4443 71.143 65.4245 69.6346 64.2836 68.2387C64.1425 68.0678 64.1682 67.8157 64.3391 67.6747C64.51 67.5351 64.7621 67.5593 64.9032 67.7317C66.0754 69.1646 67.1238 70.7129 68.0183 72.3352C68.1251 72.5289 68.0553 72.7725 67.8616 72.8808C67.8003 72.915 67.7334 72.9306 67.6679 72.9306V72.9292Z" fill="#D16445"/>
<path d="M55.3047 52.9282C56.8245 53.082 58.1862 53.3925 59.4012 53.7871C59.7672 53.9053 60.0649 54.146 60.27 54.4708C61.2429 56.0162 64.0432 61.0001 64.2554 67.4596C63.9663 66.9781 63.6942 66.481 63.4051 65.9996H63.3894C62.7157 64.8288 62.0106 63.6736 61.2557 62.5512C60.6133 61.5883 59.9567 60.6739 59.283 59.825C58.642 56.3125 57.3586 53.7614 55.3047 52.9282Z" fill="#393939"/>
<path d="M66.7246 58.157C66.8371 58.2539 66.9326 58.3493 67.0294 58.4291C68.3612 59.6484 71.2313 63.5141 69.532 76.6183C69.3241 76.4744 69.0506 76.1055 68.7301 75.5757C68.5222 75.2552 68.2814 74.8535 68.0236 74.4048C67.847 74.0844 67.6547 73.7311 67.4468 73.3465C67.9923 73.3309 68.7458 63.883 66.7246 58.157Z" fill="#393939"/>
<path d="M70.414 157.474C68.2162 168.606 66.6451 188.014 65.4102 191.43C64.2237 194.701 52.3843 194.699 48.0101 194.34C46.1869 194.19 44.8138 191.74 48.9217 174.46C53.1863 156.521 50.6537 136.943 50.6537 136.943C44.5432 151.779 41.0207 178.496 36.2904 192.793C34.923 196.926 23.7616 195.753 20.0084 195.523C14.5488 195.19 21.9897 170.177 25.5663 155.741C29.1586 141.289 28.8723 114.407 31.711 102.842C32.4004 100.035 39.8826 102.126 47.0615 99.0735C52.0325 96.9597 54.7759 91.6468 57.0534 84.0122C57.438 84.4452 57.8397 84.8782 58.2727 85.2956C58.4336 85.4551 58.5775 85.6161 58.7385 85.7599C59.4278 86.418 60.0702 87.0433 60.6799 87.6201C61.3693 88.2611 62.0273 88.8551 62.637 89.3849C63.4075 90.043 64.0969 90.6042 64.7222 91.0685H64.7379C66.1167 92.0955 67.2078 92.6567 68.1065 92.7365C68.0752 114.021 72.213 148.378 70.4169 157.473L70.414 157.474Z" fill="#393939"/>
<path d="M26.2329 190.276C26.0179 190.276 25.8398 190.106 25.8313 189.89C25.8241 189.668 25.9965 189.483 26.2173 189.474C27.72 189.42 29.2213 189.203 30.6784 188.832C30.8963 188.777 31.1114 188.906 31.1655 189.121C31.2211 189.336 31.0915 189.554 30.8764 189.608C29.3637 189.995 27.8054 190.219 26.2458 190.276H26.2315H26.2329Z" fill="#2B2929"/>
<path d="M56.3938 188.336C55.8996 188.336 55.4025 188.306 54.9096 188.246C54.6903 188.219 54.5336 188.02 54.5607 187.8C54.5877 187.58 54.7928 187.429 55.0065 187.451C56.975 187.692 58.9791 187.417 60.8094 186.657C61.0102 186.573 61.2481 186.669 61.3335 186.873C61.4176 187.078 61.3207 187.312 61.117 187.397C59.6186 188.02 58.0105 188.337 56.3938 188.337V188.336Z" fill="#2B2929"/>
<path d="M40.4035 112.098C40.2611 112.098 40.1229 112.021 40.0503 111.887C39.9449 111.692 40.0175 111.448 40.2127 111.344C43.5001 109.575 46.6252 107.476 49.501 105.099C49.6691 104.956 49.9212 104.982 50.065 105.153C50.2061 105.324 50.1818 105.576 50.0109 105.718C47.0952 108.127 43.926 110.258 40.593 112.051C40.5317 112.084 40.4676 112.098 40.4021 112.098H40.4035Z" fill="#2B2929"/>
<path d="M63.8266 103.962C63.4762 103.962 63.1258 103.939 62.7725 103.889C62.029 103.782 61.4707 103.553 61.0661 103.188C60.25 102.453 60.1446 101.28 60.1517 100.23C60.1688 97.1734 60.5462 94.1181 61.2727 91.1468C61.3254 90.9318 61.5405 90.7993 61.757 90.8534C61.972 90.9061 62.1045 91.1226 62.0504 91.3377C61.3396 94.2477 60.9693 97.2403 60.9522 100.234C60.9465 101.15 61.022 102.07 61.6017 102.593C61.8837 102.848 62.3039 103.012 62.8851 103.096C64.5103 103.331 66.2038 102.879 67.698 102.485C67.9131 102.425 68.131 102.556 68.188 102.77C68.245 102.983 68.1168 103.204 67.9031 103.26C66.644 103.593 65.2495 103.963 63.8237 103.963L63.8266 103.962Z" fill="#2B2929"/>
<path d="M51.909 137.091C51.8776 137.091 51.8434 137.087 51.8107 137.079C51.5956 137.024 51.466 136.806 51.5201 136.593C52.3676 133.237 53.7307 130.051 55.5724 127.121C55.6907 126.933 55.9428 126.877 56.1251 126.994C56.3131 127.111 56.3687 127.359 56.2519 127.547C54.4543 130.405 53.1239 133.515 52.2978 136.788C52.2522 136.969 52.0884 137.091 51.909 137.091Z" fill="#2B2929"/>
<path d="M90.0602 217.112C90.0602 217.112 88.0276 219.285 86.3312 223.079C84.6334 226.872 78.8575 223.622 81.7761 221.102C84.6946 218.582 86.5748 218.672 88.4578 216.06C88.4578 216.06 88.6757 215.702 89.5588 216.249C90.442 216.796 90.0602 217.112 90.0602 217.112Z" fill="#393939"/>
<path d="M89.0693 216.006C89.0693 216.006 90.6575 214.628 90.733 214.225C90.8085 213.822 91.6318 212.312 94.0731 209.552L94.3566 211.493C94.3566 211.493 91.7343 214.705 91.3213 214.982C90.9082 215.258 90.0992 216.751 90.0992 216.751L89.0693 216.004V216.006Z" fill="#D4EBCD"/>
<path d="M69.1858 211.696C69.1858 211.696 66.2559 212.086 62.5269 213.956C58.7979 215.826 56.5702 209.586 60.3903 209.494C64.2105 209.401 65.5622 210.677 68.6659 209.848C68.6659 209.848 69.0605 209.709 69.3695 210.701C69.6772 211.694 69.1858 211.697 69.1858 211.697V211.696Z" fill="#F6805F"/>
<path d="M69.1592 210.197C69.1592 210.197 71.5778 210.1 73.0534 208.918C73.3767 208.659 87.666 205.588 91.2839 205L91.7112 207.94C91.7112 207.94 73.9821 211.335 73.5192 211.177C71.6191 210.529 69.1051 211.294 69.4483 211.439L69.1592 210.197Z" fill="#225262"/>
<path d="M107.066 64.2804L100.121 205.391C100.121 206.047 100.755 206.578 101.538 206.578H185.952C186.734 206.578 198.675 199.879 198.675 199.224L204.196 65.4939C204.196 64.8387 193.681 63.0939 192.897 63.0939H108.484C107.7 63.0939 107.066 63.6252 107.066 64.2804ZM190.215 198.247L106.867 200.177C106.084 200.177 105.45 199.645 105.45 198.99L112.496 70.5191C112.496 69.8639 113.13 69.3312 113.913 69.3312L197.161 69.391C197.943 69.391 198.578 69.9223 198.578 70.5789L191.633 197.06C191.633 197.715 190.997 198.247 190.215 198.247Z" fill="#F2A832"/>
<path d="M127.096 35.7061L124.437 39.3297C123.79 40.2099 125.262 41.0574 125.901 40.1857L128.561 36.5621C129.207 35.6819 127.736 34.8344 127.096 35.7061Z" fill="#F2A832"/>
<path d="M126.961 44.3008C128.823 43.9931 130.637 43.5017 132.401 42.828C133.411 42.442 132.972 40.8025 131.949 41.1928C130.186 41.8665 128.371 42.3579 126.51 42.6656C125.436 42.8436 125.891 44.4774 126.961 44.3008Z" fill="#F2A832"/>
<path d="M120.411 33.4784C120.283 35.4882 120.343 37.4951 120.591 39.495C120.723 40.5632 122.421 40.5775 122.287 39.495C122.039 37.4966 121.979 35.4896 122.108 33.4784C122.177 32.3888 120.481 32.393 120.411 33.4784Z" fill="#F2A832"/>
</g>
<defs>
<clipPath id="clip0_40_1140">
<rect width="240.253" height="224.813" fill="white"/>
</clipPath>
</defs>
</svg>
