<svg width="301" height="287" viewBox="0 0 301 287" fill="none" xmlns="http://www.w3.org/2000/svg">
<g clip-path="url(#clip0_1050_13989)">
<path d="M82.9536 200.042C79.2461 196.885 75.2238 194.279 71.054 191.909C58.3971 182.055 39.1708 169.988 37.1941 183.019C35.8468 191.929 49.1724 197.534 55.437 200.396C59.7641 202.373 64.2879 203.986 68.9101 205.077C72.421 205.903 78.6068 207.723 82.1177 206.375C83.3765 205.893 84.0551 204.969 84.1436 203.641L84.1731 203.219C84.2125 202.579 84.0649 202.068 83.7994 201.665C83.7404 201.084 83.4945 200.514 82.9536 200.062V200.042Z" fill="#578481"/>
<path d="M117.767 182.334C121.574 179.298 124.901 175.848 128.024 172.208C140.115 161.667 155.634 145.101 143.221 140.671C134.733 137.646 126.684 149.655 122.678 155.257C119.91 159.126 117.463 163.259 115.508 167.587C114.026 170.875 111.058 176.6 111.71 180.303C111.942 181.631 112.72 182.474 114.006 182.814L114.416 182.924C115.036 183.085 115.566 183.038 116.012 182.854C116.593 182.907 117.2 182.775 117.748 182.33L117.767 182.334Z" fill="#578481"/>
<path d="M116.853 189.224C110.893 196.285 105.199 203.553 99.6916 210.968C99.6818 210.614 99.1704 195.931 98.9737 190.267C97.7837 155.895 96.6528 121.524 95.4038 87.1627C95.335 85.3728 92.5518 85.363 92.6108 87.1627C93.7319 121.534 94.9711 155.905 96.161 190.267L96.6921 205.52C93.4369 202.383 87.1626 196.266 86.4348 195.636C82.0683 191.82 77.5838 188.133 73.001 184.573C71.6144 183.491 69.6376 185.428 71.044 186.53C77.4757 191.604 94.0958 207.723 96.82 209.336L97.9214 241.13C98.5115 258.242 100.026 275.639 98.8753 292.751C98.7573 294.561 101.56 294.551 101.688 292.751C102.839 276.092 101.363 259.176 100.783 242.507C100.469 233.479 100.164 224.451 99.8489 215.433C105.907 207.143 112.25 199.088 118.82 191.191C119.95 189.824 118.013 187.857 116.853 189.224Z" fill="#578481"/>
<path d="M68.3691 172.919C66.2449 168.542 63.6093 164.54 60.7278 160.694C53.0865 146.592 40.3214 127.828 33.28 138.96C28.4709 146.582 38.4332 157.066 43.0259 162.199C46.1925 165.74 49.6936 169.034 53.4897 171.886C56.381 174.05 61.308 178.2 65.0648 178.367C66.4121 178.426 67.4054 177.865 68.0151 176.675L68.2118 176.302C68.5068 175.731 68.5757 175.2 68.4872 174.718C68.674 174.158 68.6642 173.538 68.3593 172.909L68.3691 172.919Z" fill="#578481"/>
<path d="M135.104 187.677C139.968 187.59 144.708 186.883 149.409 185.887C165.417 184.887 187.81 181.2 180.673 170.129C175.781 162.56 162.08 167.188 155.491 169.194C150.947 170.578 146.485 172.368 142.301 174.612C139.121 176.325 133.284 179.049 131.552 182.387C130.931 183.584 131.022 184.721 131.845 185.775L132.101 186.111C132.495 186.618 132.948 186.904 133.422 187.027C133.852 187.432 134.418 187.684 135.117 187.672L135.104 187.677Z" fill="#578481"/>
<path d="M82.8747 174.728C84.0744 170.008 84.635 165.248 84.9202 160.459C88.1754 144.753 90.516 122.173 77.9574 126.156C69.3622 128.88 70.2178 143.317 70.4243 150.201C70.562 154.951 71.1127 159.721 72.1748 164.353C72.9812 167.874 74.0827 174.217 76.8461 176.774C77.8296 177.688 78.9606 177.895 80.1899 177.384L80.5832 177.216C81.1733 176.971 81.5667 176.607 81.8125 176.194C82.3141 175.889 82.7075 175.407 82.8845 174.728H82.8747Z" fill="#578481"/>
<path d="M127.36 200.075C131.137 203.149 135.22 205.66 139.445 207.934C152.324 217.494 171.824 229.116 173.493 216.047C174.638 207.104 161.181 201.806 154.848 199.098C150.481 197.224 145.923 195.718 141.273 194.733C137.74 193.983 131.522 192.314 128.04 193.745C126.797 194.253 126.133 195.192 126.08 196.522L126.066 196.949C126.041 197.588 126.206 198.098 126.477 198.495C126.543 199.078 126.814 199.638 127.356 200.084L127.36 200.075Z" fill="#578481"/>
<path d="M90.0333 103.763C87.8304 99.4261 85.1358 95.4628 82.1953 91.6668C74.3278 77.6921 61.248 59.1345 54.3934 70.3949C49.7122 78.0953 59.8417 88.4116 64.5228 93.4665C67.7485 96.9577 71.2987 100.193 75.1538 102.986C78.0747 105.101 83.0804 109.172 86.8371 109.28C88.1844 109.32 89.1679 108.739 89.7579 107.539L89.9448 107.166C90.23 106.595 90.289 106.054 90.2005 105.582C90.3775 105.022 90.3579 104.402 90.0432 103.773L90.0333 103.763Z" fill="#578481"/>
<path d="M98.256 98.2951C100.459 93.9581 103.154 89.9949 106.094 86.1988C113.962 72.2241 127.041 53.6666 133.896 64.927C138.577 72.6273 128.448 82.9436 123.766 87.9985C120.541 91.4897 116.991 94.7252 113.135 97.5182C110.215 99.6326 105.209 103.704 101.452 103.812C100.105 103.852 99.1214 103.271 98.5314 102.072L98.3445 101.698C98.0593 101.127 98.0003 100.587 98.0888 100.114C97.9118 99.5539 97.9315 98.9344 98.2462 98.305L98.256 98.2951Z" fill="#578481"/>
<path d="M96.8986 84.0353C98.0984 79.3148 98.6589 74.5549 98.9441 69.7655C102.199 54.06 104.54 31.4802 91.9814 35.4631C83.3861 38.1872 84.2417 52.6242 84.4482 59.5082C84.5859 64.2583 85.1366 69.028 86.1987 73.66C87.0052 77.1807 88.1066 83.5239 90.8701 86.0808C91.8535 86.9954 92.9845 87.202 94.2138 86.6906L94.6072 86.5234C95.1972 86.2775 95.5906 85.9136 95.8365 85.5006C96.338 85.1957 96.7314 84.7138 96.9084 84.0353H96.8986Z" fill="#578481"/>
<path d="M101.097 329.188C85.1848 329.188 71.8592 317.15 70.2365 301.327L66.9321 269.08H135.281L131.977 301.327C130.354 317.15 117.019 329.188 101.117 329.188H101.097Z" fill="#DADAEA"/>
<path d="M255.455 124.532C254.97 123.667 254.432 122.828 253.698 122.186C253.292 121.832 252.82 121.53 252.335 121.294C251.877 121.058 251.339 120.823 250.854 120.731C249.347 120.456 248.01 121.806 248.22 123.522C248.325 124.322 248.784 124.99 249.151 125.672C249.662 126.629 250.16 127.585 250.671 128.542C250.789 128.778 251.012 128.975 251.261 129.132C251.234 130.574 250.671 132.028 250.278 133.391C249.688 135.423 249.518 137.402 249.662 139.512C249.74 140.613 249.806 141.74 249.963 142.854C249.898 143.064 249.858 143.287 249.898 143.522C250.147 145.279 250.055 147.048 249.937 148.804C249.806 150.652 249.662 152.487 249.531 154.335C249.452 155.357 250.579 156.301 251.549 156.222C251.955 156.183 252.296 156.065 252.584 155.855C252.637 155.855 252.676 155.855 252.715 155.855C253.777 155.934 255.061 156.065 256.097 155.764C257.067 155.475 257.722 154.584 257.735 153.588C257.735 153.077 257.591 152.631 257.407 152.159C257.014 151.163 256.674 150.141 256.372 149.119C255.73 146.891 255.389 145.121 255.179 142.906C255.101 142.081 254.524 141.294 253.725 141.085C253.685 140.665 253.646 140.233 253.607 139.8C253.528 138.713 253.423 137.585 253.567 136.498C253.712 135.397 254.078 134.322 254.393 133.26C254.747 132.068 255.022 130.888 255.101 129.695C255.324 129.551 255.52 129.368 255.691 129.145C256.202 128.49 256.398 127.507 256.28 126.642C256.175 125.842 255.835 125.213 255.455 124.532Z" fill="#ECAE82"/>
<path d="M262.27 135.934C262.532 136.235 262.44 136.655 262.598 137.009C263.345 138.673 263.515 139.931 264.603 141.491C266.831 144.663 268.653 145.488 266.333 147.834C262.283 151.91 246.398 165.239 243.489 167.074C242.781 167.52 240.357 164.623 241.064 164.178C241.156 164.125 241.248 164.06 241.339 163.994C241.3 163.929 241.274 163.876 241.261 163.811C241.077 163.942 240.894 164.086 240.71 164.217C240.658 164.256 240.606 164.296 240.566 164.322C239.937 164.768 239.282 163.745 239.806 163.26C240.291 162.802 240.802 162.33 241.3 161.871C240.907 162.146 240.527 162.448 240.134 162.71C240.068 162.749 240.029 162.789 239.976 162.828C239.531 163.129 239.033 162.684 239.007 162.238C238.98 162.251 238.954 162.277 238.928 162.304C238.312 162.723 237.578 161.688 238.168 161.242C238.207 161.216 238.246 161.177 238.286 161.137C238.155 161.006 238.063 160.849 238.063 160.665C238.024 160.613 237.997 160.547 237.971 160.495C237.316 161.019 236.425 160.076 237.08 159.538C239.452 157.585 243.83 153.378 245.389 150.678C246.713 148.372 247.526 145.816 248.64 143.418C249.937 140.652 253.987 136.655 256.215 137.297C256.726 137.441 256.818 138.018 256.477 138.411C254.8 140.338 253.528 142.356 252.48 144.65C255.088 144.086 256.831 141.15 257.919 139.682C258.954 138.267 258.744 136.445 260.422 135.659C261.222 135.279 261.628 135.253 262.27 135.986V135.934Z" fill="#ECAE82"/>
<path d="M199.608 361.059C199.32 343.68 200.29 326.223 199.176 308.857C196.961 274.532 188.062 240.128 182.754 206.144C182.321 203.392 181.325 202.946 179.241 203.916C177.97 200.351 172.387 200.154 171.574 203.968C169.359 202.474 165.362 204.034 165.1 207.114C165.1 207.258 165.087 207.389 165.073 207.533C164.366 207.966 163.737 208.647 163.33 209.578C163.199 209.879 163.094 210.194 162.963 210.495C160.342 209.25 156.935 211.753 157.393 214.964C157.524 215.895 157.642 216.839 157.76 217.769C156.528 217.061 154.916 216.891 153.671 217.441C152.924 215.082 149.398 214.296 147.354 215.633C147.354 215.384 147.367 215.148 147.38 214.899C147.472 210.508 140.879 209.892 139.53 213.89C139.385 214.309 139.254 214.728 139.11 215.148C139.189 212.671 139.28 210.207 139.346 207.73C139.385 206.052 138.35 204.899 137 204.375C138.009 195.213 126.056 191.858 120.329 197.441C120.198 197.494 120.08 197.586 119.962 197.651C118.835 198.162 117.996 199.158 117.917 200.652C117.524 201.911 119.739 202.802 119.857 203.916C116.921 222.278 110.683 241.347 112.138 259.879C113.868 281.819 115.834 303.601 116.607 325.607C117.393 347.887 117.878 370.207 119.739 392.435C120.145 397.376 120.29 412.592 120.853 417.507C121.325 421.583 121.81 429.958 126.24 430.22C136.292 430.823 133.697 430.784 140.539 429.565C142.426 429.224 143.383 427.494 143.474 425.908C145.44 390.6 153.488 305.79 155.82 271.452C161.679 304.165 173.606 392.71 181.889 424.952C182.295 426.564 184.025 427.743 185.742 427.73C191.325 427.717 192.544 427.848 198.114 427.835C200.159 427.835 202.269 426.105 202.112 424.047C200.762 406.118 199.897 379.001 199.595 361.033L199.608 361.059Z" fill="#2C294C"/>
<path d="M208.626 153.601C213.017 134.833 213.567 134.388 203.279 119.198C199.321 113.365 186.713 103.208 168.967 101.059C149.845 96.1569 132.48 101.95 118.98 117.271C114.327 122.553 122.27 126.275 121.562 132.802C120.645 141.281 119.753 149.774 118.875 158.267C118.037 166.393 115.913 186.327 115.166 194.453C114.629 200.364 110.854 234.637 108.05 251.871C107.054 258.018 114 250.928 146.923 247.861C164.157 246.262 193.672 252.448 192.204 245.462C188.993 230.233 189.963 200.587 191.654 193.994C192.532 190.574 193.371 187.153 194.223 183.732C198.561 200.141 246.556 166.498 247.709 165.921C251.641 163.981 242.296 146.983 238.692 148.188C235.088 149.394 203.227 176.734 208.64 153.601H208.626Z" fill="#D9924E"/>
<path d="M145.978 100.456C111.915 103.09 102.964 131.268 93.239 152.526C89.1106 161.53 85.5326 171.95 95.0084 178.817C104.497 185.698 115.978 181.36 125.598 177.205C128.088 176.131 126.725 172.238 124.261 172.277C123.803 172.277 123.344 172.291 122.872 172.304C123.881 170.941 123.698 169.289 122.243 168.28C122.046 168.149 121.863 168.057 121.679 167.939C121.103 167.284 120.225 166.851 119.347 166.956C119.766 165.96 120.264 164.977 120.67 164.073C122.138 160.783 123.907 157.716 125.873 154.702C127.289 152.526 124.995 150.482 122.99 150.862C124.484 148.66 125.965 146.432 127.42 144.204C129.058 141.675 125.873 139.486 123.724 140.744C124.864 138.948 126.004 137.153 127.145 135.37C127.983 134.06 127.485 132.802 126.529 132.081C126.673 131.858 126.83 131.648 126.974 131.425C127.852 130.102 127.368 128.87 126.398 128.175C128.101 126.117 129.818 124.06 131.522 122.002C133.318 119.84 131.181 116.943 128.98 117.559C128.704 117.245 128.35 116.996 127.944 116.838C133.776 112.317 140.185 108.726 147.105 106.747C150.343 105.816 149.36 100.193 145.991 100.456H145.978Z" fill="#D9924E"/>
<path d="M164.628 72.0283C169.176 71.4909 173.711 71.0191 178.272 70.6915C178.678 70.6653 179.045 70.6915 179.399 70.7701C181.719 70.9667 183.986 73.1685 182.964 76.1174C179.163 87.0087 178.953 93.8108 176.293 105.069C175.1 110.102 156.135 106.039 156.411 103.981C157.459 96.1306 159.556 83.3651 161.168 75.5932C161.522 73.8763 162.793 72.2511 164.628 72.0283Z" fill="#ECAE82"/>
<path d="M170.854 97.0349C169.229 95.2787 166.831 94.4661 165.35 92.5526C163.685 90.3901 163.725 85.5146 167.565 86.4582C168.01 86.5762 168.299 86.8645 168.469 87.2053C170.121 87.6378 172.1 89.394 173.358 90.5867C173.607 90.4294 173.921 90.3376 174.21 90.3901C175.756 90.6522 178.024 88.8566 179.36 90.2459C178.784 93.1948 177.63 99.0008 177.054 101.963C176.346 101.924 175.638 101.727 175.009 101.386C173.148 100.39 172.257 98.529 170.881 97.0349H170.854Z" fill="#EC8E48"/>
<path d="M161.758 41.124C164.786 37.7951 169.897 41.5828 174.052 41.4648C178.953 41.3337 182.859 37.9392 185.493 41.9366C188.757 45.3311 191.824 48.8829 191.981 53.8108C192.282 62.8934 191.876 77.8475 187.656 85.7899C184.327 92.0677 179.91 94.1123 176.581 93.824C171.024 93.339 165.86 88.1097 162.846 84.571C161.208 82.6444 158.521 78.5422 157.905 76.419C154.366 64.2302 152.728 51.0192 161.745 41.1109L161.758 41.124Z" fill="#ECAE82"/>
<path d="M172.047 71.9366C172.047 72.8147 172.505 73.5094 173.069 73.5094C173.633 73.5094 174.078 72.8016 174.065 71.9235C174.065 71.0454 173.606 70.3508 173.043 70.3508C172.479 70.3508 172.034 71.0585 172.047 71.9366Z" fill="#2C294C"/>
<path d="M187.487 72.1464C187.487 73.0245 187.945 73.7191 188.509 73.7191C189.072 73.7191 189.518 73.0114 189.505 72.1333C189.505 71.2552 189.046 70.5605 188.483 70.5605C187.919 70.5605 187.474 71.2683 187.487 72.1464Z" fill="#2C294C"/>
<path d="M179.176 79.3022C180.421 78.3586 180.225 76.3927 179.845 75.0689C179.609 74.2695 180.814 73.7976 181.063 74.6102C181.653 76.5106 181.693 79.0663 179.936 80.3638C179.255 80.8619 178.508 79.8134 179.176 79.3022Z" fill="#A04B40"/>
<path d="M174.903 63.719C174.798 63.719 174.562 63.6928 174.549 63.6928C172.203 63.5355 169.595 63.1554 167.524 64.4922C167 64.833 167.17 65.7242 167.852 65.7242C169.608 65.7242 171.377 65.7111 173.134 65.698C174.012 65.698 175.309 66.0257 175.899 65.2262C176.03 65.0558 176.135 63.8107 174.89 63.719H174.903Z" fill="#2C294C"/>
<path d="M185.572 64.2433C185.677 64.2433 185.912 64.2302 185.926 64.2302C188.285 64.1384 190.893 63.837 192.924 65.2394C193.448 65.5932 193.239 66.4844 192.57 66.4582C190.814 66.4058 189.045 66.3403 187.289 66.2878C186.41 66.2616 185.1 66.5631 184.536 65.7374C184.418 65.5539 184.34 64.3219 185.585 64.2564L185.572 64.2433Z" fill="#2C294C"/>
<path d="M193.463 47.5067C192.519 43.8108 191.851 40.508 189.007 37.7164C186.477 35.2262 182.742 33.8107 179.19 34.0204C177.552 34.1122 176.74 34.6495 175.245 35.2917C171.995 36.6941 170.501 35.9864 167.172 35.4752C161.274 34.5709 157.854 38.5159 157.578 43.2865C152.27 46.4189 151.812 52.6836 152.205 58.5945C152.572 64.2695 152.899 73.9025 157.316 78.0834C157.971 78.7125 158.653 79.3285 159.151 78.6339C160.488 76.7728 159.872 74.4792 160.147 72.3036C160.488 69.6037 159.4 69.5775 161.523 66.5762C161.864 66.0913 162.467 66.183 162.886 65.4884C164.747 62.4215 165.521 58.4504 166.11 54.6102C174.079 53.3521 179.846 57.4805 187.159 59.4857C190.003 60.2721 193.607 60.6129 195.468 57.7819C197.578 54.5709 194.262 50.6522 193.463 47.5067Z" fill="#2C294C"/>
<path d="M162.386 66.196C164.038 66.4582 165.231 69.1187 163.553 68.8828C160.014 68.3979 160.892 73.8894 161.39 75.0034C162.177 76.7465 163.094 78.411 164.09 80.0493C164.955 81.4647 162.95 83.1292 162.033 81.6875C160.158 78.7256 157.734 74.9772 157.537 71.3599C157.38 68.4503 159.215 65.7111 162.373 66.2092L162.386 66.196Z" fill="#EC8E48"/>
<path d="M182.374 83.7453C181.47 84.204 180.448 84.8462 179.439 85.0559C178.298 85.2918 177.394 84.9641 176.385 84.5578C176.254 84.5054 176.149 84.4661 176.044 84.4268C175.795 84.335 175.612 84.4006 175.467 84.5316C175.441 84.4923 175.415 84.453 175.389 84.4137C174.982 83.6666 173.855 84.335 174.248 85.0821C176.11 88.5946 182.06 88.4111 183.344 84.5185C183.541 83.9419 182.859 83.5225 182.374 83.7715V83.7453Z" fill="#BA3D2D"/>
<path d="M182.741 83.6535C182.964 83.6535 183.108 83.7321 183.226 83.8239C183.004 84.5316 182.807 84.9903 181.955 85.318C180.959 85.6981 179.622 85.685 178.587 85.6719C177.224 85.6588 175.258 85.4097 174.432 84.2302C174.537 84.1384 174.655 84.0598 174.812 84.0336C177.447 83.5749 180.068 83.5093 182.741 83.6535Z" fill="white"/>
<path d="M193.057 67.8475C190.763 66.7466 187.591 66.8515 184.931 67.533C182.231 68.2276 182.506 69.1451 182.427 69.9052C180.986 69.4072 179.452 69.2892 177.958 69.6038C177.945 68.7781 177.958 67.6772 175.586 66.9301C172.978 66.1044 169.846 65.7768 167.5 66.7204C164.184 68.0572 164.564 72.0808 166.359 74.6234C167.867 76.7729 172.703 77.402 175.049 76.6287C177.146 75.9341 177.867 73.4439 177.958 71.1634C177.958 71.0979 177.958 71.0192 177.958 70.9406C179.452 70.6261 180.907 70.7178 182.349 71.2683C182.349 71.3862 182.349 71.5042 182.349 71.609C182.283 73.8895 182.847 76.419 184.891 77.2578C187.172 78.1883 192.047 77.8607 193.686 75.8161C195.639 73.3915 196.281 69.4072 193.057 67.8475ZM173.542 75.5278C171.497 75.7375 168.207 75.2394 167.146 73.3521C166.87 72.6968 166.556 72.0415 166.464 71.3338C166.228 69.5776 166.779 68.9747 167.486 68.1883C168.325 67.4413 170.081 67.5723 171.13 67.5854C173.043 67.5985 174.839 67.9262 176.53 68.765C176.53 68.8174 176.53 68.8567 176.53 68.9092C176.962 71.3993 176.661 75.2001 173.555 75.5278H173.542ZM193.804 72.5265C193.659 73.2211 193.306 73.8502 192.991 74.4924C191.812 76.301 188.483 76.5894 186.464 76.2486C183.371 75.7113 183.332 71.8974 183.922 69.4465C183.922 69.3941 185.481 68.765 186.268 68.6339C187.277 68.4635 188.325 68.4242 189.4 68.4898C190.448 68.5422 192.218 68.5291 193.004 69.3285C193.646 70.1542 194.158 70.8095 193.817 72.5396L193.804 72.5265Z" fill="#2C294C"/>
<path d="M176.162 196.681C181.915 178.621 187.918 160.639 194.17 142.749C194.419 142.015 193.737 141.399 193.147 141.19C179.32 136.367 165.795 130.849 152.505 124.702C152.06 124.492 151.653 124.571 151.312 124.768C150.736 124.728 150.12 125.004 149.936 125.737C145.415 143.483 134.786 179.958 134.628 180.298C134.405 180.77 134.432 181.53 134.917 181.871C146.778 190.233 160.854 193.68 174.589 197.704C175.323 197.913 175.952 197.31 176.149 196.681H176.162Z" fill="#DADAEA"/>
<path d="M114.012 166.485C113.999 166.314 128.652 161.491 128.743 161.308C130.46 158.254 133.986 156.72 136.961 155.135C138.783 154.178 140.762 153.247 142.636 152.395C142.636 152.789 141.928 156.485 142.099 156.445C148.193 155.043 154.261 154.073 160.473 155.279C161.535 155.488 161.378 156.943 160.303 156.943C155.821 156.917 151.43 157.363 147.118 158.228H147.289C147.38 158.254 147.472 158.28 147.551 158.319C153.003 157.913 159.582 157.009 164.471 159.171C165.231 159.512 165.139 160.862 164.3 160.77C160.867 160.416 158.14 160.587 155.087 160.469C152.859 160.39 150.604 160.377 148.376 160.561C148.507 160.796 148.639 161.045 148.77 161.294C153.697 160.98 159.412 160.613 163.789 162.723C164.405 163.011 164.602 164.27 163.829 164.27C162.033 164.27 159.097 164.335 156.922 164.243C154.602 164.139 152.295 164.139 149.975 164.165C150.133 164.65 150.251 165.135 150.329 165.62C154.012 165.58 157.656 165.869 161.299 166.563C161.915 166.681 162.269 167.336 161.889 167.887C161.483 168.477 157.996 168.699 156.253 168.66C154.235 168.608 142.819 170.679 140.735 170.692C138.756 170.718 137.184 170.81 135.257 170.521C132.859 170.154 120.906 173.234 118.507 173.47C117.695 173.549 113.645 166.799 114.025 166.485H114.012Z" fill="#ECAE82"/>
<path d="M177.747 100.914C177.708 100.534 177.341 100.115 176.909 100.272C176.869 100.285 176.83 100.312 176.791 100.325C176.555 100.298 176.332 100.377 176.201 100.574C172.623 102.068 169.556 104.335 167.144 107.336C166.895 103.195 164.012 99.997 160.486 97.9263C159.53 97.3627 157.721 95.8686 156.568 96.6025C155.939 96.9957 155.572 98.267 155.27 98.8568C154.536 100.325 153.829 101.819 153.147 103.313C152.793 104.073 153.92 104.741 154.274 103.968C154.916 102.566 155.598 101.163 156.292 99.7742C155.742 101.688 155.48 103.627 155.493 105.659C155.493 106.38 156.424 106.511 156.725 105.947C157.066 106.183 157.59 106.118 157.721 105.606L157.813 105.279C157.813 105.41 157.813 105.554 157.8 105.685C157.773 106.052 158.062 106.288 158.389 106.327C158.612 107.022 158.992 107.664 159.543 108.228C159.674 108.451 159.844 108.66 160.054 108.896C160.29 109.145 160.578 109.145 160.801 109.001C161.063 108.909 161.273 108.621 161.312 108.346C161.312 108.267 161.312 108.188 161.312 108.11C161.705 108.634 162.492 108.333 162.544 107.848C162.675 108.031 162.819 108.201 162.95 108.385C163.331 108.909 164.078 108.66 164.182 108.175C164.222 108.241 164.274 108.293 164.313 108.359C164.549 108.726 164.969 108.726 165.257 108.542C165.454 108.778 165.742 108.831 165.991 108.739C166.017 108.778 166.07 108.791 166.109 108.831C165.965 109.42 166.908 109.879 167.341 109.263C167.485 109.053 167.656 108.857 167.8 108.66C167.983 108.791 168.232 108.844 168.507 108.726C168.966 108.516 169.412 108.319 169.87 108.11C169.176 108.582 169.831 109.722 170.539 109.25C170.867 109.027 171.207 108.831 171.548 108.621C171.614 109.027 172.046 109.329 172.518 109.106C173.304 108.739 174.366 108.215 175.034 107.481C174.995 107.743 174.969 107.992 174.929 108.254C174.838 108.896 175.559 109.25 175.952 109.001C175.952 109.04 175.952 109.093 175.952 109.132C175.991 109.84 177.092 110.076 177.249 109.302C177.813 106.524 177.983 103.745 177.747 100.914Z" fill="#D9924E"/>
<path d="M262.623 144.689C262.439 145.318 261.771 145.816 261.116 145.816L247.944 146.602L246.791 145.462C246.581 145.253 246.502 144.938 246.594 144.584L254.667 116.183C254.851 115.554 255.519 115.056 256.175 115.056L269.831 115.148C270.159 115.148 270.421 115.279 270.578 115.488C270.736 115.698 271.797 116.707 271.797 116.707L262.623 144.689Z" fill="#CBCBD3"/>
<path d="M263.882 145.947C263.699 146.576 263.03 147.074 262.375 147.074L248.718 146.983C248.063 146.983 247.67 146.471 247.853 145.842L255.927 117.441C256.11 116.812 256.779 116.314 257.434 116.314L271.09 116.406C271.746 116.406 272.139 116.917 271.956 117.546L263.882 145.947Z" fill="#ABABB7"/>
<path d="M259.635 118.896C259.818 118.306 259.477 117.821 258.888 117.821C258.298 117.821 257.642 118.306 257.459 118.896C257.275 119.486 257.616 119.971 258.206 119.971C258.809 119.971 259.451 119.486 259.635 118.896Z" fill="#20202D"/>
<path d="M270.644 134.178C270.644 134.06 270.618 133.942 270.591 133.824C270.526 133.549 270.421 133.273 270.238 133.038C270.08 132.841 269.884 132.684 269.648 132.566C269.713 132.592 270.408 131.792 270.473 131.688C271.286 130.207 269.91 128.699 268.206 128.595C266.856 128.516 265.546 128.988 264.3 129.446L257.826 131.832C257.013 132.133 256.148 132.461 255.65 133.103C255.1 133.811 255.165 134.768 255.742 135.449C256.083 135.842 256.633 136.118 257.197 136.131C257.629 136.131 258.036 136 258.429 135.855L263.553 134.06L258.966 136.209C258.009 136.655 256.397 137.114 255.69 137.848C254.93 138.634 254.549 139.682 255.165 140.639C255.375 140.954 255.677 141.163 256.017 141.334C255.519 141.701 261.483 139.289 261.024 139.709C260.329 140.338 259.307 140.77 258.481 141.255C257.852 141.635 257.21 142.002 256.594 142.395C256.03 142.762 255.349 143.077 254.877 143.549C254.287 144.125 254.182 145.03 254.943 145.541C256.266 146.432 258.154 146.485 259.7 146.104C260.539 145.895 258.979 147.061 255.808 148.411C252.02 150.036 238.874 163.811 265.572 147.585C265.703 147.507 265.847 147.441 265.978 147.363C267.131 146.72 267.813 146 267.983 144.794C268.154 143.549 268.285 142.291 268.416 141.045C268.455 140.626 268.861 140.351 268.953 139.931C269.032 139.604 268.953 139.276 268.874 138.948L268.586 137.756C268.586 137.756 268.573 137.664 268.586 137.625C268.599 137.585 268.639 137.572 268.678 137.546C270.002 136.825 270.736 135.515 270.591 134.178H270.644Z" fill="#ECAE82"/>
</g>
<defs>
<clipPath id="clip0_1050_13989">
<rect width="301" height="287" fill="white"/>
</clipPath>
</defs>
</svg>
