<svg width="164" height="186" viewBox="0 0 164 186" fill="none" xmlns="http://www.w3.org/2000/svg">
<g clip-path="url(#clip0_61_7810)">
<path d="M81.8313 185.895C127.026 185.895 163.663 181.477 163.663 176.026C163.663 170.575 127.026 166.156 81.8313 166.156C36.6371 166.156 0 170.575 0 176.026C0 181.477 36.6371 185.895 81.8313 185.895Z" fill="#3EB8B2"/>
<path d="M110.752 92.9975C108.663 91.2187 106.397 89.7502 104.047 88.4147C96.9151 82.8621 86.0814 76.0627 84.9676 83.4051C84.2084 88.4257 91.7171 91.5844 95.2471 93.197C97.6853 94.3108 100.234 95.2196 102.839 95.8347C104.817 96.3002 108.303 97.3254 110.281 96.5662C110.99 96.2947 111.373 95.7738 111.423 95.0257L111.439 94.7874C111.462 94.4272 111.378 94.139 111.229 93.9118C111.196 93.5849 111.057 93.2635 110.752 93.0086V92.9975Z" fill="#578481"/>
<path d="M129.854 86.9019C126.496 90.8807 123.287 94.9758 120.184 99.1541C120.179 98.9546 119.89 90.6812 119.78 87.4893C119.109 68.1217 118.472 48.7542 117.768 29.3922C117.729 28.3836 116.161 28.3781 116.194 29.3922C116.826 48.7597 117.524 68.1273 118.195 87.4893L118.494 96.0841C116.66 94.3164 113.124 90.8696 112.714 90.5149C110.254 88.3648 107.727 86.2867 105.144 84.2807C104.363 83.6712 103.249 84.7628 104.042 85.3835C107.666 88.2429 117.031 97.3254 118.566 98.2342L119.187 116.15C119.519 125.792 120.372 135.595 119.724 145.237C119.658 146.257 121.237 146.251 121.309 145.237C121.957 135.85 121.126 126.319 120.799 116.926C120.622 111.839 120.45 106.752 120.273 101.67C123.686 96.9985 127.261 92.46 130.962 88.0102C131.6 87.2399 130.508 86.1316 129.854 86.9019Z" fill="#578481"/>
<path d="M102.534 77.714C101.337 75.2481 99.8522 72.9927 98.2286 70.8259C93.9228 62.8794 86.73 52.3063 82.7623 58.5792C80.0525 62.8739 85.666 68.7811 88.2539 71.6738C90.0382 73.6687 92.011 75.5251 94.15 77.1322C95.7792 78.3513 98.5555 80.6898 100.672 80.784C101.432 80.8173 101.991 80.5014 102.335 79.8309L102.446 79.6203C102.612 79.2989 102.651 78.9997 102.601 78.7281C102.706 78.4123 102.701 78.0631 102.529 77.7085L102.534 77.714Z" fill="#578481"/>
<path d="M110.708 78.7336C111.384 76.0737 111.7 73.3916 111.861 70.6929C113.695 61.8431 115.014 49.1199 107.937 51.3642C103.094 52.8992 103.576 61.0341 103.692 64.9131C103.77 67.5897 104.08 70.2773 104.679 72.8873C105.133 74.8712 105.754 78.4455 107.311 79.8863C107.865 80.4016 108.502 80.518 109.195 80.2298L109.417 80.1356C109.749 79.9971 109.971 79.7921 110.109 79.5593C110.392 79.3875 110.614 79.116 110.713 78.7336H110.708Z" fill="#578481"/>
<path d="M114.743 38.7462C113.501 36.3024 111.983 34.0691 110.326 31.9301C105.893 24.0556 98.5227 13.5988 94.6603 19.9439C92.0225 24.2828 97.7302 30.0959 100.368 32.9442C102.186 34.9114 104.186 36.7346 106.358 38.3084C108.004 39.4998 110.825 41.794 112.942 41.8549C113.701 41.8771 114.255 41.5502 114.587 40.8741L114.693 40.6635C114.853 40.3421 114.887 40.0373 114.837 39.7713C114.937 39.4555 114.926 39.1064 114.748 38.7517L114.743 38.7462Z" fill="#578481"/>
<path d="M119.375 35.6651C120.616 33.2213 122.135 30.9881 123.792 28.8491C128.225 20.9746 135.595 10.5178 139.457 16.8628C142.095 21.2018 136.387 27.0148 133.75 29.8632C131.932 31.8304 129.932 33.6535 127.759 35.2273C126.113 36.4188 123.293 38.7129 121.176 38.7739C120.417 38.7961 119.863 38.4691 119.53 37.793L119.425 37.5825C119.264 37.2611 119.231 36.9563 119.281 36.6903C119.181 36.3744 119.192 36.0253 119.369 35.6707L119.375 35.6651Z" fill="#578481"/>
<path d="M118.61 27.6299C119.286 24.97 119.602 22.2879 119.763 19.5892C121.597 10.7394 122.916 -1.98384 115.839 0.260464C110.996 1.79546 111.478 9.93038 111.595 13.8094C111.672 16.486 111.983 19.1736 112.581 21.7837C113.035 23.7675 113.656 27.3418 115.213 28.7826C115.767 29.2979 116.405 29.4143 117.097 29.1261L117.319 29.0319C117.652 28.8934 117.873 28.6884 118.012 28.4556C118.294 28.2838 118.516 28.0123 118.616 27.6299H118.61Z" fill="#578481"/>
<path d="M128.751 98.345C131.472 98.0236 134.093 97.3586 136.67 96.5385C145.586 95.0755 157.938 91.7451 153.306 85.9431C150.136 81.9754 142.716 85.3391 139.136 86.8353C136.665 87.866 134.265 89.1184 132.043 90.6202C130.358 91.7562 127.239 93.6181 126.452 95.5853C126.169 96.2891 126.285 96.9264 126.806 97.4694L126.973 97.6412C127.222 97.9017 127.493 98.0347 127.759 98.079C128.02 98.2785 128.352 98.3893 128.746 98.345H128.751Z" fill="#578481"/>
<path d="M134.437 85.9321C136.703 84.3915 138.726 82.5961 140.638 80.6843C147.88 75.2813 157.318 66.6421 150.535 63.622C145.897 61.555 140.859 67.9555 138.366 70.9312C136.648 72.9871 135.091 75.2037 133.811 77.5533C132.835 79.3377 130.924 82.4243 131.129 84.5356C131.201 85.2893 131.6 85.7991 132.314 86.0429L132.542 86.1205C132.885 86.2369 133.184 86.2313 133.445 86.1482C133.772 86.2036 134.115 86.1482 134.442 85.9321H134.437Z" fill="#578481"/>
<path d="M120.977 165.768C112.011 165.768 104.502 158.986 103.588 150.069L101.726 131.899H140.239L138.377 150.069C137.463 158.986 129.948 165.768 120.988 165.768H120.977Z" fill="#DADAEA"/>
<path d="M42.9629 105.244L44.243 104.047H130.568V105.244H42.9629Z" fill="#9393AB"/>
<path d="M35.2051 154.048L36.7124 151.654H138.277V154.048H35.2051Z" fill="#9393AB"/>
<path d="M45.4808 88.4302L31.3467 170.258L33.7111 170.666L47.8452 88.8386L45.4808 88.4302Z" fill="#9393AB"/>
<path d="M94.2221 70.1H57.1828C55.9359 70.1 54.9274 69.0914 54.9274 67.8446L54.9274 36.6958C54.9274 35.449 55.9359 34.4404 57.1828 34.4404L94.2221 34.4404C95.469 34.4404 96.4775 35.449 96.4775 36.6958V67.8446C96.4775 69.0914 95.469 70.1 94.2221 70.1Z" fill="#2C294C"/>
<path d="M77.6914 65.1071H71.5957V85.3336H77.6914V65.1071Z" fill="#2C294C"/>
<path d="M82.0749 83.8817H67.9773C66.6473 83.8817 65.5723 84.9568 65.5723 86.2867H84.4799C84.4799 84.9568 83.4048 83.8817 82.0749 83.8817Z" fill="#2C294C"/>
<path d="M42.547 67.3736H41.7158V84.8737H42.547V67.3736Z" fill="#D9924E"/>
<path d="M44.2101 65.2955H43.3789V82.7956H44.2101V65.2955Z" fill="#D9924E"/>
<path d="M46.3619 67.0843L45.541 66.9539L42.7944 84.237L43.6153 84.3675L46.3619 67.0843Z" fill="#D9924E"/>
<path d="M46.2216 76.1236H39.6992L40.3088 86.2867H45.274L46.2216 76.1236Z" fill="#2C294C"/>
<path d="M149.892 86.2867H23.0635V93.1914H149.892V86.2867Z" fill="#DADAEA"/>
<path d="M96.4772 67.839V36.6903C96.4772 35.4434 95.4687 34.4349 94.2218 34.4349H68.1602C69.213 37.1945 70.7924 39.727 72.4049 42.2429C75.0205 46.3325 76.9933 50.5385 78.7666 55.0603C80.8502 60.3691 83.1776 65.8496 86.9126 70.0944H94.2218C95.4687 70.0944 96.4772 69.0859 96.4772 67.839Z" fill="#41406B"/>
<path d="M111.755 36.6515C111.14 35.4158 109.937 34.6399 108.641 34.518L107.438 32.1075C107.144 31.5201 106.457 31.243 105.831 31.4591C105.21 31.6808 104.85 32.3291 104.994 32.972L105.582 35.5765C104.734 36.3855 104.279 37.5548 104.396 38.7573L91.1517 49.4745C90.9688 49.3748 90.7527 49.3138 90.4922 49.3138C88.9739 49.3138 88.7522 51.3254 89.8273 51.9183V84.1089H88.6192C87.4167 84.1089 86.4414 85.0842 86.4414 86.2867H94.4156C94.4156 85.0842 93.4403 84.1089 92.2378 84.1089H91.2126V51.8851C91.6504 51.6136 91.8499 51.1093 91.8277 50.6106L104.756 40.5306L106.745 49.3526L116.377 45.9169L111.749 36.6515H111.755Z" fill="#9393AB"/>
<path d="M95.6682 76.7609C95.7846 77.0047 95.7236 77.2707 95.5296 77.3649L91.6783 79.2213C91.4844 79.3155 91.235 79.1936 91.1186 78.9497L85.8597 68.033C85.7434 67.7892 85.8043 67.5232 85.9983 67.429L89.8496 65.5726C90.0436 65.4784 90.2929 65.6003 90.4093 65.8441L95.6682 76.7609Z" fill="#423D3E"/>
<path d="M95.3855 76.3342C95.5019 76.5724 95.4465 76.8329 95.2747 76.916L92.1825 78.4067C92.0052 78.4898 91.7725 78.3679 91.6561 78.1296L86.7851 68.0108C86.6687 67.7725 86.7242 67.5121 86.8959 67.429L89.9881 65.9383C90.1654 65.8552 90.3982 65.9771 90.5145 66.2154L95.3855 76.3342Z" fill="#8BBCD1"/>
<path d="M131.056 173.377C131.045 171.875 130.84 158.42 130.74 156.52C130.729 156.259 130.552 156.165 130.374 156.193C130.319 156.099 130.236 156.021 130.114 155.993C129.066 155.777 126.595 154.885 126.351 156.653C126.207 157.717 126.573 167.946 126.722 170.584C126.739 170.85 126.75 171.099 126.767 171.343C126.783 173.981 124.938 174.53 123.259 175.932C122.799 176.314 120.998 177.622 120.998 177.622C121.153 177.81 130.496 177.411 131.388 176.192C131.837 176.192 131.056 173.416 131.056 173.377Z" fill="#FCAE92"/>
<path d="M118.161 178.841C120.095 177.683 122.655 175.893 124.041 175.067C125.138 174.413 124.778 177.35 126.03 177.306C127.97 177.239 129.61 176.585 130.835 176.22C130.973 176.181 131.705 175.81 131.849 176.175C132.015 176.585 132.259 176.585 131.877 177.056C131.777 177.167 131.705 177.295 131.655 177.428C131.444 178.004 131.577 178.813 131.622 179.345C131.633 179.489 131.483 179.633 131.345 179.622C131.167 179.611 128.552 179.639 128.374 179.655C128.236 179.667 128.18 179.589 128.164 179.445C128.136 179.229 128.142 178.974 128.131 178.935C126.895 179.135 125.493 179.046 124.49 179.628C123.719 180.071 122.323 180.065 121.475 180.093C120.6 180.115 118.616 180.37 118.117 179.362C118.039 179.201 118.001 178.935 118.161 178.841Z" fill="#2C294C"/>
<path d="M144.212 171.659C144.201 170.157 143.996 156.703 143.896 154.802C143.885 154.541 143.708 154.447 143.531 154.475C143.475 154.381 143.392 154.303 143.27 154.275C142.223 154.059 139.751 153.167 139.507 154.935C139.363 155.999 139.729 166.228 139.879 168.866C139.895 169.132 139.906 169.381 139.923 169.625C139.94 172.263 138.094 172.812 136.415 174.214C135.955 174.596 134.154 175.904 134.154 175.904C134.309 176.092 143.652 175.693 144.545 174.474C144.993 174.474 144.212 171.698 144.212 171.659Z" fill="#FCAE92"/>
<path d="M131.322 177.123C133.256 175.965 135.817 174.175 137.202 173.349C138.299 172.695 137.939 175.632 139.191 175.588C141.131 175.521 142.771 174.868 143.996 174.502C144.134 174.463 144.866 174.092 145.01 174.458C145.176 174.868 145.42 174.868 145.038 175.339C144.938 175.449 144.866 175.577 144.816 175.71C144.605 176.286 144.738 177.095 144.783 177.627C144.794 177.771 144.644 177.915 144.506 177.904C144.328 177.893 141.713 177.921 141.535 177.938C141.397 177.949 141.342 177.871 141.325 177.727C141.297 177.511 141.303 177.256 141.292 177.217C140.056 177.417 138.654 177.328 137.651 177.91C136.881 178.353 135.484 178.348 134.636 178.375C133.761 178.403 131.777 178.652 131.278 177.644C131.201 177.483 131.162 177.217 131.322 177.123Z" fill="#2C294C"/>
<path d="M136.914 105.754C136.953 105.111 136.991 104.463 137.03 103.82C137.124 102.263 134.653 102.052 134.298 103.504C134.088 103.327 133.833 103.216 133.561 103.172C133.118 102.102 131.511 101.82 131.034 103.05C130.369 102.972 129.627 103.305 129.438 104.069C128.834 106.469 128.286 108.874 127.781 111.29C127.831 109.168 127.837 107.04 127.759 104.912C127.704 103.349 125.354 103.105 125.011 104.651C124.734 105.887 124.484 107.128 124.246 108.37V108.264C124.318 106.485 121.558 106.607 121.486 108.375C120.954 121.259 122.672 134.027 122.173 146.911C122.063 149.848 121.957 152.785 122.013 155.722C122.046 157.656 121.974 162.538 122.877 163.164C123.631 163.685 124.379 163.696 125.881 163.629C129.034 163.491 129.377 163.469 132.53 163.33C133.328 163.297 133.827 162.638 133.866 161.884C134.736 143.652 138.061 125.288 138.238 107.04C138.249 106.17 137.595 105.754 136.925 105.754H136.914Z" fill="#CCBE84"/>
<path d="M131.205 103.892C131.942 122.129 134.353 140.959 135.777 159.157C135.838 159.911 136.353 160.554 137.157 160.565C140.316 160.609 142.133 160.039 145.286 160.083C146.783 160.105 148.24 159.761 148.517 158.232C148.689 157.284 148.539 153.511 148.517 151.582C148.478 148.645 148.91 117.585 147.985 104.729C147.858 102.967 145.098 102.928 145.22 104.701V104.806C144.948 103.571 144.66 102.34 144.35 101.11C143.956 99.5752 141.618 99.8911 141.607 101.454C141.596 103.582 141.662 105.71 141.779 107.832C141.202 105.433 140.576 103.044 139.9 100.667C139.684 99.9077 138.936 99.6029 138.271 99.6971C137.755 98.478 136.159 98.8105 135.749 99.8966C135.478 99.9465 135.223 100.068 135.023 100.251C134.624 98.8049 132.164 99.0931 132.303 100.65C132.358 101.293 132.419 101.936 132.48 102.579C131.809 102.601 131.172 103.033 131.205 103.903V103.892Z" fill="#CCBE84"/>
<path d="M87.8496 75.2868C87.8718 75.4531 88.038 75.5362 88.1101 75.6803C88.4481 76.3729 88.8083 76.7664 89.0189 77.5422C89.4456 79.116 90.105 79.1104 91.4959 78.9941C93.9176 78.789 101.587 77.0213 102.967 76.578C103.305 76.4672 103.1 75.9573 102.762 76.0682C102.717 76.0848 102.673 76.0959 102.629 76.107C102.618 76.0792 102.607 76.0571 102.59 76.0349C102.684 76.0128 102.778 75.9906 102.867 75.9629C102.895 75.9573 102.917 75.9518 102.945 75.9463C103.261 75.8631 103.105 75.3755 102.806 75.4087C102.524 75.442 102.235 75.4808 101.953 75.5196C102.147 75.4697 102.346 75.4253 102.54 75.3699C102.573 75.3588 102.596 75.3589 102.618 75.3478C102.839 75.2868 102.823 75.0042 102.69 74.8712C102.706 74.8712 102.717 74.8657 102.734 74.8601C103.039 74.7714 102.9 74.2561 102.596 74.3226C102.573 74.3226 102.551 74.3281 102.529 74.3337C102.529 74.2561 102.496 74.1841 102.435 74.1286C102.424 74.1009 102.418 74.0788 102.402 74.0566C102.751 73.9901 102.684 73.4415 102.335 73.508C101.061 73.7463 98.5059 74.0233 97.2092 73.7961C96.1009 73.6022 95.0536 73.17 93.973 72.8818C92.7206 72.5493 90.3267 72.7821 89.9332 73.6742C89.8445 73.8793 90.0053 74.0677 90.2214 74.0621C91.302 74.04 92.305 74.1785 93.3302 74.4611C92.4435 75.1538 91.0027 74.7382 90.2435 74.8767C88.5534 75.1815 89.0854 73.3473 88.3761 73.6742C88.038 73.8294 87.7997 74.8767 87.8607 75.2813L87.8496 75.2868Z" fill="#FCAE92"/>
<path d="M147.609 101.188C147.775 101.215 147.903 101.082 148.063 101.06C148.828 100.944 149.31 100.722 150.114 100.761C151.743 100.833 151.937 100.207 152.247 98.8437C152.785 96.472 153.433 88.6307 153.433 87.1844C153.433 86.8298 152.884 86.8685 152.884 87.2232C152.884 87.2675 152.884 87.3174 152.884 87.3617C152.857 87.3617 152.829 87.3673 152.801 87.3784C152.801 87.2842 152.818 87.19 152.818 87.0902C152.818 87.0625 152.818 87.0348 152.818 87.0126C152.835 86.6857 152.325 86.6857 152.264 86.9794C152.208 87.2565 152.158 87.5446 152.109 87.8272C152.12 87.6222 152.136 87.4227 152.147 87.2177C152.147 87.1844 152.147 87.1622 152.147 87.1345C152.158 86.9073 151.881 86.8353 151.715 86.924C151.715 86.9073 151.715 86.8962 151.715 86.8796C151.726 86.5638 151.194 86.5361 151.161 86.8464C151.161 86.8685 151.155 86.8907 151.15 86.9129C151.078 86.8907 150.995 86.9018 150.928 86.9406C150.901 86.9406 150.873 86.9406 150.845 86.9517C150.884 86.6026 150.346 86.4973 150.302 86.8519C150.141 88.1375 149.632 90.6589 149.016 91.8226C148.496 92.8201 147.764 93.6846 147.166 94.6322C146.467 95.7239 145.963 98.0735 146.695 98.7218C146.861 98.8714 147.088 98.7717 147.154 98.5666C147.465 97.5359 147.897 96.616 148.479 95.7294C148.867 96.7878 148.213 98.079 147.936 98.7939C147.67 99.481 146.966 99.8246 147.066 100.6C147.11 100.972 147.193 101.121 147.598 101.188H147.609Z" fill="#FCAE92"/>
<path d="M136.221 28.4944C137.906 27.9014 139.596 27.3362 141.303 26.8208C141.452 26.7765 141.597 26.7599 141.735 26.7599C142.633 26.6546 143.658 27.3861 143.497 28.6994C142.888 33.5538 143.287 38.3859 143.137 43.3013C143.071 45.5012 135.59 43.3678 135.534 42.4867C135.335 39.123 135.157 33.6313 135.174 30.251C135.174 29.5029 135.534 28.7271 136.216 28.4833L136.221 28.4944Z" fill="#FCAE92"/>
<path d="M138.155 31.2541C138.731 31.2042 139.318 31.5589 139.174 32.3014C139.075 32.8168 138.637 33.044 138.315 33.3543C137.778 33.8697 137.49 34.5734 136.996 35.1276C136.514 35.6651 135.905 35.9311 135.262 36.0696C135.223 34.7452 135.19 32.706 135.173 31.4868C134.996 31.4369 136.138 31.4259 138.155 31.2485V31.2541Z" fill="#FC925E"/>
<path d="M129.022 24.9035C128.291 24.449 127.138 24.0889 127.526 23.1856C127.775 22.6093 129.366 20.2375 129.56 19.8385C129.892 18.3257 129.898 17.0345 130.23 15.3499C130.64 13.3051 131.2 12.7897 132.796 11.5983C134.17 10.1076 136.531 11.0497 138.565 11.4431C140.288 11.7756 142.682 10.551 143.718 12.1525C146.794 16.9126 145.192 22.31 142.876 27.1478C142.471 27.9901 140.792 28.9321 140.077 29.8021C138.836 31.3261 133.084 32.3291 130.851 31.5754C129.172 31.0102 128.961 29.1095 128.983 25.8898C128.983 25.5518 129.006 25.2304 129.022 24.909V24.9035Z" fill="#FCAE92"/>
<path d="M137.523 23.0804C137.507 22.698 137.451 22.2381 137.451 21.8114C138.21 21.3902 139.158 21.5121 139.801 22.1494C140.638 22.9751 140.682 24.2607 140.216 25.2859C139.923 25.9287 138.981 27.5468 138.066 26.976C137.883 26.8597 137.761 26.699 137.678 26.5105C137.629 25.369 137.584 24.2274 137.529 23.0804H137.523Z" fill="#FCAE92"/>
<path d="M130.458 20.6975C130.453 21.0688 130.635 21.368 130.874 21.3736C131.112 21.3736 131.306 21.0854 131.312 20.7141C131.317 20.3429 131.134 20.0436 130.896 20.0381C130.658 20.0381 130.464 20.3262 130.458 20.6975Z" fill="#2C294C"/>
<path d="M128.962 26.4718C129.71 26.5438 130.957 26.3886 131.378 25.7347C131.76 25.1418 132.32 25.2914 132.065 26.1282C131.86 26.7987 129.826 27.508 128.99 27.4637C128.979 27.1534 128.967 26.8209 128.962 26.4718Z" fill="#BA3D2D"/>
<path d="M130.169 18.3368C130.945 18.2315 132.331 18.2094 132.63 18.8134C132.674 18.8965 132.613 19.024 132.458 19.0517C131.943 19.1404 131.372 18.9796 130.868 18.9686C130.519 18.9575 129.887 19.0406 129.831 18.7137C129.815 18.6084 129.953 18.3701 130.169 18.3368Z" fill="#543237"/>
<path d="M147.825 39.5109C146.074 36.0142 142.965 36.0142 139.208 36.2802C130.054 36.923 128.02 39.3446 123.121 45.5567C119.99 49.5244 113.496 59.2608 110.282 63.162C107.356 66.7086 104.496 71.0143 100.207 72.9815C99.7638 73.1866 99.5809 73.7962 99.6973 74.2395C99.9799 75.1039 100.113 75.9906 100.102 76.9049C100.13 77.5367 100.589 77.9744 101.216 78.0188C108.436 78.5286 115.546 75.2037 121.597 71.3246C121.11 77.5921 120.733 83.8706 120.456 90.1547C120.256 94.7375 120.112 99.3258 120.024 103.914C119.963 107.167 119.259 111.323 121.331 114.133C124.972 119.065 134.177 117.336 139.142 116.239C142.184 115.568 148.596 113.296 149.399 109.993C151.616 100.894 146.263 81.194 147.554 66.6587C148.058 60.9731 150.529 44.8861 147.831 39.5109H147.825Z" fill="#9E3542"/>
<path d="M133.822 85.1895C133.805 85.0787 133.667 84.9789 133.556 84.9845C130.89 85.1396 128.236 85.3945 125.593 85.7437C125.443 85.7658 125.388 85.8711 125.393 85.9875C125.371 86.0207 125.354 86.0651 125.349 86.1094C125.255 86.9683 124.595 88.8358 125.498 89.4121C126.501 90.0549 128.635 89.3346 129.677 89.1351C130.58 88.9633 131.483 88.8026 132.386 88.6252C132.83 88.5421 133.462 88.5089 133.772 88.1043C134.315 87.4006 133.96 85.9819 133.827 85.184L133.822 85.1895ZM133.096 87.7109C132.575 88.2152 131.588 88.2152 130.885 88.3426C130.07 88.4978 129.261 88.6585 128.446 88.8026C127.981 88.8857 127.455 89.0409 126.983 89.0187C126.601 88.9965 125.82 88.9577 125.637 88.52C125.454 88.0933 125.775 86.863 125.875 86.2646C127.46 86.054 129.05 85.8767 130.646 85.7437C131.095 85.7049 132.597 85.3502 133.018 85.5719C133.705 85.9321 133.473 87.3507 133.096 87.7109Z" fill="#7E323D"/>
<path d="M152.269 60.0311C151.859 52.5833 151.216 45.0025 147.221 38.5023C146.473 37.2888 144.561 38.4026 145.309 39.6217C146.423 41.4393 147.249 43.3401 147.88 45.3018C147.332 45.3627 146.8 45.7506 146.828 46.3824C146.894 48.1446 146.977 49.9178 147.071 51.6967C146.811 51.874 146.628 52.1621 146.634 52.5778C146.85 60.3414 146.074 68.1272 146.983 75.841C146.733 78.9608 146.639 82.1195 146.9 85.2394C146.999 86.4474 147.177 87.9547 148.346 88.5587C148.263 88.6418 148.185 88.7305 148.091 88.797C146.944 89.6171 147.952 91.4569 149.216 90.7199C150.701 89.8554 152.153 89.3512 153.832 89.0685C154.264 88.9965 154.702 88.4368 154.652 87.9935C153.544 78.6948 152.79 69.374 152.275 60.0255L152.269 60.0311Z" fill="#9E3542"/>
<path d="M131.521 42.8025C131.327 42.5088 130.851 42.7803 131.045 43.0796C136.736 51.8075 128.978 62.3086 124.024 69.3851C123.819 69.6788 124.295 69.9559 124.5 69.6622C129.571 62.4582 137.362 51.6911 131.521 42.797V42.8025Z" fill="#7E323D"/>
<path d="M143.248 37.6378C143.442 37.4328 143.248 37.1059 142.976 37.1724C142.943 37.1779 142.91 37.1834 142.877 37.1945C142.832 37.128 142.755 37.0782 142.66 37.0782C142.738 36.8399 142.733 36.585 142.6 36.3411C142.572 36.2913 142.539 36.2469 142.5 36.2081C141.469 36.1361 140.35 36.1915 139.164 36.2746C135.856 36.5074 133.484 36.9729 131.566 37.7598C132.713 37.8429 133.927 38.2751 134.991 38.4469C136.105 38.6298 137.23 38.7572 138.36 38.8293C140.089 38.9456 141.979 38.9955 143.248 37.6268V37.6378Z" fill="#7E323D"/>
<path d="M103.216 74.6219H103.122C102.413 74.6551 102.413 75.6969 103.122 75.7246H103.216C103.931 75.7579 103.931 74.5886 103.216 74.6219Z" fill="#7E323D"/>
<path d="M105.621 73.3307C104.912 73.3307 104.906 74.439 105.621 74.439C106.336 74.439 106.336 73.3307 105.621 73.3307Z" fill="#7E323D"/>
<path d="M151.893 85.3336C151.178 85.3336 151.178 86.4419 151.893 86.4419C152.607 86.4419 152.607 85.3336 151.893 85.3336Z" fill="#7E323D"/>
<path d="M150.413 81.4545V81.5487C150.419 82.2581 151.51 82.2581 151.516 81.5487V81.4545C151.521 80.7452 150.408 80.7397 150.413 81.4545Z" fill="#7E323D"/>
<path d="M150.95 48.671C150.922 46.0499 150.579 43.4398 150.191 40.8519C149.681 37.4882 149.06 34.1356 148.839 30.7332C148.628 27.5191 149.149 23.1247 149.038 19.9106C148.888 15.4164 147.104 11.5485 142.543 10.6397C138.814 9.89712 134.348 9.20443 131.754 12.3298C131.738 12.3465 131.738 12.3686 131.721 12.3852C131.527 12.5349 131.427 12.7898 131.599 13.0613C132.425 14.358 133.777 15.0064 134.702 16.1756C135.86 17.633 134.181 19.628 137.19 21.8668C141.042 24.7373 139.091 30.9714 139.778 35.582C140.471 40.2091 141.308 45.3572 142.954 49.7571C144.001 52.55 146.251 54.1571 149.276 53.8911C149.443 53.8745 149.57 53.7969 149.659 53.6971C149.786 53.6971 149.919 53.6583 150.036 53.5364C151.221 52.3505 150.967 50.1949 150.95 48.6655V48.671Z" fill="#543237"/>
<path d="M136.681 21.5786C136.742 21.5453 136.886 21.5398 136.997 21.5176C137.191 21.4788 137.407 21.4401 137.601 21.4511C137.939 21.4733 138.266 21.6118 138.538 21.8058C139.142 22.2325 139.402 22.964 139.424 23.6788C139.469 25.0476 138.87 26.7433 137.452 27.1644C136.41 27.4748 136.094 25.8788 137.086 25.5352C137.463 25.4078 137.618 24.6763 137.69 24.3438C137.734 24.1332 137.784 23.8063 137.751 23.5846C137.684 23.1801 137.601 23.1635 137.235 23.169C136.748 23.1801 136.432 23.4239 135.955 23.1579C135.59 22.9529 135.495 22.6481 135.468 22.2491C135.423 21.5952 136.183 21.3403 136.681 21.562V21.5786Z" fill="#FC925E"/>
<path d="M139.035 27.2974C138.947 26.9372 138.858 26.577 138.753 26.2279C138.548 25.5463 137.539 25.8289 137.689 26.5216C137.778 26.9261 137.888 27.3196 137.994 27.7186C138.055 27.9513 138.287 28.1231 138.526 28.1231C138.786 28.1231 138.969 27.9458 139.058 27.7186L139.069 27.6909C139.119 27.5634 139.096 27.4193 139.03 27.2974H139.035Z" fill="#DADAEA"/>
<path d="M150.374 89.8997C149.509 87.2509 149.592 84.1698 149.443 81.4046C149.282 78.4399 149.199 75.4641 149.188 72.4939C149.171 66.6365 149.459 60.7902 150.013 54.9606C150.047 54.6059 149.492 54.6115 149.459 54.9606C148.877 60.9676 148.6 66.9967 148.634 73.0314C148.65 76.0016 148.744 78.9719 148.916 81.9421C149.066 84.5965 149.005 87.4947 149.836 90.0494C149.947 90.3874 150.484 90.2433 150.374 89.8997Z" fill="#7E323D"/>
<path d="M71.5408 42.3426C71.3357 41.9768 71.1085 41.6222 70.7982 41.3506C70.6264 41.201 70.4269 41.0736 70.2219 40.9738C70.0279 40.8741 69.8007 40.7743 69.5957 40.7355C68.9584 40.6191 68.3932 41.1899 68.4819 41.9159C68.5262 42.2539 68.7201 42.5365 68.8753 42.8247C69.0914 43.2292 69.302 43.6337 69.5181 44.0383C69.568 44.138 69.6622 44.2211 69.7675 44.2876C69.7564 44.8972 69.5181 45.5123 69.3519 46.0886C69.1025 46.9475 69.0305 47.7843 69.0914 48.6765C69.1247 49.142 69.1524 49.6185 69.2189 50.0896C69.1912 50.1782 69.1745 50.2724 69.1912 50.3722C69.2965 51.1147 69.2577 51.8629 69.2078 52.6054C69.1524 53.3868 69.0914 54.1626 69.036 54.9439C69.0028 55.3762 69.4793 55.7751 69.8894 55.7419C70.0612 55.7253 70.2053 55.6754 70.3272 55.5867C70.3493 55.5867 70.366 55.5867 70.3826 55.5867C70.8315 55.62 71.3745 55.6754 71.8123 55.5479C72.2224 55.426 72.4994 55.0492 72.505 54.6281C72.505 54.4119 72.444 54.2235 72.3665 54.024C72.2002 53.6029 72.0561 53.1706 71.9287 52.7384C71.6571 51.7964 71.5131 51.0483 71.4244 50.1117C71.3911 49.7626 71.1473 49.4301 70.8093 49.3415C70.7927 49.1641 70.776 48.9813 70.7594 48.7984C70.7262 48.3385 70.6818 47.8619 70.7428 47.4019C70.8038 46.9365 70.9589 46.4821 71.0919 46.0332C71.2415 45.5289 71.3579 45.0302 71.3912 44.5259C71.4854 44.4649 71.5685 44.3874 71.6405 44.2932C71.8566 44.0161 71.9398 43.6005 71.8899 43.2347C71.8456 42.8967 71.7015 42.6307 71.5408 42.3426Z" fill="#ECAE82"/>
<path d="M74.4226 47.1637C74.5334 47.2911 74.4946 47.4685 74.5611 47.6181C74.877 48.3218 74.949 48.8538 75.4089 49.5133C76.351 50.8543 77.1213 51.2034 76.1404 52.1954C74.4281 53.9188 67.7118 59.5545 66.4816 60.3303C66.1823 60.5187 65.1572 59.294 65.4564 59.1056C65.4952 59.0834 65.534 59.0557 65.5728 59.028C65.5562 59.0003 65.5451 58.9781 65.5395 58.9504C65.4619 59.0059 65.3844 59.0668 65.3068 59.1222C65.2846 59.1389 65.2625 59.1555 65.2458 59.1666C64.9798 59.355 64.7028 58.9227 64.9244 58.7177C65.1295 58.5237 65.3456 58.3243 65.5562 58.1303C65.3899 58.2467 65.2292 58.3741 65.063 58.485C65.0353 58.5016 65.0186 58.5182 64.9965 58.5348C64.8081 58.6623 64.5975 58.4739 64.5864 58.2855C64.5753 58.291 64.5642 58.3021 64.5531 58.3132C64.2927 58.4905 63.9824 58.0527 64.2317 57.8643C64.2484 57.8532 64.265 57.8366 64.2816 57.82C64.2262 57.7646 64.1874 57.6981 64.1874 57.6205C64.1708 57.5983 64.1597 57.5706 64.1486 57.5484C63.8715 57.7701 63.4947 57.3711 63.7718 57.1439C64.7748 56.3182 66.6257 54.5394 67.2851 53.3979C67.8448 52.4226 68.1884 51.342 68.6594 50.3279C69.208 49.1586 70.9203 47.4685 71.8624 47.74C72.0785 47.8009 72.1173 48.0448 71.9732 48.211C71.2639 49.0256 70.7264 49.879 70.2831 50.8488C71.3858 50.6105 72.1228 49.3692 72.5828 48.7485C73.0206 48.1501 72.9319 47.3798 73.6412 47.0473C73.9792 46.8866 74.151 46.8755 74.4226 47.1858V47.1637Z" fill="#ECAE82"/>
<path d="M33.6425 175.954C33.1161 175.283 31.243 174.923 30.5171 174.746C28.2396 174.18 25.3192 173.094 23.3797 171.792C22.2492 171.033 22.9474 171.133 21.551 171.177C20.3706 171.216 19.146 171.049 17.9933 171.083C17.5001 171.099 16.7964 170.989 16.6911 171.775C16.5913 173.338 16.5525 174.906 16.5692 176.475C16.5636 177.455 17.1067 177.439 17.1898 177.439C18.4311 177.455 25.4245 177.539 26.9373 177.583C28.5222 177.633 29.7358 177.633 31.3428 177.516C32.6672 177.422 35.0113 177.716 33.637 175.954H33.6425Z" fill="#543237"/>
<path d="M57.6816 174.635C57.1551 173.964 55.2821 173.604 54.5562 173.427C52.2786 172.862 49.3582 171.775 47.4187 170.473C46.2883 169.714 46.9865 169.814 45.59 169.858C44.4097 169.897 43.185 169.731 42.0324 169.764C41.5392 169.78 40.8354 169.67 40.7301 170.457C40.6304 172.019 40.5916 173.587 40.6082 175.156C40.6027 176.137 41.1457 176.12 41.2289 176.12C42.4702 176.137 43.7059 176.148 44.9361 176.153C45.2409 176.153 49.4635 176.22 50.9764 176.264C52.5612 176.314 53.7748 176.314 55.3819 176.198C56.7063 176.103 59.0503 176.397 57.676 174.635H57.6816Z" fill="#543237"/>
<path d="M47.9281 142.35C47.8062 135.002 48.2163 127.621 47.7453 120.278C46.8088 105.765 43.0461 91.2186 40.8018 76.8495C40.6189 75.6858 40.1977 75.4974 39.3166 75.9075C38.7791 74.4002 36.4184 74.317 36.0749 75.9296C35.1384 75.2979 33.4482 75.9573 33.3374 77.2596C33.3374 77.3205 33.3318 77.376 33.3263 77.4369C33.027 77.6198 32.7611 77.9079 32.5893 78.3014C32.5339 78.4288 32.4895 78.5618 32.4341 78.6893C31.3258 78.1628 29.885 79.2213 30.079 80.5789C30.1344 80.9724 30.1843 81.3714 30.2341 81.7648C29.7132 81.4656 29.0316 81.3935 28.5052 81.6263C28.1893 80.6288 26.6987 80.2963 25.8342 80.8616C25.8342 80.7563 25.8397 80.6565 25.8453 80.5512C25.8841 78.6948 23.0967 78.4344 22.5259 80.1245C22.4649 80.3019 22.4095 80.4792 22.3486 80.6565C22.3818 79.6092 22.4206 78.5674 22.4483 77.52C22.4649 76.8107 22.0272 76.3231 21.4564 76.1014C21.8831 72.2279 16.8292 70.8093 14.4076 73.17C14.3522 73.1921 14.3023 73.2309 14.2524 73.2586C13.7759 73.4747 13.4212 73.8959 13.388 74.5276C13.2217 75.0596 14.1582 75.4364 14.2081 75.9075C12.9668 83.6711 10.3291 91.734 10.9442 99.5697C11.6756 108.846 12.5069 118.056 12.8338 127.36C13.1663 136.781 13.3713 146.218 14.1582 155.616C14.33 157.706 14.391 164.139 14.6293 166.217C14.8288 167.941 15.0338 171.482 16.9068 171.593C21.1572 171.847 20.0599 171.831 22.9526 171.315C23.7506 171.171 24.1551 170.44 24.1939 169.769C25.0251 154.841 28.4276 118.982 29.414 104.463C31.891 118.294 36.9338 155.733 40.436 169.365C40.6078 170.046 41.3393 170.545 42.0652 170.54C44.4259 170.534 44.9413 170.59 47.2964 170.584C48.1609 170.584 49.0531 169.853 48.9866 168.982C48.4158 161.402 48.0501 149.936 47.9226 142.339L47.9281 142.35Z" fill="#2C294C"/>
<path d="M51.7411 54.6336C53.5975 46.6982 53.8303 46.5098 49.4802 40.0872C47.8067 37.6212 42.4757 33.3266 34.9725 32.4178C26.8875 30.3452 19.545 32.7946 13.8373 39.2726C11.87 41.5058 15.2282 43.0796 14.9289 45.8393C14.541 49.4246 14.1642 53.0155 13.7929 56.6064C13.4383 60.0421 12.5405 68.4708 12.2247 71.9065C11.9975 74.4057 10.4015 88.8967 9.21564 96.1838C8.79449 98.7828 11.7315 95.7848 25.6517 94.4881C32.9388 93.812 45.4183 96.4276 44.7976 93.474C43.4399 87.0348 43.85 74.4999 44.5649 71.7125C44.9362 70.2662 45.2908 68.8199 45.651 67.3735C47.4852 74.3115 67.7782 60.0865 68.2659 59.8426C69.9283 59.0225 65.9772 51.8352 64.4533 52.345C62.9294 52.8548 49.458 64.4144 51.7467 54.6336H51.7411Z" fill="#D9924E"/>
<path d="M25.2525 32.1628C10.8501 33.2767 7.06525 45.1909 2.95346 54.1792C1.20788 57.9862 -0.304946 62.3917 3.70156 65.2954C7.7136 68.2047 12.568 66.3705 16.6354 64.6138C17.6883 64.1594 17.112 62.5136 16.0702 62.5302C15.8762 62.5302 15.6823 62.5358 15.4828 62.5413C15.9095 61.965 15.8319 61.2668 15.2168 60.8401C15.1337 60.7847 15.0561 60.7459 14.9785 60.696C14.7347 60.4189 14.3634 60.2361 13.9921 60.2804C14.1695 59.8592 14.38 59.4436 14.5518 59.0613C15.1725 57.6703 15.9206 56.3736 16.7518 55.0991C17.3503 54.1792 16.3805 53.3147 15.5327 53.4754C16.1644 52.5445 16.7906 51.6024 17.4057 50.6603C18.0984 49.5908 16.7518 48.6654 15.843 49.1974C16.3251 48.4382 16.8072 47.679 17.2893 46.9254C17.644 46.3712 17.4334 45.8392 17.0289 45.5344C17.0898 45.4402 17.1563 45.3516 17.2173 45.2574C17.5886 44.6977 17.3835 44.1768 16.9735 43.8831C17.6938 43.0131 18.4198 42.1431 19.1402 41.273C19.8994 40.3587 18.9961 39.134 18.0651 39.3945C17.9488 39.2615 17.7991 39.1562 17.6273 39.0897C20.0933 37.1779 22.8031 35.6595 25.729 34.8227C27.0978 34.4293 26.6822 32.052 25.258 32.1628H25.2525Z" fill="#D9924E"/>
<path d="M33.1379 20.1433C35.0608 19.9161 36.9781 19.7166 38.9066 19.5781C39.0784 19.567 39.2335 19.5781 39.3832 19.6113C40.364 19.6944 41.3227 20.6254 40.8904 21.8723C39.2834 26.4772 39.1947 29.3533 38.0698 34.1134C37.5655 36.2414 29.547 34.5235 29.6634 33.6535C30.1067 30.3341 30.9933 24.9367 31.6749 21.6506C31.8245 20.9247 32.3621 20.2375 33.1379 20.1433Z" fill="#ECAE82"/>
<path d="M35.7705 30.7165C35.0834 29.9739 34.0693 29.6303 33.4431 28.8213C32.7393 27.9069 32.756 25.8455 34.3796 26.2445C34.568 26.2944 34.6899 26.4163 34.762 26.5604C35.4602 26.7432 36.297 27.4858 36.829 27.9901C36.9343 27.9236 37.0673 27.8848 37.1892 27.9069C37.8431 28.0178 38.8017 27.2586 39.367 27.846C39.1231 29.0928 38.6355 31.5477 38.3917 32.8001C38.0924 32.7835 37.7932 32.7003 37.5272 32.5563C36.7403 32.1351 36.3635 31.3482 35.7816 30.7165H35.7705Z" fill="#EC8E48"/>
<path d="M31.9244 7.07649C33.2045 5.66895 35.3656 7.27044 37.1223 7.22057C39.1948 7.16515 40.8462 5.72991 41.96 7.42006C43.3399 8.85531 44.6366 10.3571 44.7031 12.4407C44.8305 16.2809 44.6587 22.6038 42.8744 25.9619C41.4668 28.6163 39.5994 29.4808 38.1918 29.3589C35.8422 29.1538 33.6589 26.9428 32.3843 25.4466C31.6916 24.632 30.5556 22.8975 30.2952 21.9998C28.799 16.8462 28.1063 11.2603 31.9188 7.07095L31.9244 7.07649Z" fill="#ECAE82"/>
<path d="M36.2745 20.1045C36.2745 20.4758 36.4685 20.7695 36.7068 20.7695C36.9451 20.7695 37.1335 20.4703 37.1279 20.099C37.1279 19.7277 36.934 19.434 36.6957 19.434C36.4574 19.434 36.269 19.7333 36.2745 20.1045Z" fill="#2C294C"/>
<path d="M42.8029 20.1932C42.8029 20.5645 42.9968 20.8582 43.2351 20.8582C43.4734 20.8582 43.6618 20.559 43.6562 20.1877C43.6562 19.8164 43.4623 19.5227 43.224 19.5227C42.9857 19.5227 42.7973 19.8219 42.8029 20.1932Z" fill="#2C294C"/>
<path d="M39.2891 23.2188C39.8156 22.8199 39.7324 21.9886 39.5717 21.4289C39.472 21.0909 39.9818 20.8914 40.0871 21.235C40.3365 22.0385 40.3531 23.1191 39.6105 23.6677C39.3224 23.8783 39.0065 23.435 39.2891 23.2188Z" fill="#A04B40"/>
<path d="M37.4823 16.63C37.4379 16.63 37.3382 16.6189 37.3327 16.6189C36.3407 16.5524 35.238 16.3917 34.3624 16.9569C34.1407 17.101 34.2128 17.4778 34.5009 17.4778C35.2435 17.4778 35.9916 17.4723 36.7342 17.4668C37.1054 17.4668 37.6541 17.6053 37.9034 17.2673C37.9588 17.1952 38.0032 16.6688 37.4767 16.63H37.4823Z" fill="#2C294C"/>
<path d="M41.9932 16.8517C42.0375 16.8517 42.1372 16.8461 42.1428 16.8461C43.1402 16.8073 44.243 16.6799 45.1019 17.2728C45.3236 17.4224 45.2349 17.7993 44.9523 17.7882C44.2098 17.766 43.4617 17.7383 42.7191 17.7161C42.3478 17.7051 41.7937 17.8325 41.5554 17.4834C41.5055 17.4058 41.4723 16.8849 41.9987 16.8572L41.9932 16.8517Z" fill="#2C294C"/>
<path d="M45.3298 9.77518C44.9308 8.21248 44.6482 6.81602 43.4457 5.63568C42.3762 4.58279 40.7968 3.98431 39.2951 4.07297C38.6024 4.11177 38.2588 4.33897 37.6271 4.6105C36.2528 5.20344 35.6211 4.9042 34.2135 4.68808C31.7198 4.30572 30.2735 5.97371 30.1571 7.99082C27.9128 9.31523 27.7189 11.9641 27.8851 14.4633C28.0403 16.8628 28.1788 20.9358 30.0463 22.7035C30.3234 22.9695 30.6115 23.2299 30.8221 22.9362C31.3874 22.1493 31.1269 21.1796 31.2433 20.2597C31.3874 19.1181 30.9274 19.1071 31.8251 17.8381C31.9692 17.633 32.2241 17.6718 32.4014 17.3781C33.1883 16.0814 33.5153 14.4023 33.7647 12.7787C37.1339 12.2467 39.5721 13.9923 42.6643 14.8401C43.8668 15.1726 45.3907 15.3167 46.1776 14.1197C47.0698 12.762 45.6678 11.1051 45.3298 9.77518Z" fill="#2C294C"/>
<path d="M32.1901 17.6773C32.8883 17.7882 33.3926 18.9131 32.6832 18.8133C31.187 18.6083 31.5583 20.9302 31.7689 21.4012C32.1014 22.1382 32.4893 22.842 32.9104 23.5347C33.2762 24.1332 32.4283 24.837 32.0404 24.2274C31.248 22.975 30.2228 21.3901 30.1397 19.8607C30.0732 18.6305 30.849 17.4723 32.1845 17.6829L32.1901 17.6773Z" fill="#EC8E48"/>
<path d="M40.6413 25.0974C40.2589 25.2914 39.8267 25.5629 39.4 25.6516C38.9179 25.7513 38.5355 25.6128 38.1088 25.441C38.0534 25.4188 38.0091 25.4022 37.9647 25.3856C37.8595 25.3468 37.7819 25.3745 37.7209 25.4299C37.7098 25.4133 37.6988 25.3967 37.6877 25.38C37.5159 25.0642 37.0393 25.3468 37.2056 25.6627C37.9925 27.1478 40.5083 27.0702 41.0514 25.4244C41.1345 25.1805 40.8463 25.0032 40.6413 25.1085V25.0974Z" fill="#BA3D2D"/>
<path d="M40.7965 25.0586C40.8907 25.0586 40.9517 25.0919 41.0015 25.1307C40.9073 25.4299 40.8242 25.6238 40.464 25.7624C40.0429 25.9231 39.4776 25.9175 39.0399 25.912C38.4635 25.9065 37.6323 25.8012 37.2832 25.3024C37.3275 25.2637 37.3774 25.2304 37.4439 25.2193C38.5577 25.0254 39.6661 24.9977 40.7965 25.0586Z" fill="white"/>
<path d="M45.1579 18.3756C44.1881 17.9101 42.8471 17.9544 41.7221 18.2426C40.5806 18.5363 40.6969 18.9242 40.6637 19.2456C40.0541 19.035 39.4058 18.9852 38.774 19.1182C38.7685 18.769 38.774 18.3036 37.771 17.9877C36.6683 17.6386 35.3439 17.5 34.3519 17.899C32.9499 18.4643 33.1106 20.1655 33.8698 21.2406C34.5071 22.1494 36.5519 22.4154 37.5438 22.0884C38.4305 21.7947 38.7353 20.7418 38.774 19.7776C38.774 19.7499 38.774 19.7166 38.774 19.6834C39.4058 19.5504 40.0209 19.5892 40.6304 19.8219C40.6304 19.8718 40.6304 19.9217 40.6304 19.966C40.6027 20.9302 40.841 21.9997 41.7055 22.3544C42.6697 22.7478 44.7312 22.6093 45.4238 21.7448C46.2495 20.7197 46.5211 19.035 45.1579 18.3756ZM36.9066 21.6229C36.0421 21.7116 34.6512 21.501 34.2023 20.703C34.0859 20.426 33.9529 20.1489 33.9142 19.8496C33.8144 19.1071 34.0471 18.8522 34.3464 18.5197C34.701 18.2038 35.4436 18.2592 35.8869 18.2648C36.696 18.2703 37.4552 18.4089 38.17 18.7635C38.17 18.7857 38.17 18.8023 38.17 18.8245C38.3529 19.8773 38.2254 21.4844 36.9121 21.6229H36.9066ZM45.4737 20.3539C45.4128 20.6476 45.2631 20.9136 45.1301 21.1851C44.6314 21.9499 43.2239 22.0718 42.3705 21.9277C41.0627 21.7005 41.0461 20.0879 41.2954 19.0517C41.2954 19.0295 41.9549 18.7635 42.2874 18.7081C42.7141 18.6361 43.1574 18.6194 43.6118 18.6471C44.0551 18.6693 44.8032 18.6638 45.1357 19.0018C45.4072 19.3509 45.6233 19.628 45.4793 20.3595L45.4737 20.3539Z" fill="#2C294C"/>
<path d="M38.0144 72.8485C40.4471 65.2123 42.9852 57.6094 45.6284 50.0453C45.7337 49.7349 45.4456 49.4745 45.1962 49.3858C39.3499 47.3465 33.6311 45.0136 28.012 42.4146C27.8236 42.3259 27.6518 42.3592 27.5077 42.4423C27.2639 42.4257 27.0035 42.5421 26.9259 42.8524C25.0141 50.3556 20.5199 65.7776 20.4534 65.9216C20.3592 66.1211 20.3703 66.4426 20.5753 66.5866C25.5904 70.1221 31.542 71.5795 37.3494 73.2808C37.6598 73.3694 37.9258 73.1145 38.0089 72.8485H38.0144Z" fill="#DADAEA"/>
<path d="M11.7365 60.0809C11.731 60.0089 17.9264 57.9696 17.9652 57.892C18.6911 56.6008 20.1818 55.9525 21.4397 55.282C22.21 54.8774 23.0467 54.484 23.8392 54.1238C23.8392 54.29 23.5399 55.8527 23.612 55.8361C26.1888 55.2432 28.7545 54.8331 31.3811 55.3429C31.83 55.4316 31.7635 56.0467 31.3091 56.0467C29.4139 56.0356 27.5575 56.224 25.7343 56.5897H25.8064C25.8452 56.6008 25.884 56.6119 25.9172 56.6285C28.2225 56.4568 31.0043 56.0744 33.0713 56.9887C33.3927 57.1328 33.3539 57.7036 32.9993 57.6648C31.5474 57.5152 30.3947 57.5872 29.1036 57.5373C28.1615 57.5041 27.2084 57.4986 26.2663 57.5761C26.3217 57.6759 26.3772 57.7812 26.4326 57.8865C28.5162 57.7535 30.9323 57.5983 32.7831 58.4905C33.0436 58.6124 33.1267 59.1444 32.7998 59.1444C32.0406 59.1444 30.7993 59.1721 29.8794 59.1333C28.8985 59.089 27.9232 59.089 26.9424 59.1C27.0089 59.3051 27.0588 59.5101 27.092 59.7152C28.6492 59.6985 30.1897 59.8204 31.7302 60.1141C31.9907 60.164 32.1403 60.4411 31.9796 60.6738C31.8078 60.9232 30.3338 61.0174 29.5968 61.0008C28.7434 60.9786 23.9167 61.8542 23.0356 61.8597C22.1989 61.8708 21.5339 61.9096 20.7193 61.7877C19.7052 61.6325 14.6513 62.9348 13.6373 63.0345C13.2937 63.0678 11.5814 60.2139 11.7421 60.0809H11.7365Z" fill="#ECAE82"/>
<path d="M38.685 32.3568C38.6684 32.1961 38.5132 32.0188 38.3303 32.0853C38.3137 32.0908 38.2971 32.1019 38.2805 32.1075C38.1807 32.0964 38.0865 32.1296 38.0311 32.2127C36.5183 32.8445 35.2216 33.8032 34.2019 35.0722C34.0966 33.321 32.8775 31.9689 31.3868 31.0934C30.9823 30.8551 30.2176 30.2233 29.7299 30.5337C29.4639 30.6999 29.3088 31.2374 29.1813 31.4868C28.871 32.1075 28.5718 32.7392 28.2836 33.3709C28.134 33.6923 28.6105 33.9749 28.7602 33.648C29.0317 33.0551 29.3199 32.4621 29.6136 31.8747C29.3808 32.6838 29.27 33.5039 29.2755 34.3628C29.2755 34.6676 29.669 34.723 29.7964 34.4848C29.9405 34.5845 30.1622 34.5568 30.2176 34.3407L30.2564 34.2021C30.2564 34.2576 30.2564 34.3185 30.2508 34.3739C30.2397 34.5291 30.3617 34.6288 30.5002 34.6455C30.5944 34.9392 30.7551 35.2107 30.9878 35.449C31.0433 35.5432 31.1153 35.6319 31.204 35.7316C31.3037 35.8369 31.4256 35.8369 31.5198 35.7759C31.6307 35.7371 31.7193 35.6152 31.7359 35.4989C31.7359 35.4656 31.7359 35.4324 31.7359 35.3991C31.9022 35.6208 32.2347 35.4933 32.2568 35.2883C32.3123 35.3659 32.3732 35.4379 32.4286 35.5155C32.5893 35.7371 32.9052 35.6318 32.9495 35.4268C32.9662 35.4545 32.9883 35.4767 33.005 35.5044C33.1047 35.6596 33.282 35.6596 33.4039 35.582C33.4871 35.6817 33.609 35.7039 33.7143 35.6651C33.7253 35.6817 33.7475 35.6873 33.7641 35.7039C33.7032 35.9533 34.1022 36.1472 34.285 35.8868C34.346 35.7981 34.418 35.715 34.479 35.6319C34.5566 35.6873 34.6619 35.7094 34.7782 35.6596C34.9722 35.5709 35.1606 35.4878 35.3545 35.3991C35.0608 35.5986 35.3379 36.0807 35.6372 35.8812C35.7757 35.787 35.9198 35.7039 36.0639 35.6152C36.0916 35.787 36.2744 35.9145 36.4739 35.8203C36.8064 35.6651 37.2553 35.4434 37.5379 35.1331C37.5213 35.2439 37.5102 35.3492 37.4936 35.4601C37.4548 35.7316 37.7596 35.8812 37.9258 35.7759C37.9258 35.7926 37.9258 35.8147 37.9258 35.8313C37.9424 36.1306 38.4079 36.2303 38.4744 35.9034C38.7127 34.7286 38.7847 33.5538 38.685 32.3568Z" fill="#D9924E"/>
<path d="M74.5716 50.8654C74.494 51.1314 74.2114 51.342 73.9343 51.342L68.3651 51.6745L67.8774 51.1923C67.7888 51.1037 67.7555 50.9707 67.7943 50.8211L71.2079 38.8126C71.2855 38.5466 71.5681 38.3361 71.8452 38.3361L77.6194 38.3748C77.7579 38.3748 77.8688 38.4303 77.9353 38.5189C78.0018 38.6076 78.4506 39.0343 78.4506 39.0343L74.5716 50.8654Z" fill="#CBCBD3"/>
<path d="M75.104 51.3974C75.0264 51.6634 74.7438 51.8739 74.4667 51.8739L68.6924 51.8352C68.4154 51.8352 68.2491 51.619 68.3267 51.353L71.7403 39.3446C71.8179 39.0786 72.1005 38.868 72.3775 38.868L78.1518 38.9068C78.4289 38.9068 78.5951 39.123 78.5175 39.3889L75.104 51.3974Z" fill="#ABABB7"/>
<path d="M73.3081 39.9597C73.3857 39.7103 73.2416 39.5053 72.9922 39.5053C72.7429 39.5053 72.4658 39.7103 72.3882 39.9597C72.3106 40.2091 72.4547 40.4141 72.7041 40.4141C72.959 40.4141 73.2305 40.2091 73.3081 39.9597Z" fill="#20202D"/>
<path d="M77.963 46.4211C77.963 46.3712 77.952 46.3213 77.9409 46.2715C77.9132 46.1551 77.8688 46.0387 77.7913 45.939C77.7248 45.8559 77.6416 45.7894 77.5419 45.7395C77.5696 45.7506 77.8633 45.4125 77.891 45.3682C78.2346 44.742 77.6527 44.1047 76.9323 44.0604C76.3616 44.0272 75.8074 44.2267 75.281 44.4206L72.5435 45.4292C72.1999 45.5566 71.8341 45.6952 71.6236 45.9667C71.3908 46.2659 71.4185 46.6705 71.6624 46.9586C71.8064 47.1249 72.0392 47.2412 72.2775 47.2468C72.4603 47.2468 72.6321 47.1914 72.7984 47.1304L74.9651 46.3712L73.0256 47.28C72.621 47.4684 71.9394 47.6624 71.6402 47.9727C71.3188 48.3052 71.1581 48.7485 71.4185 49.1531C71.5072 49.286 71.6346 49.3747 71.7787 49.4468C71.5682 49.6019 74.0895 48.5823 73.8956 48.7596C73.6019 49.0256 73.1696 49.2085 72.8205 49.4135C72.5545 49.5742 72.283 49.7294 72.0226 49.8956C71.7843 50.0508 71.4961 50.1838 71.2966 50.3833C71.0473 50.6271 71.0029 51.0095 71.3243 51.2256C71.884 51.6024 72.682 51.6246 73.3359 51.4639C73.6905 51.3752 73.0311 51.8684 71.6901 52.4392C70.0886 53.1263 64.5304 58.9504 75.8185 52.09C75.8739 52.0568 75.9349 52.0291 75.9903 51.9958C76.4779 51.7243 76.7661 51.4195 76.8381 50.9097C76.9102 50.3833 76.9656 49.8513 77.021 49.3248C77.0376 49.1475 77.2094 49.0311 77.2482 48.8538C77.2814 48.7153 77.2482 48.5767 77.2149 48.4382L77.093 47.9339C77.093 47.9339 77.0875 47.8951 77.093 47.8785C77.0986 47.8619 77.1152 47.8563 77.1318 47.8453C77.6915 47.5405 78.0018 46.9863 77.9409 46.4211H77.963Z" fill="#ECAE82"/>
</g>
<defs>
<clipPath id="clip0_61_7810">
<rect width="163.663" height="185.895" fill="white"/>
</clipPath>
</defs>
</svg>
