<svg width="32" height="32" viewBox="0 0 32 32" fill="none" xmlns="http://www.w3.org/2000/svg">
<path d="M12 16.0218C12 16.3857 11.8351 16.6813 11.5876 16.9315C10.1443 18.5007 8.72165 20.0926 7.27835 21.6846C5.50515 23.6404 3.73196 25.5962 1.95876 27.552C1.52577 28.0296 1.07217 28.1206 0.597938 27.8477C0.206186 27.6203 0.0206186 27.2336 0 26.7561C0 26.0738 0 25.3915 0 24.6865C0 18.2733 0 11.8373 0 5.42404C0 5.15114 0.0412381 4.85549 0.144331 4.62807C0.432991 3.96855 1.21649 3.80936 1.75258 4.24146C1.83505 4.30969 1.89691 4.40065 1.97938 4.46888C5.17526 7.99389 8.37113 11.5189 11.567 15.0439C11.8351 15.3168 12 15.6125 12 16.0218Z" fill="#2B5F75"/>
<path d="M32 15.9884C32 19.5588 32 23.1064 32 26.6768C32 27.6319 31.2358 28.2459 30.4923 27.9048C30.3477 27.8366 30.2031 27.7229 30.0792 27.5864C26.8365 24.0388 23.6145 20.4684 20.3718 16.898C19.8761 16.3522 19.8761 15.6473 20.3718 15.1015C23.5938 11.5311 26.8365 7.98347 30.0792 4.41309C30.4303 4.02649 30.8434 3.89005 31.3184 4.09472C31.7522 4.27665 32 4.70873 32 5.32274C32 8.84764 32 12.418 32 15.9884Z" fill="#2B5F75"/>
<path d="M16.8002 1.99022C16.8002 2.33141 16.8002 2.65363 16.8002 2.99481C16.785 3.5824 16.436 4.01836 15.996 3.9994C15.5559 3.9994 15.2069 3.56345 15.2069 2.99481C15.2069 2.33141 15.1918 1.668 15.2069 1.00459C15.2069 0.435955 15.5559 0.0189545 15.996 0C16.436 0 16.785 0.416999 16.8002 0.985634C16.8002 1.32682 16.8002 1.64904 16.8002 1.99022Z" fill="#2B5F75"/>
<path d="M16.8002 8.78865C16.8002 9.19813 16.8002 9.58486 16.8002 9.99434C16.785 10.6768 16.4497 11.2 16.0078 11.2C15.5659 11.2 15.2002 10.6768 15.2002 9.99434C15.2002 9.19813 15.2002 8.42467 15.2002 7.62846C15.2002 6.92325 15.5507 6.40002 16.0078 6.40002C16.4497 6.40002 16.8002 6.92325 16.8002 7.62846C16.8002 8.01519 16.8002 8.40192 16.8002 8.78865Z" fill="#2B5F75"/>
<path d="M15.2002 15.5715C15.2002 15.2493 15.2002 14.927 15.2002 14.6047C15.2153 14.036 15.5482 13.6 15.987 13.6C16.4257 13.6 16.7737 14.017 16.7888 14.5858C16.804 15.2682 16.804 15.9317 16.7888 16.6142C16.7737 17.1829 16.4257 17.6 15.987 17.6C15.5482 17.6 15.2002 17.164 15.2002 16.5952C15.2002 16.254 15.2002 15.9128 15.2002 15.5715Z" fill="#2B5F75"/>
<path d="M16.8002 22.7867C16.8002 23.2645 16.8002 23.7156 16.8002 24.1934C16.785 24.9896 16.4497 25.6 16.0078 25.6C15.5659 25.6 15.2002 24.9896 15.2002 24.1934C15.2002 23.2645 15.2002 22.3621 15.2002 21.4332C15.2002 20.6104 15.5507 20 16.0078 20C16.4497 20 16.8002 20.6104 16.8002 21.4332C16.8002 21.8844 16.8002 22.3355 16.8002 22.7867Z" fill="#2B5F75"/>
<path d="M15.2002 30.0098C15.2002 29.6686 15.2002 29.3464 15.2002 29.0052C15.2153 28.4176 15.5633 27.9816 16.0021 28.0006C16.4409 28.0006 16.7888 28.4365 16.7888 29.0052C16.804 29.6686 16.804 30.332 16.7888 30.9954C16.7888 31.564 16.4257 31.981 16.0021 32C15.5633 32 15.2153 31.564 15.2002 31.0144C15.2002 30.6732 15.2002 30.332 15.2002 30.0098Z" fill="#2B5F75"/>
</svg>
