<svg width="79" height="72" viewBox="0 0 79 72" fill="none" xmlns="http://www.w3.org/2000/svg">
<path d="M54.6741 23.6848H39.1984C37.6686 23.6848 36.2053 24.9264 35.9392 26.4562L30.6624 56.3877C30.3964 57.9176 31.4163 59.1592 32.9461 59.1592H48.4218C49.9516 59.1592 51.4149 57.9176 51.681 56.3877L56.9578 26.4562C57.2238 24.9264 56.204 23.6848 54.6741 23.6848ZM50.5724 56.3877C50.4061 57.3078 49.5303 58.0506 48.6213 58.0506H33.1456C32.2255 58.0506 31.6158 57.3078 31.771 56.3877L37.0478 26.4562C37.2141 25.5361 38.0899 24.7934 38.9989 24.7934H54.4746C55.3947 24.7934 56.0044 25.5361 55.8492 26.4562L50.5724 56.3877Z" fill="#2B5F75"/>
<path d="M49.0539 16.6897H33.5782C32.0484 16.6897 30.5851 17.9313 30.319 19.4611L25.0422 49.3926C24.7761 50.9224 25.796 52.164 27.3258 52.164H42.8015C44.3314 52.164 45.7947 50.9224 46.0607 49.3926L51.3375 19.4611C51.6036 17.9313 50.5837 16.6897 49.0539 16.6897Z" fill="#2B5F75"/>
</svg>
