<svg width="200" height="218" viewBox="0 0 200 218" fill="none" xmlns="http://www.w3.org/2000/svg">
<g clip-path="url(#clip0_598_9281)">
<path d="M120 210C158.108 210 189 205.299 189 199.5C189 193.701 158.108 189 120 189C81.8924 189 51 193.701 51 199.5C51 205.299 81.8924 210 120 210Z" fill="#3EB8B2"/>
<path d="M24.1262 89.8467C25.5352 106.852 37.7337 121.49 50.2606 131.904C74.4804 152.039 93.2849 158.58 94.0241 158.736C95.3869 159.027 97.2116 158.084 97.3579 156.57C97.5504 154.576 97.6916 152.576 97.7634 150.574C98.3126 134.988 94.5784 119.427 87.6053 105.528C84.1457 98.6307 79.8161 92.2136 74.7499 86.3953C69.5348 80.4073 63.4959 74.697 56.5279 70.8086C49.7396 67.0206 41.378 65.4606 34.1252 68.9326C30.6759 70.5851 27.7064 73.155 26.0331 76.6552C24.1057 80.6875 23.7643 85.4418 24.1288 89.8441L24.1262 89.8467Z" fill="#268785"/>
<path d="M30.1423 160.265C35.8604 169.029 46.7089 173.362 56.5026 175.318C75.4406 179.103 87.4927 177.134 87.9367 177.003C88.7554 176.762 89.4663 175.718 89.1045 174.86C88.6271 173.729 88.1215 172.606 87.5748 171.506C83.3273 162.936 76.7777 155.632 68.9628 150.171C65.0849 147.459 60.8784 145.262 56.4487 143.605C51.8906 141.898 46.9656 140.582 42.0739 140.521C37.3079 140.462 32.3418 142.065 29.4391 146.056C28.0584 147.955 27.2063 150.212 27.3244 152.589C27.4604 155.329 28.6615 157.994 30.1423 160.263V160.265Z" fill="#268785"/>
<path d="M29.2743 71.8623C36.5322 78.7034 43.6824 85.6628 50.5657 92.8843C57.3822 100.034 63.937 107.443 70.0375 115.217C76.1894 123.055 81.8792 131.266 86.8607 139.901C91.7576 148.385 95.9871 157.269 99.303 166.492C102.601 175.672 104.985 185.196 106.184 194.882C106.335 196.106 106.466 197.329 106.579 198.557C106.597 198.753 106.294 198.781 106.276 198.586C105.362 188.797 103.237 179.154 100.135 169.833C97.0188 160.476 92.9458 151.451 88.1671 142.831C83.4037 134.237 77.9346 126.052 71.9855 118.239C65.9594 110.326 59.4483 102.791 52.6522 95.5365C45.9255 88.3561 38.9216 81.4456 31.792 74.6687C30.8886 73.8103 29.9852 72.9545 29.0766 72.0987C28.9355 71.9651 29.128 71.7312 29.2717 71.8649L29.2743 71.8623Z" fill="#1F2144"/>
<path d="M28.9335 148.649C41.5811 150.469 53.9258 154.262 65.4159 159.867C71.1854 162.681 76.8496 165.889 81.9594 169.792C86.5483 173.298 90.67 177.41 94.204 181.981C98.1025 187.024 101.264 192.606 103.59 198.542C103.661 198.725 103.366 198.804 103.297 198.624C99.0957 187.9 92.0918 178.332 83.1349 171.1C78.2201 167.135 72.715 163.905 67.0995 161.047C61.4225 158.158 55.5222 155.717 49.4679 153.743C42.7489 151.553 35.8476 149.952 28.854 148.945C28.6615 148.917 28.7436 148.624 28.9335 148.652V148.649Z" fill="#1F2144"/>
<path d="M86.7171 180.087C93.5003 180.077 109.038 179.848 113.783 179.807C114.222 179.805 114.515 179.473 114.445 180.051C114.086 183.045 113.724 186.045 113.206 188.997C112.81 191.241 112.441 193.834 111.448 195.777C110.524 197.586 109.092 198.11 107.523 198.218C105.25 198.373 102.958 198.326 100.681 198.375C98.605 198.419 96.4107 198.735 94.3472 198.37C92.6867 198.074 91.5113 196.905 90.6387 195.032C89.5505 192.701 88.7318 190.067 87.9208 187.548C87.0636 184.883 86.6375 183.128 86.055 180.332C85.9369 179.764 86.2757 180.09 86.7171 180.09V180.087Z" fill="#1F2144"/>
<path d="M132.728 36.9532C129.992 34.5117 126.294 26.5038 126.53 12.9886C126.766 -0.526721 140.184 -1.54699 141.595 1.28251C141.595 1.28251 146.988 0.979259 149.049 5.76191C156.268 22.4973 145.124 34.833 143.713 35.0694C142.301 35.3059 144.152 47.1507 132.728 36.9558V36.9532Z" fill="#1F2144"/>
<path d="M156.298 34.54C156.126 34.4397 155.951 34.3446 155.78 34.247C155.695 34.1185 155.587 34.0028 155.448 33.9129C153.452 32.6151 151.273 31.8055 149.007 31.3378C145.064 30.13 140.909 29.6314 136.777 29.9012C133.474 30.1171 130.189 30.7904 127.097 31.9726C125.919 32.4223 124.078 32.9055 123.686 34.2984C123.596 34.6145 123.601 34.9306 123.676 35.2236C123.504 35.5756 123.552 35.992 123.753 36.3312C123.488 36.6345 123.298 36.9968 123.226 37.4363C123.083 38.3229 123.755 39.2018 124.723 38.9345C125.149 38.8163 125.577 38.7032 126.003 38.585C127.505 40.2349 129.199 41.7101 131.046 42.9616C131.306 43.7043 132.065 44.2517 132.866 44.1207C133.882 44.7503 135.137 45.475 136.349 45.7963C136.564 46.7446 137.819 47.4307 138.802 46.9887C139.285 47.6055 140.103 47.9165 140.861 47.3434C140.974 47.256 141.084 47.166 141.197 47.0787C141.197 47.0787 141.212 47.0658 141.222 47.0581C142.886 45.7706 144.441 44.3879 145.888 42.8999C147.4 41.7409 148.868 40.5305 150.282 39.2506C151.116 38.4977 150.762 37.2744 150.015 36.6756C149.979 36.6165 149.941 36.5599 149.897 36.506C151.827 36.6088 153.757 36.7167 155.685 36.8015C156.914 36.8555 157.307 35.1259 156.298 34.5322V34.54ZM132.948 39.7338C132.848 39.8237 132.748 39.9137 132.648 40.0062C132.517 39.9137 132.386 39.8212 132.255 39.7261C132.363 39.7209 132.471 39.7107 132.579 39.703C132.702 39.7132 132.825 39.7235 132.948 39.7338Z" fill="#F7A392"/>
<path d="M189.501 35.1747C189.413 35.1875 189.337 35.2158 189.267 35.2518C189.36 34.468 188.218 33.9257 187.874 34.7507C185.323 40.8722 182.484 47.6851 176.301 50.9412C173.583 52.3727 164.111 53.9583 161.211 40.8825C161.141 40.5716 158.631 45.182 158.375 45.3593C157.217 46.1714 156.06 46.981 154.902 47.7931C154.119 48.3405 152.828 48.947 152.438 49.9004C151.817 51.4192 151.656 48.6823 152.438 49.9004C161.78 64.4617 174.179 61.6245 178.147 59.4066C182.212 57.1348 185.299 52.2262 187.273 48.1426C188.51 45.5829 189.478 42.8768 190.137 40.1115C190.343 39.248 191.775 34.8175 189.501 35.1747Z" fill="#F79884"/>
<path d="M118.862 134.783C118.926 145.733 123.707 183.159 123.771 194.11C123.771 194.47 124.01 194.719 124.328 194.845C126.104 195.541 127.447 194.04 127.87 192.452C128.604 189.7 128.815 186.672 129.225 183.856C130.711 173.697 131.535 163.504 132.164 153.263C132.813 142.721 133.914 132.218 135.536 121.782C135.685 120.82 134.219 120.409 134.071 121.376C133.999 121.833 133.932 122.29 133.863 122.748C131.907 122.879 129.815 123.092 128.116 124.141C126.284 125.272 123.823 116.056 123.415 118.086C121.287 128.664 118.795 124.064 118.857 134.791L118.862 134.783Z" fill="#F7A392"/>
<path d="M119.996 203.598C120.627 203.752 121.566 203.344 122.151 203.174C123.019 202.922 123.948 202.647 124.772 202.269C126.088 201.66 126.733 199.013 127.549 197.87C128.645 196.335 128.668 196.202 128.437 194.377C128.129 191.956 128.373 189.63 128.722 187.225C128.778 186.839 128.19 186.678 128.134 187.066C127.959 188.268 127.785 189.474 127.705 190.689C127.68 190.689 127.654 190.681 127.626 190.687C126.194 190.918 123.725 191.226 123.732 193.125C123.743 196.284 119.621 199.846 119.454 201.385C119.375 202.125 119 203.359 119.998 203.601L119.996 203.598Z" fill="#F7A392"/>
<path d="M118.746 204.595C119.054 204.873 119.637 204.654 119.97 204.6C121.048 204.426 122.131 204.256 123.204 204.048C124.587 203.778 125.586 203.282 126.176 201.953C126.589 201.02 126.92 200.103 127.295 199.203L127.416 201.647C127.421 201.725 127.482 201.804 127.567 201.799C127.795 201.784 128.016 201.758 128.242 201.717C128.304 201.707 128.358 201.632 128.352 201.57C128.245 199.792 128.406 198.034 128.84 196.307C128.991 195.981 128.494 195.675 128.265 195.999C127.824 196.618 127.421 197.255 127.067 197.918C126.72 198.566 126.415 199.239 126.163 199.938C126.086 200.154 126.02 200.378 125.955 200.601C125.945 200.601 125.937 200.594 125.925 200.591C123.766 200.401 121.957 200.226 119.801 200.442C119.696 200.452 119.585 200.555 119.557 200.655C119.362 201.37 118.063 203.976 118.749 204.595H118.746Z" fill="#1F2144"/>
<path d="M138.456 133.842C138.484 144.793 143.145 182.234 143.171 193.185C143.171 193.544 143.407 193.796 143.725 193.922C145.499 194.624 146.846 193.128 147.275 191.54C148.019 188.788 148.237 185.763 148.658 182.946C150.177 172.792 151.034 162.602 151.697 152.364C152.379 141.825 153.516 131.326 155.172 120.892C155.323 119.934 153.86 119.515 153.706 120.481C153.634 120.939 153.565 121.396 153.493 121.851C151.537 121.977 149.446 122.183 147.742 123.223C145.904 124.349 143.476 115.126 143.06 117.153C140.899 127.723 138.423 123.115 138.448 133.842H138.456Z" fill="#F7A392"/>
<path d="M157.592 92.9007C155.552 83.2917 154.025 81.4542 153.878 77.5043C153.835 76.2964 154.533 71.7116 154.03 70.5757C153.473 69.319 122.406 69.2419 122.349 69.2805C122.203 68.4966 122.496 75.2761 122.452 76.1833C122.203 81.2358 120.373 83.3072 119.208 88.1618C118.027 93.078 111.909 137.345 114.375 155.463C114.432 155.88 114.722 156.214 115.138 156.224C124.169 156.437 135.51 156.602 146.076 156.72C147.118 151.601 148.843 130.836 150.237 125.786C150.362 125.328 150.935 125.31 151.184 125.662C152.582 127.636 150.347 152.151 150.28 156.681C153.006 156.707 158.395 156.841 160.844 156.859C161.283 156.861 161.596 156.504 161.604 156.095C161.888 139.627 161.059 109.22 157.592 92.8982V92.9007Z" fill="#F5E4D5"/>
<path d="M139.365 202.662C139.997 202.817 140.936 202.413 141.524 202.244C142.391 201.994 143.323 201.724 144.147 201.347C145.466 200.743 146.118 198.096 146.936 196.957C148.037 195.428 148.061 195.292 147.835 193.467C147.534 191.046 147.786 188.721 148.143 186.315C148.199 185.932 147.614 185.768 147.555 186.153C147.378 187.356 147.198 188.561 147.113 189.774C147.088 189.774 147.062 189.767 147.034 189.772C145.602 190 143.13 190.298 143.13 192.198C143.13 195.356 138.996 198.905 138.824 200.445C138.742 201.185 138.362 202.416 139.36 202.662H139.365Z" fill="#F7A392"/>
<path d="M138.112 203.657C138.418 203.935 139.003 203.721 139.337 203.667C140.415 203.495 141.5 203.331 142.57 203.128C143.956 202.863 144.955 202.37 145.547 201.041C145.963 200.111 146.299 199.193 146.674 198.294L146.787 200.738C146.79 200.815 146.854 200.894 146.939 200.889C147.167 200.876 147.388 200.848 147.613 200.81C147.675 200.799 147.729 200.725 147.726 200.663C147.626 198.885 147.793 197.127 148.229 195.4C148.381 195.076 147.886 194.765 147.655 195.089C147.211 195.706 146.808 196.343 146.448 197.006C146.099 197.654 145.794 198.325 145.54 199.024C145.463 199.239 145.396 199.463 145.329 199.687C145.319 199.687 145.311 199.679 145.299 199.676C143.14 199.481 141.331 199.299 139.175 199.507C139.07 199.517 138.957 199.62 138.931 199.72C138.733 200.432 137.427 203.035 138.11 203.657H138.112Z" fill="#1F2144"/>
<path d="M148.861 9.13612C148.874 7.22923 147.989 6.43255 146.459 5.60504C138.215 1.14363 130.816 5.22212 130.765 6.39658C130.557 11.1612 130.152 17.2391 132.361 21.5463C134.017 24.769 137.253 27.6242 140.954 26.0386C144.814 24.3835 148.784 19.7191 148.861 9.13612Z" fill="#F7A392"/>
<path d="M199.236 30.0659C199.574 29.6958 199.975 29.2281 199.998 28.8657C200.062 27.9251 198.966 28.619 198.64 28.912C197.955 29.5236 197.282 30.1353 196.574 30.7212C196.22 31.0167 195.871 31.3251 195.501 31.6001C195.319 31.7338 194.295 32.3634 194.056 32.1115C195.032 31.1709 196.007 30.2278 196.974 29.2795C197.375 28.8837 198.753 27.6835 198.401 26.9768C198.358 26.8894 198.283 26.8483 198.186 26.8535C197.062 26.8997 195.922 28.1847 195.204 28.9402C194.721 29.4439 193.99 30.5901 193.315 30.8214C193.127 30.8857 192.966 30.8651 192.822 30.7957C192.676 30.603 192.537 30.4051 192.419 30.1892C192.352 30.0273 192.275 29.8706 192.191 29.7189C192.173 29.6804 192.155 29.6418 192.139 29.6007C192.121 29.557 192.093 29.5288 192.062 29.5108C191.785 29.0867 191.416 28.7321 190.897 28.4982C190.019 28.105 189.124 29.3848 189.629 29.6444C190.299 29.9888 190.841 30.4848 191.182 31.1016C191.344 31.8031 191.226 32.5304 190.741 33.1447C190.294 33.71 189.668 33.9773 189.003 34.1495C188.998 34.1264 188.99 34.1032 188.975 34.0827C188.3 33.0573 188.02 31.8957 187.889 30.6878C187.833 30.1687 188.005 29.2152 187.489 28.8914C187.394 28.8323 187.296 28.858 187.23 28.9171C187.178 28.93 187.13 28.9634 187.099 29.0225C186.619 29.9502 186.413 31.117 186.511 32.1578C186.591 32.9853 186.978 33.71 187.394 34.4168C187.461 34.9822 187.281 35.4884 187.142 36.0847C187.05 36.4856 186.937 37.1023 187.124 37.5238C187.117 37.5495 187.114 37.5778 187.114 37.6035V37.6677C187.119 37.7474 187.209 37.8425 187.291 37.8425H187.34C187.355 37.8425 187.368 37.8373 187.381 37.8348C187.425 37.8656 187.473 37.8939 187.527 37.9144C187.571 37.9324 187.609 37.9299 187.648 37.9222C187.93 38.1175 188.3 38.4516 188.444 38.5312C188.608 38.6263 188.787 38.7805 188.985 38.8062C189.324 38.8525 189.663 38.6135 189.94 38.4464C191.113 37.7397 192.183 36.7631 193.156 35.8045C193.361 35.6015 193.6 35.3882 193.823 35.1621C194.516 34.7175 195.178 34.2292 195.807 33.7614C196.62 33.1575 197.403 32.5176 198.155 31.8366C198.609 31.4254 199.323 30.9319 199.336 30.2612C199.336 30.1687 199.305 30.107 199.23 30.0582L199.236 30.0659Z" fill="#F79884"/>
<path d="M142.224 29.1611L142.316 14.1219C142.291 13.5668 141.541 15.8694 141.262 16.3808C139.842 18.9816 138.67 20.2203 136.894 21.5772C136.84 21.6184 136.793 21.6698 136.75 21.7263C136.498 21.8754 136.529 22.0527 136.552 22.5641C136.709 25.8331 136.527 32.4403 137.135 35.3829C137.291 36.1462 137.355 34.8175 137.923 34.8689C138.305 34.9023 138.988 34.3858 139.398 34.1982C139.922 33.9592 139.858 33.9052 140.384 33.6662C140.956 33.4066 141.713 33.6354 142.162 32.6202C142.599 31.6308 142.265 30.0143 142.224 29.1585V29.1611Z" fill="#F7A392"/>
<path d="M135.821 14.7773C135.828 15.3426 135.564 15.8052 135.233 15.8104C134.899 15.8155 134.622 15.3606 134.614 14.7927C134.607 14.2273 134.871 13.7647 135.202 13.7596C135.536 13.7544 135.813 14.2093 135.821 14.7773Z" fill="#1F2144"/>
<path d="M143.959 14.9597C143.954 15.5251 143.677 15.9825 143.343 15.9774C143.009 15.9748 142.745 15.5122 142.75 14.9443C142.755 14.3789 143.032 13.9214 143.366 13.9266C143.7 13.9317 143.964 14.3917 143.959 14.9597Z" fill="#1F2144"/>
<path d="M145.437 11.9195C145.421 11.8938 145.126 11.7628 145.113 11.7602C144.192 11.4184 142.937 11.1537 142.052 11.5983C141.592 11.8296 141.143 12.395 141.79 12.6725C142.342 12.9064 143.137 12.8755 143.722 12.891C144.197 12.9038 144.777 12.9886 145.224 12.7753C145.768 12.5183 145.791 12.2022 145.437 11.917V11.9195Z" fill="#1F2144"/>
<path d="M133.077 12.3949C133.5 12.6544 134.086 12.6364 134.558 12.675C135.14 12.7238 135.926 12.8446 136.501 12.6724C137.176 12.4694 136.791 11.8577 136.359 11.5776C135.528 11.0354 134.252 11.1613 133.298 11.3977C133.285 11.3977 132.977 11.4954 132.959 11.5211C132.576 11.7652 132.561 12.0813 133.074 12.3974L133.077 12.3949Z" fill="#1F2144"/>
<path d="M142.016 20.7909C139.093 21.8343 136.488 20.5879 136.332 20.6393C136.267 20.6598 136.201 20.7112 136.214 20.7806C136.462 22.0476 137.897 22.762 139.016 22.8263C140.181 22.8931 141.811 22.2043 142.196 20.9862C142.229 20.8834 142.137 20.7472 142.019 20.7909H142.016Z" fill="white"/>
<path d="M139.957 19.2798C139.151 19.4803 138.407 19.2182 138.322 18.3161C138.284 17.8972 138.42 17.3601 138.466 16.9438C138.566 16.0469 138.682 15.1525 138.802 14.2582C138.828 14.0629 138.525 14.0474 138.5 14.2428C138.397 14.9958 138.299 15.7487 138.212 16.5043C138.135 17.1673 137.935 17.9486 138.014 18.6142C138.127 19.5625 139.254 19.7681 140.024 19.5779C140.214 19.5317 140.15 19.2336 139.96 19.2798H139.957Z" fill="#DB745E"/>
<path d="M89.9166 60.265C89.7062 59.9283 88.9722 59.7176 88.6514 59.5454C88.1535 59.2782 87.671 58.9878 87.1936 58.6896C87.055 57.3713 86.0875 56.2919 85.2688 55.2177C84.5476 54.2694 83.5287 52.1466 82.0324 52.3805C81.9144 52.3984 81.7989 52.5398 81.8656 52.6631C82.2711 53.4059 82.9204 53.9841 83.3798 54.6985C83.6493 55.1174 83.8803 55.5518 84.0805 55.9989C83.6929 55.6802 83.2849 55.3898 82.864 55.21C81.5037 54.3953 80.087 53.6963 78.6036 53.136C77.6669 52.7839 76.2091 52.0592 75.1877 52.365C75.1235 52.3856 75.0696 52.4601 75.0619 52.5244C74.9669 53.4059 76.861 53.8762 77.4564 54.1074C78.6498 54.57 79.8124 55.084 80.9468 55.6674C80.9083 55.7034 80.8724 55.7419 80.8339 55.7805C80.7928 55.8216 80.7518 55.8627 80.7081 55.9064C79.3171 55.3898 77.9158 54.9016 76.4991 54.4621C75.5495 54.1691 74.2381 53.6474 73.2474 53.943C73.1576 53.9712 73.1191 54.074 73.1216 54.1589C73.1319 54.5675 73.5169 54.6754 73.848 54.8424C74.5666 55.2048 75.3186 55.4978 76.0757 55.7676C77.2562 56.1865 78.4548 56.554 79.62 57.0063C79.6071 57.0218 79.5943 57.0372 79.5815 57.0526C78.3187 56.6645 77.0355 56.3073 75.7317 56.0914C75.1081 55.9886 73.5913 55.634 73.1191 56.2354C73.0729 56.2919 73.0626 56.3716 73.0909 56.4409C73.3347 57.0449 74.4819 57.253 75.1825 57.415C74.718 57.397 74.2483 57.4021 73.7761 57.4329C73.6144 57.4432 73.5502 57.6385 73.6349 57.7619C74.1046 58.4352 75.4674 58.6151 76.2296 58.8104C77.4128 59.1137 78.6088 59.3475 79.7739 59.7073C79.8381 59.7613 79.8997 59.8127 79.9613 59.8667C80.7928 60.5888 81.7527 61.3727 82.7331 61.8815C83.0796 62.0614 83.4004 62.1436 83.7006 62.1513C84.0215 62.2284 84.3602 62.2336 84.7555 62.2207C86.2491 62.1719 87.458 62.4546 88.6745 63.3566C88.8285 63.4697 89.0158 63.3412 89.0723 63.1947C89.3084 62.5702 90.3375 60.9435 89.9192 60.2727L89.9166 60.265Z" fill="#F7A392"/>
<path d="M148.812 13.6902C148.063 12.9731 146.772 13.6747 146.52 14.5357C146.466 14.7233 146.587 14.8389 146.736 14.8646C146.602 15.1756 146.523 15.5431 146.502 15.9106C146.384 16.3475 146.338 16.7766 146.41 17.0825C146.41 17.2367 146.42 17.3909 146.43 17.5476C146.364 17.7224 146.338 17.9023 146.407 18.0719C146.862 19.1513 148.276 17.653 148.537 17.175C149.007 16.3192 149.656 14.5023 148.812 13.6927V13.6902Z" fill="#F7A392"/>
<path d="M129.653 13.5771C130.32 12.7804 131.68 13.3407 132.024 14.1656C132.099 14.3455 131.991 14.474 131.845 14.5151C132.012 14.8107 132.13 15.1653 132.191 15.5302C132.358 15.9517 132.448 16.3732 132.412 16.6841C132.427 16.8383 132.435 16.9925 132.44 17.1493C132.525 17.3164 132.571 17.4937 132.52 17.6659C132.186 18.7864 130.618 17.4526 130.305 17.008C129.745 16.2087 128.901 14.474 129.653 13.5745V13.5771Z" fill="#F79884"/>
<path d="M149.1 11.5571C149.118 11.5262 149.133 11.498 149.141 11.462C149.58 11.4543 150.057 11.0508 149.954 10.4366C149.811 9.56537 149.528 8.77126 149.148 8.0414C149.41 7.81524 149.546 7.42718 149.331 7.0237C148.471 5.42264 146.846 4.35611 145.07 3.71106C145.07 3.30244 144.827 2.86555 144.344 2.81415C142.95 2.6651 141.557 2.59057 140.158 2.59828C140.117 2.34129 139.95 2.12027 139.622 2.05088C138.477 1.81702 137.445 2.02004 136.411 2.3233C136.252 2.03289 135.939 1.83244 135.567 1.91982C134.907 2.07658 134.248 2.40553 133.619 2.80644C133.349 2.51604 132.887 2.38754 132.507 2.71393C131.44 3.62882 130.303 4.64909 130.118 6.16792C130.08 6.48659 130.234 6.71788 130.457 6.84895C129.972 7.96173 129.623 9.13876 129.425 10.3826C129.31 11.1022 129.987 11.5314 130.465 11.3772C130.377 11.8475 130.316 12.3229 130.277 12.8035C130.246 13.207 130.803 13.2275 130.875 12.8549C130.875 12.8497 130.88 12.8472 130.883 12.8395C131.745 10.2721 133.973 9.19273 136.175 8.29325C137.733 7.65591 138.821 6.50715 139.516 4.96262C139.694 5.88265 139.973 6.78727 140.576 7.5197C141.441 8.5708 142.722 8.80724 143.869 9.41631C145.309 10.1822 145.899 11.4543 146.964 12.5953C147.29 12.9448 148.414 13.5256 148.53 13.3457C148.758 13.3226 148.997 13.2455 149.243 13.0965C149.664 12.8446 149.413 12.2561 149.025 12.2432C149.059 12.179 149.082 12.1019 149.089 12.0094C149.097 11.8552 149.102 11.7036 149.1 11.5519V11.5571Z" fill="#1F2144"/>
<path d="M147.803 14.6951C147.793 15.3016 147.654 15.8747 147.385 16.4169C147.297 16.5917 147.559 16.7459 147.647 16.5711C147.942 15.98 148.096 15.353 148.108 14.6951C148.111 14.4998 147.808 14.4998 147.806 14.6951H147.803Z" fill="#DB745E"/>
<path d="M131.327 16.2165C131.096 15.6999 130.967 15.1577 130.942 14.5923C130.932 14.397 130.629 14.397 130.639 14.5923C130.667 15.2142 130.811 15.8027 131.068 16.3707C131.147 16.548 131.409 16.3938 131.329 16.2165H131.327Z" fill="#DB745E"/>
<path d="M134.283 6.91322C133.031 8.37294 131.779 9.89435 130.955 11.6111C130.88 10.8298 129.692 10.5445 129.482 11.4312C128.522 15.4634 128.001 19.5676 127.916 23.7077C127.883 23.9544 127.875 24.2114 127.898 24.4864C127.985 25.445 129.412 25.4836 129.417 24.4864C129.417 24.3014 129.425 24.1164 129.43 23.9313C129.584 22.7337 130.549 21.7674 131.029 20.6675C131.594 19.3723 131.563 17.9819 131.54 16.5993C131.481 13.0065 133.093 10.6319 135.356 7.99002C135.99 7.24988 134.92 6.16794 134.281 6.91322H134.283Z" fill="#1F2144"/>
<path d="M154.047 79.2466C154.032 79.1463 154.017 79.0461 154.004 78.9459C152.949 78.9073 151.894 78.8739 150.837 78.8457C150.506 76.2012 150.131 73.5644 149.708 70.9328C149.677 70.7401 149.384 70.8223 149.415 71.0151C149.833 73.6158 150.205 76.2243 150.531 78.8379C143.13 78.6323 135.723 78.6041 128.319 78.7634C126.253 78.8071 124.189 78.8714 122.123 78.9433C122.103 79.0461 122.082 79.1489 122.062 79.2491C131.56 78.915 141.069 78.8765 150.567 79.1386C151.943 90.2382 152.505 101.438 152.233 112.62C152.138 116.5 151.943 120.378 151.65 124.249C151.635 124.444 151.94 124.444 151.953 124.249C152.998 110.353 152.777 96.3675 151.268 82.5104C151.145 81.3873 151.011 80.2668 150.873 79.1463C151.917 79.1772 152.962 79.2054 154.006 79.244C154.019 79.244 154.032 79.244 154.045 79.244L154.047 79.2466Z" fill="#DBC6B6"/>
<path d="M156.224 36.7168C156.183 35.6143 155.8 34.6351 155.202 33.7845C153.277 32.5792 151.188 31.8133 149.02 31.3636C148.853 31.5563 148.671 31.7722 148.452 31.9958C146.723 33.7845 144.618 35.2468 142.229 35.9895C137.365 37.5032 132.273 35.6091 129.851 31.0938C128.919 31.3533 127.995 31.6514 127.092 31.9958C125.914 32.4455 124.074 32.9287 123.681 34.3216C123.591 34.6377 123.596 34.9538 123.671 35.2468C123.499 35.5988 123.547 36.0152 123.748 36.3544C123.483 36.6577 123.293 37.02 123.222 37.4595C123.078 38.3461 123.75 39.225 124.718 38.9577C125.144 38.8395 125.572 38.7265 125.998 38.6082C127.5 40.2581 129.194 41.7333 131.042 42.9848C131.301 43.7275 132.06 44.2749 132.861 44.1439C133.877 44.7735 135.135 45.4982 136.344 45.8195C136.559 46.7678 137.814 47.4539 138.797 47.0119C139.28 47.6287 140.099 47.9397 140.856 47.3666C140.969 47.2792 141.079 47.1892 141.192 47.1019C141.192 47.1019 141.207 47.089 141.218 47.0813C142.881 45.7938 144.436 44.4111 145.883 42.9232C147.395 41.7641 148.863 40.5537 150.277 39.2738C151.111 38.5209 150.757 37.2976 150.01 36.6988C149.974 36.6397 149.936 36.5831 149.892 36.5292C151.822 36.632 153.752 36.7399 155.68 36.8247C155.888 36.835 156.067 36.7887 156.224 36.7116V36.7168ZM132.643 40.0268C132.512 39.9343 132.381 39.8418 132.25 39.7467C132.358 39.7416 132.466 39.7313 132.574 39.7236C132.697 39.7339 132.82 39.7441 132.943 39.7544C132.843 39.8444 132.743 39.9343 132.643 40.0268Z" fill="#F5E4D5"/>
<path d="M189.45 46.7522C189.714 46.2228 189.845 45.5392 189.991 45.1332C190.23 44.4701 190.987 43.2545 190.7 42.535C190.392 41.7588 188.808 41.4325 188.131 41.1318C187.299 40.7643 185.893 39.7492 184.958 39.8263C184.286 39.8828 184.099 40.3531 183.824 40.921C183.324 41.967 182.91 43.0592 182.533 44.1566C180.988 43.6914 179.594 44.5189 178.434 45.642C177.467 46.58 176.463 47.3382 175.28 48.0809C166.78 53.4109 164.652 44.3288 163.336 42.5735C162.019 40.8208 157.8 35.6707 157.122 34.9562C155.639 33.3886 153.758 32.2218 151.471 31.5356C148.037 36.3825 143.936 40.79 139.247 44.4239C138.913 44.6809 138.395 44.8839 138.002 44.5858C135.384 42.5915 126.684 32.6433 126.153 31.7438C118.274 34.5887 114.688 40.7566 111.098 48.0449C109.876 49.9235 108.711 51.9229 107.238 53.5985C105.801 55.233 103.876 56.3149 102.387 57.898C101.427 58.9209 100.632 59.715 99.1099 59.7638C98.1295 59.7946 97.162 59.5788 96.1841 59.7175C95.4296 59.8229 94.7623 60.0799 94.2362 60.5116C93.7845 60.2983 93.3328 60.085 92.8785 59.8743C92.3781 59.6404 91.8622 59.3166 91.3078 59.2344C91.1898 59.2164 91.0846 59.2344 90.9896 59.2678C90.697 59.1856 90.3429 59.2935 90.2299 59.6687C89.9373 60.6299 89.6422 61.5884 89.3496 62.5496C89.1212 63.3 88.5309 64.4539 88.5822 65.2378C88.6592 66.4019 90.8792 66.8851 91.893 67.2012C93.9231 69.4679 96.2432 72.0249 99.4641 72.0943C112.753 72.3847 119.67 64.7186 120.45 63.3386C121.002 65.0322 121.425 66.8003 121.407 67.8334C121.359 70.6346 121.246 71.128 121.985 73.8599C122.18 74.5769 122.403 75.2811 122.652 75.9775C127.557 76.6328 136.727 75.8207 141.41 75.7899C143.977 75.7719 150.244 76.1471 152.79 76.435C152.947 76.4529 153.106 76.4709 153.268 76.4863C153.617 76.016 153.971 75.5483 154.302 75.06C155.133 73.8419 155.103 72.1971 155.549 70.8017C156.178 68.8254 157.187 62.5162 157.905 59.6867C158.922 60.2726 160.864 61.2646 161.886 61.8377C163.613 62.8066 165.433 63.7343 167.447 63.832C169.444 63.9297 171.477 63.1921 173.312 62.4802C174.338 62.0819 185.726 57.2992 189.445 46.7497L189.45 46.7522Z" fill="#E7B05B"/>
<path d="M155.528 53.3672C154.599 51.2291 153.747 49.0318 153.349 46.724C152.939 44.3416 153.093 41.8873 153.763 39.5667C154.317 37.6444 155.218 35.8454 156.414 34.2572C156.339 34.1904 156.262 34.1261 156.185 34.0593C153.924 37.0687 152.695 40.8285 152.828 44.614C152.998 49.4429 155.477 53.727 157.268 58.0856C157.494 58.6356 157.707 59.1881 157.907 59.7458C157.912 59.7252 157.918 59.7021 157.923 59.6816C158.028 59.7407 158.143 59.8075 158.267 59.8743C157.494 57.6565 156.462 55.508 155.533 53.3647L155.528 53.3672ZM118.669 36.4391C118.563 36.5419 118.458 36.6447 118.355 36.75C118.566 43.198 120.966 49.7745 120.822 56.2019C120.76 58.98 120.296 61.7247 119.8 64.4565C119.952 64.2124 120.096 63.9631 120.242 63.7138C120.578 61.8146 120.883 59.9077 121.035 57.9828C121.227 55.5388 121.094 53.1077 120.753 50.6817C120.085 45.9298 118.761 41.2603 118.669 36.4391Z" fill="#C79240"/>
<path d="M173.183 49.2528C171.869 50.0906 170.506 50.8359 169.092 51.4938C168.915 51.576 169.069 51.8381 169.246 51.7559C170.658 51.098 172.02 50.3527 173.337 49.5149C173.501 49.4095 173.35 49.1474 173.183 49.2528Z" fill="#C79240"/>
<path d="M93.5971 62.1437C93.0786 63.5109 92.5602 64.8756 92.0418 66.2428C91.9725 66.4252 92.2651 66.5049 92.3344 66.3224C92.8528 64.9552 93.3712 63.5906 93.8896 62.2234C93.9589 62.0409 93.6664 61.9612 93.5971 62.1411V62.1437Z" fill="#C79240"/>
<path d="M102.559 68.6662C101.533 67.921 100.586 67.0883 99.7081 66.1708C99.5721 66.0295 99.3565 66.2454 99.4925 66.3867C100.386 67.3222 101.358 68.1677 102.405 68.9284C102.565 69.044 102.716 68.7793 102.559 68.6662Z" fill="#C79240"/>
<path d="M102.285 70.0462C101.371 69.7069 100.534 69.2289 99.7798 68.6147C99.6284 68.4914 99.4128 68.7072 99.5643 68.8306C100.362 69.4782 101.24 69.9819 102.205 70.3417C102.39 70.4111 102.467 70.1156 102.287 70.0487L102.285 70.0462Z" fill="#C79240"/>
<path d="M189.198 46.1871C187.176 45.5137 185.153 44.8327 183.126 44.1722C182.939 44.1106 182.859 44.4061 183.046 44.4652C185.074 45.1257 187.094 45.8067 189.119 46.48C189.306 46.5417 189.386 46.2487 189.198 46.1871Z" fill="#C79240"/>
<path d="M187.628 37.0353C187.684 36.5573 189.509 21.2123 189.56 20.9013C189.609 20.5903 189.678 20.1021 190.433 20.1021C191.187 20.1021 197.229 20.3822 197.809 20.4233C198.391 20.4644 198.62 20.8139 198.527 21.5823C198.432 22.3507 196.731 36.7938 196.646 37.408C196.564 38.0222 196.41 38.4 195.484 38.3434C194.557 38.2869 189.296 37.9528 188.59 37.8963C187.884 37.8397 187.54 37.7883 187.628 37.0353Z" fill="#1F2144"/>
<path d="M189.945 20.9245C190.014 20.6032 190.137 20.521 190.663 20.521C191.19 20.521 197.529 20.8268 197.862 20.8268C198.196 20.8268 198.237 21.1892 198.168 21.6775C198.099 22.1658 196.266 36.9069 196.22 37.2615C196.174 37.6162 196.022 37.755 195.496 37.7293C194.97 37.701 188.977 37.1844 188.505 37.1562C188.035 37.1279 187.966 36.8529 188.007 36.3287C188.048 35.8018 189.945 20.9245 189.945 20.9245Z" fill="white"/>
<path d="M196.292 27.3237L189.94 27.0435V27.023L190.39 23.8054H190.408L196.806 24.1061L196.292 27.3262V27.3237ZM189.987 27.005L196.259 27.2825L196.76 24.1395L190.423 23.844L189.987 27.005Z" fill="#73A7F4"/>
<path d="M195.607 24.548C195.845 24.5583 195.981 24.7768 195.933 25.062C195.884 25.3473 195.681 25.4784 195.478 25.4707C195.276 25.4655 195.122 25.2728 195.147 25.0081C195.173 24.7434 195.345 24.5326 195.609 24.5455L195.607 24.548Z" fill="#FFAD1D"/>
</g>
<defs>
<clipPath id="clip0_598_9281">
<rect width="200" height="218" fill="white"/>
</clipPath>
</defs>
</svg>
