<svg width="480" height="193" viewBox="0 0 480 193" fill="none" xmlns="http://www.w3.org/2000/svg">
<path d="M345.205 116.841C342.701 119.391 339.776 121.491 336.559 123.048C333.502 124.513 330.154 125.27 326.764 125.262C323.326 125.306 319.919 124.597 316.784 123.185C312.56 121.243 308.98 118.131 306.469 114.219C303.957 110.306 302.618 105.756 302.609 101.107C302.588 97.7357 303.288 94.3989 304.662 91.3202C305.931 88.4295 307.751 85.8136 310.02 83.6186C312.259 81.4777 314.879 79.7754 317.745 78.6001C320.674 77.3812 323.82 76.7712 326.992 76.8074C330.164 76.8435 333.295 77.5249 336.195 78.8102C339.313 80.1571 342.136 82.1039 344.502 84.5399L337.924 91.1829C336.413 89.6504 334.632 88.4094 332.671 87.522C330.829 86.683 328.829 86.245 326.805 86.237C324.833 86.2253 322.881 86.6272 321.075 87.4169C319.328 88.1937 317.741 89.29 316.396 90.6495C315.019 92.0289 313.929 93.6677 313.19 95.471C312.451 97.2744 312.076 99.2064 312.089 101.155C312.074 103.124 312.465 105.074 313.236 106.885C314.738 110.413 317.547 113.222 321.075 114.724C322.886 115.496 324.836 115.886 326.805 115.872C328.981 115.89 331.13 115.392 333.076 114.417C335.125 113.352 336.991 111.966 338.603 110.312L345.205 116.841Z" fill="black"/>
<path d="M354.976 124.777V77.307H364.334V124.777H354.976Z" fill="black"/>
<path d="M397.151 76.8302L418.51 124.777H408.142L404.271 116.098H386.169C385.576 117.456 384.932 118.913 384.237 120.47C383.542 122.027 382.92 123.463 382.371 124.777H372.059L393.151 76.8302H397.151ZM400.069 106.675L395.22 95.6923L390.323 106.675H400.069Z" fill="black"/>
<path d="M427.125 76.8302H431.262L456.896 105.317V77.307H466.286V125.262H462.084L436.515 96.8479V124.777H427.125V76.8302Z" fill="black"/>
<path d="M280.038 29.4488H279.368C279.325 26.2232 278.016 23.1437 275.722 20.8756C273.428 18.6075 270.334 17.3327 267.108 17.3266H225.66C225.338 17.3266 225.03 17.4543 224.803 17.6816C224.575 17.909 224.448 18.2173 224.448 18.5388C224.448 18.8603 224.575 19.1686 224.803 19.396C225.03 19.6233 225.338 19.751 225.66 19.751H267.108C269.717 19.7553 272.219 20.7937 274.064 22.6388C275.909 24.4838 276.947 26.985 276.951 29.5942V154.234C276.943 156.84 275.902 159.336 274.057 161.176C272.213 163.017 269.714 164.051 267.108 164.053H25.0516C22.4418 164.051 19.9394 163.013 18.094 161.168C16.2486 159.322 15.2109 156.82 15.2087 154.21V29.5942C15.213 26.985 16.2514 24.4838 18.0964 22.6388C19.9413 20.7937 22.4424 19.7553 25.0516 19.751H194.143C194.465 19.751 194.773 19.6233 195 19.396C195.227 19.1686 195.355 18.8603 195.355 18.5388C195.355 18.2173 195.227 17.909 195 17.6816C194.773 17.4543 194.465 17.3266 194.143 17.3266H25.0516C21.8037 17.3373 18.6921 18.634 16.3977 20.933C14.1033 23.232 12.8128 26.3461 12.8086 29.5942V154.234C12.8192 157.478 14.1126 160.586 16.4063 162.88C18.7 165.174 21.8079 166.467 25.0516 166.478H25.7224C25.7627 169.704 27.0716 172.785 29.3658 175.053C31.6601 177.322 34.7552 178.596 37.9816 178.6H64.8435C65.165 178.6 65.4734 178.472 65.7007 178.245C65.928 178.017 66.0557 177.709 66.0557 177.388C66.0557 177.066 65.928 176.758 65.7007 176.53C65.4734 176.303 65.165 176.175 64.8435 176.175H37.9816C35.3981 176.171 32.9196 175.153 31.08 173.339C29.2404 171.525 28.187 169.061 28.1467 166.478H267.108C270.361 166.473 273.478 165.179 275.778 162.88C278.078 160.58 279.371 157.462 279.376 154.21V31.8732H280.038C282.647 31.8775 285.149 32.9159 286.994 34.7609C288.839 36.6059 289.877 39.1071 289.881 41.7164V166.356C289.873 168.962 288.832 171.458 286.987 173.299C285.143 175.139 282.644 176.173 280.038 176.175H103.633C103.312 176.175 103.004 176.303 102.776 176.53C102.549 176.758 102.421 177.066 102.421 177.388C102.421 177.709 102.549 178.017 102.776 178.245C103.004 178.472 103.312 178.6 103.633 178.6H280.038C283.29 178.595 286.408 177.302 288.708 175.002C291.007 172.702 292.301 169.584 292.306 166.332V41.7164C292.301 38.4641 291.007 35.3463 288.708 33.0466C286.408 30.7469 283.29 29.453 280.038 29.4488Z" fill="black"/>
<path d="M81.4018 73.7674V121.715H72.0438V91.0617L54.952 108.017L37.9249 91.0455V121.698H28.5103V73.7674H33.7307L54.952 94.86L76.246 73.7674H81.4018Z" fill="#E6684F"/>
<path d="M105.751 83.6672V93.2275H121.105V102.723H105.751V112.284H126.875V121.715H96.3281V74.2442H126.875V83.6672H105.751Z" fill="#E6684F"/>
<path d="M138.027 121.715V74.2442H147.385V121.715H138.027Z" fill="#E6684F"/>
<path d="M173.091 122.191C171.046 122.196 169.012 121.896 167.055 121.302C165.118 120.721 163.269 119.878 161.56 118.797H161.624C160.465 118.07 159.382 117.228 158.392 116.284C157.438 115.387 156.775 114.724 156.42 114.32L163.475 107.806C163.927 108.35 164.439 108.841 165.002 109.269C165.766 109.871 166.577 110.412 167.427 110.885C168.334 111.41 169.286 111.853 170.271 112.211C171.183 112.557 172.148 112.741 173.124 112.752C173.899 112.751 174.672 112.662 175.427 112.485C176.164 112.324 176.873 112.052 177.528 111.677C178.159 111.295 178.693 110.773 179.088 110.15C179.521 109.435 179.735 108.609 179.702 107.774C179.683 107.352 179.555 106.943 179.33 106.586C178.983 106.051 178.545 105.581 178.037 105.196C177.244 104.574 176.392 104.033 175.492 103.58C174.178 102.909 172.829 102.311 171.451 101.786C169.645 101.102 167.878 100.319 166.158 99.442C164.613 98.665 163.187 97.6718 161.923 96.4923C160.753 95.3992 159.808 94.0867 159.143 92.6294C158.46 91.0462 158.124 89.3349 158.157 87.6108C158.144 85.7344 158.515 83.8752 159.248 82.1478C159.951 80.4778 161 78.9765 162.327 77.7434C163.734 76.4586 165.382 75.4668 167.176 74.826C170.416 73.6572 173.926 73.4578 177.278 74.2522C178.651 74.5644 180.001 74.9721 181.318 75.4725C182.592 75.9523 183.827 76.5305 185.011 77.2019C186.008 77.7713 186.945 78.4401 187.807 79.198L181.973 86.5279C181.116 85.938 180.235 85.3965 179.33 84.9116C178.476 84.4682 177.593 84.0821 176.688 83.756C175.708 83.401 174.675 83.2178 173.633 83.2145C172.071 83.1233 170.519 83.5156 169.188 84.3378C168.664 84.693 168.241 85.1769 167.958 85.7429C167.675 86.309 167.542 86.9383 167.572 87.5704C167.569 88.1941 167.771 88.8016 168.146 89.2998C168.576 89.8658 169.104 90.3502 169.705 90.7303C170.426 91.1944 171.189 91.5894 171.984 91.9101C172.841 92.2738 173.746 92.6132 174.692 92.9284C177.053 93.8063 179.344 94.8626 181.544 96.0883C183.193 96.9933 184.702 98.134 186.021 99.4744C187.097 100.573 187.924 101.891 188.446 103.337C188.935 104.79 189.179 106.314 189.165 107.847C189.177 109.799 188.76 111.73 187.945 113.504C187.146 115.241 186.003 116.797 184.583 118.078C183.097 119.408 181.372 120.445 179.5 121.133C177.446 121.871 175.274 122.23 173.091 122.191Z" fill="#E6684F"/>
<path d="M237.983 74.2442V121.715H228.561V102.723H209.707V121.715H200.349V74.2442H209.707V93.2275H228.561V74.2442H237.983Z" fill="#E6684F"/>
<path d="M252.134 121.715V74.2442H261.492V121.715H252.134Z" fill="#E6684F"/>
</svg>
