<svg width="161" height="64" viewBox="0 0 161 64" fill="none" xmlns="http://www.w3.org/2000/svg">
<path d="M115.788 38.7988C114.948 39.6455 113.966 40.3427 112.887 40.8597C111.862 41.3462 110.739 41.5975 109.602 41.595C108.449 41.6096 107.306 41.3742 106.255 40.9053C104.838 40.2602 103.637 39.227 102.795 37.9278C101.952 36.6286 101.503 35.1178 101.5 33.5739C101.493 32.4544 101.728 31.3464 102.189 30.3241C102.614 29.3642 103.225 28.4955 103.986 27.7667C104.737 27.0557 105.616 26.4905 106.577 26.1002C107.559 25.6954 108.615 25.4929 109.678 25.5049C110.742 25.5169 111.793 25.7432 112.765 26.17C113.811 26.6172 114.758 27.2637 115.552 28.0726L113.345 30.2785C112.838 29.7696 112.241 29.3575 111.583 29.0628C110.965 28.7842 110.295 28.6388 109.616 28.6361C108.954 28.6322 108.3 28.7657 107.694 29.0279C107.108 29.2859 106.575 29.6499 106.124 30.1014C105.663 30.5594 105.297 31.1036 105.049 31.7024C104.801 32.3012 104.676 32.9428 104.68 33.59C104.675 34.2436 104.806 34.8913 105.065 35.4926C105.568 36.664 106.511 37.5969 107.694 38.0957C108.301 38.3519 108.955 38.4816 109.616 38.4767C110.345 38.4829 111.066 38.3174 111.719 37.9937C112.406 37.6399 113.032 37.1797 113.573 36.6304L115.788 38.7988Z" fill="white"/>
<path d="M119.065 41.4341V25.6709H122.204V41.4341H119.065Z" fill="white"/>
<path d="M133.211 25.5125L140.375 41.434H136.898L135.599 38.5518H129.528C129.329 39.0027 129.113 39.4866 128.88 40.0036C128.647 40.5207 128.438 40.9974 128.254 41.434H124.795L131.87 25.5125H133.211ZM134.19 35.4228L132.563 31.7759L130.921 35.4228H134.19Z" fill="white"/>
<path d="M143.265 25.5125H144.652L153.25 34.972V25.6708H156.4V41.595H154.991L146.414 32.1596V41.434H143.265V25.5125Z" fill="white"/>
<path d="M93.9297 9.77874H93.7047C93.6905 8.70765 93.2512 7.68508 92.4818 6.93191C91.7125 6.17875 90.6747 5.75544 89.5927 5.75342H75.6902C75.5824 5.75342 75.479 5.79583 75.4027 5.87132C75.3265 5.94681 75.2836 6.04919 75.2836 6.15595C75.2836 6.26271 75.3265 6.36509 75.4027 6.44058C75.479 6.51607 75.5824 6.55848 75.6902 6.55848H89.5927C90.4679 6.5599 91.3068 6.90472 91.9257 7.51739C92.5445 8.13006 92.8928 8.96061 92.8942 9.82705V51.2155C92.8914 52.0807 92.5423 52.9096 91.9236 53.5207C91.3048 54.1318 90.4667 54.4753 89.5927 54.476H8.40291C7.52752 54.4753 6.68819 54.1307 6.0692 53.5178C5.45021 52.905 5.10215 52.0741 5.10143 51.2074V9.82705C5.10286 8.96061 5.45115 8.13006 6.06999 7.51739C6.68883 6.90472 7.52774 6.5599 8.40291 6.55848H65.119C65.2268 6.55848 65.3302 6.51607 65.4065 6.44058C65.4827 6.36509 65.5256 6.26271 65.5256 6.15595C65.5256 6.04919 65.4827 5.94681 65.4065 5.87132C65.3302 5.79583 65.2268 5.75342 65.119 5.75342H8.40291C7.31348 5.75696 6.26982 6.18754 5.50024 6.95096C4.73066 7.71438 4.29781 8.74848 4.29639 9.82705V51.2155C4.29996 52.2926 4.73376 53.3247 5.50311 54.0863C6.27245 54.848 7.31489 55.2775 8.40291 55.281H8.62788C8.64142 56.3523 9.08044 57.3753 9.84996 58.1286C10.6195 58.8819 11.6576 59.305 12.7398 59.3064H21.7498C21.8576 59.3064 21.961 59.2639 22.0373 59.1885C22.1135 59.113 22.1564 59.0106 22.1564 58.9038C22.1564 58.7971 22.1135 58.6947 22.0373 58.6192C21.961 58.5437 21.8576 58.5013 21.7498 58.5013H12.7398C11.8733 58.5 11.0419 58.1617 10.4249 57.5594C9.80789 56.957 9.45456 56.1388 9.44106 55.281H89.5927C90.6836 55.2796 91.7293 54.85 92.5007 54.0863C93.272 53.3227 93.706 52.2874 93.7074 51.2074V10.5838H93.9297C94.8048 10.5852 95.6437 10.9301 96.2626 11.5427C96.8814 12.1554 97.2297 12.9859 97.2311 13.8524V55.2408C97.2283 56.106 96.8793 56.9349 96.2605 57.546C95.6417 58.1571 94.8036 58.5006 93.9297 58.5013H34.7605C34.6527 58.5013 34.5493 58.5437 34.473 58.6192C34.3968 58.6947 34.3539 58.7971 34.3539 58.9038C34.3539 59.0106 34.3968 59.113 34.473 59.1885C34.5493 59.2639 34.6527 59.3064 34.7605 59.3064H93.9297C95.0205 59.3049 96.0662 58.8753 96.8376 58.1116C97.6089 57.348 98.0429 56.3127 98.0443 55.2327V13.8524C98.0429 12.7724 97.6089 11.7371 96.8376 10.9735C96.0662 10.2098 95.0205 9.78016 93.9297 9.77874Z" fill="white"/>
<path d="M27.3037 24.4954V40.4169H24.1649V30.2382L18.432 35.8683L12.7208 30.2328V40.4115H9.56299V24.4954H11.314L18.432 31.4994L25.5744 24.4954H27.3037Z" fill="#E6684F"/>
<path d="M35.4706 27.7828V30.9575H40.6207V34.1106H35.4706V37.2853H42.556V40.417H32.3101V24.6538H42.556V27.7828H35.4706Z" fill="#E6684F"/>
<path d="M46.2969 40.417V24.6538H49.4357V40.417H46.2969Z" fill="#E6684F"/>
<path d="M58.0577 40.5751C57.3718 40.5766 56.6894 40.4771 56.0329 40.2799C55.3832 40.0869 54.763 39.807 54.1897 39.448H54.2114C53.8227 39.2064 53.4595 38.9268 53.1272 38.6134C52.8074 38.3155 52.5851 38.0955 52.4658 37.9613L54.8322 35.7983C54.9838 35.979 55.1556 36.1419 55.3444 36.2841C55.6007 36.484 55.8726 36.6635 56.1576 36.8208C56.462 36.9949 56.7813 37.1422 57.1117 37.2609C57.4175 37.376 57.7414 37.4369 58.0686 37.4407C58.3286 37.4404 58.5878 37.4107 58.8411 37.3521C59.0884 37.2986 59.326 37.2081 59.5458 37.0838C59.7574 36.9569 59.9365 36.7833 60.069 36.5766C60.2144 36.3393 60.286 36.0649 60.275 35.7876C60.2688 35.6476 60.2258 35.5116 60.1503 35.3931C60.0338 35.2156 59.8871 35.0594 59.7166 34.9316C59.4506 34.7251 59.1646 34.5453 58.8628 34.3948C58.4222 34.1723 57.9698 33.9734 57.5075 33.7991C56.9018 33.572 56.3091 33.3122 55.7321 33.0209C55.214 32.7629 54.7357 32.433 54.3117 32.0414C53.919 31.6784 53.6022 31.2425 53.3793 30.7586C53.15 30.2329 53.0373 29.6647 53.0486 29.0921C53.0442 28.4691 53.1687 27.8517 53.4145 27.2781C53.6501 26.7235 54.0021 26.225 54.4472 25.8155C54.919 25.3889 55.4719 25.0596 56.0736 24.8468C57.1603 24.4586 58.3377 24.3924 59.4618 24.6562C59.9226 24.7599 60.3754 24.8953 60.8171 25.0615C61.2444 25.2208 61.6586 25.4128 62.0558 25.6357C62.3902 25.8248 62.7045 26.0469 62.9937 26.2986L61.0367 28.7326C60.7493 28.5367 60.4539 28.3569 60.1503 28.1958C59.8638 28.0486 59.5677 27.9204 59.2639 27.8121C58.9354 27.6942 58.5888 27.6334 58.2393 27.6323C57.7155 27.602 57.1949 27.7323 56.7485 28.0053C56.5728 28.1233 56.4307 28.2839 56.3358 28.4719C56.2409 28.6598 56.1963 28.8688 56.2064 29.0787C56.2054 29.2858 56.273 29.4876 56.3989 29.653C56.5433 29.8409 56.7204 30.0018 56.922 30.128C57.1638 30.2821 57.4197 30.4133 57.6864 30.5198C57.9737 30.6406 58.2773 30.7533 58.5944 30.8579C59.3864 31.1494 60.1548 31.5002 60.893 31.9072C61.4461 32.2077 61.952 32.5865 62.3947 33.0316C62.7555 33.3965 63.0328 33.834 63.2078 34.3143C63.3721 34.7967 63.4536 35.3028 63.4491 35.8118C63.453 36.46 63.3133 37.1012 63.0398 37.6902C62.772 38.2671 62.3883 38.7839 61.9122 39.2091C61.4138 39.651 60.8352 39.9952 60.2072 40.2235C59.5182 40.4687 58.7898 40.5878 58.0577 40.5751Z" fill="#E6684F"/>
<path d="M79.8238 24.6538V40.417H76.6633V34.1106H70.3395V40.417H67.2007V24.6538H70.3395V30.9575H76.6633V24.6538H79.8238Z" fill="#E6684F"/>
<path d="M84.5698 40.417V24.6538H87.7087V40.417H84.5698Z" fill="#E6684F"/>
</svg>
