<svg width="200" height="218" viewBox="0 0 200 218" fill="none" xmlns="http://www.w3.org/2000/svg">
<g clip-path="url(#clip0_78_1172)">
<path d="M120 210C158.108 210 189 205.299 189 199.5C189 193.701 158.108 189 120 189C81.8924 189 51 193.701 51 199.5C51 205.299 81.8924 210 120 210Z" fill="#3EB8B2"/>
<path d="M90.2453 34.6196C89.5652 35.3135 88.7721 35.884 87.897 36.308C87.068 36.7064 86.1569 36.912 85.2381 36.9094C84.3039 36.9222 83.38 36.7295 82.5279 36.344C81.3807 35.8146 80.4106 34.9691 79.7279 33.9051C79.0452 32.8412 78.6833 31.6051 78.6808 30.3407C78.6756 29.4232 78.8655 28.516 79.2377 27.6808C79.5816 26.8944 80.0769 26.1825 80.6929 25.5863C81.3011 25.0055 82.012 24.5403 82.7897 24.2216C83.5853 23.8901 84.4399 23.7256 85.2997 23.7334C86.162 23.7436 87.0115 23.9287 87.7994 24.2782C88.6464 24.6431 89.4112 25.1725 90.0554 25.8356L88.2691 27.6422C87.8585 27.2259 87.376 26.8892 86.8421 26.6477C86.3417 26.4189 85.8002 26.3007 85.2484 26.2981C84.712 26.2956 84.1833 26.4035 83.6931 26.6194C83.2183 26.8301 82.7871 27.1282 82.4227 27.4983C82.048 27.8735 81.7528 28.3181 81.5526 28.809C81.3525 29.2998 81.2498 29.8241 81.2524 30.3535C81.2472 30.888 81.355 31.42 81.5629 31.9109C81.971 32.8695 82.7332 33.6327 83.6905 34.0414C84.1833 34.2521 84.712 34.3575 85.2458 34.3523C85.8361 34.3575 86.4212 34.2213 86.9474 33.9565C87.5043 33.6661 88.0099 33.2909 88.4488 32.8412L90.2401 34.617L90.2453 34.6196Z" fill="black"/>
<path d="M95.4373 23.8721H92.8965V36.7783H95.4373V23.8721Z" fill="black"/>
<path d="M105.138 31.8569L103.821 28.8707L102.492 31.8569H105.138ZM104.345 23.7437L110.142 36.7784H107.327L106.277 34.4192H101.362C101.201 34.7892 101.026 35.185 100.839 35.6065C100.649 36.0305 100.482 36.4211 100.333 36.7784H97.5332L103.259 23.7437H104.345Z" fill="black"/>
<path d="M112.486 23.7437H113.608L120.568 31.4869V23.8721H123.117V36.9094H121.977L115.035 29.1842V36.7784H112.486V23.7437Z" fill="black"/>
<path d="M72.5516 10.8631H72.3694C72.3591 9.9868 72.0024 9.149 71.3787 8.53222C70.7551 7.91544 69.9158 7.56849 69.0406 7.56849H57.7867C57.6994 7.56849 57.6147 7.60447 57.5531 7.66615C57.4915 7.72783 57.4556 7.81264 57.4556 7.90002C57.4556 7.98739 57.4915 8.0722 57.5531 8.13388C57.6147 8.19556 57.6994 8.23154 57.7867 8.23154H69.0406C69.749 8.23154 70.4291 8.51423 70.9296 9.01537C71.43 9.5165 71.7123 10.1975 71.7123 10.9068V44.7863C71.7123 45.4956 71.4275 46.174 70.927 46.6726C70.4265 47.1712 69.749 47.4539 69.0406 47.4539H3.32358C2.61523 47.4539 1.93512 47.1712 1.43466 46.67C0.934196 46.1689 0.651884 45.4879 0.651884 44.7786V10.9017C0.651884 10.1924 0.934196 9.51136 1.43466 9.01023C1.93512 8.50909 2.61523 8.2264 3.32358 8.2264H49.2326C49.3199 8.2264 49.4046 8.19042 49.4662 8.12874C49.5278 8.06706 49.5637 7.98225 49.5637 7.89488C49.5637 7.8075 49.5278 7.72269 49.4662 7.66101C49.4046 7.59933 49.3199 7.56335 49.2326 7.56335H3.32358C2.44071 7.56592 1.59635 7.91801 0.975259 8.5425C0.351607 9.17213 0 10.0176 0 10.9017V44.7863C0.00256647 45.6678 0.354173 46.5133 0.977826 47.1378C1.60148 47.7622 2.44328 48.1118 3.32615 48.1169H3.50837C3.51863 48.9932 3.87537 49.831 4.49646 50.4478C5.11754 51.0646 5.95935 51.4116 6.83451 51.4116H14.1284C14.2157 51.4116 14.3004 51.3756 14.362 51.3139C14.4236 51.2522 14.4595 51.1674 14.4595 51.08C14.4595 50.9927 14.4236 50.9079 14.362 50.8462C14.3004 50.7845 14.2157 50.7485 14.1284 50.7485H6.83451C6.13387 50.7485 5.46145 50.471 4.96099 49.9775C4.46053 49.4841 4.17565 48.8134 4.16538 48.1118H69.0432C69.9261 48.1118 70.773 47.7597 71.3967 47.1326C72.0203 46.5056 72.3719 45.66 72.3745 44.776V11.5211H72.5541C73.2625 11.5211 73.9426 11.8037 74.4431 12.3049C74.9435 12.806 75.2258 13.4871 75.2258 14.1964V48.0809C75.2258 48.7902 74.941 49.4687 74.4405 49.9673C73.94 50.4658 73.2625 50.7485 72.5541 50.7485H24.6587C24.5714 50.7485 24.4867 50.7845 24.4251 50.8462C24.3635 50.9079 24.3276 50.9927 24.3276 51.08C24.3276 51.1674 24.3635 51.2522 24.4251 51.3139C24.4867 51.3756 24.5714 51.4116 24.6587 51.4116H72.5516C73.4344 51.4116 74.2814 51.0595 74.905 50.4324C75.5287 49.8079 75.8803 48.9598 75.8829 48.0758V14.1964C75.8829 13.3123 75.5312 12.4642 74.905 11.8397C74.2788 11.2152 73.4344 10.8631 72.5516 10.8606V10.8631Z" fill="black"/>
<path d="M18.6221 22.911V35.9457H16.0813V27.6114L11.4411 32.2219L6.8189 27.6063V35.9406H4.2627V22.911H5.67939L11.4411 28.6445L17.2234 22.911H18.6221Z" fill="#268785"/>
<path d="M25.2336 25.6017V28.1999H29.4015V30.7827H25.2336V33.3809H30.9696V35.9457H22.6748V23.0395H30.9696V25.6017H25.2336Z" fill="#268785"/>
<path d="M36.5359 23.0395H33.9951V35.9457H36.5359V23.0395Z" fill="#268785"/>
<path d="M43.5175 36.0742C42.9631 36.0742 42.4088 35.9945 41.8775 35.8326C41.3514 35.6758 40.8484 35.4445 40.3864 35.1516H40.4044C40.0887 34.9537 39.7961 34.725 39.5266 34.468C39.2674 34.2238 39.0878 34.0439 38.9902 33.9334L40.9048 32.1627C41.028 32.3118 41.1666 32.4429 41.3206 32.5611C41.5285 32.7255 41.7492 32.872 41.9776 33.0005C42.224 33.1419 42.4832 33.2627 42.7501 33.3603C42.9965 33.4554 43.2608 33.5042 43.5252 33.5068C43.7356 33.5068 43.9461 33.4811 44.1514 33.4349C44.3516 33.3912 44.5441 33.3166 44.7212 33.2164C44.8931 33.1136 45.0368 32.9697 45.1446 32.8001C45.2627 32.6048 45.3192 32.3812 45.3115 32.155C45.3063 32.0394 45.2704 31.9289 45.2114 31.8312C45.1164 31.6847 44.9983 31.5588 44.8598 31.4534C44.6442 31.2838 44.4132 31.1373 44.1694 31.014C43.8126 30.8315 43.4456 30.6696 43.0735 30.5257C42.5833 30.3406 42.1034 30.1273 41.6363 29.8883C41.2179 29.6776 40.8304 29.4078 40.4865 29.0865C40.1682 28.7884 39.9116 28.4338 39.7319 28.0354C39.5472 27.6062 39.4548 27.1411 39.465 26.6708C39.4625 26.1619 39.5626 25.6557 39.7602 25.1854C39.9501 24.7305 40.235 24.3244 40.5968 23.9878C40.9792 23.6383 41.4258 23.3684 41.9134 23.1937C42.7937 22.875 43.7459 22.821 44.657 23.0369C45.0291 23.1217 45.3961 23.2322 45.7529 23.3684C46.0994 23.4995 46.433 23.6563 46.7564 23.8387C47.0259 23.9929 47.2825 24.1754 47.5161 24.381L45.9325 26.3727C45.699 26.2133 45.4603 26.0643 45.2139 25.9332C44.9829 25.8124 44.7417 25.7071 44.4953 25.6197C44.2284 25.522 43.9487 25.4732 43.6663 25.4732C43.2429 25.4475 42.822 25.5554 42.4601 25.779C42.3189 25.8767 42.2035 26.0077 42.1265 26.1619C42.0495 26.3161 42.0135 26.4858 42.0212 26.6579C42.0212 26.8276 42.0751 26.992 42.1778 27.1282C42.2958 27.2824 42.437 27.4135 42.6013 27.5163C42.7963 27.6422 43.0042 27.7502 43.2198 27.8375C43.4533 27.9352 43.6971 28.0277 43.9538 28.1151C44.5954 28.3541 45.2165 28.6419 45.8145 28.9734C46.261 29.2202 46.6717 29.5286 47.031 29.8935C47.3236 30.1916 47.5469 30.5514 47.688 30.9446C47.8215 31.3404 47.8882 31.7541 47.8831 32.1704C47.8856 32.7024 47.7727 33.2267 47.552 33.7073C47.3364 34.1801 47.0259 34.6016 46.6383 34.9511C46.2354 35.3135 45.7657 35.5936 45.2576 35.7812C44.7006 35.9817 44.1103 36.0793 43.5175 36.069V36.0742Z" fill="#268785"/>
<path d="M61.1331 23.0395V35.9457H58.5744V30.7827H53.4568V35.9457H50.916V23.0395H53.4568V28.1999H58.5744V23.0395H61.1331Z" fill="#268785"/>
<path d="M67.5164 23.0395H64.9756V35.9457H67.5164V23.0395Z" fill="#268785"/>
<path d="M24.1262 89.8467C25.5352 106.852 37.7337 121.49 50.2606 131.904C74.4804 152.039 93.2849 158.58 94.0241 158.736C95.3869 159.027 97.2116 158.084 97.3579 156.57C97.5504 154.576 97.6916 152.576 97.7634 150.574C98.3126 134.988 94.5784 119.427 87.6053 105.528C84.1457 98.6307 79.8161 92.2136 74.7499 86.3953C69.5348 80.4073 63.4959 74.697 56.5279 70.8086C49.7396 67.0206 41.378 65.4606 34.1252 68.9326C30.6759 70.5851 27.7064 73.155 26.0331 76.6552C24.1057 80.6875 23.7643 85.4418 24.1288 89.8441L24.1262 89.8467Z" fill="#268785"/>
<path d="M30.1423 160.265C35.8604 169.029 46.7089 173.362 56.5026 175.318C75.4406 179.103 87.4927 177.135 87.9367 177.003C88.7554 176.762 89.4663 175.718 89.1045 174.86C88.6271 173.729 88.1215 172.606 87.5748 171.506C83.3273 162.936 76.7777 155.632 68.9628 150.171C65.0849 147.46 60.8784 145.262 56.4487 143.605C51.8906 141.898 46.9656 140.582 42.0739 140.521C37.3079 140.462 32.3418 142.065 29.4391 146.056C28.0584 147.956 27.2063 150.212 27.3244 152.589C27.4604 155.329 28.6615 157.994 30.1423 160.263V160.265Z" fill="#268785"/>
<path d="M29.2743 71.8623C36.5322 78.7035 43.6824 85.6629 50.5657 92.8844C57.3822 100.034 63.937 107.443 70.0375 115.217C76.1894 123.055 81.8792 131.266 86.8607 139.901C91.7576 148.385 95.9871 157.269 99.303 166.492C102.601 175.672 104.985 185.196 106.184 194.882C106.335 196.106 106.466 197.329 106.579 198.557C106.597 198.753 106.294 198.781 106.276 198.586C105.362 188.797 103.237 179.154 100.135 169.833C97.0188 160.476 92.9458 151.451 88.1671 142.831C83.4037 134.237 77.9346 126.052 71.9855 118.239C65.9594 110.327 59.4483 102.791 52.6522 95.5366C45.9255 88.3562 38.9216 81.4456 31.792 74.6687C30.8886 73.8104 29.9852 72.9546 29.0766 72.0988C28.9355 71.9651 29.128 71.7313 29.2717 71.8649L29.2743 71.8623Z" fill="#1F2144"/>
<path d="M28.9335 148.649C41.5811 150.469 53.9258 154.262 65.4159 159.867C71.1854 162.681 76.8496 165.888 81.9594 169.792C86.5483 173.298 90.67 177.409 94.204 181.981C98.1025 187.024 101.264 192.605 103.59 198.542C103.661 198.725 103.366 198.804 103.297 198.624C99.0957 187.9 92.0918 178.332 83.1349 171.1C78.2201 167.135 72.715 163.904 67.0995 161.047C61.4225 158.158 55.5222 155.717 49.4679 153.743C42.7489 151.553 35.8476 149.952 28.854 148.945C28.6615 148.917 28.7436 148.624 28.9335 148.652V148.649Z" fill="#1F2144"/>
<path d="M86.7171 180.087C93.5003 180.077 109.038 179.848 113.783 179.807C114.222 179.805 114.515 179.473 114.445 180.051C114.086 183.045 113.724 186.044 113.206 188.997C112.81 191.241 112.441 193.834 111.448 195.777C110.524 197.586 109.092 198.11 107.523 198.218C105.25 198.372 102.958 198.326 100.681 198.375C98.605 198.419 96.4107 198.735 94.3472 198.37C92.6867 198.074 91.5113 196.905 90.6387 195.032C89.5505 192.701 88.7318 190.066 87.9208 187.548C87.0636 184.883 86.6375 183.128 86.055 180.331C85.9369 179.764 86.2757 180.09 86.7171 180.09V180.087Z" fill="#1F2144"/>
<path d="M132.728 36.9531C129.992 34.5116 126.294 26.5037 126.53 12.9884C126.766 -0.526843 140.184 -1.54711 141.595 1.28239C141.595 1.28239 146.988 0.979137 149.049 5.76178C156.268 22.4972 145.124 34.8329 143.713 35.0693C142.301 35.3057 144.152 47.1506 132.728 36.9556V36.9531Z" fill="#1F2144"/>
<path d="M156.298 34.5399C156.126 34.4397 155.951 34.3446 155.78 34.2469C155.695 34.1184 155.587 34.0028 155.448 33.9128C153.452 32.615 151.273 31.8055 149.007 31.3378C145.064 30.1299 140.909 29.6313 136.777 29.9012C133.474 30.117 130.189 30.7904 127.097 31.9725C125.919 32.4223 124.078 32.9054 123.686 34.2983C123.596 34.6144 123.601 34.9305 123.676 35.2235C123.504 35.5756 123.552 35.9919 123.753 36.3311C123.488 36.6344 123.298 36.9968 123.226 37.4362C123.083 38.3228 123.755 39.2018 124.723 38.9345C125.149 38.8163 125.577 38.7032 126.003 38.585C127.505 40.2349 129.199 41.71 131.046 42.9616C131.306 43.7043 132.065 44.2517 132.866 44.1206C133.882 44.7502 135.137 45.475 136.349 45.7962C136.564 46.7445 137.819 47.4307 138.802 46.9887C139.285 47.6054 140.103 47.9164 140.861 47.3433C140.974 47.2559 141.084 47.166 141.197 47.0786C141.197 47.0786 141.212 47.0658 141.222 47.058C142.886 45.7705 144.441 44.3879 145.888 42.8999C147.4 41.7408 148.868 40.5304 150.282 39.2506C151.116 38.4976 150.762 37.2743 150.015 36.6755C149.979 36.6164 149.941 36.5599 149.897 36.5059C151.827 36.6087 153.757 36.7166 155.685 36.8014C156.914 36.8554 157.307 35.1258 156.298 34.5322V34.5399ZM132.948 39.7337C132.848 39.8237 132.748 39.9136 132.648 40.0061C132.517 39.9136 132.386 39.8211 132.255 39.726C132.363 39.7209 132.471 39.7106 132.579 39.7029C132.702 39.7132 132.825 39.7235 132.948 39.7337Z" fill="#F7A392"/>
<path d="M189.501 35.1747C189.413 35.1875 189.337 35.2158 189.267 35.2518C189.36 34.468 188.218 33.9257 187.874 34.7507C185.323 40.8722 182.484 47.6851 176.301 50.9412C173.583 52.3727 164.111 53.9583 161.211 40.8825C161.141 40.5716 158.631 45.182 158.375 45.3593C157.217 46.1714 156.06 46.981 154.902 47.7931C154.119 48.3405 152.828 48.947 152.438 49.9004C151.817 51.4192 151.656 48.6823 152.438 49.9004C161.78 64.4617 174.179 61.6245 178.147 59.4066C182.212 57.1348 185.299 52.2262 187.273 48.1426C188.51 45.5829 189.478 42.8768 190.137 40.1115C190.343 39.248 191.775 34.8175 189.501 35.1747Z" fill="#F79884"/>
<path d="M118.862 134.783C118.926 145.733 123.707 183.159 123.771 194.11C123.771 194.469 124.01 194.719 124.328 194.845C126.104 195.541 127.447 194.04 127.87 192.452C128.604 189.7 128.815 186.672 129.225 183.856C130.711 173.697 131.535 163.504 132.164 153.263C132.813 142.721 133.914 132.218 135.536 121.781C135.685 120.82 134.219 120.409 134.071 121.375C133.999 121.833 133.932 122.29 133.863 122.748C131.907 122.879 129.815 123.092 128.116 124.141C126.284 125.271 123.823 116.056 123.415 118.086C121.287 128.664 118.795 124.063 118.857 134.79L118.862 134.783Z" fill="#F7A392"/>
<path d="M119.996 203.598C120.627 203.752 121.566 203.343 122.151 203.174C123.019 202.922 123.948 202.647 124.772 202.269C126.088 201.66 126.733 199.013 127.549 197.869C128.645 196.335 128.668 196.202 128.437 194.377C128.129 191.956 128.373 189.63 128.722 187.225C128.778 186.839 128.19 186.677 128.134 187.065C127.959 188.268 127.785 189.473 127.705 190.689C127.68 190.689 127.654 190.681 127.626 190.687C126.194 190.918 123.725 191.226 123.732 193.125C123.743 196.284 119.621 199.846 119.454 201.385C119.375 202.125 119 203.359 119.998 203.6L119.996 203.598Z" fill="#F7A392"/>
<path d="M118.746 204.595C119.054 204.873 119.637 204.654 119.97 204.6C121.048 204.425 122.131 204.256 123.204 204.048C124.587 203.778 125.586 203.282 126.176 201.953C126.589 201.02 126.92 200.103 127.295 199.203L127.416 201.647C127.421 201.724 127.482 201.804 127.567 201.799C127.795 201.783 128.016 201.758 128.242 201.717C128.304 201.706 128.358 201.632 128.352 201.57C128.245 199.792 128.406 198.034 128.84 196.307C128.991 195.981 128.494 195.675 128.265 195.999C127.824 196.618 127.421 197.255 127.067 197.918C126.72 198.566 126.415 199.239 126.163 199.938C126.086 200.154 126.02 200.378 125.955 200.601C125.945 200.601 125.937 200.594 125.925 200.591C123.766 200.401 121.957 200.226 119.801 200.442C119.696 200.452 119.585 200.555 119.557 200.655C119.362 201.37 118.063 203.976 118.749 204.595H118.746Z" fill="#1F2144"/>
<path d="M138.456 133.842C138.484 144.793 143.145 182.234 143.171 193.184C143.171 193.544 143.407 193.796 143.725 193.922C145.499 194.624 146.846 193.128 147.275 191.54C148.019 188.787 148.237 185.762 148.658 182.946C150.177 172.792 151.034 162.602 151.697 152.364C152.379 141.824 153.516 131.326 155.172 120.892C155.323 119.934 153.86 119.515 153.706 120.481C153.634 120.938 153.565 121.396 153.493 121.851C151.537 121.977 149.446 122.182 147.742 123.223C145.904 124.349 143.476 115.125 143.06 117.153C140.899 127.723 138.423 123.115 138.448 133.842H138.456Z" fill="#F7A392"/>
<path d="M157.592 92.9005C155.552 83.2915 154.025 81.454 153.878 77.504C153.835 76.2961 154.533 71.7114 154.03 70.5755C153.473 69.3188 122.406 69.2417 122.349 69.2802C122.203 68.4964 122.496 75.2759 122.452 76.1831C122.203 81.2356 120.373 83.3069 119.208 88.1615C118.027 93.0778 111.909 137.345 114.375 155.463C114.432 155.879 114.722 156.213 115.138 156.224C124.169 156.437 135.51 156.601 146.076 156.72C147.118 151.6 148.843 130.835 150.237 125.785C150.362 125.328 150.935 125.31 151.184 125.662C152.582 127.636 150.347 152.15 150.28 156.681C153.006 156.707 158.395 156.84 160.844 156.858C161.283 156.861 161.596 156.504 161.604 156.095C161.888 139.627 161.059 109.22 157.592 92.8979V92.9005Z" fill="#F5E4D5"/>
<path d="M139.365 202.662C139.997 202.817 140.936 202.413 141.524 202.243C142.391 201.994 143.323 201.724 144.147 201.347C145.466 200.743 146.118 198.096 146.936 196.957C148.037 195.428 148.061 195.292 147.835 193.467C147.534 191.046 147.786 188.72 148.143 186.315C148.199 185.932 147.614 185.768 147.555 186.153C147.378 187.356 147.198 188.561 147.113 189.774C147.088 189.774 147.062 189.766 147.034 189.772C145.602 190 143.13 190.298 143.13 192.198C143.13 195.356 138.996 198.905 138.824 200.445C138.742 201.185 138.362 202.416 139.36 202.662H139.365Z" fill="#F7A392"/>
<path d="M138.112 203.657C138.418 203.934 139.003 203.721 139.337 203.667C140.415 203.495 141.5 203.331 142.57 203.127C143.956 202.863 144.955 202.369 145.547 201.041C145.963 200.11 146.299 199.193 146.674 198.293L146.787 200.737C146.79 200.815 146.854 200.894 146.939 200.889C147.167 200.876 147.388 200.848 147.613 200.809C147.675 200.799 147.729 200.725 147.726 200.663C147.626 198.885 147.793 197.127 148.229 195.4C148.381 195.076 147.886 194.765 147.655 195.089C147.211 195.706 146.808 196.343 146.448 197.006C146.099 197.654 145.794 198.324 145.54 199.023C145.463 199.239 145.396 199.463 145.329 199.686C145.319 199.686 145.311 199.679 145.299 199.676C143.14 199.481 141.331 199.298 139.175 199.506C139.07 199.517 138.957 199.62 138.931 199.72C138.733 200.432 137.427 203.035 138.11 203.657H138.112Z" fill="#1F2144"/>
<path d="M148.861 9.13612C148.874 7.22923 147.989 6.43255 146.459 5.60504C138.215 1.14363 130.816 5.22212 130.765 6.39658C130.557 11.1612 130.152 17.2391 132.361 21.5463C134.017 24.769 137.253 27.6242 140.954 26.0386C144.814 24.3835 148.784 19.7191 148.861 9.13612Z" fill="#F7A392"/>
<path d="M199.236 30.0656C199.574 29.6956 199.975 29.2278 199.998 28.8655C200.062 27.9249 198.966 28.6188 198.64 28.9117C197.955 29.5234 197.282 30.135 196.574 30.721C196.22 31.0165 195.871 31.3249 195.501 31.5999C195.319 31.7335 194.295 32.3631 194.056 32.1113C195.032 31.1707 196.007 30.2275 196.974 29.2792C197.375 28.8835 198.753 27.6833 198.401 26.9766C198.358 26.8892 198.283 26.8481 198.186 26.8532C197.062 26.8995 195.922 28.1844 195.204 28.94C194.721 29.4437 193.99 30.5899 193.315 30.8212C193.127 30.8854 192.966 30.8649 192.822 30.7955C192.676 30.6027 192.537 30.4049 192.419 30.189C192.352 30.0271 192.275 29.8703 192.191 29.7187C192.173 29.6801 192.155 29.6416 192.139 29.6005C192.121 29.5568 192.093 29.5285 192.062 29.5105C191.785 29.0865 191.416 28.7318 190.897 28.498C190.019 28.1048 189.124 29.3846 189.629 29.6442C190.299 29.9885 190.841 30.4845 191.182 31.1013C191.344 31.8029 191.226 32.5302 190.741 33.1444C190.294 33.7098 189.668 33.9771 189.003 34.1493C188.998 34.1261 188.99 34.103 188.975 34.0824C188.3 33.057 188.02 31.8954 187.889 30.6876C187.833 30.1684 188.005 29.215 187.489 28.8912C187.394 28.8321 187.296 28.8578 187.23 28.9169C187.178 28.9297 187.13 28.9631 187.099 29.0222C186.619 29.95 186.413 31.1167 186.511 32.1576C186.591 32.9851 186.978 33.7098 187.394 34.4165C187.461 34.9819 187.281 35.4882 187.142 36.0844C187.05 36.4853 186.937 37.1021 187.124 37.5236C187.117 37.5493 187.114 37.5775 187.114 37.6032V37.6675C187.119 37.7472 187.209 37.8422 187.291 37.8422H187.34C187.355 37.8422 187.368 37.8371 187.381 37.8345C187.425 37.8654 187.473 37.8936 187.527 37.9142C187.571 37.9322 187.609 37.9296 187.648 37.9219C187.93 38.1172 188.3 38.4513 188.444 38.531C188.608 38.6261 188.787 38.7803 188.985 38.806C189.324 38.8522 189.663 38.6132 189.94 38.4462C191.113 37.7394 192.183 36.7629 193.156 35.8043C193.361 35.6013 193.6 35.388 193.823 35.1618C194.516 34.7172 195.178 34.2289 195.807 33.7612C196.62 33.1573 197.403 32.5173 198.155 31.8363C198.609 31.4251 199.323 30.9317 199.336 30.2609C199.336 30.1684 199.305 30.1067 199.23 30.0579L199.236 30.0656Z" fill="#F79884"/>
<path d="M142.224 29.161L142.316 14.1217C142.291 13.5666 141.541 15.8693 141.262 16.3807C139.842 18.9815 138.67 20.2202 136.894 21.5771C136.84 21.6182 136.793 21.6696 136.75 21.7262C136.498 21.8752 136.529 22.0526 136.552 22.564C136.709 25.8329 136.527 32.4402 137.135 35.3828C137.291 36.1461 137.355 34.8174 137.923 34.8688C138.305 34.9022 138.988 34.3857 139.398 34.1981C139.922 33.9591 139.858 33.9051 140.384 33.6661C140.956 33.4065 141.713 33.6352 142.162 32.6201C142.599 31.6307 142.265 30.0142 142.224 29.1584V29.161Z" fill="#F7A392"/>
<path d="M135.821 14.7771C135.828 15.3425 135.564 15.8051 135.233 15.8102C134.899 15.8154 134.622 15.3605 134.614 14.7926C134.607 14.2272 134.871 13.7646 135.202 13.7594C135.536 13.7543 135.813 14.2092 135.821 14.7771Z" fill="#1F2144"/>
<path d="M143.959 14.9595C143.954 15.5249 143.677 15.9824 143.343 15.9772C143.009 15.9747 142.745 15.5121 142.75 14.9441C142.755 14.3787 143.032 13.9213 143.366 13.9264C143.7 13.9316 143.964 14.3916 143.959 14.9595Z" fill="#1F2144"/>
<path d="M145.437 11.9193C145.421 11.8936 145.126 11.7625 145.113 11.76C144.192 11.4182 142.937 11.1535 142.052 11.598C141.592 11.8293 141.143 12.3947 141.79 12.6723C142.342 12.9061 143.137 12.8753 143.722 12.8907C144.197 12.9036 144.777 12.9884 145.224 12.7751C145.768 12.5181 145.791 12.202 145.437 11.9167V11.9193Z" fill="#1F2144"/>
<path d="M133.077 12.3947C133.5 12.6543 134.086 12.6363 134.558 12.6749C135.14 12.7237 135.926 12.8445 136.501 12.6723C137.176 12.4693 136.791 11.8576 136.359 11.5775C135.528 11.0352 134.252 11.1612 133.298 11.3976C133.285 11.3976 132.977 11.4953 132.959 11.521C132.576 11.7651 132.561 12.0812 133.074 12.3973L133.077 12.3947Z" fill="#1F2144"/>
<path d="M142.016 20.7908C139.093 21.8341 136.488 20.5877 136.332 20.6391C136.267 20.6597 136.201 20.7111 136.214 20.7805C136.462 22.0475 137.897 22.7619 139.016 22.8261C140.181 22.893 141.811 22.2042 142.196 20.9861C142.229 20.8833 142.137 20.7471 142.019 20.7908H142.016Z" fill="white"/>
<path d="M139.957 19.2796C139.151 19.48 138.407 19.2179 138.322 18.3159C138.284 17.897 138.42 17.3598 138.466 16.9435C138.566 16.0466 138.682 15.1523 138.802 14.2579C138.828 14.0626 138.525 14.0472 138.5 14.2425C138.397 14.9955 138.299 15.7485 138.212 16.5041C138.135 17.1671 137.935 17.9484 138.014 18.614C138.127 19.5623 139.254 19.7679 140.024 19.5777C140.214 19.5314 140.15 19.2333 139.96 19.2796H139.957Z" fill="#DB745E"/>
<path d="M89.9166 60.2649C89.7062 59.9283 88.9722 59.7176 88.6514 59.5454C88.1535 59.2781 87.671 58.9877 87.1936 58.6896C87.055 57.3712 86.0875 56.2918 85.2688 55.2176C84.5476 54.2693 83.5287 52.1465 82.0324 52.3804C81.9144 52.3984 81.7989 52.5397 81.8656 52.6631C82.2711 53.4058 82.9204 53.984 83.3798 54.6985C83.6493 55.1174 83.8803 55.5517 84.0805 55.9989C83.6929 55.6802 83.2849 55.3898 82.864 55.2099C81.5037 54.3952 80.087 53.6962 78.6036 53.136C77.6669 52.7839 76.2091 52.0592 75.1877 52.365C75.1235 52.3855 75.0696 52.4601 75.0619 52.5243C74.9669 53.4058 76.861 53.8761 77.4564 54.1074C78.6498 54.57 79.8124 55.084 80.9468 55.6673C80.9083 55.7033 80.8724 55.7419 80.8339 55.7804C80.7928 55.8215 80.7518 55.8627 80.7081 55.9063C79.3171 55.3898 77.9158 54.9015 76.4991 54.462C75.5495 54.1691 74.2381 53.6474 73.2474 53.9429C73.1576 53.9712 73.1191 54.074 73.1216 54.1588C73.1319 54.5674 73.5169 54.6753 73.848 54.8424C74.5666 55.2047 75.3186 55.4977 76.0757 55.7676C77.2562 56.1865 78.4548 56.554 79.62 57.0063C79.6071 57.0217 79.5943 57.0371 79.5815 57.0525C78.3187 56.6645 77.0355 56.3073 75.7317 56.0914C75.1081 55.9886 73.5913 55.6339 73.1191 56.2353C73.0729 56.2918 73.0626 56.3715 73.0909 56.4409C73.3347 57.0448 74.4819 57.253 75.1825 57.4149C74.718 57.3969 74.2483 57.402 73.7761 57.4329C73.6144 57.4432 73.5502 57.6385 73.6349 57.7618C74.1046 58.4352 75.4674 58.6151 76.2296 58.8104C77.4128 59.1136 78.6088 59.3475 79.7739 59.7073C79.8381 59.7612 79.8997 59.8126 79.9613 59.8666C80.7928 60.5888 81.7527 61.3726 82.7331 61.8814C83.0796 62.0613 83.4004 62.1436 83.7006 62.1513C84.0215 62.2284 84.3602 62.2335 84.7555 62.2207C86.2491 62.1718 87.458 62.4545 88.6745 63.3566C88.8285 63.4697 89.0158 63.3412 89.0723 63.1947C89.3084 62.5702 90.3375 60.9434 89.9192 60.2727L89.9166 60.2649Z" fill="#F7A392"/>
<path d="M148.812 13.69C148.063 12.973 146.772 13.6746 146.52 14.5355C146.466 14.7231 146.587 14.8388 146.736 14.8645C146.602 15.1755 146.523 15.543 146.502 15.9105C146.384 16.3473 146.338 16.7765 146.41 17.0823C146.41 17.2365 146.42 17.3907 146.43 17.5475C146.364 17.7223 146.338 17.9022 146.407 18.0718C146.862 19.1511 148.276 17.6529 148.537 17.1749C149.007 16.3191 149.656 14.5021 148.812 13.6926V13.69Z" fill="#F7A392"/>
<path d="M129.653 13.577C130.32 12.7803 131.68 13.3405 132.024 14.1655C132.099 14.3454 131.991 14.4739 131.845 14.515C132.012 14.8105 132.13 15.1652 132.191 15.5301C132.358 15.9516 132.448 16.3731 132.412 16.684C132.427 16.8382 132.435 16.9924 132.44 17.1492C132.525 17.3162 132.571 17.4936 132.52 17.6657C132.186 18.7862 130.618 17.4524 130.305 17.0078C129.745 16.2086 128.901 14.4739 129.653 13.5744V13.577Z" fill="#F79884"/>
<path d="M149.1 11.5569C149.118 11.5261 149.133 11.4978 149.141 11.4619C149.58 11.4541 150.057 11.0507 149.954 10.4365C149.811 9.56525 149.528 8.77114 149.148 8.04128C149.41 7.81512 149.546 7.42706 149.331 7.02358C148.471 5.42251 146.846 4.35599 145.07 3.71094C145.07 3.30232 144.827 2.86543 144.344 2.81403C142.95 2.66498 141.557 2.59045 140.158 2.59816C140.117 2.34116 139.95 2.12015 139.622 2.05076C138.477 1.8169 137.445 2.01992 136.411 2.32317C136.252 2.03277 135.939 1.83232 135.567 1.91969C134.907 2.07646 134.248 2.40541 133.619 2.80632C133.349 2.51592 132.887 2.38742 132.507 2.7138C131.44 3.6287 130.303 4.64896 130.118 6.16779C130.08 6.48647 130.234 6.71776 130.457 6.84883C129.972 7.96161 129.623 9.13864 129.425 10.3825C129.31 11.1021 129.987 11.5312 130.465 11.377C130.377 11.8473 130.316 12.3228 130.277 12.8034C130.246 13.2068 130.803 13.2274 130.875 12.8548C130.875 12.8496 130.88 12.8471 130.883 12.8393C131.745 10.272 133.973 9.19261 136.175 8.29313C137.733 7.65579 138.821 6.50703 139.516 4.9625C139.694 5.88253 139.973 6.78715 140.576 7.51958C141.441 8.57068 142.722 8.80712 143.869 9.41619C145.309 10.182 145.899 11.4541 146.964 12.5952C147.29 12.9447 148.414 13.5255 148.53 13.3456C148.758 13.3225 148.997 13.2454 149.243 13.0963C149.664 12.8445 149.413 12.256 149.025 12.2431C149.059 12.1789 149.082 12.1018 149.089 12.0093C149.097 11.8551 149.102 11.7034 149.1 11.5518V11.5569Z" fill="#1F2144"/>
<path d="M147.803 14.6948C147.793 15.3013 147.654 15.8744 147.385 16.4167C147.297 16.5914 147.559 16.7456 147.647 16.5709C147.942 15.9798 148.096 15.3527 148.108 14.6948C148.111 14.4995 147.808 14.4995 147.806 14.6948H147.803Z" fill="#DB745E"/>
<path d="M131.327 16.2162C131.096 15.6997 130.967 15.1574 130.942 14.592C130.932 14.3967 130.629 14.3967 130.639 14.592C130.667 15.214 130.811 15.8025 131.068 16.3704C131.147 16.5478 131.409 16.3936 131.329 16.2162H131.327Z" fill="#DB745E"/>
<path d="M134.283 6.9131C133.031 8.37282 131.779 9.89422 130.955 11.6109C130.88 10.8297 129.692 10.5444 129.482 11.431C128.522 15.4633 128.001 19.5675 127.916 23.7076C127.883 23.9543 127.875 24.2113 127.898 24.4863C127.985 25.4449 129.412 25.4834 129.417 24.4863C129.417 24.3013 129.425 24.1162 129.43 23.9312C129.584 22.7336 130.549 21.7673 131.029 20.6674C131.594 19.3721 131.563 17.9818 131.54 16.5992C131.481 13.0064 133.093 10.6318 135.356 7.9899C135.99 7.24976 134.92 6.16782 134.281 6.9131H134.283Z" fill="#1F2144"/>
<path d="M154.047 79.2464C154.032 79.1462 154.017 79.046 154.004 78.9458C152.949 78.9072 151.894 78.8738 150.837 78.8455C150.506 76.2011 150.131 73.5643 149.708 70.9327C149.677 70.74 149.384 70.8222 149.415 71.0149C149.833 73.6157 150.205 76.2242 150.531 78.8378C143.13 78.6322 135.723 78.604 128.319 78.7633C126.253 78.807 124.189 78.8712 122.123 78.9432C122.103 79.046 122.082 79.1488 122.062 79.249C131.56 78.9149 141.069 78.8764 150.567 79.1385C151.943 90.238 152.505 101.438 152.233 112.62C152.138 116.5 151.943 120.378 151.65 124.249C151.635 124.444 151.94 124.444 151.953 124.249C152.998 110.353 152.777 96.3673 151.268 82.5103C151.145 81.3872 151.011 80.2667 150.873 79.1462C151.917 79.1771 152.962 79.2053 154.006 79.2439C154.019 79.2439 154.032 79.2439 154.045 79.2439L154.047 79.2464Z" fill="#DBC6B6"/>
<path d="M156.224 36.7166C156.183 35.6141 155.8 34.635 155.202 33.7844C153.277 32.5791 151.188 31.8132 149.02 31.3635C148.853 31.5562 148.671 31.7721 148.452 31.9957C146.723 33.7843 144.618 35.2466 142.229 35.9893C137.365 37.503 132.273 35.609 129.851 31.0936C128.919 31.3532 127.995 31.6513 127.092 31.9957C125.914 32.4454 124.074 32.9286 123.681 34.3215C123.591 34.6376 123.596 34.9537 123.671 35.2466C123.499 35.5987 123.547 36.0151 123.748 36.3543C123.483 36.6575 123.293 37.0199 123.222 37.4594C123.078 38.346 123.75 39.2249 124.718 38.9576C125.144 38.8394 125.572 38.7263 125.998 38.6081C127.5 40.258 129.194 41.7332 131.042 42.9847C131.301 43.7274 132.06 44.2748 132.861 44.1438C133.877 44.7734 135.135 45.4981 136.344 45.8193C136.559 46.7676 137.814 47.4538 138.797 47.0118C139.28 47.6286 140.099 47.9395 140.856 47.3664C140.969 47.2791 141.079 47.1891 141.192 47.1017C141.192 47.1017 141.207 47.0889 141.218 47.0812C142.881 45.7936 144.436 44.411 145.883 42.923C147.395 41.764 148.863 40.5536 150.277 39.2737C151.111 38.5207 150.757 37.2974 150.01 36.6987C149.974 36.6395 149.936 36.583 149.892 36.529C151.822 36.6318 153.752 36.7398 155.68 36.8246C155.888 36.8349 156.067 36.7886 156.224 36.7115V36.7166ZM132.643 40.0267C132.512 39.9342 132.381 39.8417 132.25 39.7466C132.358 39.7415 132.466 39.7312 132.574 39.7235C132.697 39.7337 132.82 39.744 132.943 39.7543C132.843 39.8443 132.743 39.9342 132.643 40.0267Z" fill="#F5E4D5"/>
<path d="M189.45 46.7522C189.714 46.2228 189.845 45.5392 189.991 45.1332C190.23 44.4701 190.987 43.2545 190.7 42.535C190.392 41.7588 188.808 41.4325 188.131 41.1318C187.299 40.7643 185.893 39.7492 184.958 39.8263C184.286 39.8828 184.099 40.3531 183.824 40.921C183.324 41.967 182.91 43.0592 182.533 44.1566C180.988 43.6914 179.594 44.5189 178.434 45.642C177.467 46.58 176.463 47.3382 175.28 48.0809C166.78 53.4109 164.652 44.3288 163.336 42.5735C162.019 40.8208 157.8 35.6707 157.122 34.9562C155.639 33.3886 153.758 32.2218 151.471 31.5356C148.037 36.3825 143.936 40.79 139.247 44.4239C138.913 44.6809 138.395 44.8839 138.002 44.5858C135.384 42.5915 126.684 32.6433 126.153 31.7438C118.274 34.5887 114.688 40.7566 111.098 48.0449C109.876 49.9235 108.711 51.9229 107.238 53.5985C105.801 55.233 103.876 56.3149 102.387 57.898C101.427 58.9209 100.632 59.715 99.1099 59.7638C98.1295 59.7946 97.162 59.5788 96.1841 59.7175C95.4296 59.8229 94.7623 60.0799 94.2362 60.5116C93.7845 60.2983 93.3328 60.085 92.8785 59.8743C92.3781 59.6404 91.8622 59.3166 91.3078 59.2344C91.1898 59.2164 91.0846 59.2344 90.9896 59.2678C90.697 59.1856 90.3429 59.2935 90.2299 59.6687C89.9373 60.6299 89.6422 61.5884 89.3496 62.5496C89.1212 63.3 88.5309 64.4539 88.5822 65.2378C88.6592 66.4019 90.8792 66.8851 91.893 67.2012C93.9231 69.4679 96.2432 72.0249 99.4641 72.0943C112.753 72.3847 119.67 64.7186 120.45 63.3386C121.002 65.0322 121.425 66.8003 121.407 67.8334C121.359 70.6346 121.246 71.128 121.985 73.8599C122.18 74.5769 122.403 75.2811 122.652 75.9775C127.557 76.6328 136.727 75.8207 141.41 75.7899C143.977 75.7719 150.244 76.1471 152.79 76.435C152.947 76.4529 153.106 76.4709 153.268 76.4863C153.617 76.016 153.971 75.5483 154.302 75.06C155.133 73.8419 155.103 72.1971 155.549 70.8017C156.178 68.8254 157.187 62.5162 157.905 59.6867C158.922 60.2726 160.864 61.2646 161.886 61.8377C163.613 62.8066 165.433 63.7343 167.447 63.832C169.444 63.9297 171.477 63.1921 173.312 62.4802C174.338 62.0819 185.726 57.2992 189.445 46.7497L189.45 46.7522Z" fill="#E7B05B"/>
<path d="M155.528 53.3672C154.599 51.2291 153.747 49.0318 153.349 46.724C152.939 44.3416 153.093 41.8873 153.763 39.5667C154.317 37.6444 155.218 35.8454 156.414 34.2572C156.339 34.1904 156.262 34.1261 156.185 34.0593C153.924 37.0687 152.695 40.8285 152.828 44.614C152.998 49.4429 155.477 53.727 157.268 58.0856C157.494 58.6356 157.707 59.1881 157.907 59.7458C157.912 59.7252 157.918 59.7021 157.923 59.6816C158.028 59.7407 158.143 59.8075 158.267 59.8743C157.494 57.6565 156.462 55.508 155.533 53.3647L155.528 53.3672ZM118.669 36.4391C118.563 36.5419 118.458 36.6447 118.355 36.75C118.566 43.198 120.966 49.7745 120.822 56.2019C120.76 58.98 120.296 61.7247 119.8 64.4565C119.952 64.2124 120.096 63.9631 120.242 63.7138C120.578 61.8146 120.883 59.9077 121.035 57.9828C121.227 55.5388 121.094 53.1077 120.753 50.6817C120.085 45.9298 118.761 41.2603 118.669 36.4391Z" fill="#C79240"/>
<path d="M173.183 49.2528C171.869 50.0906 170.506 50.8359 169.092 51.4938C168.915 51.576 169.069 51.8381 169.246 51.7559C170.658 51.098 172.02 50.3527 173.337 49.5149C173.501 49.4095 173.35 49.1474 173.183 49.2528Z" fill="#C79240"/>
<path d="M93.5971 62.1435C93.0786 63.5107 92.5602 64.8754 92.0418 66.2426C91.9725 66.425 92.2651 66.5047 92.3344 66.3222C92.8528 64.955 93.3712 63.5904 93.8896 62.2232C93.9589 62.0407 93.6664 61.9611 93.5971 62.141V62.1435Z" fill="#C79240"/>
<path d="M102.559 68.666C101.533 67.9207 100.586 67.0881 99.7081 66.1706C99.5721 66.0293 99.3565 66.2451 99.4925 66.3865C100.386 67.3219 101.358 68.1674 102.405 68.9281C102.565 69.0438 102.716 68.7791 102.559 68.666Z" fill="#C79240"/>
<path d="M102.285 70.0461C101.371 69.7069 100.534 69.2289 99.7798 68.6147C99.6284 68.4913 99.4128 68.7072 99.5643 68.8305C100.362 69.4781 101.24 69.9819 102.205 70.3416C102.39 70.411 102.467 70.1155 102.287 70.0487L102.285 70.0461Z" fill="#C79240"/>
<path d="M189.198 46.1868C187.176 45.5135 185.153 44.8325 183.126 44.172C182.939 44.1103 182.859 44.4059 183.046 44.465C185.074 45.1254 187.094 45.8065 189.119 46.4798C189.306 46.5415 189.386 46.2485 189.198 46.1868Z" fill="#C79240"/>
<path d="M187.628 37.0353C187.684 36.5573 189.509 21.2122 189.56 20.9012C189.609 20.5903 189.678 20.102 190.433 20.102C191.187 20.102 197.229 20.3821 197.809 20.4232C198.391 20.4644 198.62 20.8139 198.527 21.5823C198.432 22.3507 196.731 36.7937 196.646 37.4079C196.564 38.0221 196.41 38.3999 195.484 38.3434C194.557 38.2868 189.296 37.9527 188.59 37.8962C187.884 37.8397 187.54 37.7883 187.628 37.0353Z" fill="#1F2144"/>
<path d="M189.945 20.9244C190.014 20.6031 190.137 20.5209 190.663 20.5209C191.19 20.5209 197.529 20.8267 197.862 20.8267C198.196 20.8267 198.237 21.1891 198.168 21.6773C198.099 22.1656 196.266 36.9068 196.22 37.2614C196.174 37.6161 196.022 37.7548 195.496 37.7291C194.97 37.7009 188.977 37.1843 188.505 37.1561C188.035 37.1278 187.966 36.8528 188.007 36.3285C188.048 35.8017 189.945 20.9244 189.945 20.9244Z" fill="white"/>
<path d="M196.292 27.3235L189.94 27.0434V27.0228L190.39 23.8052H190.408L196.806 24.1059L196.292 27.326V27.3235ZM189.987 27.0048L196.259 27.2824L196.76 24.1393L190.423 23.8438L189.987 27.0048Z" fill="#73A7F4"/>
<path d="M195.607 24.548C195.845 24.5583 195.981 24.7767 195.933 25.062C195.884 25.3472 195.681 25.4783 195.478 25.4706C195.276 25.4655 195.122 25.2727 195.147 25.008C195.173 24.7433 195.345 24.5326 195.609 24.5454L195.607 24.548Z" fill="#FFAD1D"/>
</g>
<defs>
<clipPath id="clip0_78_1172">
<rect width="200" height="218" fill="white"/>
</clipPath>
</defs>
</svg>
