<svg width="24" height="30" viewBox="0 0 24 30" fill="none" xmlns="http://www.w3.org/2000/svg">
<path d="M4.58004 12.0849L2.45574 9.94551C1.09981 11.6932 0.256121 13.712 0 15.8061H3.04331C3.25424 14.4954 3.78154 13.2148 4.58004 12.0849ZM3.04331 18.8193H0C0.256121 20.9135 1.08475 22.9323 2.44068 24.68L4.56497 22.5406C3.78154 21.4107 3.25424 20.1451 3.04331 18.8193ZM4.56497 26.8344C6.31262 28.1903 8.34652 29.0039 10.4407 29.26V26.2016C9.12994 25.9756 7.86441 25.4634 6.73446 24.6498L4.56497 26.8344ZM13.4539 5.36547V0.740234L6.59887 7.59522L13.4539 14.2996V8.40878C17.7326 9.13195 20.9868 12.8382 20.9868 17.3127C20.9868 21.7873 17.7326 25.4935 13.4539 26.2167V29.26C19.4049 28.5218 24 23.4596 24 17.3127C24 11.1658 19.4049 6.1037 13.4539 5.36547Z" fill="#2B5F75"/>
</svg>
