<svg width="32" height="33" viewBox="0 0 32 33" fill="none" xmlns="http://www.w3.org/2000/svg">
<path d="M28.4969 9.10959C26.5894 7.14348 24.1269 6.07494 21.6 5.86039L21.6816 0.600098L14.9996 7.0735L21.4776 13.7508L21.5597 8.46132C23.4214 8.65824 25.23 9.45358 26.6407 10.9078C29.1887 13.5342 29.6402 17.4289 28.0275 20.5024L30.3125 21.6997C32.4229 17.6547 31.8438 12.5595 28.4969 9.10959Z" fill="#2B5F75"/>
<path d="M22.5555 16.6001H4.77777C3.80889 16.6343 3.03556 17.3785 3 18.3108V30.2858C3.03556 31.2182 3.80889 31.9623 4.77777 31.9965H22.5555C23.5244 31.9623 24.2977 31.2182 24.3333 30.2858V18.3108C24.3169 17.8621 24.1244 17.4361 23.7944 17.1186C23.4645 16.8011 23.0218 16.6158 22.5555 16.6001ZM22.5555 30.2858H4.77777V18.3108H22.5555V30.2858ZM18.2 28.5751V27.5059C18.2 26.086 15.2311 25.3675 13.7555 25.3675C12.28 25.3675 9.31109 26.086 9.31109 27.5059V28.5751H18.2ZM13.7555 20.0215C13.1662 20.0215 12.6009 20.2468 12.1842 20.6479C11.7674 21.0489 11.5333 21.5928 11.5333 22.1599C11.5333 22.4407 11.5908 22.7188 11.7025 22.9783C11.8141 23.2377 11.9778 23.4734 12.1842 23.672C12.6009 24.073 13.1662 24.2983 13.7555 24.2983C14.0473 24.2983 14.3363 24.243 14.6059 24.1355C14.8755 24.0281 15.1205 23.8706 15.3269 23.672C15.5332 23.4734 15.6969 23.2377 15.8086 22.9783C15.9203 22.7188 15.9777 22.4407 15.9777 22.1599C15.9777 21.8791 15.9203 21.601 15.8086 21.3416C15.6969 21.0822 15.5332 20.8464 15.3269 20.6479C15.1205 20.4493 14.8755 20.2918 14.6059 20.1843C14.3363 20.0768 14.0473 20.0215 13.7555 20.0215Z" fill="#2B5F75"/>
</svg>
