<svg width="20" height="32" viewBox="0 0 20 32" fill="none" xmlns="http://www.w3.org/2000/svg">
<path d="M8.00623 24.4423C8.00623 23.7449 8.00623 20.0567 8.00623 15.9386C8.00623 14.4988 9.27586 13.561 10.6136 13.9848C11.0325 14.1168 11.3942 14.3806 11.6415 14.7344C11.8888 15.0882 12.0076 15.5119 11.9792 15.9386C11.9792 18.8032 11.9792 22.4884 11.9792 24.5565C12.1619 24.3972 12.2889 24.298 12.3911 24.1928C13.7804 22.8441 15.1719 21.4955 16.5653 20.1469C16.8161 19.883 17.1402 19.6953 17.4984 19.6062C17.8567 19.5172 18.2338 19.5306 18.5843 19.6449C18.9407 19.7374 19.2615 19.9289 19.5074 20.1959C19.7533 20.4629 19.9136 20.7937 19.9685 21.1478C20.0297 21.4779 20.0014 21.8177 19.8863 22.1339C19.7712 22.4502 19.5733 22.7319 19.3121 22.9514C17.0247 25.1557 14.7394 27.372 12.4561 29.6004C12.1155 29.934 11.7779 30.2707 11.4311 30.5953C10.5764 31.3919 9.4152 31.425 8.58221 30.6224C5.91084 28.0513 3.25187 25.4703 0.605275 22.8792C0.414462 22.6997 0.262605 22.4849 0.158656 22.2475C0.0547055 22.0101 0.000761884 21.7548 1.04114e-05 21.4969C-0.000741061 21.2389 0.051711 20.9834 0.154275 20.7455C0.256839 20.5075 0.407437 20.2919 0.597199 20.1113C0.786962 19.9307 1.01205 19.7888 1.25918 19.694C1.50632 19.5991 1.77052 19.5533 2.0362 19.5591C2.30188 19.565 2.56366 19.6224 2.80613 19.728C3.04859 19.8335 3.26684 19.9852 3.44798 20.1739C4.82908 21.4905 6.1916 22.8251 7.55103 24.1597C7.65479 24.2915 7.74017 24.4361 7.80495 24.5896L8.00623 24.4423Z" fill="#2B5F75"/>
<path d="M10.0148 11.7636C8.82906 11.7684 7.66851 11.4315 6.68008 10.7957C5.69166 10.1599 4.91979 9.25369 4.4622 8.19183C4.00461 7.12998 3.88187 5.96021 4.10951 4.83061C4.33716 3.70101 4.90495 2.66237 5.74102 1.84617C6.57709 1.02997 7.64384 0.472905 8.80623 0.245505C9.96862 0.0181045 11.1744 0.130589 12.2709 0.56872C13.3674 1.00685 14.3053 1.75092 14.9659 2.70675C15.6266 3.66258 15.9802 4.78718 15.982 5.93819C15.9837 7.47795 15.3566 8.9556 14.2382 10.0475C13.1197 11.1393 11.601 11.7564 10.0148 11.7636Z" fill="#2B5F75"/>
</svg>
