<svg width="20" height="31" viewBox="0 0 20 31" fill="none" xmlns="http://www.w3.org/2000/svg">
<path d="M11.9938 6.76647C11.9938 7.46384 11.9938 11.1521 11.9938 15.2701C11.9938 16.7099 10.7241 17.6478 9.3864 17.224C8.96746 17.0919 8.60579 16.8281 8.35849 16.4743C8.11119 16.1205 7.99236 15.6968 8.02078 15.2701C8.02078 12.4055 8.02078 8.7203 8.02078 6.65224C7.83808 6.81156 7.71112 6.91075 7.60893 7.01596C6.21957 8.3646 4.82815 9.71324 3.43466 11.0619C3.18388 11.3257 2.85983 11.5134 2.50159 11.6025C2.14335 11.6916 1.76621 11.6782 1.41565 11.5639C1.05927 11.4713 0.738463 11.2798 0.492582 11.0128C0.246702 10.7459 0.0864417 10.415 0.0314603 10.0609C-0.029713 9.73085 -0.00135576 9.39101 0.113745 9.0748C0.228847 8.75859 0.426729 8.47689 0.687946 8.25739C2.97533 6.05307 5.26065 3.83673 7.5439 1.60836C7.88453 1.27471 8.22206 0.938049 8.56889 0.613413C9.42356 -0.183148 10.5848 -0.216212 11.4178 0.586361C14.0892 3.1574 16.7481 5.73845 19.3947 8.32953C19.5855 8.50908 19.7374 8.72388 19.8413 8.96128C19.9453 9.19869 19.9992 9.45389 20 9.71185C20.0007 9.96981 19.9483 10.2253 19.8457 10.4633C19.7432 10.7012 19.5926 10.9169 19.4028 11.0975C19.213 11.2781 18.988 11.4199 18.7408 11.5148C18.4937 11.6096 18.2295 11.6555 17.9638 11.6496C17.6981 11.6438 17.4363 11.5864 17.1939 11.4808C16.9514 11.3752 16.7332 11.2236 16.552 11.0348C15.1709 9.71825 13.8084 8.38364 12.449 7.04902C12.3452 6.91721 12.2598 6.77268 12.195 6.61918L11.9938 6.76647Z" fill="#2B5F75"/>
<path d="M10.0148 30.9999C8.82906 31.0047 7.66851 30.6678 6.68008 30.032C5.69166 29.3962 4.91979 28.49 4.4622 27.4282C4.00461 26.3663 3.88187 25.1965 4.10951 24.0669C4.33716 22.9373 4.90495 21.8987 5.74102 21.0825C6.57709 20.2663 7.64384 19.7092 8.80623 19.4818C9.96862 19.2544 11.1744 19.3669 12.2709 19.805C13.3674 20.2432 14.3053 20.9873 14.9659 21.9431C15.6266 22.8989 15.9802 24.0235 15.982 25.1745C15.9837 26.7143 15.3566 28.1919 14.2382 29.2838C13.1197 30.3757 11.601 30.9928 10.0148 30.9999Z" fill="#2B5F75"/>
</svg>
