<svg width="40" height="30" viewBox="0 0 40 30" fill="none" xmlns="http://www.w3.org/2000/svg">
<path d="M9.09091 13.6364C6.57576 13.6364 4.43212 12.9714 2.66 11.6414C0.886667 10.3123 0 8.70455 0 6.81818C0 4.90909 0.886667 3.29545 2.66 1.97727C4.43212 0.659091 6.57576 0 9.09091 0C11.6364 0 13.7879 0.659091 15.5455 1.97727C17.303 3.29545 18.1818 4.90909 18.1818 6.81818C18.1818 8.70455 17.303 10.3123 15.5455 11.6414C13.7879 12.9714 11.6364 13.6364 9.09091 13.6364ZM23.6364 30V17.7273H40V30H23.6364ZM30.4091 9.13636L12.1818 22.7727C12.3333 23.0455 12.4618 23.3295 12.5673 23.625C12.6739 23.9205 12.7273 24.2273 12.7273 24.5455C12.7273 25.6818 12.2048 26.6477 11.16 27.4432C10.1139 28.2386 8.81818 28.6364 7.27273 28.6364C5.75758 28.6364 4.4697 28.2386 3.40909 27.4432C2.34848 26.6477 1.81818 25.6818 1.81818 24.5455C1.81818 23.3864 2.34848 22.415 3.40909 21.6314C4.4697 20.8468 5.75758 20.4545 7.27273 20.4545C7.69697 20.4545 8.10606 20.4941 8.5 20.5732C8.89394 20.6532 9.27273 20.75 9.63636 20.8636L27.8182 7.19318C27.6667 6.92045 27.5376 6.64182 27.4309 6.35727C27.3255 6.07364 27.2727 5.77273 27.2727 5.45455C27.2727 4.29545 27.803 3.32364 28.8636 2.53909C29.9242 1.75545 31.2121 1.36364 32.7273 1.36364C34.2727 1.36364 35.5685 1.75545 36.6145 2.53909C37.6594 3.32364 38.1818 4.29545 38.1818 5.45455C38.1818 6.59091 37.6594 7.55682 36.6145 8.35227C35.5685 9.14773 34.2727 9.54545 32.7273 9.54545C32.303 9.54545 31.9018 9.50545 31.5236 9.42545C31.1442 9.34636 30.7727 9.25 30.4091 9.13636V9.13636Z" fill="white"/>
</svg>
