<svg width="40" height="30" viewBox="0 0 40 30" fill="none" xmlns="http://www.w3.org/2000/svg">
<path d="M36.6667 0H3.33333C1.51667 0.0666667 0.0666667 1.51667 0 3.33333V26.6667C0.0666667 28.4833 1.51667 29.9333 3.33333 30H36.6667C38.4833 29.9333 39.9333 28.4833 40 26.6667V3.33333C39.9693 2.45904 39.6083 1.6289 38.9897 1.01031C38.3711 0.391712 37.541 0.0306757 36.6667 0ZM36.6667 26.6667H3.33333V3.33333H36.6667V26.6667ZM23.3333 23.3333V21.25C23.3333 18.4833 17.7667 17.0833 15 17.0833C12.2333 17.0833 6.66667 18.4833 6.66667 21.25V23.3333H23.3333ZM15 6.66667C13.8949 6.66667 12.8351 7.10565 12.0537 7.88705C11.2723 8.66846 10.8333 9.72826 10.8333 10.8333C10.8333 11.3805 10.9411 11.9223 11.1505 12.4278C11.3599 12.9334 11.6668 13.3927 12.0537 13.7796C12.8351 14.561 13.8949 15 15 15C15.5472 15 16.089 14.8922 16.5945 14.6828C17.1 14.4734 17.5594 14.1665 17.9463 13.7796C18.3332 13.3927 18.6401 12.9334 18.8495 12.4278C19.0589 11.9223 19.1667 11.3805 19.1667 10.8333C19.1667 10.2862 19.0589 9.74434 18.8495 9.23882C18.6401 8.7333 18.3332 8.27397 17.9463 7.88705C17.5594 7.50014 17.1 7.19323 16.5945 6.98383C16.089 6.77444 15.5472 6.66667 15 6.66667ZM23.3333 6.66667V8.33333H33.3333V6.66667H23.3333ZM23.3333 10V11.6667H33.3333V10H23.3333ZM23.3333 13.3333V15H30V13.3333H23.3333Z" fill="#268785"/>
</svg>
