<svg width="180" height="221" viewBox="0 0 180 221" fill="none" xmlns="http://www.w3.org/2000/svg">
<path d="M167.365 0.0949707L83.2921 0.0949707C74.9812 0.0949707 67.0316 6.84007 65.5863 15.151L36.9196 177.756C35.4742 186.067 41.0148 192.812 49.3258 192.812H133.399C141.709 192.812 149.659 186.067 151.104 177.756L179.771 15.151C181.216 6.84007 175.676 0.0949707 167.365 0.0949707ZM145.082 177.756C144.179 182.755 139.421 186.79 134.483 186.79H50.4098C45.4112 186.79 42.0989 182.755 42.942 177.756L71.6087 15.151C72.512 10.1524 77.2697 6.11738 82.2081 6.11738L166.281 6.11738C171.28 6.11738 174.592 10.1524 173.749 15.151L145.082 177.756Z" fill="#2B5F75"/>
<path d="M130.675 27.5989L46.6017 27.5989C38.2908 27.5989 30.3412 34.344 28.8958 42.6549L0.229183 205.26C-1.21619 213.571 4.32442 220.316 12.6353 220.316H96.7081C105.019 220.316 112.969 213.571 114.414 205.26L143.081 42.6549C144.526 34.344 138.985 27.5989 130.675 27.5989Z" fill="#2B5F75"/>
<path d="M109.227 119.134C109.227 139.955 92.3503 156.825 71.5357 156.825C50.721 156.825 33.8447 139.955 33.8447 119.134C33.8447 98.3255 50.721 81.4431 71.5357 81.4431C92.3503 81.4431 109.227 98.3255 109.227 119.134ZM71.5357 126.733C67.6746 126.733 64.5446 129.863 64.5446 133.724C64.5446 137.585 67.6746 140.715 71.5357 140.715C75.3967 140.715 78.5267 137.585 78.5267 133.724C78.5267 129.863 75.3967 126.733 71.5357 126.733ZM64.8983 101.604L66.0256 122.273C66.0784 123.24 66.8781 123.997 67.8467 123.997H75.2247C76.1932 123.997 76.9929 123.24 77.0457 122.273L78.1731 101.604C78.2301 100.559 77.3983 99.6807 76.352 99.6807H66.7191C65.6729 99.6807 64.8413 100.559 64.8983 101.604Z" fill="#FFDF34"/>
</svg>
