<svg width="562" height="303" viewBox="0 0 562 303" fill="none" xmlns="http://www.w3.org/2000/svg">
<path d="M81.2667 5.9724H477.672C493.387 5.9724 506.143 18.7156 506.143 34.4098V289.454H52.7953V34.4122C52.7953 18.7156 65.5537 5.97482 81.2667 5.97482V5.9724Z" fill="#AEA8AC"/>
<path d="M538.371 297.025H20.5675C14.8844 297.025 10.2753 292.424 10.2753 286.745H548.663C548.663 292.421 544.057 297.025 538.371 297.025Z" fill="#AEA8AC"/>
<path d="M483.066 15.17H75.8726C69.8567 15.17 64.9802 20.0406 64.9802 26.0494V35.7276H493.958V26.0494C493.958 20.0406 489.082 15.17 483.066 15.17Z" fill="url(#paint0_linear_202_4215)"/>
<path d="M96.1139 27.7023C96.4622 25.0985 94.6312 22.7056 92.0242 22.3578C89.4173 22.0099 87.0216 23.8387 86.6733 26.4425C86.325 29.0463 88.156 31.4392 90.7629 31.7871C93.3698 32.135 95.7656 30.3062 96.1139 27.7023Z" fill="url(#paint1_radial_202_4215)"/>
<path d="M112.235 27.3307C112.378 24.7076 110.364 22.4659 107.738 22.3239C105.111 22.1818 102.867 24.1931 102.725 26.8162C102.583 29.4394 104.596 31.681 107.223 31.8231C109.849 31.9651 112.093 29.9538 112.235 27.3307Z" fill="url(#paint2_radial_202_4215)"/>
<path d="M123.551 31.8277C126.181 31.8277 128.313 29.6981 128.313 27.0711C128.313 24.4441 126.181 22.3145 123.551 22.3145C120.921 22.3145 118.789 24.4441 118.789 27.0711C118.789 29.6981 120.921 31.8277 123.551 31.8277Z" fill="url(#paint3_radial_202_4215)"/>
<path d="M91.3913 30.3861C93.5047 30.3861 95.218 28.6749 95.218 26.5639C95.218 24.4529 93.5047 22.7417 91.3913 22.7417C89.2778 22.7417 87.5645 24.4529 87.5645 26.5639C87.5645 28.6749 89.2778 30.3861 91.3913 30.3861Z" fill="url(#paint4_linear_202_4215)"/>
<path d="M107.471 30.3861C109.585 30.3861 111.298 28.6749 111.298 26.5639C111.298 24.4529 109.585 22.7417 107.471 22.7417C105.358 22.7417 103.644 24.4529 103.644 26.5639C103.644 28.6749 105.358 30.3861 107.471 30.3861Z" fill="url(#paint5_linear_202_4215)"/>
<path d="M123.551 30.3861C125.664 30.3861 127.378 28.6749 127.378 26.5639C127.378 24.4529 125.664 22.7417 123.551 22.7417C121.437 22.7417 119.724 24.4529 119.724 26.5639C119.724 28.6749 121.437 30.3861 123.551 30.3861Z" fill="url(#paint6_linear_202_4215)"/>
<path d="M493.958 35.7276H64.9827V286.748H493.958V35.7276Z" fill="#FEEACC"/>
<path d="M65.0361 41.6344H178.547V276.385C178.547 282.103 173.899 286.748 168.173 286.748H75.411C69.6866 286.748 65.0361 282.105 65.0361 276.385V41.6344Z" fill="url(#paint7_linear_202_4215)"/>
<path d="M70.9525 35.7251H172.631C175.897 35.7251 178.547 38.3728 178.547 41.6344H65.0361C65.0361 38.3728 67.6869 35.7251 70.9525 35.7251Z" fill="url(#paint8_linear_202_4215)"/>
<path d="M82.0272 58.1246H74.2764V65.8662H82.0272V58.1246Z" fill="#EFE8EB"/>
<path d="M89.9626 58.1246H82.2118V65.8662H89.9626V58.1246Z" fill="#001051"/>
<path d="M97.898 58.1246H90.1472V65.8662H97.898V58.1246Z" fill="#081756"/>
<path d="M105.833 58.1246H98.0826V65.8662H105.833V58.1246Z" fill="#0B2271"/>
<path d="M113.769 58.1246H106.018V65.8662H113.769V58.1246Z" fill="#ECC8C5"/>
<path d="M121.704 58.1246H113.954V65.8662H121.704V58.1246Z" fill="#FED0CC"/>
<path d="M129.64 58.1246H121.889V65.8662H129.64V58.1246Z" fill="#FAB59B"/>
<path d="M137.575 58.1246H129.824V65.8662H137.575V58.1246Z" fill="#FD8B75"/>
<path d="M145.511 58.1246H137.76V65.8662H145.511V58.1246Z" fill="#F76E5C"/>
<path d="M153.446 58.1246H145.695V65.8662H153.446V58.1246Z" fill="#ADADAD"/>
<path d="M161.382 58.1246H153.631V65.8662H161.382V58.1246Z" fill="#BBBFC1"/>
<path d="M169.317 58.1246H161.566V65.8662H169.317V58.1246Z" fill="#38285B"/>
<path d="M82.0271 66.2035H74.2764V73.9451H82.0271V66.2035Z" fill="#171717"/>
<path d="M89.9626 66.2035H82.2118V73.9451H89.9626V66.2035Z" fill="#38285B"/>
<path d="M97.898 66.2035H90.1472V73.9451H97.898V66.2035Z" fill="#303030"/>
<path d="M105.833 66.2035H98.0826V73.9451H105.833V66.2035Z" fill="#313131"/>
<path d="M113.769 66.2035H106.018V73.9451H113.769V66.2035Z" fill="#CE41B4"/>
<path d="M121.704 66.2035H113.954V73.9451H121.704V66.2035Z" fill="#E35BC3"/>
<path d="M129.64 66.2035H121.889V73.9451H129.64V66.2035Z" fill="#F097E4"/>
<path d="M137.575 66.2035H129.824V73.9451H137.575V66.2035Z" fill="#363639"/>
<path d="M145.511 66.2035H137.76V73.9451H145.511V66.2035Z" fill="#CD03DB"/>
<path d="M153.446 66.2035H145.695V73.9451H153.446V66.2035Z" fill="#020A3E"/>
<path d="M161.382 66.2035H153.631V73.9451H161.382V66.2035Z" fill="#050A52"/>
<path d="M169.317 66.2035H161.566V73.9451H169.317V66.2035Z" fill="#0B2271"/>
<path d="M82.0271 74.2848H74.2764V82.0264H82.0271V74.2848Z" fill="#0B3391"/>
<path d="M89.9626 74.2848H82.2118V82.0264H89.9626V74.2848Z" fill="black"/>
<path d="M97.898 74.2848H90.1472V82.0264H97.898V74.2848Z" fill="#0B2271"/>
<path d="M105.833 74.2848H98.0826V82.0264H105.833V74.2848Z" fill="#E9D9E3"/>
<path d="M113.769 74.2848H106.018V82.0264H113.769V74.2848Z" fill="#1C3FB7"/>
<path d="M121.704 74.2848H113.954V82.0264H121.704V74.2848Z" fill="#4C4DBA"/>
<path d="M129.64 74.2848H121.889V82.0264H129.64V74.2848Z" fill="#E1A67E"/>
<path d="M137.575 74.2848H129.824V82.0264H137.575V74.2848Z" fill="#F6C3C8"/>
<path d="M145.511 74.2848H137.76V82.0264H145.511V74.2848Z" fill="#3D63D2"/>
<path d="M153.446 74.2848H145.695V82.0264H153.446V74.2848Z" fill="#FED0CC"/>
<g filter="url(#filter0_d_202_4215)">
<path d="M429.202 96.8445H226.646V216.734H429.202V96.8445Z" fill="url(#paint9_linear_202_4215)"/>
</g>
<path d="M376.8 145.213L382.08 141.998L374.38 139.937L368.991 138.496C367.963 138.222 367.025 139.161 367.3 140.185L368.743 145.568L370.806 153.258L374.025 147.985L380.379 154.328C380.998 154.947 382.007 154.947 382.626 154.328L383.154 153.802C383.773 153.183 383.773 152.176 383.154 151.557L376.802 145.213H376.8Z" fill="#38285B"/>
<path d="M381.501 155.081C381.001 155.081 380.527 154.887 380.172 154.532L374.535 148.902C374.302 148.669 373.913 148.715 373.743 148.997L371.391 152.851C371.131 153.278 370.485 153.185 370.356 152.702L366.889 139.775C366.615 138.748 367.555 137.812 368.58 138.086L381.54 141.554C382.017 141.682 382.109 142.316 381.686 142.573L377.811 144.932C377.529 145.102 377.483 145.49 377.716 145.723L383.353 151.353C383.708 151.707 383.902 152.178 383.902 152.681C383.902 153.183 383.708 153.654 383.353 154.008L382.826 154.535C382.471 154.889 382 155.083 381.497 155.083L381.501 155.081ZM373.634 148.07C373.804 147.791 374.193 147.742 374.426 147.975L380.583 154.122C380.828 154.367 381.156 154.503 381.504 154.503C381.851 154.503 382.177 154.367 382.425 154.122L382.952 153.596C383.197 153.35 383.333 153.023 383.333 152.676C383.333 152.329 383.197 152.004 382.952 151.756L376.795 145.609C376.562 145.376 376.608 144.988 376.89 144.818L380.809 142.43C381.016 142.304 380.969 141.993 380.736 141.93L368.631 138.69C367.946 138.506 367.317 139.134 367.501 139.819L370.745 151.909C370.808 152.142 371.119 152.188 371.246 151.982L373.636 148.067L373.634 148.07Z" fill="white"/>
<path d="M167.084 97.9341H75.5835V108.581H167.084V97.9341Z" fill="#C0BEBE"/>
<path d="M82.275 95.9029H75.5981V110.612H82.275V95.9029Z" fill="#84848C"/>
<path d="M124.953 96.3955H95.2325V110.119H124.953V96.3955Z" fill="#84848C"/>
<path d="M167.082 95.9029H160.405V110.612H167.082V95.9029Z" fill="#84848C"/>
<path d="M167.084 125.605H75.5835V136.251H167.084V125.605Z" fill="#C0BEBE"/>
<path d="M82.275 123.576H75.5981V138.285H82.275V123.576Z" fill="#84848C"/>
<path d="M160.536 124.066H130.816V137.79H160.536V124.066Z" fill="#84848C"/>
<path d="M167.082 123.576H160.405V138.285H167.082V123.576Z" fill="#84848C"/>
<path d="M167.084 153.278H75.5835V163.924H167.084V153.278Z" fill="#C0BEBE"/>
<path d="M82.275 151.246H75.5981V165.955H82.275V151.246Z" fill="#84848C"/>
<path d="M140.712 151.737H110.992V165.46H140.712V151.737Z" fill="#84848C"/>
<path d="M167.082 151.246H160.405V165.955H167.082V151.246Z" fill="#84848C"/>
<path d="M255.585 138.899C254.806 138.92 254.321 138.664 254.129 138.131C253.841 137.32 254.246 136.936 255.345 136.979C255.505 136.979 255.713 136.973 255.969 136.963C256.097 136.963 256.182 136.963 256.225 136.963C256.545 136.963 256.705 136.824 256.705 136.547V130.387V125.219C256.705 124.547 257.046 124.211 257.729 124.211C258.401 124.211 258.737 124.547 258.737 125.219V136.547C258.737 137.123 258.662 137.56 258.513 137.859C258.374 138.168 258.129 138.397 257.777 138.547C257.286 138.749 256.555 138.867 255.585 138.899ZM264.401 135.203C263.995 135.363 263.686 135.395 263.473 135.299C263.238 135.203 263.078 134.957 262.993 134.563C262.801 133.848 262.534 133.053 262.193 132.179C261.862 131.293 261.446 130.339 260.945 129.315C260.635 128.696 260.811 128.259 261.473 128.003C262.038 127.789 262.465 127.944 262.753 128.467C263.873 130.547 264.657 132.408 265.105 134.051C265.179 134.36 265.158 134.6 265.041 134.771C264.934 134.931 264.721 135.075 264.401 135.203ZM251.921 135.059C251.707 135.112 251.451 135.059 251.153 134.899C250.801 134.707 250.593 134.499 250.529 134.275C250.465 134.051 250.545 133.773 250.769 133.443C251.441 132.237 251.969 130.717 252.353 128.883C252.481 128.189 252.897 127.907 253.601 128.035C254.337 128.163 254.619 128.579 254.449 129.283C254.214 130.243 253.947 131.155 253.649 132.019C253.307 133 252.929 133.848 252.513 134.563C252.331 134.84 252.134 135.005 251.921 135.059ZM274.938 138.355C274.628 138.515 274.335 138.595 274.058 138.595C273.738 138.584 273.492 138.461 273.322 138.227C273.108 137.928 273.119 137.608 273.354 137.267C273.546 136.989 273.85 136.744 274.266 136.531C275.588 135.688 276.586 134.605 277.258 133.283C277.77 132.259 278.026 131.261 278.026 130.291V128.643H276.746C276.426 129.432 276.063 130.141 275.658 130.771C275.455 131.059 275.247 131.229 275.034 131.283C274.831 131.325 274.58 131.261 274.282 131.091C273.93 130.888 273.732 130.68 273.69 130.467C273.658 130.253 273.764 129.987 274.01 129.667C274.81 128.472 275.434 126.952 275.882 125.107C275.956 124.776 276.095 124.531 276.298 124.371C276.511 124.2 276.778 124.147 277.098 124.211C277.759 124.339 278.01 124.733 277.85 125.395C277.764 125.747 277.631 126.195 277.45 126.739H280.17H283.498C283.86 126.739 284.116 126.851 284.266 127.075C284.426 127.299 284.452 127.629 284.346 128.067C284.058 129.197 283.663 130.259 283.162 131.251C283.034 131.496 282.884 131.629 282.714 131.651C282.575 131.672 282.356 131.613 282.058 131.475C281.77 131.336 281.588 131.181 281.514 131.011C281.439 130.829 281.466 130.605 281.594 130.339C281.828 129.805 282.042 129.24 282.234 128.643H279.994V130.275C279.994 131.203 280.218 132.163 280.666 133.155C281.263 134.456 282.143 135.517 283.306 136.339C283.711 136.563 283.999 136.835 284.17 137.155C284.372 137.517 284.367 137.853 284.154 138.163C283.983 138.408 283.743 138.541 283.434 138.563C283.146 138.573 282.852 138.493 282.554 138.323C281.583 137.672 280.756 136.824 280.074 135.779C279.519 134.925 279.167 134.125 279.018 133.379C278.815 134.136 278.399 134.936 277.77 135.779C277.002 136.824 276.058 137.683 274.938 138.355ZM271.594 135.859C271.284 136.051 271.023 136.115 270.81 136.051C270.596 135.976 270.41 135.768 270.25 135.427C270.1 135.107 270.052 134.845 270.106 134.643C270.159 134.44 270.335 134.259 270.634 134.099C270.986 133.917 271.412 133.683 271.914 133.395C272.052 133.32 272.266 133.197 272.554 133.027C272.97 132.792 273.284 132.611 273.498 132.483C274.095 132.131 274.5 132.291 274.714 132.963C274.863 133.443 274.735 133.821 274.33 134.099C273.391 134.728 272.479 135.315 271.594 135.859ZM271.13 128.339C270.532 128.339 270.234 128.035 270.234 127.427C270.234 126.829 270.532 126.531 271.13 126.531H272.298H273.482C274.079 126.531 274.378 126.829 274.378 127.427C274.378 128.035 274.079 128.339 273.482 128.339H271.13ZM295.13 138.947C294.522 138.947 294.218 138.643 294.218 138.035V126.003C294.218 125.693 294.314 125.443 294.506 125.251C294.698 125.059 294.948 124.963 295.258 124.963H296.586H299.498C299.871 124.963 300.127 125.08 300.266 125.315C300.415 125.539 300.426 125.88 300.298 126.339C299.882 127.725 299.338 129.101 298.666 130.467C299.818 131.597 300.394 132.84 300.394 134.195C300.404 135.368 300.09 136.173 299.45 136.611C299.14 136.813 298.756 136.947 298.298 137.011C298.106 137.032 297.956 137.048 297.85 137.059C297.231 137.037 296.836 136.723 296.666 136.115C296.58 135.805 296.596 135.565 296.714 135.395C296.842 135.224 297.071 135.144 297.402 135.155C297.69 135.133 297.919 135.085 298.09 135.011C298.367 134.861 298.506 134.509 298.506 133.955C298.506 133.155 298.175 132.355 297.514 131.555C296.97 131 296.799 130.483 297.002 130.003C297.236 129.448 297.567 128.557 297.994 127.331C298.09 127.064 298.159 126.872 298.202 126.755H296.426C296.17 126.755 296.042 126.883 296.042 127.139V138.035C296.042 138.643 295.738 138.947 295.13 138.947ZM293.146 137.699C292.58 138.083 292.143 137.976 291.834 137.379C291.823 137.368 291.812 137.352 291.802 137.331C291.652 137.075 291.535 136.883 291.45 136.755C290.116 137.181 288.746 137.619 287.338 138.067C287.018 138.163 286.767 138.152 286.586 138.035C286.415 137.917 286.282 137.688 286.186 137.347C286.015 136.707 286.26 136.307 286.922 136.147L286.938 136.131H286.97V126.899C286.97 126.589 287.066 126.339 287.258 126.147C287.45 125.955 287.7 125.859 288.01 125.859H289.242V124.931C289.242 124.344 289.54 124.051 290.138 124.051C290.724 124.051 291.018 124.344 291.018 124.931V125.859H292.266C292.575 125.859 292.826 125.955 293.018 126.147C293.21 126.339 293.306 126.589 293.306 126.899V131.267C293.306 131.576 293.21 131.827 293.018 132.019C292.826 132.211 292.575 132.307 292.266 132.307H291.002H288.714V135.651L290.378 135.187C290.175 134.909 289.956 134.627 289.722 134.339C289.37 133.88 289.455 133.491 289.978 133.171C290.404 132.904 290.772 132.952 291.082 133.315C291.124 133.357 291.183 133.432 291.258 133.539C291.343 133.635 291.407 133.709 291.45 133.763C291.748 133.485 291.967 133.272 292.106 133.123C292.319 132.877 292.522 132.755 292.714 132.755C292.916 132.744 293.135 132.856 293.37 133.091C293.786 133.507 293.759 133.917 293.29 134.323C293.023 134.547 292.735 134.776 292.426 135.011C292.852 135.576 293.204 136.088 293.482 136.547C293.62 136.803 293.663 137.021 293.61 137.203C293.556 137.373 293.402 137.539 293.146 137.699ZM288.714 130.691H291.178C291.434 130.691 291.562 130.563 291.562 130.307V129.811H290.138H288.714V130.691ZM288.714 128.355H290.138H291.562V127.875C291.562 127.619 291.434 127.491 291.178 127.491H289.098C288.842 127.491 288.714 127.619 288.714 127.875V128.355Z" fill="black"/>
<path d="M343.287 117.441H245.403V156.991H343.287V117.441Z" stroke="black" stroke-miterlimit="10"/>
<path d="M247.019 116.193H243.785V119.343H247.019V116.193Z" fill="white" stroke="black" stroke-miterlimit="10"/>
<path d="M295.963 116.193H292.729V119.343H295.963V116.193Z" fill="white" stroke="black" stroke-miterlimit="10"/>
<path d="M344.905 116.193H341.671V119.343H344.905V116.193Z" fill="white" stroke="black" stroke-miterlimit="10"/>
<path d="M247.146 135.64H243.912V138.79H247.146V135.64Z" fill="white" stroke="black" stroke-miterlimit="10"/>
<path d="M344.905 135.64H341.671V138.79H344.905V135.64Z" fill="white" stroke="black" stroke-miterlimit="10"/>
<path d="M295.963 155.36H292.729V158.51H295.963V155.36Z" fill="white" stroke="black" stroke-miterlimit="10"/>
<path d="M344.905 155.416H341.671V158.566H344.905V155.416Z" fill="white" stroke="black" stroke-miterlimit="10"/>
<path d="M247.019 155.416H243.785V158.566H247.019V155.416Z" fill="white" stroke="black" stroke-miterlimit="10"/>
<path d="M369.506 216.283C369.506 216.283 372.633 206.173 371.289 200.489C369.946 194.805 368.033 191.219 363.903 191.891C359.772 192.563 356.232 198.016 369.506 216.283Z" fill="url(#paint10_linear_202_4215)"/>
<path d="M361.782 230.222C361.782 230.222 363.138 219.729 360.846 214.356C358.553 208.983 356.057 205.775 352.102 207.138C348.146 208.502 345.588 214.477 361.784 230.222H361.782Z" fill="url(#paint11_linear_202_4215)"/>
<path d="M376.151 203.52C376.151 203.52 380.69 195.718 381.256 190.551C381.82 185.384 379.674 180.897 376.457 181.594C373.24 182.288 369.708 190.061 376.154 203.52H376.151Z" fill="url(#paint12_linear_202_4215)"/>
<path d="M360.599 243.395C360.599 243.395 368.376 233.797 376.722 229.849C385.068 225.9 387.59 229.929 387.945 233.324C388.3 236.719 380.194 241.689 360.599 243.393V243.395Z" fill="url(#paint13_linear_202_4215)"/>
<path d="M386.008 213.477C388.04 212.968 390.469 212.735 391.973 214.191C393.521 215.686 393.261 218.379 391.944 220.081C390.627 221.782 388.555 222.702 386.526 223.422C383.856 224.371 368.806 228.963 368.988 224.446C369.1 221.714 373.857 219.086 375.833 217.841C378.967 215.868 382.41 214.38 386.004 213.477H386.008Z" fill="url(#paint14_linear_202_4215)"/>
<path d="M386.774 178.002C387.547 175.942 388.511 173.867 390.185 172.437C391.859 171.008 394.408 170.396 396.303 171.515C398.458 172.787 398.99 175.823 398.164 178.184C397.338 180.545 395.497 182.387 393.713 184.142C391.033 186.775 387.333 192.034 383.963 193.337C382.651 189.255 385.212 181.866 386.779 178.004L386.774 178.002Z" fill="url(#paint15_linear_202_4215)"/>
<path d="M385.489 196.521C387.158 195.087 389.002 193.728 391.157 193.276C393.312 192.825 395.842 193.512 396.966 195.405C398.245 197.555 397.248 200.472 395.39 202.146C393.531 203.821 391.028 204.551 388.62 205.233C385.003 206.257 379.23 209.092 375.646 208.616C376.46 204.406 382.259 199.157 385.491 196.521H385.489Z" fill="url(#paint16_linear_202_4215)"/>
<path d="M355.54 253.719C355.479 253.607 355.46 253.471 355.496 253.34C363.755 222.274 388.015 185.377 388.258 185.008C388.416 184.768 388.739 184.702 388.98 184.86C389.221 185.018 389.286 185.341 389.128 185.581C388.885 185.95 364.717 222.709 356.502 253.607C356.429 253.884 356.142 254.049 355.865 253.976C355.72 253.937 355.605 253.842 355.54 253.719Z" fill="#19A8A6"/>
<path d="M374.834 208.209C374.822 208.184 374.81 208.16 374.8 208.133C374.708 207.862 374.849 207.566 375.121 207.471C375.182 207.449 381.309 205.299 386.869 201.19C387.099 201.02 387.425 201.069 387.598 201.299C387.758 201.528 387.719 201.855 387.488 202.028C381.795 206.231 375.524 208.432 375.464 208.454C375.218 208.539 374.953 208.429 374.834 208.209Z" fill="#19A8A6"/>
<path d="M373.442 210.8C373.367 210.662 373.357 210.492 373.43 210.337C373.476 210.237 378.029 200.229 376.076 190.073C376.022 189.791 376.207 189.517 376.489 189.464C376.771 189.41 377.043 189.592 377.099 189.876C379.115 200.37 374.569 210.354 374.375 210.774C374.253 211.033 373.945 211.147 373.685 211.026C373.578 210.978 373.498 210.898 373.444 210.8H373.442Z" fill="#19A8A6"/>
<path d="M365.669 226.495C365.536 226.24 365.63 225.924 365.886 225.791C365.968 225.747 374.117 221.454 380.121 219.777C380.396 219.7 380.68 219.862 380.763 220.139C380.84 220.415 380.678 220.702 380.401 220.78C374.501 222.427 366.452 226.667 366.372 226.711C366.119 226.844 365.805 226.749 365.669 226.497V226.495Z" fill="#19A8A6"/>
<path d="M368.94 219.605C368.889 219.513 368.869 219.403 368.884 219.289C368.894 219.217 369.834 211.922 365.959 203.294C365.842 203.032 365.959 202.724 366.221 202.608C366.483 202.491 366.794 202.593 366.909 202.87C370.91 211.783 369.955 219.122 369.914 219.43C369.875 219.714 369.613 219.913 369.329 219.874C369.156 219.85 369.018 219.746 368.94 219.605Z" fill="#19A8A6"/>
<path d="M358.247 244.873C358.12 244.635 358.196 244.337 358.429 244.189C358.854 243.922 368.884 237.612 374.863 235.408C375.133 235.309 375.43 235.454 375.532 235.717C375.631 235.986 375.493 236.284 375.223 236.384C369.346 238.546 359.087 245.002 358.985 245.067C358.742 245.22 358.422 245.147 358.266 244.904C358.259 244.892 358.254 244.883 358.247 244.871V244.873Z" fill="#19A8A6"/>
<path d="M361.459 236.272C361.398 236.158 361.378 236.022 361.415 235.889C361.432 235.828 363.001 229.841 357.955 220.42C357.819 220.168 357.914 219.852 358.169 219.717C358.421 219.581 358.737 219.675 358.873 219.93C364.139 229.756 362.491 235.913 362.418 236.17C362.341 236.447 362.054 236.607 361.777 236.53C361.636 236.491 361.524 236.394 361.459 236.275V236.272Z" fill="#19A8A6"/>
<path d="M389.196 233.683C389.196 233.683 398.011 227.822 400.609 222.677C403.206 217.532 404.035 213.65 400.465 211.698C396.896 209.747 390.732 211.803 389.196 233.683Z" fill="url(#paint17_linear_202_4215)"/>
<path d="M374.445 239.728C374.445 239.728 382.16 232.518 383.836 227.046C385.513 221.573 385.659 217.63 381.778 216.312C377.898 214.994 372.149 218.035 374.445 239.728Z" fill="url(#paint18_linear_202_4215)"/>
<path d="M402.377 227.895C402.377 227.895 410.799 224.641 414.519 221.029C418.239 217.418 419.461 212.708 416.572 211.32C413.683 209.932 406.046 213.766 402.377 227.895Z" fill="url(#paint19_linear_202_4215)"/>
<path d="M365.157 249.088C365.157 249.088 377.184 246.395 386.045 248.355C394.909 250.316 394.262 254.901 392.37 257.708C390.477 260.514 381.149 259.478 365.157 249.088Z" fill="url(#paint20_linear_202_4215)"/>
<path d="M403.536 241.383C405.407 242.206 407.402 243.478 407.621 245.487C407.844 247.552 405.935 249.457 403.85 249.972C401.765 250.486 399.603 249.952 397.601 249.292C394.964 248.423 380.595 242.956 383.61 239.614C385.435 237.592 390.727 238.42 393.023 238.651C396.663 239.015 400.23 239.93 403.539 241.383H403.536Z" fill="url(#paint21_linear_202_4215)"/>
<path d="M426.706 214.732C428.604 213.618 430.662 212.606 432.844 212.514C435.025 212.419 437.356 213.472 438.085 215.458C438.913 217.717 437.385 220.352 435.254 221.665C433.123 222.978 430.55 223.286 428.074 223.563C424.359 223.978 418.197 225.788 414.803 224.772C416.404 220.869 423.057 216.751 426.706 214.732Z" fill="url(#paint22_linear_202_4215)"/>
<path d="M413.936 228.116C416.117 228.014 418.387 228.077 420.314 229.019C422.24 229.96 423.727 231.994 423.377 234.11C422.981 236.515 420.367 238.151 417.884 238.323C415.403 238.493 413.034 237.561 410.767 236.644C407.363 235.268 401.167 233.989 398.743 231.489C402.042 228.756 409.798 228.206 413.933 228.118L413.936 228.116Z" fill="url(#paint23_linear_202_4215)"/>
<path d="M354.738 253.961C354.765 253.84 354.835 253.726 354.947 253.646C381.008 234.831 422.955 221.107 423.375 220.971C423.65 220.881 423.936 221.025 424.016 221.289C424.097 221.554 423.944 221.84 423.671 221.927C423.251 222.063 381.463 235.738 355.54 254.452C355.307 254.619 354.986 254.575 354.821 254.354C354.736 254.238 354.709 254.097 354.736 253.964L354.738 253.961Z" fill="#19A8A6"/>
<path d="M398.39 230.693C398.395 230.666 398.402 230.642 398.412 230.615C398.514 230.353 398.811 230.21 399.078 230.3C399.139 230.319 405.167 232.331 412.014 232.508C412.298 232.516 412.514 232.749 412.497 233.025C412.473 233.295 412.237 233.523 411.951 233.515C404.943 233.333 398.774 231.273 398.711 231.254C398.47 231.174 398.337 230.931 398.388 230.691L398.39 230.693Z" fill="#19A8A6"/>
<path d="M395.681 231.843C395.713 231.693 395.812 231.557 395.965 231.482C396.063 231.433 405.898 226.5 410.881 217.574C411.02 217.326 411.333 217.227 411.584 217.355C411.834 217.481 411.924 217.785 411.785 218.035C406.639 227.259 396.823 232.176 396.408 232.38C396.15 232.506 395.844 232.409 395.72 232.161C395.671 232.059 395.659 231.95 395.681 231.846V231.843Z" fill="#19A8A6"/>
<path d="M379.774 239.199C379.832 238.922 380.107 238.74 380.386 238.789C380.476 238.803 389.408 240.386 395.045 242.686C395.305 242.791 395.416 243.084 395.302 243.344C395.185 243.601 394.879 243.725 394.619 243.618C389.084 241.359 380.26 239.796 380.172 239.781C379.895 239.733 379.715 239.473 379.774 239.199Z" fill="#19A8A6"/>
<path d="M386.648 235.884C386.669 235.782 386.723 235.687 386.805 235.61C386.859 235.561 392.219 230.545 394.765 221.641C394.843 221.372 395.127 221.207 395.402 221.272C395.676 221.34 395.846 221.602 395.759 221.884C393.128 231.084 387.729 236.122 387.5 236.333C387.289 236.527 386.963 236.522 386.771 236.323C386.655 236.202 386.616 236.039 386.648 235.884Z" fill="#19A8A6"/>
<path d="M362.428 248.817C362.482 248.559 362.732 248.375 363.002 248.402C363.495 248.45 375.143 249.61 381.093 251.496C381.36 251.581 381.494 251.869 381.404 252.129C381.309 252.394 381.013 252.539 380.743 252.454C374.895 250.603 362.982 249.416 362.863 249.404C362.581 249.375 362.382 249.13 362.418 248.85C362.418 248.838 362.423 248.826 362.426 248.814L362.428 248.817Z" fill="#19A8A6"/>
<path d="M370.347 244.159C370.373 244.036 370.446 243.919 370.558 243.839C370.609 243.803 375.614 240.165 377.774 229.953C377.833 229.679 378.105 229.494 378.384 229.543C378.663 229.591 378.843 229.851 378.785 230.125C376.533 240.774 371.36 244.497 371.141 244.65C370.905 244.815 370.587 244.766 370.424 244.54C370.342 244.426 370.317 244.286 370.344 244.157L370.347 244.159Z" fill="#19A8A6"/>
<path d="M452.418 164.866H323.774V265.139H452.418V164.866Z" stroke="black" stroke-miterlimit="10"/>
<path d="M326.42 162.822H321.123V167.984H326.42V162.822Z" fill="white" stroke="black" stroke-miterlimit="10"/>
<path d="M390.742 162.822H385.445V167.984H390.742V162.822Z" fill="white" stroke="black" stroke-miterlimit="10"/>
<path d="M455.063 162.822H449.767V167.984H455.063V162.822Z" fill="white" stroke="black" stroke-miterlimit="10"/>
<path d="M326.626 212.691H321.33V217.853H326.626V212.691Z" fill="white" stroke="black" stroke-miterlimit="10"/>
<path d="M455.063 212.691H449.767V217.853H455.063V212.691Z" fill="white" stroke="black" stroke-miterlimit="10"/>
<path d="M390.742 262.47H385.445V267.632H390.742V262.47Z" fill="white" stroke="black" stroke-miterlimit="10"/>
<path d="M455.063 262.56H449.767V267.721H455.063V262.56Z" fill="white" stroke="black" stroke-miterlimit="10"/>
<path d="M326.42 262.56H321.123V267.721H326.42V262.56Z" fill="white" stroke="black" stroke-miterlimit="10"/>
<path d="M215.644 67.4024C215.576 67.4655 215.508 67.531 215.44 67.5965C215.423 67.6135 215.406 67.6305 215.389 67.645C215.331 67.7009 215.275 67.7591 215.219 67.8174C215.207 67.8295 215.195 67.8416 215.185 67.8538C215.12 67.9217 215.056 67.9897 214.993 68.06C214.979 68.077 214.964 68.094 214.947 68.111C214.894 68.1692 214.843 68.2299 214.792 68.2906C214.779 68.3051 214.767 68.3197 214.753 68.3343C214.692 68.4071 214.634 68.4799 214.575 68.5527C214.563 68.5697 214.549 68.5867 214.536 68.6036C214.488 68.6667 214.442 68.7274 214.393 68.7929C214.381 68.8099 214.366 68.8269 214.354 68.8439C214.298 68.9191 214.245 68.9968 214.191 69.0744C214.179 69.0914 214.17 69.106 214.16 69.123C214.116 69.1885 214.072 69.2565 214.029 69.322C214.016 69.3414 214.004 69.3608 213.992 69.3802C213.941 69.4603 213.893 69.5404 213.844 69.6229C213.834 69.6375 213.827 69.652 213.82 69.6666C213.778 69.737 213.739 69.8073 213.701 69.8801C213.688 69.902 213.679 69.9214 213.667 69.9432C213.623 70.0282 213.577 70.1107 213.535 70.1981C213.53 70.2102 213.523 70.2223 213.518 70.2345C213.482 70.3097 213.445 70.3873 213.409 70.465C213.399 70.4868 213.39 70.5087 213.377 70.533C213.339 70.6203 213.3 70.7077 213.263 70.7975C213.261 70.8048 213.258 70.812 213.254 70.8193C213.219 70.9018 213.188 70.9868 213.156 71.0693C213.147 71.0936 213.139 71.1154 213.13 71.1397C213.096 71.2319 213.064 71.3241 213.032 71.4163C212.216 73.9135 212.614 76.3937 213.905 78.2818L215.533 80.6625C214.242 78.7744 213.844 76.2942 214.66 73.797C214.692 73.7048 214.723 73.6126 214.758 73.5204C214.767 73.4961 214.775 73.4718 214.784 73.45C214.816 73.3651 214.847 73.2825 214.881 73.2C214.884 73.1927 214.886 73.1855 214.891 73.1782C214.928 73.0884 214.966 73.001 215.005 72.9137C215.015 72.8918 215.025 72.87 215.037 72.8457C215.071 72.7681 215.107 72.6928 215.146 72.6152C215.151 72.603 215.158 72.5909 215.163 72.5788C215.205 72.4938 215.251 72.4089 215.294 72.3239C215.307 72.3021 215.316 72.2827 215.328 72.2609C215.367 72.1905 215.406 72.1177 215.448 72.0473C215.455 72.0327 215.465 72.0182 215.472 72.0036C215.52 71.9211 215.569 71.841 215.62 71.7609C215.632 71.7415 215.644 71.7221 215.656 71.7027C215.7 71.6347 215.744 71.5692 215.788 71.5037C215.797 71.4867 215.81 71.4721 215.819 71.4552C215.873 71.3775 215.926 71.2998 215.982 71.2246C215.994 71.2076 216.009 71.1906 216.021 71.1736C216.067 71.1105 216.116 71.0474 216.164 70.9843C216.176 70.9674 216.191 70.9504 216.203 70.9334C216.261 70.8606 216.32 70.7878 216.381 70.715C216.393 70.7004 216.405 70.6858 216.419 70.6713C216.47 70.6106 216.521 70.5524 216.575 70.4917C216.59 70.4747 216.604 70.4577 216.621 70.4407C216.684 70.3704 216.747 70.3024 216.813 70.2345C216.825 70.2223 216.837 70.2102 216.849 70.1981C216.905 70.1398 216.961 70.084 217.02 70.0258C217.037 70.0088 217.054 69.9918 217.071 69.9772C217.139 69.9117 217.207 69.8462 217.275 69.7831C217.284 69.7734 217.294 69.7661 217.304 69.7564C217.365 69.7006 217.428 69.6447 217.491 69.5914C217.508 69.5768 217.525 69.5622 217.542 69.5477C217.622 69.4773 217.705 69.4093 217.79 69.3438C217.804 69.3317 217.819 69.322 217.834 69.3098C217.921 69.2419 218.008 69.1739 218.096 69.1084H218.098C218.188 69.0405 218.278 68.9774 218.37 68.9143C218.385 68.9046 218.402 68.8924 218.417 68.8827C218.504 68.8221 218.594 68.7638 218.684 68.708C218.703 68.6959 218.723 68.6837 218.742 68.6716C218.805 68.6328 218.871 68.5915 218.937 68.5527C218.951 68.543 218.968 68.5333 218.983 68.5236C219.061 68.4774 219.141 68.4338 219.218 68.3901C219.238 68.3804 219.257 68.3682 219.277 68.3585C219.342 68.3246 219.406 68.2882 219.471 68.2542C219.493 68.2445 219.512 68.2323 219.534 68.2226C219.614 68.1814 219.697 68.1425 219.78 68.1037C219.794 68.0964 219.809 68.0892 219.823 68.0843C219.887 68.0552 219.95 68.0261 220.015 67.9969C220.04 67.9872 220.064 67.9751 220.091 67.9654C220.149 67.9411 220.207 67.9144 220.268 67.8902C220.29 67.8805 220.312 67.8732 220.334 67.8635C220.414 67.8319 220.492 67.8004 220.572 67.7712C220.584 67.7664 220.599 67.7615 220.611 67.7567C220.679 67.7324 220.747 67.7081 220.815 67.6839C220.839 67.6742 220.866 67.6669 220.89 67.6572C220.948 67.6378 221.009 67.6184 221.067 67.6014C221.092 67.5941 221.116 67.5868 221.138 67.5795C221.218 67.5553 221.301 67.531 221.383 67.5091L221.4 67.5043C221.478 67.4825 221.553 67.463 221.631 67.4461C221.655 67.4388 221.682 67.4339 221.706 67.4291C221.767 67.4145 221.826 67.4024 221.886 67.3878C221.911 67.383 221.937 67.3757 221.962 67.3708C222.049 67.3538 222.137 67.3344 222.224 67.3199C222.229 67.3199 222.236 67.3199 222.241 67.3174C222.324 67.3029 222.406 67.2907 222.489 67.2786C222.513 67.2738 222.54 67.2713 222.564 67.2689C222.635 67.2592 222.705 67.2495 222.776 67.2422C222.795 67.2422 222.814 67.2373 222.836 67.2349C222.924 67.2252 223.011 67.2179 223.101 67.2107C223.118 67.2107 223.135 67.2107 223.15 67.2082C223.247 67.2009 223.344 67.1961 223.441 67.1912C223.456 67.1912 223.47 67.1912 223.485 67.1912C223.59 67.1864 223.692 67.1864 223.796 67.184C223.818 67.184 223.84 67.184 223.862 67.184C223.966 67.184 224.071 67.184 224.175 67.1888C224.187 67.1888 224.199 67.1888 224.212 67.1888C224.309 67.1937 224.408 67.1985 224.506 67.2058C224.525 67.2058 224.542 67.2082 224.561 67.2107C224.646 67.2179 224.731 67.2252 224.817 67.2349C224.831 67.2349 224.843 67.2373 224.858 67.2398C224.931 67.2471 225.001 67.2568 225.074 67.2665C225.101 67.2713 225.128 67.2738 225.154 67.2786C225.215 67.2883 225.278 67.298 225.339 67.3077C225.366 67.3126 225.39 67.3174 225.417 67.3223C225.502 67.3368 225.587 67.3538 225.672 67.3732C225.767 67.3927 225.859 67.4145 225.951 67.4388C225.971 67.4436 225.988 67.4485 226.007 67.4533C226.097 67.4752 226.184 67.4994 226.272 67.5261C226.289 67.531 226.304 67.5358 226.321 67.5407C226.403 67.565 226.486 67.5917 226.566 67.6184C226.576 67.6208 226.585 67.6256 226.595 67.6281C226.68 67.6572 226.768 67.6887 226.85 67.7203C226.867 67.7276 226.887 67.7348 226.904 67.7421C226.986 67.7737 227.071 67.8076 227.151 67.8416C227.161 67.8465 227.173 67.8513 227.183 67.8562C227.258 67.8877 227.336 67.9217 227.409 67.9581C227.424 67.9654 227.436 67.9702 227.45 67.9775C227.531 68.0139 227.608 68.0528 227.686 68.094C227.703 68.1013 227.718 68.111 227.735 68.1183C227.812 68.1595 227.893 68.2008 227.968 68.2445L227.975 68.2493C228.05 68.293 228.123 68.3367 228.196 68.3804C228.211 68.3901 228.225 68.3974 228.24 68.4071C228.313 68.4532 228.383 68.4993 228.454 68.5454C228.468 68.5551 228.481 68.5648 228.495 68.5721C228.563 68.6182 228.629 68.6643 228.694 68.7129C228.702 68.7177 228.706 68.7226 228.714 68.7274C228.782 68.7784 228.85 68.8293 228.918 68.8827C228.932 68.8949 228.947 68.9046 228.962 68.9167C229.027 68.9701 229.093 69.0235 229.156 69.0793C229.166 69.0866 229.175 69.0963 229.183 69.1036C229.241 69.1545 229.299 69.2079 229.358 69.2613C229.367 69.271 229.377 69.2783 229.387 69.288C229.448 69.3463 229.508 69.4045 229.567 69.4627C229.579 69.4749 229.591 69.487 229.603 69.5016C229.661 69.5622 229.722 69.6229 229.778 69.686C229.783 69.6909 229.788 69.6957 229.79 69.7006C229.839 69.754 229.885 69.8073 229.931 69.8607C229.943 69.8753 229.958 69.8899 229.97 69.9044C230.019 69.9627 230.07 70.0233 230.116 70.0816L230.123 70.0913C230.169 70.1495 230.213 70.2078 230.257 70.266C230.269 70.283 230.281 70.2976 230.291 70.3145C230.337 70.3776 230.381 70.4383 230.424 70.5038L228.796 68.1231C228.753 68.06 228.709 67.9969 228.663 67.9338C228.651 67.9169 228.638 67.9023 228.629 67.8853C228.585 67.8271 228.541 67.7688 228.495 67.7106L228.488 67.7009C228.439 67.6402 228.391 67.582 228.342 67.5237C228.33 67.5091 228.318 67.4946 228.303 67.48C228.257 67.4266 228.211 67.3732 228.162 67.3199C228.16 67.315 228.155 67.3126 228.153 67.3077H228.15C228.094 67.2422 228.033 67.1815 227.975 67.1209C227.963 67.1087 227.951 67.0966 227.939 67.082C227.88 67.0238 227.82 66.9655 227.759 66.9073C227.749 66.8976 227.739 66.8903 227.73 66.8806C227.671 66.8272 227.613 66.7763 227.555 66.7229C227.545 66.7156 227.535 66.7059 227.526 66.6986C227.462 66.6428 227.397 66.5894 227.331 66.5384C227.317 66.5263 227.302 66.5166 227.288 66.5045C227.22 66.4511 227.154 66.4001 227.083 66.3491C227.076 66.3443 227.071 66.3394 227.064 66.3346C226.998 66.286 226.933 66.2399 226.865 66.1938C226.85 66.1841 226.838 66.1744 226.823 66.1671C226.753 66.1186 226.683 66.0725 226.61 66.0288C226.595 66.0191 226.58 66.0094 226.566 66.0021C226.493 65.956 226.42 65.9123 226.345 65.871L226.338 65.8662C226.26 65.8225 226.182 65.7813 226.104 65.74C226.087 65.7303 226.073 65.723 226.056 65.7133C225.978 65.6745 225.9 65.6356 225.82 65.5968C225.805 65.5895 225.793 65.5847 225.779 65.5774C225.703 65.5434 225.628 65.5095 225.553 65.4755C225.543 65.4706 225.531 65.4658 225.521 65.4609C225.439 65.4269 225.356 65.393 225.273 65.3614C225.256 65.3541 225.237 65.3469 225.22 65.342C225.135 65.3105 225.05 65.2789 224.965 65.2498C224.955 65.2474 224.945 65.2425 224.936 65.2401C224.855 65.2134 224.773 65.1867 224.69 65.1624C224.673 65.1576 224.659 65.1527 224.642 65.1479C224.554 65.1212 224.467 65.0993 224.377 65.0751C224.357 65.0702 224.34 65.0653 224.321 65.0605C224.229 65.0362 224.136 65.0144 224.041 64.995C223.956 64.978 223.871 64.961 223.786 64.944C223.76 64.9391 223.735 64.9343 223.709 64.9294C223.648 64.9197 223.585 64.9076 223.524 64.9003C223.497 64.8955 223.47 64.893 223.444 64.8882C223.373 64.8785 223.3 64.8688 223.23 64.8615C223.215 64.8615 223.203 64.8591 223.189 64.8566C223.104 64.8469 223.019 64.8397 222.933 64.8324C222.926 64.8324 222.919 64.8324 222.914 64.8324C222.902 64.8324 222.89 64.8324 222.88 64.8324C222.783 64.8251 222.683 64.8178 222.586 64.8154C222.574 64.8154 222.562 64.8154 222.55 64.8154C222.445 64.8105 222.341 64.8105 222.239 64.8105C222.217 64.8105 222.195 64.8105 222.173 64.8105C222.069 64.8105 221.966 64.8105 221.862 64.8178C221.847 64.8178 221.833 64.8178 221.818 64.8178C221.721 64.8227 221.624 64.8275 221.527 64.8348C221.517 64.8348 221.505 64.8348 221.495 64.8348C221.49 64.8348 221.483 64.8348 221.478 64.8348C221.391 64.8421 221.301 64.8494 221.213 64.8591C221.194 64.8591 221.174 64.8639 221.155 64.8664C221.084 64.8736 221.014 64.8833 220.944 64.893C220.919 64.8955 220.893 64.9003 220.868 64.9028C220.786 64.9149 220.703 64.927 220.623 64.9416C220.616 64.9416 220.611 64.9416 220.603 64.944C220.516 64.9586 220.428 64.978 220.341 64.995C220.331 64.995 220.322 64.9974 220.312 64.9998C220.297 65.0022 220.28 65.0071 220.266 65.0095C220.205 65.0217 220.144 65.0362 220.086 65.0508C220.062 65.0556 220.035 65.0629 220.011 65.0678C219.933 65.0872 219.857 65.1066 219.782 65.126L219.765 65.1309C219.683 65.1527 219.602 65.177 219.52 65.2013C219.495 65.2085 219.471 65.2158 219.447 65.2231C219.389 65.2425 219.328 65.2595 219.269 65.2789C219.255 65.2838 219.24 65.2886 219.226 65.2935C219.216 65.2983 219.204 65.3008 219.194 65.3056C219.126 65.3299 219.058 65.3541 218.99 65.3784C218.978 65.3833 218.963 65.3881 218.951 65.393C218.871 65.4221 218.791 65.4536 218.713 65.4852C218.691 65.4949 218.669 65.5022 218.647 65.5119C218.589 65.5362 218.528 65.5604 218.47 65.5871C218.446 65.5968 218.422 65.609 218.395 65.6187C218.332 65.6478 218.268 65.6745 218.205 65.706C218.193 65.7109 218.181 65.7157 218.169 65.723L218.159 65.7279C218.076 65.7667 217.996 65.8055 217.914 65.8468C217.892 65.8565 217.872 65.8686 217.851 65.8783C217.785 65.9123 217.719 65.9463 217.656 65.9803C217.637 65.99 217.617 65.9997 217.598 66.0118C217.518 66.0555 217.44 66.0992 217.362 66.1453C217.345 66.155 217.331 66.1647 217.316 66.1744C217.25 66.2132 217.187 66.2521 217.122 66.2933C217.109 66.3006 217.097 66.3079 217.085 66.3152C217.078 66.32 217.071 66.3249 217.063 66.3297C216.973 66.388 216.884 66.4462 216.796 66.5045C216.781 66.5142 216.764 66.5263 216.75 66.536C216.658 66.5991 216.568 66.6622 216.478 66.7301H216.475C216.385 66.7981 216.298 66.866 216.213 66.934C216.198 66.9461 216.184 66.9558 216.169 66.968C216.087 67.0335 216.004 67.1039 215.921 67.1718C215.914 67.1791 215.907 67.184 215.899 67.1888C215.89 67.1985 215.88 67.2058 215.87 67.2155C215.807 67.2689 215.746 67.3247 215.683 67.3805C215.674 67.3902 215.664 67.3975 215.654 67.4072L215.644 67.4024Z" fill="#D0D2D3"/>
<path d="M234.601 76.037C234.567 76.1389 234.533 76.2384 234.499 76.3379C234.489 76.367 234.477 76.3961 234.467 76.4253C234.441 76.5005 234.411 76.5757 234.385 76.651C234.375 76.6777 234.365 76.7043 234.353 76.731C234.314 76.8305 234.275 76.9276 234.237 77.0247C234.232 77.0368 234.227 77.0514 234.22 77.0635C234.183 77.1485 234.149 77.2334 234.113 77.3183C234.1 77.3475 234.088 77.3766 234.074 77.4057C234.04 77.4809 234.008 77.5537 233.972 77.6265C233.96 77.6508 233.95 77.6751 233.938 77.6969C233.894 77.7916 233.848 77.8862 233.802 77.9784C233.792 77.9978 233.782 78.0173 233.772 78.0367C233.734 78.1119 233.695 78.1871 233.656 78.2624C233.641 78.2915 233.627 78.3182 233.612 78.3473C233.573 78.4225 233.532 78.4953 233.491 78.5706C233.481 78.59 233.471 78.607 233.459 78.6264C233.408 78.7162 233.357 78.8084 233.304 78.8958C233.291 78.9176 233.277 78.9394 233.265 78.9613C233.223 79.0317 233.182 79.0996 233.138 79.1676C233.121 79.1943 233.104 79.221 233.09 79.2477C233.041 79.3253 232.993 79.4005 232.944 79.4782C232.937 79.4903 232.929 79.5025 232.922 79.5122C232.866 79.5995 232.808 79.6845 232.75 79.7694C232.733 79.7937 232.718 79.8155 232.701 79.8398C232.655 79.9053 232.611 79.9684 232.565 80.0339C232.548 80.0582 232.531 80.0825 232.511 80.1067C232.451 80.1917 232.39 80.2742 232.327 80.3567C232.264 80.4392 232.2 80.5217 232.137 80.6018C232.118 80.6261 232.098 80.6504 232.081 80.6722C232.033 80.7329 231.982 80.7935 231.933 80.8542C231.916 80.8761 231.897 80.8979 231.88 80.9197C231.814 80.9998 231.746 81.0775 231.678 81.1551C231.668 81.1648 231.659 81.177 231.649 81.1867C231.591 81.2546 231.53 81.3226 231.469 81.3881C231.447 81.4099 231.428 81.4342 231.406 81.4561C231.352 81.5143 231.297 81.5725 231.243 81.6308C231.226 81.6502 231.209 81.6672 231.19 81.6866C231.119 81.7618 231.046 81.8346 230.973 81.9074C230.959 81.922 230.944 81.9366 230.927 81.9536C230.869 82.0118 230.808 82.07 230.75 82.1283C230.728 82.1501 230.704 82.172 230.682 82.1938C230.621 82.2521 230.56 82.3079 230.5 82.3661C230.485 82.3807 230.468 82.3952 230.453 82.4098C230.378 82.4802 230.3 82.5481 230.225 82.6161C230.206 82.6331 230.186 82.6501 230.167 82.667C230.108 82.718 230.053 82.7665 229.994 82.8151C229.963 82.8418 229.931 82.8685 229.897 82.8952C229.846 82.9388 229.793 82.9825 229.739 83.0238C229.708 83.0505 229.676 83.0747 229.644 83.1014C229.586 83.1475 229.528 83.1937 229.469 83.2398C229.443 83.2616 229.416 83.281 229.389 83.3029C229.304 83.3684 229.219 83.4339 229.132 83.497C229.124 83.5019 229.12 83.5067 229.112 83.5116C229.032 83.5698 228.952 83.6281 228.869 83.6863C228.84 83.7057 228.811 83.7276 228.782 83.747C228.724 83.7882 228.663 83.8295 228.604 83.8707C228.57 83.8926 228.536 83.9168 228.502 83.9387C228.447 83.9751 228.391 84.0139 228.332 84.0503C228.298 84.0722 228.262 84.0964 228.228 84.1183C228.187 84.145 228.145 84.1692 228.104 84.1959C228.002 84.259 227.9 84.3221 227.795 84.3828C227.771 84.3974 227.744 84.4143 227.72 84.4289C227.596 84.5017 227.47 84.5745 227.343 84.6425C227.312 84.6595 227.283 84.6764 227.251 84.691C227.149 84.7468 227.045 84.8026 226.94 84.856C226.906 84.873 226.875 84.89 226.84 84.907C226.712 84.9725 226.581 85.0356 226.452 85.0987C226.427 85.1108 226.406 85.1206 226.381 85.1303C226.279 85.1764 226.18 85.2225 226.078 85.2686C226.039 85.2856 226 85.3026 225.959 85.3195C225.866 85.3608 225.771 85.3996 225.677 85.4385C225.643 85.453 225.606 85.4676 225.572 85.4821C225.446 85.5331 225.32 85.5816 225.191 85.6302C225.171 85.6375 225.149 85.6447 225.13 85.652C225.021 85.6909 224.911 85.7297 224.802 85.7685C224.761 85.7831 224.722 85.7952 224.68 85.8098C224.586 85.8413 224.493 85.8704 224.399 85.8996C224.36 85.9117 224.323 85.9238 224.284 85.936C224.156 85.9748 224.024 86.0136 223.896 86.0476C223.886 86.0476 223.879 86.0524 223.869 86.0549C223.747 86.0889 223.624 86.1204 223.502 86.1495C223.461 86.1592 223.422 86.1689 223.381 86.1786C223.286 86.2005 223.189 86.2223 223.094 86.2442C223.053 86.2539 223.014 86.2611 222.972 86.2709C222.834 86.3 222.695 86.3267 222.557 86.3509C222.547 86.3509 222.537 86.3534 222.53 86.3558C222.399 86.3776 222.268 86.3995 222.137 86.4189C222.095 86.4237 222.056 86.431 222.015 86.4359C221.903 86.4504 221.792 86.465 221.68 86.4796C221.648 86.4844 221.617 86.4868 221.585 86.4917C221.444 86.5063 221.306 86.5208 221.165 86.533C221.07 86.5402 220.975 86.5475 220.883 86.5524C220.876 86.5524 220.868 86.5524 220.861 86.5524C220.756 86.5596 220.65 86.5645 220.545 86.5669C220.514 86.5669 220.48 86.5669 220.448 86.5694C220.375 86.5694 220.3 86.5742 220.227 86.5742C220.188 86.5742 220.149 86.5742 220.113 86.5742C220.042 86.5742 219.972 86.5742 219.904 86.5742C219.865 86.5742 219.828 86.5742 219.789 86.5742C219.714 86.5742 219.636 86.5718 219.561 86.5694C219.532 86.5694 219.5 86.5694 219.471 86.5669C219.364 86.5621 219.26 86.5572 219.153 86.5524C219.133 86.5524 219.116 86.5499 219.097 86.5475C219.012 86.5427 218.929 86.5354 218.844 86.5281C218.708 86.516 218.572 86.5038 218.439 86.4893C218.417 86.4868 218.395 86.4844 218.373 86.482C218.259 86.4699 218.145 86.4529 218.03 86.4383C217.987 86.431 217.945 86.4262 217.902 86.4189C217.804 86.4043 217.705 86.3873 217.608 86.3704C217.566 86.3631 217.525 86.3558 217.484 86.3485C217.348 86.3242 217.214 86.2976 217.078 86.2684C216.983 86.249 216.891 86.2272 216.796 86.2053C216.767 86.1981 216.738 86.1908 216.709 86.1835C216.643 86.1689 216.58 86.1519 216.517 86.135C216.483 86.1252 216.451 86.118 216.417 86.1083C216.356 86.0913 216.293 86.0743 216.232 86.0573C216.201 86.0476 216.169 86.0403 216.14 86.0306C216.067 86.0088 215.997 85.9869 215.926 85.9651C215.907 85.9602 215.887 85.9529 215.87 85.9481C215.78 85.919 215.693 85.8898 215.603 85.8607C215.579 85.8534 215.557 85.8437 215.533 85.8365C215.467 85.8146 215.401 85.7904 215.338 85.7685C215.307 85.7564 215.277 85.7467 215.246 85.7345C215.188 85.7127 215.129 85.6909 215.073 85.669C215.042 85.6569 215.013 85.6447 214.981 85.6326C214.92 85.6083 214.86 85.5841 214.799 85.5574C214.775 85.5477 214.75 85.538 214.726 85.5283C214.641 85.4918 214.558 85.4555 214.476 85.4191C214.464 85.4142 214.451 85.4069 214.437 85.4021C214.366 85.3705 214.296 85.339 214.228 85.305C214.201 85.2929 214.174 85.2783 214.148 85.2662C214.092 85.2395 214.038 85.2128 213.982 85.1836C213.953 85.1691 213.924 85.1545 213.895 85.14C213.839 85.1108 213.786 85.0841 213.732 85.055C213.705 85.0405 213.681 85.0283 213.654 85.0138C213.584 84.9749 213.516 84.9385 213.448 84.8997C213.438 84.8949 213.431 84.89 213.421 84.8851C213.343 84.8415 213.268 84.7954 213.19 84.7517C213.169 84.7371 213.144 84.725 213.122 84.7104C213.069 84.6789 213.015 84.6449 212.962 84.6109C212.935 84.5939 212.909 84.5769 212.882 84.56C212.831 84.5284 212.782 84.4969 212.734 84.4629C212.707 84.4459 212.683 84.4289 212.656 84.4119C212.6 84.3755 212.546 84.3367 212.491 84.3003C212.474 84.2881 212.454 84.276 212.437 84.2639C212.364 84.2129 212.294 84.162 212.223 84.111C212.206 84.0989 212.192 84.0867 212.175 84.0746C212.121 84.0333 212.065 83.9945 212.014 83.9533C211.99 83.9338 211.966 83.9168 211.944 83.8974C211.898 83.861 211.852 83.8246 211.808 83.7882C211.784 83.7688 211.759 83.7494 211.735 83.73C211.689 83.6912 211.643 83.6523 211.596 83.6135C211.577 83.5965 211.555 83.5795 211.536 83.5625C211.47 83.5067 211.405 83.4485 211.341 83.3927L211.329 83.3805C211.268 83.3271 211.21 83.2713 211.152 83.2155C211.132 83.1961 211.111 83.1767 211.091 83.1573C211.047 83.116 211.006 83.0747 210.962 83.0335C210.94 83.0116 210.919 82.9898 210.897 82.968C210.855 82.9267 210.814 82.8855 210.775 82.8442C210.756 82.8224 210.734 82.8029 210.714 82.7811C210.666 82.7301 210.617 82.6792 210.571 82.6282C210.561 82.6161 210.549 82.6039 210.537 82.5942C210.53 82.587 210.523 82.5772 210.515 82.5675C210.44 82.4826 210.365 82.3977 210.289 82.3127C210.27 82.2885 210.248 82.2642 210.229 82.2423C210.148 82.1477 210.071 82.0555 209.995 81.9584C209.99 81.9536 209.988 81.9487 209.983 81.9438C209.91 81.8516 209.84 81.7594 209.769 81.6648C209.75 81.6405 209.733 81.6138 209.713 81.5895C209.641 81.49 209.57 81.3905 209.5 81.291L211.128 83.6717C211.196 83.7737 211.268 83.8732 211.341 83.9702C211.361 83.9945 211.378 84.0212 211.397 84.0455C211.468 84.1401 211.538 84.2323 211.611 84.3246C211.616 84.3294 211.618 84.3343 211.623 84.3391C211.699 84.4338 211.776 84.5284 211.856 84.6231C211.876 84.6473 211.898 84.6716 211.917 84.6934C211.99 84.7784 212.065 84.8633 212.143 84.9482C212.148 84.9555 212.155 84.9604 212.16 84.9677L212.167 84.9749C212.167 84.9749 212.189 84.9992 212.199 85.0089C212.248 85.0599 212.294 85.1108 212.342 85.1618C212.362 85.1836 212.384 85.2031 212.403 85.2249C212.444 85.2662 212.483 85.3074 212.525 85.3487C212.546 85.3705 212.568 85.3923 212.59 85.4142C212.632 85.4554 212.675 85.4967 212.719 85.538C212.738 85.5574 212.758 85.5768 212.78 85.5962C212.838 85.652 212.899 85.7054 212.957 85.7612C212.962 85.7661 212.964 85.7685 212.969 85.7734C213.032 85.8316 213.098 85.8874 213.164 85.9432C213.183 85.9602 213.205 85.9772 213.224 85.9942C213.271 86.033 213.317 86.0719 213.363 86.1107C213.387 86.1301 213.411 86.1495 213.436 86.1689C213.482 86.2053 213.526 86.2417 213.572 86.2781C213.596 86.2976 213.62 86.3145 213.642 86.334C213.696 86.3752 213.749 86.4165 213.803 86.4553C213.82 86.4674 213.834 86.4796 213.851 86.4917C213.922 86.5427 213.992 86.5936 214.065 86.6446C214.082 86.6567 214.102 86.6689 214.119 86.681C214.172 86.7198 214.228 86.7562 214.284 86.7926C214.308 86.8096 214.335 86.8266 214.361 86.8436C214.41 86.8751 214.461 86.9091 214.51 86.9407C214.536 86.9576 214.563 86.9746 214.59 86.9916C214.643 87.0256 214.697 87.0571 214.75 87.0911C214.772 87.1057 214.796 87.1178 214.818 87.1324C214.894 87.1785 214.971 87.2222 215.049 87.2659C215.059 87.2707 215.066 87.2756 215.076 87.2804C215.144 87.3192 215.214 87.3581 215.282 87.3945C215.309 87.409 215.333 87.4212 215.36 87.4357C215.414 87.4649 215.469 87.494 215.523 87.5207C215.552 87.5352 215.581 87.5498 215.61 87.5644C215.666 87.591 215.72 87.6177 215.776 87.6469C215.802 87.659 215.829 87.6736 215.856 87.6857C215.926 87.7197 215.994 87.7512 216.065 87.7828C216.077 87.7876 216.089 87.7949 216.104 87.7998C216.186 87.8362 216.271 87.8726 216.354 87.909C216.378 87.9187 216.402 87.9284 216.427 87.9381C216.487 87.9623 216.548 87.989 216.609 88.0133C216.641 88.0254 216.67 88.0376 216.701 88.0497C216.76 88.0716 216.816 88.0934 216.874 88.1152C216.905 88.1274 216.935 88.1371 216.966 88.1492C217.032 88.1735 217.095 88.1953 217.161 88.2172C217.185 88.2244 217.207 88.2341 217.231 88.2414C217.318 88.2706 217.408 88.2997 217.498 88.3288C217.518 88.3337 217.535 88.3409 217.554 88.3458C217.625 88.3676 217.697 88.3895 217.768 88.4113C217.8 88.421 217.831 88.4283 217.86 88.438C217.921 88.455 217.984 88.472 218.045 88.489C218.079 88.4987 218.111 88.506 218.145 88.5157C218.208 88.5326 218.273 88.5472 218.337 88.5642C218.366 88.5715 218.395 88.5788 218.424 88.586C218.516 88.6079 218.611 88.6297 218.706 88.6491C218.842 88.6783 218.976 88.705 219.112 88.7292C219.153 88.7365 219.194 88.7438 219.235 88.7511C219.333 88.7681 219.432 88.785 219.529 88.7996C219.573 88.8069 219.615 88.8117 219.658 88.819C219.772 88.836 219.887 88.8506 220.001 88.8627C220.023 88.8651 220.045 88.8676 220.066 88.87C220.203 88.8845 220.336 88.8991 220.472 88.9088C220.482 88.9088 220.494 88.9088 220.504 88.9112C220.577 88.9161 220.65 88.9209 220.722 88.9258C220.742 88.9258 220.759 88.9282 220.778 88.9307C220.885 88.9379 220.99 88.9428 221.097 88.9452C221.126 88.9452 221.157 88.9452 221.187 88.9476C221.262 88.9476 221.34 88.9525 221.415 88.9525C221.454 88.9525 221.49 88.9525 221.529 88.9525C221.6 88.9525 221.668 88.9525 221.738 88.9525C221.777 88.9525 221.816 88.9525 221.855 88.9525C221.928 88.9525 222.003 88.9501 222.076 88.9476C222.107 88.9476 222.141 88.9476 222.173 88.9452C222.278 88.9404 222.384 88.9355 222.489 88.9307C222.496 88.9307 222.506 88.9307 222.513 88.9307C222.598 88.9258 222.683 88.9185 222.768 88.9137C222.778 88.9137 222.785 88.9137 222.795 88.9112C222.936 88.8991 223.077 88.887 223.215 88.87C223.247 88.8676 223.279 88.8627 223.31 88.8578C223.422 88.8457 223.534 88.8312 223.645 88.8142C223.687 88.8093 223.726 88.802 223.767 88.7972C223.898 88.7778 224.029 88.7559 224.161 88.7341C224.17 88.7341 224.18 88.7316 224.187 88.7292C224.326 88.705 224.464 88.6783 224.603 88.6491C224.617 88.6467 224.634 88.6443 224.649 88.6394C224.673 88.6346 224.7 88.6273 224.724 88.6224C224.819 88.6006 224.916 88.5812 225.011 88.5569C225.052 88.5472 225.091 88.5375 225.132 88.5278C225.256 88.4987 225.378 88.4671 225.499 88.4332C225.509 88.4332 225.516 88.4283 225.526 88.4259C225.657 88.3895 225.786 88.3531 225.915 88.3142C225.954 88.3021 225.99 88.29 226.029 88.2778C226.124 88.2487 226.216 88.2196 226.311 88.188C226.335 88.1808 226.357 88.1735 226.381 88.1662C226.398 88.1613 226.415 88.1541 226.432 88.1468C226.542 88.1104 226.651 88.0716 226.76 88.0303C226.78 88.023 226.802 88.0157 226.821 88.0085C226.95 87.9623 227.076 87.9114 227.203 87.8604C227.237 87.8459 227.273 87.8313 227.307 87.8167C227.402 87.7779 227.494 87.7391 227.589 87.6978C227.628 87.6808 227.669 87.6639 227.708 87.6469C227.81 87.6008 227.912 87.5546 228.012 87.5085C228.031 87.4988 228.05 87.4916 228.067 87.4818C228.072 87.4818 228.077 87.477 228.082 87.4746C228.213 87.4139 228.342 87.3484 228.471 87.2828C228.505 87.2659 228.536 87.2489 228.57 87.2319C228.675 87.1785 228.777 87.1227 228.881 87.0669C228.913 87.0499 228.942 87.0329 228.974 87.0183C229.1 86.9479 229.226 86.8776 229.35 86.8048C229.375 86.7902 229.401 86.7756 229.426 86.7586C229.528 86.698 229.632 86.6349 229.734 86.5718C229.754 86.5597 229.773 86.5475 229.793 86.5354C229.814 86.5208 229.836 86.5063 229.858 86.4941C229.892 86.4723 229.929 86.448 229.963 86.4262C230.019 86.3898 230.077 86.3534 230.133 86.3145C230.167 86.2927 230.201 86.2684 230.235 86.2466C230.296 86.2053 230.354 86.1641 230.412 86.1228C230.441 86.1034 230.47 86.0816 230.5 86.0622C230.582 86.0039 230.662 85.9457 230.743 85.885C230.747 85.8801 230.755 85.8777 230.76 85.8729C230.847 85.8098 230.932 85.7442 231.017 85.6787C231.044 85.6593 231.071 85.6375 231.097 85.6156C231.156 85.5695 231.214 85.5234 231.272 85.4773C231.304 85.453 231.335 85.4263 231.367 85.4021C231.421 85.3584 231.472 85.3147 231.525 85.271C231.557 85.2443 231.588 85.2176 231.62 85.1909C231.642 85.1739 231.663 85.1545 231.683 85.1375C231.719 85.106 231.756 85.0744 231.792 85.0429C231.812 85.0259 231.831 85.0089 231.851 84.9919C231.928 84.924 232.004 84.856 232.079 84.7856C232.094 84.7711 232.111 84.7565 232.125 84.742C232.186 84.6861 232.247 84.6279 232.307 84.5697C232.329 84.5478 232.351 84.526 232.375 84.5041C232.436 84.4459 232.494 84.3876 232.555 84.3294C232.57 84.3148 232.584 84.3003 232.601 84.2833C232.674 84.2105 232.745 84.1377 232.818 84.0625C232.835 84.043 232.852 84.0261 232.871 84.0066C232.927 83.9484 232.98 83.8902 233.034 83.8319C233.056 83.8101 233.075 83.7858 233.097 83.764C233.158 83.696 233.218 83.6305 233.277 83.5625C233.287 83.5528 233.296 83.5407 233.304 83.531C233.372 83.4533 233.437 83.3732 233.505 83.2956C233.522 83.2737 233.542 83.2519 233.559 83.2301C233.61 83.1694 233.658 83.1087 233.707 83.048C233.726 83.0238 233.746 83.0019 233.763 82.9777C233.826 82.8976 233.892 82.8151 233.952 82.7326C234.015 82.6501 234.076 82.5651 234.137 82.4826C234.154 82.4583 234.171 82.4341 234.19 82.4098C234.237 82.3467 234.283 82.2812 234.326 82.2156C234.343 82.1914 234.358 82.1695 234.375 82.1453C234.433 82.0603 234.492 81.973 234.548 81.888C234.555 81.8759 234.562 81.8662 234.569 81.8541C234.618 81.7788 234.669 81.7012 234.718 81.6235C234.735 81.5968 234.752 81.5701 234.766 81.5434C234.808 81.4755 234.851 81.4051 234.893 81.3371C234.905 81.3153 234.919 81.2935 234.931 81.2716C234.985 81.1818 235.036 81.092 235.087 81.0022C235.097 80.9828 235.106 80.9658 235.119 80.9464C235.16 80.8736 235.201 80.7984 235.24 80.7232C235.255 80.6965 235.269 80.6673 235.284 80.6406C235.323 80.5654 235.362 80.4902 235.4 80.4149C235.41 80.3955 235.42 80.3761 235.43 80.3591C235.476 80.2669 235.522 80.1723 235.566 80.0776C235.578 80.0534 235.587 80.0291 235.6 80.0072C235.634 79.9344 235.668 79.8592 235.702 79.784C235.714 79.7549 235.726 79.7257 235.741 79.6966C235.777 79.6117 235.813 79.5267 235.85 79.4418C235.855 79.4297 235.86 79.4151 235.867 79.403C235.906 79.3059 235.945 79.2088 235.984 79.1093C235.993 79.0826 236.003 79.0559 236.015 79.0268C236.044 78.9516 236.071 78.8763 236.098 78.8011C236.107 78.772 236.12 78.7429 236.129 78.7138C236.166 78.6143 236.2 78.5123 236.231 78.4128C237.534 74.4328 236.9 70.4844 234.842 67.4752L233.214 65.0945C235.269 68.1013 235.903 72.0521 234.603 76.0321L234.601 76.037Z" fill="#D0D2D3"/>
<path d="M217.076 86.2708C209.76 84.7007 205.743 77.5756 208.107 70.3534C210.472 63.1312 218.317 58.5493 225.633 60.1195C232.949 61.6896 236.965 68.8148 234.601 76.037C232.237 83.2592 224.391 87.841 217.076 86.2708ZM224.042 64.9877C219.449 64.0024 214.522 66.8782 213.04 71.4139C211.555 75.9472 214.077 80.4222 218.669 81.4051C223.262 82.3904 228.189 79.5146 229.671 74.9813C231.156 70.448 228.634 65.973 224.042 64.9877Z" fill="white"/>
<defs>
<filter id="filter0_d_202_4215" x="223.646" y="93.8445" width="222.555" height="139.89" filterUnits="userSpaceOnUse" color-interpolation-filters="sRGB">
<feFlood flood-opacity="0" result="BackgroundImageFix"/>
<feColorMatrix in="SourceAlpha" type="matrix" values="0 0 0 0 0 0 0 0 0 0 0 0 0 0 0 0 0 0 127 0" result="hardAlpha"/>
<feOffset dx="7" dy="7"/>
<feGaussianBlur stdDeviation="5"/>
<feColorMatrix type="matrix" values="0 0 0 0 0 0 0 0 0 0 0 0 0 0 0 0 0 0 0.3 0"/>
<feBlend mode="normal" in2="BackgroundImageFix" result="effect1_dropShadow_202_4215"/>
<feBlend mode="normal" in="SourceGraphic" in2="effect1_dropShadow_202_4215" result="shape"/>
</filter>
<linearGradient id="paint0_linear_202_4215" x1="279.47" y1="35.7276" x2="279.47" y2="15.17" gradientUnits="userSpaceOnUse">
<stop offset="0.9" stop-color="#38285B"/>
<stop offset="0.93" stop-color="#38295E"/>
<stop offset="0.95" stop-color="#3B2E68"/>
<stop offset="0.97" stop-color="#403779"/>
<stop offset="0.99" stop-color="#474291"/>
<stop offset="1" stop-color="#4B499E"/>
</linearGradient>
<radialGradient id="paint1_radial_202_4215" cx="0" cy="0" r="1" gradientUnits="userSpaceOnUse" gradientTransform="translate(91.3909 27.0734) scale(4.76224 4.75655)">
<stop offset="0.73" stop-color="#211D4B"/>
<stop offset="1" stop-color="#38285B"/>
</radialGradient>
<radialGradient id="paint2_radial_202_4215" cx="0" cy="0" r="1" gradientUnits="userSpaceOnUse" gradientTransform="translate(107.482 0.11567) scale(0.121486 0.121341)">
<stop offset="0.73" stop-color="#211D4B"/>
<stop offset="1" stop-color="#38285B"/>
</radialGradient>
<radialGradient id="paint3_radial_202_4215" cx="0" cy="0" r="1" gradientUnits="userSpaceOnUse" gradientTransform="translate(123.551 0.121321) scale(4.76223 4.75656)">
<stop offset="0.73" stop-color="#211D4B"/>
<stop offset="1" stop-color="#38285B"/>
</radialGradient>
<linearGradient id="paint4_linear_202_4215" x1="91.3913" y1="30.3861" x2="91.3913" y2="22.7441" gradientUnits="userSpaceOnUse">
<stop offset="0.4" stop-color="#CE41B4"/>
<stop offset="0.66" stop-color="#D84DBB"/>
<stop offset="1" stop-color="#E35BC3"/>
</linearGradient>
<linearGradient id="paint5_linear_202_4215" x1="107.471" y1="30.3861" x2="107.471" y2="22.7441" gradientUnits="userSpaceOnUse">
<stop offset="0.4" stop-color="#FD8B75"/>
<stop offset="0.77" stop-color="#FAA78F"/>
<stop offset="1" stop-color="#FAB59B"/>
</linearGradient>
<linearGradient id="paint6_linear_202_4215" x1="123.551" y1="30.3861" x2="123.551" y2="22.7441" gradientUnits="userSpaceOnUse">
<stop offset="0.4" stop-color="#10767E"/>
<stop offset="0.43" stop-color="#10787F"/>
<stop offset="0.8" stop-color="#169A9B"/>
<stop offset="1" stop-color="#19A8A6"/>
</linearGradient>
<linearGradient id="paint7_linear_202_4215" x1="121.792" y1="286.748" x2="121.792" y2="41.6344" gradientUnits="userSpaceOnUse">
<stop stop-color="white"/>
<stop offset="0.95" stop-color="white"/>
<stop offset="0.98" stop-color="#FDFDFD"/>
<stop offset="0.99" stop-color="#EFEAEF"/>
<stop offset="1" stop-color="#EEE8EE"/>
</linearGradient>
<linearGradient id="paint8_linear_202_4215" x1="121.792" y1="41.6344" x2="121.792" y2="35.7251" gradientUnits="userSpaceOnUse">
<stop stop-color="white"/>
<stop offset="0.95" stop-color="white"/>
<stop offset="0.98" stop-color="#FDFDFD"/>
<stop offset="0.99" stop-color="#EFEAEF"/>
<stop offset="1" stop-color="#EEE8EE"/>
</linearGradient>
<linearGradient id="paint9_linear_202_4215" x1="327.924" y1="216.734" x2="327.924" y2="96.8445" gradientUnits="userSpaceOnUse">
<stop stop-color="white"/>
<stop offset="0.95" stop-color="white"/>
<stop offset="0.98" stop-color="#FDFDFD"/>
<stop offset="0.99" stop-color="#EFEAEF"/>
<stop offset="1" stop-color="#EEE8EE"/>
</linearGradient>
<linearGradient id="paint10_linear_202_4215" x1="361.971" y1="192.61" x2="373.483" y2="214.15" gradientUnits="userSpaceOnUse">
<stop stop-color="#0B6B6D"/>
<stop offset="0.15" stop-color="#10767E"/>
<stop offset="0.53" stop-color="#10787F"/>
<stop offset="0.73" stop-color="#128086"/>
<stop offset="0.88" stop-color="#158D91"/>
<stop offset="0.95" stop-color="#179699"/>
</linearGradient>
<linearGradient id="paint11_linear_202_4215" x1="351.502" y1="207.378" x2="363.279" y2="229.415" gradientUnits="userSpaceOnUse">
<stop stop-color="#0B6B6D"/>
<stop offset="0.15" stop-color="#10767E"/>
<stop offset="0.53" stop-color="#10787F"/>
<stop offset="0.73" stop-color="#128086"/>
<stop offset="0.88" stop-color="#158D91"/>
<stop offset="0.95" stop-color="#179699"/>
</linearGradient>
<linearGradient id="paint12_linear_202_4215" x1="372.728" y1="183.467" x2="381.823" y2="200.485" gradientUnits="userSpaceOnUse">
<stop stop-color="#0B6B6D"/>
<stop offset="0.15" stop-color="#10767E"/>
<stop offset="0.53" stop-color="#10787F"/>
<stop offset="0.73" stop-color="#128086"/>
<stop offset="0.88" stop-color="#158D91"/>
<stop offset="0.95" stop-color="#179699"/>
</linearGradient>
<linearGradient id="paint13_linear_202_4215" x1="371.497" y1="232.603" x2="376.48" y2="241.927" gradientUnits="userSpaceOnUse">
<stop stop-color="#0B6B6D"/>
<stop offset="0.15" stop-color="#10767E"/>
<stop offset="0.53" stop-color="#10787F"/>
<stop offset="0.73" stop-color="#128086"/>
<stop offset="0.88" stop-color="#158D91"/>
<stop offset="0.95" stop-color="#179699"/>
</linearGradient>
<linearGradient id="paint14_linear_202_4215" x1="378.753" y1="216.174" x2="383.612" y2="225.267" gradientUnits="userSpaceOnUse">
<stop stop-color="#0B6B6D"/>
<stop offset="0.15" stop-color="#10767E"/>
<stop offset="0.53" stop-color="#10787F"/>
<stop offset="0.73" stop-color="#128086"/>
<stop offset="0.88" stop-color="#158D91"/>
<stop offset="0.95" stop-color="#179699"/>
</linearGradient>
<linearGradient id="paint15_linear_202_4215" x1="386.172" y1="174.411" x2="393.566" y2="188.248" gradientUnits="userSpaceOnUse">
<stop stop-color="#0B6B6D"/>
<stop offset="0.15" stop-color="#10767E"/>
<stop offset="0.53" stop-color="#10787F"/>
<stop offset="0.73" stop-color="#128086"/>
<stop offset="0.88" stop-color="#158D91"/>
<stop offset="0.95" stop-color="#179699"/>
</linearGradient>
<linearGradient id="paint16_linear_202_4215" x1="383.583" y1="196.935" x2="388.495" y2="206.126" gradientUnits="userSpaceOnUse">
<stop stop-color="#0B6B6D"/>
<stop offset="0.15" stop-color="#10767E"/>
<stop offset="0.53" stop-color="#10787F"/>
<stop offset="0.73" stop-color="#128086"/>
<stop offset="0.88" stop-color="#158D91"/>
<stop offset="0.95" stop-color="#179699"/>
</linearGradient>
<linearGradient id="paint17_linear_202_4215" x1="398.348" y1="211.05" x2="393.863" y2="234.567" gradientUnits="userSpaceOnUse">
<stop stop-color="#0B6B6D"/>
<stop offset="0.15" stop-color="#10767E"/>
<stop offset="0.53" stop-color="#10787F"/>
<stop offset="0.73" stop-color="#128086"/>
<stop offset="0.88" stop-color="#158D91"/>
<stop offset="0.95" stop-color="#179699"/>
</linearGradient>
<linearGradient id="paint18_linear_202_4215" x1="381.013" y1="216.109" x2="376.437" y2="240.104" gradientUnits="userSpaceOnUse">
<stop stop-color="#0B6B6D"/>
<stop offset="0.15" stop-color="#10767E"/>
<stop offset="0.53" stop-color="#10787F"/>
<stop offset="0.73" stop-color="#128086"/>
<stop offset="0.88" stop-color="#158D91"/>
<stop offset="0.95" stop-color="#179699"/>
</linearGradient>
<linearGradient id="paint19_linear_202_4215" x1="412.329" y1="210.417" x2="408.765" y2="229.105" gradientUnits="userSpaceOnUse">
<stop stop-color="#0B6B6D"/>
<stop offset="0.15" stop-color="#10767E"/>
<stop offset="0.53" stop-color="#10787F"/>
<stop offset="0.73" stop-color="#128086"/>
<stop offset="0.88" stop-color="#158D91"/>
<stop offset="0.95" stop-color="#179699"/>
</linearGradient>
<linearGradient id="paint20_linear_202_4215" x1="380.233" y1="247.232" x2="378.31" y2="257.313" gradientUnits="userSpaceOnUse">
<stop stop-color="#0B6B6D"/>
<stop offset="0.15" stop-color="#10767E"/>
<stop offset="0.53" stop-color="#10787F"/>
<stop offset="0.73" stop-color="#128086"/>
<stop offset="0.88" stop-color="#158D91"/>
<stop offset="0.95" stop-color="#179699"/>
</linearGradient>
<linearGradient id="paint21_linear_202_4215" x1="396.202" y1="239.107" x2="394.341" y2="248.87" gradientUnits="userSpaceOnUse">
<stop stop-color="#0B6B6D"/>
<stop offset="0.15" stop-color="#10767E"/>
<stop offset="0.53" stop-color="#10787F"/>
<stop offset="0.73" stop-color="#128086"/>
<stop offset="0.88" stop-color="#158D91"/>
<stop offset="0.95" stop-color="#179699"/>
</linearGradient>
<linearGradient id="paint22_linear_202_4215" x1="428.358" y1="211.476" x2="425.431" y2="226.821" gradientUnits="userSpaceOnUse">
<stop stop-color="#0B6B6D"/>
<stop offset="0.15" stop-color="#10767E"/>
<stop offset="0.53" stop-color="#10787F"/>
<stop offset="0.73" stop-color="#128086"/>
<stop offset="0.88" stop-color="#158D91"/>
<stop offset="0.95" stop-color="#179699"/>
</linearGradient>
<linearGradient id="paint23_linear_202_4215" x1="412.126" y1="227.16" x2="410.218" y2="237.163" gradientUnits="userSpaceOnUse">
<stop stop-color="#0B6B6D"/>
<stop offset="0.15" stop-color="#10767E"/>
<stop offset="0.53" stop-color="#10787F"/>
<stop offset="0.73" stop-color="#128086"/>
<stop offset="0.88" stop-color="#158D91"/>
<stop offset="0.95" stop-color="#179699"/>
</linearGradient>
</defs>
</svg>
