<svg width="596" height="400" viewBox="0 0 596 400" fill="none" xmlns="http://www.w3.org/2000/svg">
<g clip-path="url(#clip0_416_7072)">
<g clip-path="url(#clip1_416_7072)">
<path d="M420.97 368.227H320.316C317.877 368.227 315.903 366.255 315.903 363.818L311.892 287.138C311.892 284.701 313.865 282.729 316.304 282.729H416.959C419.398 282.729 421.371 284.701 421.371 287.138L425.383 363.818C425.383 366.255 423.409 368.227 420.97 368.227Z" fill="#1F2144"/>
<path d="M416.654 358.046H324.937C322.498 358.046 320.524 356.074 320.524 353.638L316.513 291.635C316.513 289.198 318.486 287.226 320.925 287.226H412.642C415.081 287.226 417.055 289.198 417.055 291.635L421.066 353.638C421.066 356.074 419.093 358.046 416.654 358.046Z" fill="#78ADD9"/>
<path d="M334.075 345.734L370.627 345.494C372.576 345.478 374.125 343.858 374.044 341.919L371.991 296.108C371.918 294.256 370.386 292.797 368.533 292.813L331.981 293.054C330.031 293.07 328.483 294.689 328.563 296.629L330.617 342.432C330.689 344.283 332.221 345.742 334.075 345.726V345.734Z" fill="white"/>
<path d="M361.505 353.702L404.788 353.221C407.09 353.197 408.936 351.826 408.855 350.207L406.778 307.715C406.705 306.167 404.9 304.965 402.71 304.989L359.427 305.47C357.124 305.494 355.279 306.865 355.359 308.484L357.437 350.976C357.509 352.523 359.314 353.726 361.505 353.702Z" fill="white"/>
<path d="M366.399 301.51C366.912 301.502 366.896 300.701 366.383 300.709C360.903 300.837 339.073 300.829 333.593 300.957C333.08 300.965 333.096 301.767 333.609 301.759C339.089 301.63 360.919 301.638 366.399 301.51ZM366.711 308.059C361.232 308.187 339.402 308.179 333.922 308.308C333.409 308.316 333.425 309.117 333.938 309.109C339.418 308.981 361.248 308.989 366.728 308.861C367.241 308.853 367.225 308.051 366.711 308.059ZM367.265 315.738C367.779 315.73 367.762 314.929 367.249 314.937C361.769 315.065 339.939 315.057 334.46 315.185C333.946 315.193 333.962 315.995 334.476 315.987C339.955 315.859 361.785 315.867 367.265 315.738ZM367.578 322.287C362.098 322.416 340.268 322.408 334.789 322.536C334.275 322.544 334.291 323.345 334.805 323.337C340.284 323.209 362.114 323.217 367.594 323.089C368.107 323.081 368.091 322.279 367.578 322.287Z" fill="#1F2144"/>
<path d="M373.266 311.618C381.835 311.554 396.709 311.538 401.097 311.434C401.611 311.426 401.595 310.624 401.081 310.632C396.669 310.737 381.69 310.753 373.138 310.817C373.194 311.081 373.234 311.346 373.266 311.618Z" fill="#1F2144"/>
<path d="M401.418 317.983C396.966 318.087 381.738 318.103 373.234 318.167C373.298 318.432 373.354 318.696 373.395 318.969C381.923 318.897 397.006 318.889 401.434 318.785C401.948 318.777 401.932 317.975 401.418 317.983Z" fill="#1F2144"/>
<path d="M401.948 324.861C397.471 324.965 382.115 324.981 373.643 325.045C373.691 325.31 373.74 325.574 373.772 325.847C382.268 325.774 397.519 325.766 401.972 325.662C402.485 325.654 402.469 324.853 401.956 324.861H401.948Z" fill="#1F2144"/>
<path d="M375.031 345.566C374.678 340.099 373.314 305.117 372.961 299.651C372.929 299.138 372.127 299.186 372.159 299.699C372.504 305.053 373.82 338.696 374.205 345.221C367.706 345.462 336.161 345.983 330.801 346.215C330.288 346.239 330.32 347.041 330.833 347.017C336.313 346.784 369.175 346.239 374.646 346.007C374.839 345.999 374.959 345.878 374.999 345.734C375.015 345.686 375.031 345.63 375.023 345.558L375.031 345.566Z" fill="#78ADD9"/>
<path d="M302.144 359.104H381.369C386.68 359.104 390.997 363.417 390.997 368.724H292.516C292.516 363.417 296.833 359.104 302.144 359.104Z" fill="#1F2144"/>
<path d="M184.28 236.63C184.409 235.05 183.342 233.567 182.684 232.237C181.633 230.097 180.694 227.924 179.852 225.704C178.873 216.317 177.164 207.62 175.856 203.828C161.52 201.456 144.896 203.732 129.749 203.796C129.5 203.796 129.26 203.772 129.019 203.764C122.24 211.58 123.716 217.736 126.323 229.335C129.468 243.315 137.989 253.335 150.304 260.493C157.219 264.509 169.583 263.86 176.482 257.832C179.475 255.218 180.582 248.325 180.646 240.237C182.467 239.555 184.128 238.545 184.28 236.646V236.63Z" fill="#F79884"/>
<path d="M132.028 284.22C133.857 286.641 139.184 285.935 141.775 286.136C144.15 286.32 143.845 286.528 146.22 286.713C148.073 286.857 151.114 287.675 152.903 287.226C155.551 286.56 155.51 290.208 156.441 287.931C160.011 279.17 162.065 261.334 163.614 252.084C163.854 250.633 162.819 249.695 161.688 249.519C161.504 249.407 161.295 249.303 161.054 249.238C153.144 247.082 148.001 244.717 142.064 238.77C140.893 237.599 136.248 231.243 135.983 232.814L132.613 274.633C132.204 277.054 130.247 281.871 132.028 284.228V284.22Z" fill="#F79884"/>
<path d="M182.58 212.093C182.106 211.147 181.464 210.345 181.168 209.311C180.871 208.261 181.007 207.195 180.871 206.121C180.566 203.724 179.322 201.488 177.517 199.893C176.562 199.043 175.431 198.378 174.228 197.961C172.575 197.392 170.698 197.512 169.173 196.59C167.761 195.732 166.991 194.177 165.724 193.143C164.576 192.213 163.156 191.62 161.768 191.163C158.968 190.233 155.936 189.969 153.015 190.362C151.555 190.562 150.111 190.923 148.731 191.444C146.926 192.125 145.193 193.191 143.228 193.352C141.126 193.52 139.08 192.798 136.962 193.023C135.237 193.199 133.552 193.744 132.004 194.498C129.003 195.957 126.524 198.225 124.213 200.598C124.165 200.606 124.109 200.63 124.061 200.67C122.777 201.608 122.769 203.011 122.456 204.462C121.991 206.626 119.889 207.804 118.782 209.672C116.84 212.95 116.568 217.207 118.156 220.678C118.573 221.584 119.263 222.321 119.713 223.203C120.491 224.742 120.242 226.249 120.403 227.9C120.635 230.329 121.373 232.702 122.408 234.906C124.703 239.772 130.375 249.84 134.017 253.727C134.154 253.872 134.314 253.856 134.451 253.767C141.43 260.252 157.259 258.112 157.877 247.307C158.198 241.695 156.257 237.327 162.378 233.944C164.705 232.662 166.558 231.571 167.938 229.175C169.599 226.297 169.952 222.962 169.936 219.7C169.936 219.692 169.936 219.684 169.936 219.676C171.869 220.004 173.971 220.397 175.568 219.491C178.809 221.014 182.989 219.115 183.253 215.051C183.326 213.976 183.069 213.055 182.588 212.109L182.58 212.093Z" fill="#1F2144"/>
<path d="M444.397 242.361L206.046 243.13C202.957 243.13 200.446 240.806 200.446 237.944L192.464 5.95582C192.464 3.08612 194.967 0.761511 198.064 0.761511L436.406 0C439.495 0 442.006 2.32461 442.006 5.19431L449.997 237.175C449.997 240.044 447.493 242.369 444.397 242.369V242.361Z" fill="#F5E4D5"/>
<path d="M238.571 601.217L230.564 600.688L273.815 377.613L281.822 378.142L238.571 601.217Z" fill="#1F2144"/>
<path d="M540.783 598.275L548.782 597.746L506.437 377.212L498.43 377.741L540.783 598.275Z" fill="#1F2144"/>
<path d="M550.603 368.123H226.737V398.046H550.603V368.123Z" fill="#1F2144"/>
<path d="M207.819 83.4696L247.781 84.3112L246.786 13.6831L206.824 12.8414L207.819 83.4696Z" fill="white"/>
<path d="M242.342 48.2557C237.295 48.2557 217.214 47.6064 212.168 47.6064C211.694 47.6064 211.694 48.5844 212.168 48.5844C217.214 48.5844 237.295 49.2337 242.342 49.2337C242.815 49.2337 242.815 48.2557 242.342 48.2557Z" fill="#1F2144"/>
<path d="M242.646 56.1354C237.6 56.1354 217.519 55.4861 212.473 55.4861C211.999 55.4861 211.999 56.464 212.473 56.464C217.519 56.464 237.6 57.1133 242.646 57.1133C243.12 57.1133 243.12 56.1354 242.646 56.1354Z" fill="#1F2144"/>
<path d="M368.188 202.217L369.03 162.29L298.341 163.284L297.499 203.211L368.188 202.217Z" fill="white"/>
<path d="M332.943 167.733C332.943 172.775 332.294 192.839 332.294 197.881C332.294 198.354 333.272 198.354 333.272 197.881C333.272 192.839 333.922 172.775 333.922 167.733C333.922 167.26 332.943 167.26 332.943 167.733Z" fill="#1F2144"/>
<path d="M340.83 167.42C340.83 172.462 340.18 192.526 340.18 197.568C340.18 198.041 341.159 198.041 341.159 197.568C341.159 192.526 341.809 172.462 341.809 167.42C341.809 166.947 340.83 166.947 340.83 167.42Z" fill="#1F2144"/>
<path d="M297.964 83.1009L337.926 83.9426L336.931 13.3144L296.969 12.4728L297.964 83.1009Z" fill="white"/>
<path d="M332.478 47.8871C327.432 47.8871 307.351 47.2378 302.304 47.2378C301.831 47.2378 301.831 48.2157 302.304 48.2157C307.351 48.2157 327.432 48.865 332.478 48.865C332.951 48.865 332.951 47.8871 332.478 47.8871Z" fill="#1F2144"/>
<path d="M332.791 55.7667C327.745 55.7667 307.663 55.1174 302.617 55.1174C302.144 55.1174 302.144 56.0954 302.617 56.0954C307.663 56.0954 327.745 56.7447 332.791 56.7447C333.264 56.7447 333.264 55.7667 332.791 55.7667Z" fill="#1F2144"/>
<path d="M328.659 19.7352C328.659 19.3505 328.451 19.0619 328.218 19.0459C323.132 18.7412 308.177 18.7332 306.998 18.6611C306.035 18.605 306.235 19.9837 306.235 20.2322C306.284 25.7471 306.276 38.3722 306.412 41.0495C306.476 42.2359 306.589 42.829 307.375 43.1336C308.859 43.6948 323.781 43.6066 327.448 43.6707C328.611 43.6867 328.547 43.1898 328.611 40.1357C328.868 27.4145 328.539 28.9776 328.659 19.7352Z" fill="#E7B05B"/>
<path d="M279.8 203.011L281.557 163.108L210.86 162.49L209.111 202.394L279.8 203.011Z" fill="white"/>
<path d="M245.35 167.725C245.23 172.767 244.131 192.807 244.01 197.849C244.002 198.322 244.981 198.346 244.989 197.873C245.109 192.831 246.209 172.791 246.329 167.749C246.337 167.276 245.358 167.252 245.35 167.725Z" fill="#1F2144"/>
<path d="M253.245 167.597C253.124 172.639 252.025 192.678 251.905 197.72C251.897 198.193 252.875 198.217 252.883 197.744C253.004 192.702 254.103 172.663 254.223 167.621C254.231 167.148 253.253 167.124 253.245 167.597Z" fill="#1F2144"/>
<path d="M257.192 171.813C256.807 171.797 256.51 172.005 256.494 172.238C256.077 177.312 255.724 192.253 255.627 193.424C255.547 194.386 256.935 194.217 257.184 194.225C262.704 194.306 275.339 194.602 278.011 194.522C279.206 194.49 279.8 194.386 280.113 193.608C280.715 192.141 280.963 177.232 281.108 173.568C281.156 172.406 280.659 172.454 277.602 172.326C264.878 171.781 266.434 172.15 257.192 171.813Z" fill="#E7B05B"/>
<path d="M384.875 83.1169L426.963 83.9425L425.92 14.6771L383.832 13.8514L384.875 83.1169Z" fill="white"/>
<path d="M423.545 23.0617C423.545 22.6048 423.393 22.2521 423.224 22.236C419.494 21.8753 408.527 21.8593 407.668 21.7791C406.962 21.707 407.107 23.3663 407.107 23.6629C407.139 30.276 407.139 45.41 407.235 48.6084C407.283 50.0352 407.363 50.7486 407.941 51.1013C409.032 51.7747 419.967 51.6705 422.663 51.7426C423.513 51.7666 423.473 51.1735 423.513 47.5102C423.698 32.2559 423.457 34.1397 423.545 23.0617Z" fill="#464A8A"/>
<path d="M403.841 23.8393C400.568 23.8393 393.941 23.3263 390.668 23.3182C390.363 23.3182 390.363 24.2801 390.668 24.2801C393.941 24.2801 400.568 24.7932 403.841 24.8012C404.146 24.8012 404.146 23.8393 403.841 23.8393Z" fill="#1F2144"/>
<path d="M403.905 32.4082C400.632 32.4082 394.005 31.8952 390.732 31.8872C390.427 31.8872 390.427 32.8491 390.732 32.8491C394.005 32.8491 400.632 33.3621 403.905 33.3702C404.21 33.3702 404.21 32.4082 403.905 32.4082Z" fill="#1F2144"/>
<path d="M404.002 41.0574C400.728 41.0574 394.102 40.5444 390.828 40.5364C390.523 40.5364 390.523 41.4983 390.828 41.4983C394.102 41.4983 400.728 42.0113 404.002 42.0193C404.307 42.0193 404.307 41.0574 404.002 41.0574Z" fill="#1F2144"/>
<path d="M132.734 276.613C117.546 273.062 101.549 275.611 88.3353 283.955C84.7892 286.2 81.3955 288.661 77.6569 290.593C73.6374 292.669 69.3933 294.256 65.2375 296.011C61.2983 297.679 57.4393 299.538 53.9735 301.951C52.1523 302.825 50.6681 303.57 49.6251 304.14C43.4956 307.474 39.3398 311.498 38.2407 318.648C37.302 324.764 38.9467 331.634 44.9718 334.472C52.04 337.798 60.3356 334.015 67.163 331.891C84.8132 326.4 91.0069 325.269 108.192 318.44C112.42 316.757 116.568 314.849 120.459 312.484C123.371 310.713 126.781 308.556 127.607 304.981C128.465 301.23 126.027 297.591 124.278 294.504C122.007 290.512 119.6 286.609 117.105 282.761C118.076 282.673 119.055 282.593 120.041 282.537C121.197 282.473 121.71 281.422 121.566 280.549C125.216 280.324 128.835 280.132 132.316 279.755C133.985 279.571 134.643 277.054 132.742 276.605L132.734 276.613Z" fill="#E7B05B"/>
<path d="M308.426 361.894C308.634 361.052 305.064 359.85 304.254 359.545C289.355 353.91 276.8 349.109 261.5 344.692C247.404 340.62 241.636 330.985 231.23 320.243C229.794 318.753 227.548 321.045 228.976 322.528C229.088 322.64 229.2 322.752 229.313 322.865C223.945 325.782 217.006 331.891 222.381 338.111C225.269 341.454 224.74 340.339 228.574 342.375C233.003 344.724 234.929 354.375 239.59 356.219C260.233 364.379 283.242 364.964 305.184 367.513C306.043 367.609 306.901 367.289 307.134 366.351C308.025 362.84 307.527 365.405 308.418 361.894H308.426Z" fill="#F79884"/>
<path d="M264.132 337.373C263.241 334.207 257.978 333.903 253.702 330.696C248.824 327.041 228.286 309.687 219.814 303.45C207.418 294.32 197.39 283.178 182.836 277.663C178.769 276.124 171.636 276.573 162.498 276.18C162.153 274.721 161.816 273.27 161.471 271.811C161.311 271.13 160.613 270.641 159.923 270.633C152.141 270.585 144.359 269.535 136.577 269.928C134.587 270.024 131.45 269.799 129.661 271.034C128.064 272.14 126.973 274.433 126.043 276.461C124.197 276.597 122.472 276.765 120.98 276.966C114.385 277.847 107.566 279.226 102.143 283.314C90.0522 292.428 90.5015 311.771 93.7828 324.957C98.1071 342.335 101.758 346.207 106.908 363.353C111.658 379.184 115.172 395.521 125.096 409.052C129.412 414.935 133.72 420.939 140.917 423.4C147.624 425.693 154.933 425.092 161.849 424.314C170.754 423.304 179.571 422.454 188.549 422.743C195.199 422.959 215.2 424.45 216.267 424.635C220.953 425.444 226.769 423.528 227.13 418.029C227.307 415.384 225.702 413.492 224.282 411.448C222.405 408.747 221.177 405.773 220.279 402.623C218.546 396.547 217.968 390.206 216.139 384.154C214.141 377.549 210.515 371.657 207.803 365.349C203.888 356.227 203.038 352.027 203.038 342.327C228.021 367.153 254.119 367.874 256.069 364.756C257.288 362.8 257.657 359.85 258.323 357.654C259.085 355.161 259.847 352.668 260.602 350.175C261.364 347.682 261.893 346.848 262.655 344.355C263.281 342.303 264.765 339.578 264.148 337.381L264.132 337.373Z" fill="#E7B05B"/>
<path d="M326.028 360.66C322.409 358.8 318.462 359.97 311.298 360.307C307.808 360.475 302.264 360.611 296.343 359.377C296.752 361.822 295.958 363.73 294.883 365.934C294.803 366.094 294.699 366.255 294.61 366.415C298.405 367.032 302.12 367.481 304.342 367.441C304.952 368.852 309.188 368.956 312.557 367.922C314.916 367.192 317.251 367.986 319.449 368.852C320.043 369.477 320.628 370.182 321.254 370.968C322.65 372.739 323.717 374.784 326.196 374.158C326.966 373.966 327.392 373.204 326.902 372.491C325.562 370.535 324.375 368.587 323.124 366.848C323.91 367.241 325.017 367.249 325.803 367.641C326.974 368.219 328.707 369.613 329.614 369.485C330.593 369.349 330.922 368.78 330.914 368.202C331.459 368.635 331.997 369.068 332.526 369.477C333.176 369.974 334.043 369.573 334.203 368.812C334.901 365.461 328.37 361.854 326.028 360.652V360.66Z" fill="#F79884"/>
<path d="M146.613 491.255L154.62 490.726L144.262 331.073L136.264 331.602L146.613 491.255Z" fill="#1F2144"/>
<path d="M78.419 490.453L86.4257 489.924L75.8918 331.634L71.2145 331.939C69.3772 332.059 67.9812 333.646 68.1016 335.49L78.419 490.453Z" fill="#1F2144"/>
<path d="M78.8442 426.013H150.336C157.003 426.013 162.153 418.799 161.311 410.647L157.364 340.756C156.666 333.935 151.956 328.828 146.388 328.828H74.897C68.23 328.828 63.0793 336.043 63.9217 344.195L67.869 414.086C68.5669 420.907 73.2763 426.013 78.8442 426.013Z" fill="#1F2144"/>
<path d="M203.054 344.067C203.054 343.722 203.054 343.345 203.054 342.985C195.593 336.251 188.42 329.173 182.7 320.885C179.178 315.795 176.217 310.28 174.236 304.412C172.078 298.015 170.738 290.793 172.423 284.132C173.121 281.358 174.38 278.785 176.057 276.533C175.744 276.517 175.423 276.501 175.102 276.485C174.236 277.711 173.474 279.01 172.856 280.404C170.248 286.288 170.553 292.925 171.909 299.089C174.789 312.195 182.668 323.578 191.766 333.197C195.36 336.997 199.163 340.572 203.054 344.067Z" fill="#C79240"/>
<path d="M163.204 276.212C157.982 278.44 152.261 279.322 146.549 279.37C142.666 279.402 138.783 279.074 134.924 278.633C132.06 278.304 128.425 277.984 126.299 275.948C126.219 276.124 126.139 276.3 126.059 276.469C125.954 276.469 125.858 276.485 125.754 276.493C127.086 277.759 128.939 278.497 130.832 278.865C135.189 279.723 139.786 280.036 144.214 280.148C151.347 280.332 158.583 279.378 164.993 276.268C164.408 276.252 163.806 276.228 163.196 276.204L163.204 276.212Z" fill="#C79240"/>
<path d="M113.623 275.33C105.889 280.637 99.8721 288.276 96.318 296.989C92.8201 305.566 91.8573 314.929 92.9725 324.059C93.2292 323.971 93.494 323.891 93.7587 323.803C92.7158 315.033 93.6063 306.063 96.8716 297.775C100.506 288.549 106.956 280.517 115.292 275.194C114.738 275.234 114.185 275.29 113.623 275.338V275.33Z" fill="#C79240"/>
<path d="M510.794 295.931C506.229 305.318 500.34 320.973 507.32 327.217C513.369 332.628 536.467 323.273 545.934 314.761C553.981 307.53 560.15 295.827 557.278 284.813C554.671 274.801 543.519 269.126 533.811 272.14C528.845 273.679 524.609 277.078 521.103 280.821C516.939 285.27 513.449 290.448 510.786 295.923L510.794 295.931Z" fill="#78ADD9"/>
<path d="M460.972 278.737C465.368 292.484 474.45 313.775 487.399 313.366C498.623 313.005 512.799 281.607 514.139 264.052C515.278 249.142 510.264 231.54 496.866 223.259C484.687 215.724 468.096 220.694 461.269 232.966C457.779 239.251 456.776 246.698 456.848 253.784C456.928 262.216 458.396 270.721 460.964 278.745L460.972 278.737Z" fill="#78ADD9"/>
<path d="M479.232 219.78C481.623 229.127 482.24 238.882 482.995 248.469C483.773 258.401 484.31 268.348 484.615 278.304C485.217 297.863 484.904 317.454 483.693 336.989C482.995 348.227 481.984 359.433 480.692 370.615C480.636 371.128 479.842 371.008 479.898 370.495C484.447 331.201 485.329 291.498 482.465 252.044C481.687 241.319 481.117 230.321 478.438 219.868C478.309 219.371 479.111 219.275 479.232 219.772V219.78Z" fill="#1F2144"/>
<path d="M532.287 291.186C538.312 285.615 544.762 280.525 551.558 275.932C551.983 275.643 552.464 276.284 552.039 276.573C528.091 292.733 508.692 315.346 496.272 341.414C492.839 348.62 489.958 356.083 487.632 363.722C487.479 364.211 486.749 363.882 486.902 363.401C495.302 335.85 511.155 310.753 532.303 291.186H532.287Z" fill="#1F2144"/>
<path d="M468.626 333.919C468.642 333.622 468.738 333.398 468.874 333.221C469.059 332.828 469.412 332.636 469.885 332.652C477.37 332.901 500.043 332.812 507.528 332.564C508.002 332.548 508.355 332.74 508.539 333.133C508.676 333.301 508.772 333.534 508.788 333.83C509.045 338.888 509.165 343.955 509.125 349.029C509.093 353.293 509.189 357.838 507.625 361.782C506.261 365.213 503.798 367.337 500.645 367.85C496.954 368.451 493.095 368.339 489.349 368.195C489.268 368.219 489.188 368.243 489.092 368.243C485.032 368.403 480.788 368.595 476.753 367.938C473.6 367.425 471.137 365.301 469.773 361.87C468.208 357.926 468.305 353.381 468.273 349.117C468.232 344.051 468.353 338.977 468.61 333.919H468.626Z" fill="#9E4D4D"/>
<path d="M402.285 332.211C397.824 332.315 382.533 332.331 374.044 332.396C374.085 332.66 374.109 332.925 374.125 333.197C382.629 333.125 397.856 333.117 402.309 333.013C402.822 333.005 402.806 332.203 402.293 332.211H402.285Z" fill="#1F2144"/>
<path d="M219.822 238.706L349.703 294.945L279.423 237.968L219.822 238.706Z" fill="#F5E4D5"/>
<path d="M403.857 91.6458C403.376 96.287 402.894 100.928 402.405 105.569C402.341 106.211 402.999 106.764 403.601 106.764C404.299 106.764 404.724 106.211 404.796 105.569C405.277 100.928 405.759 96.287 406.248 91.6458C406.312 91.0045 405.654 90.4514 405.053 90.4514C404.355 90.4514 403.929 91.0045 403.857 91.6458Z" fill="#1F2144"/>
<path d="M268.231 105.185C267.846 108.327 268.063 111.525 268.825 114.603C269.194 116.094 271.497 115.461 271.128 113.97C270.413 111.092 270.253 108.134 270.614 105.185C270.694 104.543 270.012 103.99 269.419 103.99C268.705 103.99 268.303 104.543 268.223 105.185H268.231Z" fill="#1F2144"/>
<path d="M320.267 130.307H220.929V132.832H320.267V130.307Z" fill="#231815"/>
<path d="M320.267 138.579H220.929V141.104H320.267V138.579Z" fill="#231815"/>
<path d="M320.267 146.851H220.929V149.376H320.267V146.851Z" fill="#231815"/>
<path d="M224.547 92.8723C224.459 94.6999 224.443 96.5356 224.515 98.3632C224.579 100.079 224.587 101.938 224.956 103.614C225.325 105.289 226.801 105.497 228.302 105.634C230.131 105.794 231.968 105.93 233.805 106.034C241.234 106.467 248.672 106.523 256.109 106.555C271.047 106.62 285.986 106.684 300.932 106.748C305.08 106.764 309.228 106.812 313.376 106.804C316.585 106.804 320.179 106.652 322.843 104.648C323.396 104.231 323.565 103.662 323.268 103.012C322.008 100.263 321.15 97.3612 320.668 94.3793C320.428 92.8643 318.125 93.5056 318.366 95.0126C318.879 98.2109 319.858 101.273 321.206 104.215L321.631 102.58C319.409 104.255 316.529 104.383 313.849 104.407C310.407 104.439 306.965 104.383 303.532 104.367C296.456 104.335 289.387 104.303 282.311 104.279C268.247 104.215 254.159 104.399 240.111 103.934C236.172 103.806 232.233 103.59 228.302 103.245C228.005 103.221 227.403 103.269 227.283 103.093C227.114 102.852 227.17 102.171 227.138 101.882C227.042 100.904 226.97 99.9263 226.922 98.9404C226.825 96.9123 226.833 94.8843 226.93 92.8563C227.002 91.3252 224.619 91.3252 224.539 92.8563L224.547 92.8723Z" fill="#1F2144"/>
<path d="M350.931 126.932C349.575 129.753 351.805 132.936 354.766 133.352C358.167 133.833 360.743 130.851 361.89 128.014H359.587C360.646 130.892 362.588 134.603 366.31 133.898C367.698 133.633 368.629 132.631 369.471 131.581C369.824 131.14 370.193 130.563 370.667 130.25C371.172 129.922 371.533 130.218 371.975 130.555C374.654 132.575 378.024 132.511 380.527 130.202C381.032 129.737 381.49 129.2 382.043 128.791C382.701 128.302 383.07 128.318 383.712 128.791C384.354 129.264 384.891 129.657 385.686 129.793C386.672 129.97 387.675 129.729 388.638 129.553C393.347 128.695 398.049 127.846 402.758 126.988L401.595 124.992C399.75 127.02 397.896 129.04 396.051 131.068C395.273 131.918 396.019 133.409 397.214 133.064C403.946 131.108 410.677 129.16 417.408 127.204L415.94 126.371C416.076 127.276 416.212 128.174 416.341 129.08C416.413 129.545 417.023 130.01 417.496 129.954C423.305 129.288 428.696 126.948 433.117 123.124H431.432C432.33 123.846 433.068 124.719 433.502 125.793C434.071 127.196 436.382 126.579 435.804 125.16C435.227 123.741 434.36 122.435 433.117 121.433C432.587 121.008 431.961 120.976 431.432 121.433C427.533 124.808 422.631 126.98 417.496 127.565L418.651 128.439C418.515 127.533 418.379 126.635 418.25 125.729C418.154 125.096 417.344 124.735 416.782 124.896C410.051 126.852 403.32 128.799 396.589 130.755L397.752 132.751C399.597 130.723 401.45 128.703 403.296 126.675C404.13 125.753 403.296 124.471 402.132 124.679C398.265 125.385 394.398 126.082 390.523 126.787C389.617 126.948 388.718 127.116 387.812 127.276C386.857 127.445 386.095 127.597 385.276 126.996C384.145 126.162 383.014 125.689 381.626 126.274C380.326 126.828 379.508 128.014 378.417 128.856C377.326 129.697 375.673 129.906 374.373 129.296C373.074 128.687 372.352 127.573 370.843 127.693C369.656 127.789 368.773 128.631 368.059 129.513C367.225 130.531 366.391 131.942 364.866 131.461C363.125 130.916 362.435 128.904 361.874 127.365C361.449 126.21 360.012 126.266 359.571 127.365C358.905 129.016 357.501 130.843 355.584 131.004C354.252 131.116 352.27 129.593 352.976 128.126C353.642 126.747 351.58 125.537 350.915 126.924L350.931 126.932Z" fill="#E7B05B"/>
<path d="M356.587 144.286L355.135 146.94C354.766 147.613 355.094 148.479 355.849 148.695C359.876 149.833 364.345 148.607 367.201 145.537L365.324 145.296C368.1 150.042 374.454 149.128 379.019 148.407C385.982 147.308 393.042 146.387 399.774 144.214L398.851 142.034C396.821 143.397 395.61 145.481 395.417 147.918C395.361 148.647 396.236 149.328 396.926 149.072C400.175 147.837 403.416 146.595 406.665 145.36C408.238 144.759 409.802 144.078 411.407 143.589C412.37 143.292 414.672 142.964 414.72 144.567C414.744 145.344 415.466 145.922 416.228 145.721C419.847 144.751 423.529 144.246 427.268 144.206L426.233 142.411C425.094 144.334 423.963 146.258 422.823 148.182C422.318 149.04 423.168 150.282 424.171 149.938C428.223 148.535 432.274 147.14 436.318 145.737C437.762 145.24 437.144 142.932 435.684 143.437C431.632 144.839 427.581 146.234 423.537 147.637L424.885 149.392C426.024 147.469 427.156 145.545 428.295 143.621C428.752 142.843 428.166 141.817 427.26 141.825C423.313 141.866 419.389 142.403 415.587 143.421L417.095 144.575C417.047 142.956 415.956 141.697 414.455 141.168C412.482 140.471 410.42 141.393 408.591 142.09C404.483 143.653 400.383 145.216 396.276 146.779L397.784 147.934C397.904 146.387 398.747 144.976 400.03 144.11C401.097 143.397 400.464 141.489 399.108 141.93C392.962 143.91 386.56 144.831 380.206 145.833C376.491 146.419 369.76 148.214 367.361 144.11C366.984 143.469 366.014 143.3 365.484 143.87C363.19 146.338 359.708 147.332 356.458 146.411L357.172 148.166L358.625 145.513C359.363 144.166 357.301 142.956 356.563 144.31L356.587 144.286Z" fill="#E7B05B"/>
</g>
</g>
<defs>
<clipPath id="clip0_416_7072">
<rect width="596" height="400" fill="white"/>
</clipPath>
<clipPath id="clip1_416_7072">
<rect width="520" height="633" fill="white" transform="translate(38)"/>
</clipPath>
</defs>
</svg>
