<svg width="596" height="400" viewBox="0 0 596 400" fill="none" xmlns="http://www.w3.org/2000/svg">
<g clip-path="url(#clip0_1507_15808)">
<path d="M510.774 410.314C503.106 412.557 496.074 413.738 489.975 413.738H410.869C410.869 413.738 382.062 397.512 347.613 371.681C313.17 345.85 306.478 318.74 311.514 312.728C321.782 300.475 361.521 314.049 416.494 343.525C461.906 367.879 499.185 399.911 510.78 410.314H510.774Z" fill="#578E69"/>
<path d="M397.83 366.45C397.83 366.45 397.814 366.45 397.803 366.46H397.797C382.434 369.211 367.075 371.972 351.712 374.727C351.269 374.404 350.822 374.08 350.38 373.741C365.668 370.996 380.956 368.251 396.255 365.506C396.676 365.436 397.086 365.355 397.506 365.279C398.267 365.145 398.59 366.315 397.83 366.45Z" fill="#522624"/>
<path d="M438.431 391.1C438.545 391.865 437.374 392.189 437.261 391.423C437.196 390.981 437.132 390.544 437.067 390.097C435.217 377.397 433.362 364.702 431.513 352.013C431.955 352.272 432.402 352.537 432.845 352.806C434.7 365.538 436.56 378.265 438.415 390.997C438.421 391.03 438.421 391.067 438.431 391.1Z" fill="#522624"/>
<path d="M421.941 380.05C421.946 380.104 421.946 380.163 421.941 380.212C421.892 380.859 420.873 381.085 420.77 380.374C420.722 380.034 420.673 379.705 420.625 379.365C418.851 367.199 417.071 355.044 415.308 342.889C415.701 343.099 416.1 343.315 416.494 343.525C416.537 343.547 416.58 343.574 416.623 343.595C418.398 355.745 420.166 367.9 421.941 380.05Z" fill="#522624"/>
<path d="M471.133 413.733H469.105C463.529 409.688 457.899 405.708 452.237 401.793C434.419 389.493 416.235 377.769 397.808 366.455H397.803C397.285 366.131 396.778 365.819 396.261 365.501C367.997 348.168 339.184 331.737 310.301 315.462C310.387 315.036 310.511 314.631 310.646 314.265C320.698 319.932 330.739 325.605 340.748 331.338C367.701 346.766 394.486 362.583 420.63 379.36C421.072 379.64 421.509 379.926 421.946 380.206C427.015 383.458 432.063 386.753 437.072 390.097C437.525 390.388 437.968 390.684 438.421 390.992C449.47 398.353 460.396 405.919 471.138 413.733H471.133Z" fill="#522624"/>
<path d="M280.359 360.298C286.23 332.513 268.465 305.231 240.68 299.36C212.895 293.49 185.612 311.255 179.742 339.04C173.872 366.824 191.637 394.107 219.421 399.978C247.206 405.848 274.489 388.083 280.359 360.298Z" fill="#578E69"/>
<path d="M271.026 318.606C267.402 320.116 263.8 321.674 260.219 323.286C249.531 328.097 239.004 333.392 228.78 339.222C228.111 339.594 227.431 339.982 226.763 340.371C220.184 344.167 213.734 348.185 207.452 352.445C206.848 352.849 206.238 353.254 205.645 353.674C197.863 359.008 190.346 364.719 183.157 370.796C168.225 383.42 154.711 397.668 143.241 413.738H141.747C149.599 402.656 158.448 392.313 168.128 382.789C172.803 378.179 177.646 373.778 182.634 369.577C191.667 361.958 201.174 354.974 211.054 348.551C211.415 348.319 211.787 348.082 212.159 347.839C230.5 336.029 250.097 326.118 270.287 317.651C270.546 317.964 270.794 318.287 271.031 318.611L271.026 318.606Z" fill="#522624"/>
<path d="M217.126 299.866C214.613 315.753 212.963 331.753 212.154 347.829C212.149 347.931 212.149 348.044 212.138 348.152C212.105 348.767 211.345 348.896 211.048 348.541C210.968 348.443 210.919 348.314 210.93 348.152C211.728 332.087 213.367 316.087 215.853 300.211C216.279 300.093 216.7 299.969 217.131 299.866H217.126Z" fill="#522624"/>
<path d="M280.663 358.77C280.582 359.164 280.512 359.569 280.431 359.968C255.829 355.357 230.802 353.173 205.721 353.68C205.699 353.68 205.667 353.68 205.64 353.674C204.939 353.61 204.96 352.488 205.721 352.472C206.292 352.466 206.875 352.45 207.446 352.45C232.015 352.073 256.541 354.268 280.663 358.781V358.77Z" fill="#522624"/>
<path d="M281.186 344.356C263.126 342.15 244.958 340.818 226.757 340.37H226.72C225.938 340.354 225.938 339.141 226.72 339.157C227.405 339.173 228.089 339.189 228.78 339.222C246.263 339.713 263.703 341.012 281.056 343.126C281.11 343.531 281.153 343.94 281.191 344.356H281.186Z" fill="#522624"/>
<path d="M131.566 153.514C162.951 153.514 188.394 128.071 188.394 96.6856C188.394 65.3003 162.951 39.8574 131.566 39.8574C100.18 39.8574 74.7373 65.3003 74.7373 96.6856C74.7373 128.071 100.18 153.514 131.566 153.514Z" fill="#578E69"/>
<path d="M40.429 180.375C62.7543 180.375 80.8526 162.277 80.8526 139.951C80.8526 117.626 62.7543 99.5276 40.429 99.5276C18.1036 99.5276 0.00537109 117.626 0.00537109 139.951C0.00537109 162.277 18.1036 180.375 40.429 180.375Z" fill="#578E69"/>
<path d="M204.31 218.967C224.255 208.936 232.292 184.636 222.261 164.691C212.229 144.746 187.929 136.709 167.984 146.741C148.039 156.772 140.003 181.072 150.034 201.017C160.065 220.962 184.366 228.998 204.31 218.967Z" fill="#578E69"/>
<path d="M128.001 234.059C137.174 225.754 146.207 217.315 155.105 208.719C174.405 190.125 193.069 170.867 211.048 150.99C211.377 151.233 211.69 151.481 211.992 151.74C193.954 171.676 175.241 190.993 155.892 209.641C146.994 218.237 137.95 226.676 128.788 234.981C128.211 235.51 127.424 234.582 128.001 234.054V234.059Z" fill="#522624"/>
<path d="M48.7608 196.887C60.8943 187.348 72.521 177.182 83.5544 166.397C90.3222 159.791 96.8636 152.964 103.173 145.91C114.142 133.701 124.409 120.856 133.911 107.476C134.176 107.11 134.429 106.748 134.683 106.371C137.568 102.299 140.372 98.174 143.09 94C143.359 93.6171 143.607 93.2289 143.845 92.8406C152.349 79.7903 160.136 66.287 167.174 52.3954C167.497 52.6488 167.821 52.9131 168.133 53.1881C164.812 59.7618 161.312 66.2546 157.65 72.6503C148.153 89.2275 137.551 105.152 125.957 120.311C125.596 120.786 125.245 121.249 124.884 121.702C118.316 130.223 111.429 138.506 104.241 146.503C87.5342 165.146 69.2206 182.338 49.5373 197.809C48.9279 198.295 48.1406 197.367 48.75 196.882L48.7608 196.887Z" fill="#522624"/>
<path d="M125.046 121.708C124.992 121.719 124.943 121.719 124.889 121.708C124.253 121.67 124.129 120.635 124.835 120.511L125.963 120.311C146.676 116.676 167.217 112.13 187.531 106.678C187.445 107.121 187.364 107.557 187.277 107.994C166.753 113.489 145.986 118.057 125.046 121.702V121.708Z" fill="#522624"/>
<path d="M134.046 107.708C134.008 107.633 133.96 107.552 133.917 107.476C123.191 87.7876 112.012 68.3362 100.406 49.149C100.746 48.9279 101.075 48.7122 101.42 48.4965C112.934 67.5381 124.026 86.8385 134.688 106.376C134.833 106.646 134.99 106.921 135.135 107.191C135.513 107.881 134.413 108.393 134.046 107.708Z" fill="#522624"/>
<path d="M143.149 94.0971C143.133 94.0648 143.117 94.0378 143.101 94.0055C133.955 76.6464 124.533 59.4329 114.832 42.3758C115.22 42.2518 115.619 42.1331 116.013 42.0199C125.558 58.8181 134.844 75.7566 143.856 92.846C143.99 93.0833 144.12 93.3314 144.244 93.5741C144.61 94.2643 143.51 94.7766 143.149 94.0971Z" fill="#522624"/>
<path d="M60.7595 215.125C62.1292 205.359 62.4905 195.496 61.7895 185.66C61.5414 182.09 61.1531 178.525 60.6247 174.982C59.4598 167.055 57.6371 159.236 55.1942 151.626C55.0594 151.2 54.93 150.78 54.7844 150.354C48.9171 132.569 39.6471 115.927 27.4596 101.668C27.8856 101.517 28.3062 101.388 28.7323 101.264C32.739 105.972 36.4384 110.933 39.8035 116.137C44.7432 123.779 48.9495 131.873 52.3846 140.286C52.6327 140.906 52.8808 141.526 53.1234 142.146C57.1895 152.511 60.08 163.323 61.7248 174.319C63.747 187.838 63.8765 201.644 61.9674 215.239C61.8542 216.004 60.6462 215.897 60.7595 215.125Z" fill="#522624"/>
<path d="M55.1942 151.626C55.1565 151.632 55.1133 151.632 55.0702 151.626C36.6973 148.941 18.3675 145.975 0.102454 142.707C0.0700975 142.297 0.0485267 141.887 0.0323486 141.472C18.2327 144.724 36.4816 147.695 54.7844 150.354C54.9192 150.37 55.054 150.397 55.1888 150.413C55.9114 150.515 55.8575 151.599 55.1942 151.626Z" fill="#522624"/>
<path d="M51.9801 141.747C52.1149 141.262 52.2497 140.771 52.3846 140.28C55.6202 128.519 58.0954 116.569 59.8211 104.489C60.1986 104.694 60.5707 104.899 60.9428 105.131C59.147 117.625 56.5369 129.986 53.1234 142.146C53.1234 142.151 53.1234 142.162 53.1234 142.173C52.913 142.923 51.7806 142.497 51.9855 141.752L51.9801 141.747Z" fill="#522624"/>
<path d="M384.127 138.339C373.735 145.808 382.795 196.397 408.669 229.939C434.543 263.482 459.048 279.174 459.048 279.174L474.136 222.875C474.136 222.875 458.411 182.003 439.149 160.578C419.886 139.153 393.596 131.533 384.127 138.339Z" fill="#578E69"/>
<path d="M448.057 0.151019C431.874 3.20328 429.043 68.1529 440.847 124.431C450.942 172.561 478.337 272.854 478.337 272.854L562.69 259.852C562.69 259.852 532.582 139.579 519.786 100.606C502.168 46.9488 465.211 -3.0846 448.057 0.151019Z" fill="#578E69"/>
<path d="M385.103 137.724C398.601 153.6 410.95 170.447 422.043 188.086C423.008 189.623 423.968 191.16 424.896 192.708C425.284 193.323 425.661 193.943 426.028 194.563C429.776 200.754 433.357 207.031 436.787 213.405L437.773 215.249C446.262 231.206 453.752 247.697 460.175 264.593C461.825 268.934 463.405 273.302 464.909 277.697C465.163 278.43 466.344 278.15 466.09 277.406C464.408 272.504 462.639 267.623 460.779 262.791C455.941 250.167 450.511 237.785 444.504 225.668C440.971 218.539 437.229 211.507 433.308 204.583C432.888 203.833 432.462 203.094 432.041 202.355C430.396 199.492 428.725 196.65 427.01 193.83C426.988 193.797 426.972 193.754 426.94 193.722C415.911 175.5 403.551 158.081 389.983 141.655C388.743 140.151 387.487 138.652 386.23 137.163C385.831 137.33 385.454 137.514 385.098 137.713L385.103 137.724Z" fill="#522624"/>
<path d="M429.749 151.594C430.704 168.505 431.459 185.433 432.03 202.355V202.366C432.057 203.062 432.09 203.758 432.106 204.453C432.133 205.187 433.227 205.267 433.303 204.593C433.314 204.561 433.314 204.529 433.314 204.491C432.742 187.207 431.982 169.929 431.011 152.662C430.585 152.295 430.17 151.945 429.744 151.599L429.749 151.594Z" fill="#522624"/>
<path d="M382.299 172.172C382.412 172.674 382.531 173.181 382.649 173.682C397.037 180.795 411.495 187.752 426.028 194.558C426.05 194.568 426.077 194.585 426.098 194.59C426.664 194.849 427.182 194.25 427.01 193.835C426.988 193.803 426.972 193.759 426.94 193.727C426.902 193.668 426.837 193.608 426.74 193.565C426.125 193.274 425.505 192.988 424.89 192.697C410.621 185.999 396.417 179.156 382.293 172.167L382.299 172.172Z" fill="#522624"/>
<path d="M387.19 189.321C387.368 189.85 387.557 190.384 387.751 190.901C404.544 198.732 421.202 206.842 437.736 215.228C437.752 215.239 437.768 215.244 437.773 215.244C438.453 215.541 439.052 214.548 438.367 214.203C437.844 213.939 437.31 213.664 436.781 213.4C420.382 205.095 403.848 197.065 387.185 189.316L387.19 189.321Z" fill="#522624"/>
<path d="M448.014 0.156467C448.758 2.69643 449.476 5.23638 450.187 7.77634C457.937 35.4894 464.829 63.4343 471.963 91.3038C473.149 95.9253 474.325 100.547 475.506 105.158C475.716 105.988 475.927 106.819 476.148 107.649C478.186 115.636 480.23 123.628 482.274 131.614C482.463 132.353 482.651 133.097 482.84 133.836C486.588 148.488 490.336 163.14 494.079 177.781C494.267 178.531 495.448 178.25 495.249 177.49C491.495 162.8 487.731 148.105 483.978 133.415C483.973 133.388 483.962 133.356 483.956 133.334C483.956 133.318 483.951 133.302 483.94 133.286C483.525 131.657 483.115 130.039 482.7 128.411C478.294 111.187 473.91 93.9678 469.499 76.7435C469.326 76.0532 469.148 75.3684 468.976 74.6835C466.328 64.3187 463.675 53.9648 461 43.6162C457.236 29.0343 453.38 14.4795 449.222 0.0108643C448.818 0.0216496 448.429 0.0755766 448.047 0.145682C448.03 0.145682 448.02 0.151074 448.003 0.151074L448.014 0.156467Z" fill="#522624"/>
<path d="M469.504 76.7489C469.547 76.695 469.58 76.6302 469.606 76.5601C474.859 61.4822 480.106 46.3934 485.353 31.3047C485.067 30.8948 484.782 30.4904 484.49 30.0913C479.313 44.9536 474.147 59.8266 468.981 74.6943C468.803 75.1958 468.63 75.7081 468.452 76.215C468.215 76.8783 469.132 77.2288 469.504 76.7543V76.7489Z" fill="#522624"/>
<path d="M433.643 59.1417C433.648 59.7565 433.664 60.3605 433.67 60.9752C447.815 76.5224 461.965 92.0695 476.099 107.617C476.115 107.633 476.121 107.644 476.137 107.649C476.666 108.151 477.485 107.342 476.978 106.786C476.488 106.247 475.991 105.702 475.501 105.163C461.55 89.8208 447.599 74.4839 433.643 59.1417Z" fill="#522624"/>
<path d="M435.055 85.5011C435.109 86.1321 435.174 86.7576 435.228 87.3778C450.948 103.027 466.824 118.51 482.84 133.836C482.872 133.863 482.894 133.895 482.926 133.917C483.385 134.348 484.048 133.89 483.983 133.415C483.978 133.388 483.967 133.356 483.962 133.334C483.962 133.318 483.956 133.302 483.946 133.286C483.913 133.221 483.87 133.156 483.805 133.086C483.293 132.596 482.786 132.105 482.274 131.614C466.382 116.407 450.646 101.032 435.055 85.4957V85.5011Z" fill="#522624"/>
<path d="M452.442 178.87C457.872 200.5 463.691 222.767 468.328 240.234L469.024 238.163C464.748 222.044 459.538 202.107 454.577 182.424C453.887 181.232 453.17 180.051 452.442 178.876V178.87Z" fill="#522624"/>
<path d="M538.515 130.947C540.872 123.165 536.474 114.946 528.692 112.589C520.911 110.233 512.692 114.63 510.335 122.412C507.978 130.194 512.376 138.413 520.157 140.769C527.939 143.126 536.158 138.729 538.515 130.947Z" fill="#522624"/>
<path d="M525.426 134.947C525.248 135.572 524.272 135.313 524.445 134.682C526.553 127.224 526.872 119.486 525.426 111.979C525.777 112.001 526.127 112.033 526.473 112.087C527.885 119.648 527.54 127.451 525.426 134.941V134.947Z" fill="#8C514F"/>
<path d="M530.377 140.113C530.188 140.534 529.994 140.938 529.789 141.348C529.498 141.936 528.63 141.423 528.915 140.841C528.948 140.771 528.986 140.706 529.012 140.636C532.917 132.655 534.416 123.779 533.456 115.069C533.839 115.361 534.211 115.684 534.562 116.029C535.279 124.237 533.861 132.536 530.371 140.108L530.377 140.113Z" fill="#8C514F"/>
<path d="M518.691 131.975C518.556 132.617 517.585 132.342 517.72 131.706C519.014 125.607 519.117 119.405 518.065 113.371C518.378 113.214 518.702 113.079 519.025 112.95C520.147 119.216 520.039 125.655 518.696 131.975H518.691Z" fill="#8C514F"/>
<path d="M529.034 163.037C529.034 145.543 514.851 131.366 497.363 131.366C479.874 131.366 465.691 145.549 465.691 163.037C465.691 164.456 465.794 165.847 465.977 167.217L465.966 167.206C466.026 170.819 462.974 171.752 462.974 171.752H462.995C449.19 175.171 438.954 187.633 438.954 202.496C438.954 219.989 453.137 234.167 470.626 234.167C488.114 234.167 502.297 219.984 502.297 202.496C502.297 199.724 501.936 197.033 501.267 194.466C516.917 192.541 529.034 179.21 529.034 163.043V163.037Z" fill="#522624"/>
<path d="M454.744 217.234C452.932 198.494 463.955 179.302 483.52 176.239C484.161 176.136 483.892 175.16 483.25 175.263C463.276 178.39 451.875 198.09 453.73 217.234C453.795 217.876 454.809 217.881 454.744 217.234Z" fill="#8C514F"/>
<path d="M466.851 219.116C465.837 201.153 479.853 187.644 495.723 182.036C496.333 181.82 496.068 180.839 495.454 181.06C479.173 186.808 464.796 200.689 465.837 219.116C465.875 219.763 466.889 219.768 466.851 219.116Z" fill="#8C514F"/>
<path d="M548.944 173.445C550.54 170.323 551.446 166.785 551.446 163.037C551.446 150.375 541.184 140.113 528.522 140.113C515.86 140.113 505.597 150.375 505.597 163.037C505.597 173.947 513.217 183.066 523.426 185.385C519.117 190.793 516.534 197.648 516.534 205.1C516.534 222.594 530.717 236.772 548.205 236.772C565.694 236.772 579.876 222.589 579.876 205.1C579.876 187.612 566.087 173.839 548.938 173.445H548.944Z" fill="#522624"/>
<path d="M553.253 319.641H461.189V358.086H553.253V319.641Z" fill="#A8604A"/>
<path d="M589.141 403.767C588.284 403.897 587.421 404.015 586.547 404.139C533.677 411.608 464.688 413.549 458.072 413.717L463.265 355.335L579.267 348.843L582.136 348.681L589.141 403.767Z" fill="#522624"/>
<path d="M469.984 331.225L560.732 328.523L534.815 207.98L484.879 208.956L469.984 331.225Z" fill="white"/>
<path d="M536.729 216.91C528.376 226.461 515.628 231.169 503.014 229.583C496.052 228.704 488.573 225.668 483.46 220.604L483.59 219.58C491.35 227.766 505.851 230.263 516.199 227.981C524.283 226.197 531.315 221.715 536.449 215.594L536.735 216.91H536.729Z" fill="#522624"/>
<path d="M487.478 199.465L489.452 208.956H484.879C484.879 208.956 479.89 222.637 506.697 222.325C533.505 222.012 534.81 207.98 534.81 207.98L524.984 176.082L487.473 199.459L487.478 199.465Z" fill="#A8604A"/>
<path d="M477.189 148.86C475.668 155.417 475.355 163.474 475.56 167.529C475.765 171.585 475.571 188.971 478.887 195.118C482.075 201.023 488.826 203.412 498.285 202.167C507.738 200.921 520.875 193.085 525.89 182.494C532.717 168.085 534.481 152.43 531.849 141.763C529.217 131.096 519.937 120.98 507.744 121.535C495.551 122.091 482.182 127.354 477.194 148.865L477.189 148.86Z" fill="#A8604A"/>
<path d="M484.879 208.956C484.879 208.956 459.937 208.956 445.534 219.623C431.124 230.29 386.095 292.915 386.095 292.915L426.276 348.886L438.054 336.553L436.668 384.904L479.481 386.705L484.884 208.951L484.879 208.956Z" fill="#FFBD61"/>
<path d="M534.815 207.98L549.618 383.178L583.387 378.087L578.674 344.318L624.948 335.312C624.948 335.312 605.691 253.295 602.919 240.821C600.147 228.354 584.908 212.833 566.481 210.617C548.054 208.401 534.81 207.98 534.81 207.98H534.815Z" fill="#FFBD61"/>
<path d="M391.386 300.287L389.924 301.996L356.721 252.459L337.324 218.792L307.815 255.576C307.815 255.576 345.429 323.324 358.107 341.406C370.785 359.488 383.286 366.563 395.516 364.061C407.747 361.559 423.127 343.995 423.127 343.995L391.386 300.287Z" fill="#A8604A"/>
<path d="M298.011 268.81H330.658C333.5 268.81 336.024 266.992 336.925 264.296L361.062 192.142C362.2 188.744 359.671 185.234 356.09 185.234H321.545C318.703 185.234 316.179 187.051 315.278 189.747L291.739 260.106C290.305 264.388 293.492 268.81 298.006 268.81H298.011Z" fill="#522624"/>
<path d="M357.643 193.857L336.817 255.98H296.571C296.512 255.236 296.598 254.47 296.857 253.699L317.436 192.179C318.223 189.823 320.428 188.232 322.914 188.232H352.655C356.608 188.232 358.895 190.109 357.643 193.851V193.857Z" fill="white"/>
<path d="M342.776 207.63H340.7L341.39 205.553H343.466L342.776 207.63Z" fill="#522624"/>
<path d="M345.715 203.865L343.908 209.323H338.451L340.257 203.865H345.715ZM347.964 202.177H339.13L336.208 211.011H345.041L347.964 202.177Z" fill="#522624"/>
<path d="M318.401 218.976L319.9 214.44H321.588L320.089 218.976H318.401Z" fill="#522624"/>
<path d="M320.461 212.753H324.171L323.616 214.44H319.9L320.461 212.753Z" fill="#522624"/>
<path d="M321.032 222.405L319.226 227.863H313.769L315.575 222.405H321.032ZM323.281 220.718H314.448L311.525 229.551H320.358L323.281 220.718Z" fill="#522624"/>
<path d="M322.111 218.976L324.171 212.753H325.918L323.853 218.976H322.111Z" fill="#522624"/>
<path d="M326.916 214.991H333.139L332.562 216.732H326.339L326.916 214.991Z" fill="#522624"/>
<path d="M322.672 227.809H330.642L330.065 229.551H322.095L322.672 227.809Z" fill="#522624"/>
<path d="M331.165 202.177H335.641L335.064 203.919H330.583L331.165 202.177Z" fill="#522624"/>
<path d="M323.885 224.147H328.367L327.784 225.895H323.308L323.885 224.147Z" fill="#522624"/>
<path d="M340.117 214.991L338.904 218.658H337.162L338.375 214.991H340.117Z" fill="#522624"/>
<path d="M329.979 211.005L328.663 214.991H326.916L328.237 211.005H329.979Z" fill="#522624"/>
<path d="M325.05 225.895L324.419 227.809H322.672L323.308 225.895H325.05Z" fill="#522624"/>
<path d="M339.497 227.739L338.893 229.551H337.151L337.75 227.739H339.497Z" fill="#522624"/>
<path d="M340.117 214.991L339.519 216.803H334.288L334.886 214.991H340.117Z" fill="#522624"/>
<path d="M338.354 225.927L337.75 227.739H336.008L336.607 225.927H338.354Z" fill="#522624"/>
<path d="M335.037 209.263H328.814L329.391 207.522H335.614L335.037 209.263Z" fill="#522624"/>
<path d="M332.562 216.732L330.669 222.459H328.922L330.82 216.732H332.562Z" fill="#522624"/>
<path d="M337.89 211.005L335.997 216.732H334.309L336.208 211.005H337.89Z" fill="#522624"/>
<path d="M335.037 209.263L334.46 211.005H332.718L333.295 209.263H335.037Z" fill="#522624"/>
<path d="M327.509 218.48L326.188 222.459H324.446L325.762 218.48H327.509Z" fill="#522624"/>
<path d="M335.064 203.919L333.872 207.522H332.131L333.322 203.919H335.064Z" fill="#522624"/>
<path d="M324.236 207.63H322.16L322.844 205.553H324.926L324.236 207.63Z" fill="#522624"/>
<path d="M318.029 226.364H315.953L316.643 224.288H318.719L318.029 226.364Z" fill="#522624"/>
<path d="M327.169 203.865L325.363 209.323H319.905L321.712 203.865H327.169ZM329.418 202.177H320.585L317.662 211.011H326.495L329.418 202.177Z" fill="#522624"/>
<path d="M337.912 222.157L337.221 224.234H335.145L335.835 222.157H337.912ZM340.16 220.469H334.703L332.896 225.927H338.354L340.16 220.469Z" fill="#522624"/>
<path d="M301.581 220.194C301.581 220.194 300.54 215.4 302.552 211.448C304.563 207.5 307.917 209.091 309.648 212.763C311.38 216.436 314.151 223.036 313.946 227.62C313.736 232.209 312.113 236.243 309.131 237.974C309.131 237.974 310.242 241.922 308.645 244.764C307.055 247.606 304.353 248.641 304.353 248.641C304.353 248.641 305.324 253.559 303.868 255.705C302.411 257.852 298.534 258.337 297.288 256.331C296.043 254.319 293.028 246.236 292.996 242.132C292.963 238.184 295.072 235.272 297.288 235.413C297.288 235.413 295.487 227.48 297.429 223.22C299.494 218.679 301.586 220.189 301.586 220.189L301.581 220.194Z" fill="#A8604A"/>
<path d="M358.56 255.43C358.56 255.43 358.382 243.453 357.137 238.81C355.891 234.167 354.947 225.264 355.821 217.892C356.306 213.804 350.606 212.753 348.131 216.576C345.844 220.108 343.903 228.143 345.219 236.319C346.534 244.494 358.555 255.43 358.555 255.43H358.56Z" fill="#A8604A"/>
<path d="M533.785 174.044C537.83 162.115 534.437 149.987 532.313 141.38C529.681 130.713 519.904 120.721 507.711 121.271C495.518 121.826 482.225 126.626 477.237 148.132C476.924 149.475 476.558 151.616 476.347 153.039C476.639 152.942 483.919 150.602 485.601 144.6C485.601 144.6 488.028 147.922 493.706 147.226C499.385 146.536 501.99 144.6 505.899 148.407C508.461 150.898 506.417 158.405 508.288 161.996C510.16 165.583 516.604 167.664 516.604 167.664L521.441 174.238C516.949 200.818 534.804 207.98 534.804 207.98L533.78 174.038L533.785 174.044Z" fill="#522624"/>
<path d="M488.163 139.083C495.842 137.471 508.342 134.839 511.497 144.842C512.721 148.725 512.112 152.953 513.374 156.836C514.511 160.336 517.418 163.302 520.373 165.372C520.907 165.744 521.414 164.871 520.886 164.499C518.691 162.962 516.496 160.832 515.175 158.481C513.854 156.119 513.643 153.363 513.406 150.72C513.061 146.838 512.656 142.75 509.663 139.919C503.904 134.461 494.785 136.662 487.893 138.107C487.257 138.242 487.526 139.218 488.163 139.083Z" fill="#8C514F"/>
<path d="M573.103 212.014C572.753 211.906 572.391 211.803 572.035 211.701C570.24 199.697 563.607 188.728 552.341 183.459C550.335 182.521 548.254 181.799 546.129 181.189C545.104 180.898 544.047 180.677 543.276 179.868C540.952 177.436 542.424 173.359 542.446 170.431C542.505 161.398 539.372 153.73 532.146 148.089C531.633 147.69 532.351 146.973 532.863 147.372C540.294 153.169 543.53 161.15 543.459 170.431C543.443 172.658 542.683 175.36 543.244 177.468C543.934 180.03 546.204 180.094 548.399 180.812C551.77 181.917 555.005 183.47 557.923 185.503C562.981 189.036 566.918 193.927 569.501 199.519C571.324 203.472 572.505 207.7 573.109 212.008L573.103 212.014Z" fill="#8C514F"/>
<path d="M559.902 209.878C559.535 209.846 559.174 209.803 558.807 209.765C556.564 200.317 550.664 192.169 541.443 187.17C538.493 185.568 537.43 184.15 536.783 180.887C536.282 178.32 536.018 175.715 535.516 173.149C534.195 166.397 531.11 160.815 524.898 157.445C524.326 157.132 524.828 156.259 525.405 156.566C531.126 159.667 534.535 164.693 536.071 170.938C536.74 173.655 537.058 176.438 537.517 179.194C537.803 180.898 538.007 183.179 539.183 184.511C540.515 186.016 542.953 186.792 544.635 187.881C552.789 193.134 557.923 200.996 559.907 209.878H559.902Z" fill="#8C514F"/>
<path d="M547.024 208.708C546.684 208.681 546.361 208.66 546.037 208.633C545.929 208.147 545.805 207.662 545.681 207.182C544.112 201.423 540.197 197.977 535.295 194.914C533.78 193.97 532.275 193.129 531.466 191.478C530.619 189.769 530.334 187.671 529.805 185.838C528.543 181.448 527.028 176.767 523.755 173.429C523.296 172.965 524.013 172.248 524.472 172.712C527.546 175.84 529.131 180.105 530.388 184.225C530.986 186.199 531.369 188.275 532.07 190.211C533.176 193.263 536.891 194.568 539.366 196.407C543.681 199.616 545.924 203.946 547.035 208.708H547.024Z" fill="#8C514F"/>
<path d="M522.725 178.019C526.153 174.591 526.153 169.032 522.725 165.603C519.296 162.175 513.737 162.175 510.309 165.603C506.88 169.032 506.88 174.591 510.309 178.019C513.737 181.448 519.296 181.448 522.725 178.019Z" fill="#A8604A"/>
<path d="M520.627 180.143C521.699 180.143 522.568 179.274 522.568 178.202C522.568 177.129 521.699 176.26 520.627 176.26C519.555 176.26 518.685 177.129 518.685 178.202C518.685 179.274 519.555 180.143 520.627 180.143Z" fill="#FECDBF"/>
<path d="M516.189 166.769C520.449 166.446 521.635 171.062 520.719 174.378C520.546 175.009 521.522 175.273 521.695 174.648C522.784 170.717 521.112 165.389 516.189 165.755C515.542 165.804 515.536 166.818 516.189 166.769Z" fill="#522624"/>
<path d="M517.434 171.633C518.702 170.754 519.753 169.67 520.594 168.376C520.95 167.826 520.066 167.33 519.71 167.875C518.966 169.018 518.033 169.983 516.911 170.765C516.377 171.137 516.895 172.005 517.434 171.633Z" fill="#522624"/>
<path d="M626 396.325C615.986 399.259 603.189 401.713 589.141 403.767C588.284 403.897 587.421 404.015 586.547 404.139L579.267 348.843L578.674 344.318L618.181 336.634L626 396.325Z" fill="#A8604A"/>
<path d="M439.866 294.894C439.364 306.203 438.874 317.506 438.377 328.814C438.372 328.89 438.372 328.954 438.367 329.03C438.259 331.543 438.151 334.061 438.043 336.574L436.975 337.68C437.105 334.795 437.234 331.92 437.353 329.035C437.38 328.469 437.407 327.908 437.428 327.342C437.908 316.53 438.383 305.706 438.852 294.894C438.879 294.247 439.893 294.247 439.866 294.894Z" fill="#522624"/>
<path d="M579.682 344.124L578.69 344.318C577.121 332.206 575.584 320.099 573.955 307.993C573.869 307.346 574.888 307.351 574.969 307.993C576.592 320.029 578.118 332.077 579.682 344.118V344.124Z" fill="#522624"/>
<path d="M305.259 248.193C304.752 248.495 304.401 248.63 304.358 248.652H304.353C302.023 244.187 299.64 239.754 297.261 235.31C297.186 234.954 296.949 233.768 296.76 232.226C299.602 237.543 302.465 242.849 305.259 248.193Z" fill="#522624"/>
<path d="M309.994 237.392C309.724 237.607 309.438 237.802 309.142 237.974C306.688 232.01 304.164 226.078 301.565 220.178C301.581 220.194 301.586 220.2 301.586 220.2C301.586 220.2 301.311 218.922 301.317 217.142C304.31 223.856 307.2 230.602 309.994 237.397V237.392Z" fill="#522624"/>
<path d="M484.895 161.867C485.208 167.449 483.547 172.679 481.131 177.641C480.845 178.223 481.719 178.741 482.004 178.153C484.501 173.03 486.232 167.621 485.909 161.867C485.871 161.22 484.857 161.215 484.895 161.867Z" fill="#522624"/>
<path d="M481.309 178.336C483.191 179.35 485.132 179.776 487.224 179.183C487.85 179.005 487.586 178.029 486.955 178.207C485.116 178.725 483.466 178.347 481.816 177.457C481.244 177.15 480.732 178.024 481.303 178.331L481.309 178.336Z" fill="#522624"/>
<path d="M490.147 187.008C493.426 187.348 496.586 186.107 498.759 183.637C499.191 183.152 498.474 182.429 498.042 182.92C496.02 185.217 493.183 186.312 490.147 185.994C489.5 185.924 489.506 186.938 490.147 187.008Z" fill="#522624"/>
<path d="M492.865 161.673C495.071 159.694 498.479 158.351 500.825 160.913C501.267 161.393 501.979 160.675 501.542 160.195C498.813 157.213 494.763 158.61 492.153 160.956C491.668 161.393 492.385 162.104 492.871 161.673H492.865Z" fill="#522624"/>
<path d="M477.836 160.913C480.165 159.014 483.385 159.597 484.965 162.126C485.31 162.676 486.184 162.169 485.839 161.614C483.892 158.491 479.955 157.882 477.119 160.195C476.612 160.605 477.334 161.322 477.836 160.913Z" fill="#522624"/>
<path d="M485.871 202.269C492.067 204.55 500.129 203.617 505.43 199.594C505.942 199.206 505.441 198.327 504.918 198.721C499.806 202.598 492.116 203.499 486.141 201.293C485.526 201.067 485.262 202.048 485.871 202.269Z" fill="#522624"/>
<path d="M496.575 163.636C495.917 163.636 495.438 164.11 495.438 164.763V166.111C495.438 166.569 495.659 166.958 496.052 167.184C496.257 167.303 496.494 167.362 496.721 167.362C496.931 167.362 497.142 167.308 497.325 167.206C497.665 167.012 497.864 166.656 497.864 166.235V164.887C497.864 164.105 497.212 163.636 496.581 163.636H496.575Z" fill="#522624"/>
<path d="M481.239 164.116C480.84 163.889 480.343 163.879 479.977 164.089C479.637 164.283 479.443 164.634 479.443 165.054V166.392C479.443 167.168 480.09 167.637 480.721 167.637C481.373 167.637 481.848 167.168 481.848 166.516V165.178C481.848 164.725 481.627 164.337 481.239 164.11V164.116Z" fill="#522624"/>
<path d="M621.778 321.787C607.018 324.651 592.242 327.434 577.477 330.286C576.835 330.41 576.565 329.434 577.207 329.305C591.983 326.452 606.775 323.664 621.546 320.801C621.621 321.129 621.702 321.464 621.778 321.787Z" fill="#522624"/>
<path d="M438.367 329.03V329.035C438.253 329.375 437.698 329.547 437.434 329.148C437.407 329.105 437.38 329.073 437.353 329.035C424.933 310.598 412.681 292.057 400.327 273.577C400.542 273.291 400.753 273.01 400.968 272.719C413.134 290.92 425.209 309.179 437.428 327.342C437.72 327.773 438.016 328.215 438.307 328.647C438.351 328.701 438.377 328.76 438.383 328.814C438.404 328.895 438.399 328.97 438.372 329.03H438.367Z" fill="#522624"/>
<path d="M483.277 261.567L483.223 263.336C479.885 258.332 477.14 252.896 475.042 247.142C470.782 235.434 469.11 222.95 469.315 210.515C469.661 210.455 470 210.391 470.335 210.337C470.124 222.195 471.618 234.091 475.474 245.346C477.437 251.089 480.058 256.536 483.277 261.567Z" fill="#522624"/>
<path d="M546.107 247.142C544.312 252.081 542.036 256.778 539.313 261.184L539.161 259.469C541.788 255.031 543.972 250.302 545.67 245.346C549.666 233.676 551.128 221.316 550.777 209.015C551.106 209.042 551.446 209.069 551.791 209.102C552.158 222.001 550.529 234.992 546.102 247.142H546.107Z" fill="#522624"/>
<path d="M491.965 131.981C498.932 131.463 507.528 130.821 513.945 134.267C519.376 137.19 520.077 142.297 520.794 147.889C521.247 151.405 522.094 154.889 524.795 157.364C525.275 157.806 525.993 157.089 525.513 156.647C521.576 153.039 522.061 147.506 521.112 142.691C520.255 138.317 517.823 134.984 513.773 133.048C507.237 129.926 498.948 130.449 491.965 130.967C491.318 131.015 491.312 132.029 491.965 131.981Z" fill="#8C514F"/>
<path d="M502.475 121.805C499.671 123.881 497.023 126.162 494.683 128.761C490.401 133.501 487.726 139.277 486.47 145.457C485.963 145.047 485.688 144.702 485.623 144.627C486.847 139.04 489.182 133.798 492.871 129.317C495.039 126.674 497.53 124.361 500.205 122.252C500.96 122.074 501.72 121.934 502.475 121.805Z" fill="#8C514F"/>
<path d="M482.242 135.195C481.643 135.518 481.061 135.863 480.484 136.23C478.688 139.579 477.275 143.473 476.25 147.911C476.029 148.86 475.787 150.165 475.592 151.351C475.431 152.333 475.663 153.336 476.24 154.145C476.293 153.773 476.347 153.401 476.401 153.039C476.38 153.045 476.93 149.485 477.237 148.143C478.451 142.896 480.171 138.641 482.242 135.2V135.195ZM524.617 126.669C520.621 123.05 515.973 120.893 511.071 120.365C510.915 120.683 510.774 121.012 510.65 121.346C520.718 122.29 528.743 130.379 531.736 139.406C532.038 139.239 532.329 139.056 532.62 138.862C531.051 134.24 528.263 129.975 524.617 126.669Z" fill="#8C514F"/>
<path d="M532.987 147.868C532.809 148.493 531.838 148.224 532.005 147.598C532.658 145.209 532.464 142.788 532.054 140.383C532.405 140.436 532.755 140.496 533.1 140.571C533.499 143.003 533.645 145.462 532.987 147.868Z" fill="#8C514F"/>
<path d="M168.166 225.258C168.166 225.258 185.417 201.04 188.34 198.149C191.268 195.259 201.541 189.24 206.087 196.979C210.633 204.712 211.194 213.464 207.16 221.203C203.903 227.448 185.04 260.338 185.04 260.338L168.166 225.258Z" fill="#F9A378"/>
<path d="M200.624 209.269C204.405 206.324 208.336 203.612 212.418 201.115C212.984 200.77 212.467 199.869 211.895 200.22C207.732 202.765 203.736 205.543 199.891 208.535C199.362 208.945 200.101 209.673 200.624 209.269Z" fill="#522624"/>
<path d="M119.723 131.927C119.723 131.927 122.231 137.212 125.359 141.326C126.205 142.437 126.027 144.028 124.943 144.907C124.927 144.918 124.916 144.929 124.9 144.939C123.466 146.104 121.276 146.886 121.276 146.886L119.718 131.921L119.723 131.927Z" fill="#F9A378"/>
<path d="M110.491 137.255C111.025 141.224 113.78 147.625 118.92 146.46C123.347 145.452 124.533 139.498 124.14 135.713C123.725 131.706 120.775 125.369 115.711 126.507C111.17 127.526 110.237 133.453 110.491 137.255C110.566 138.366 108.835 138.36 108.765 137.255C108.436 132.358 110.27 125.191 116.218 124.684C122.047 124.194 125.402 130.805 125.871 135.707C126.335 140.593 124.269 147.781 118.418 148.278C112.459 148.779 109.423 142.135 108.765 137.255C108.62 136.155 110.345 136.166 110.491 137.255Z" fill="white"/>
<path d="M104.624 174.896C104.624 174.896 117.226 174.152 120.257 162.881C122.916 152.991 120.861 120.165 115.366 110.453C108.695 98.6593 95.5855 95.0354 85.911 95.3536C76.2365 95.6718 61.6655 100.989 55.9222 112.049C50.179 123.11 50.4433 141.197 57.7288 153.201C63.472 162.665 68.3632 166.278 68.3632 166.278L64.2486 179.96L103.912 182.3L104.629 174.89L104.624 174.896Z" fill="#F9A378"/>
<path d="M124.188 133.712C117.135 134.413 110.081 135.114 103.027 135.815C101.922 135.923 101.749 134.208 102.855 134.095C109.909 133.394 116.962 132.693 124.016 131.992C125.121 131.884 125.294 133.599 124.188 133.712Z" fill="white"/>
<path d="M118.127 118.224C118.127 118.224 117.048 122.296 114.088 127.359C111.365 132.013 101.647 143.305 101.647 143.305C101.647 143.305 94.205 168.516 68.3578 166.273C68.3578 166.273 63.4666 162.66 57.7288 153.196C50.4433 141.191 49.8177 122.91 55.9168 112.039C63.2563 98.9613 76.2311 95.6664 85.9056 95.3482C95.5801 95.03 108.69 98.6539 115.361 110.453C116.412 112.308 117.34 114.999 118.127 118.224Z" fill="#522624"/>
<path d="M111.599 145.568C112.361 140.93 109.218 136.553 104.58 135.792C99.9425 135.031 95.5659 138.174 94.8048 142.812C94.0436 147.449 97.1863 151.826 101.824 152.587C106.462 153.348 110.838 150.206 111.599 145.568Z" fill="#F9A378"/>
<path d="M101.911 140.334C100.035 140.922 98.5569 142.265 98.9937 144.373C99.2849 145.775 100.266 147.075 101.604 147.62C102.224 147.873 101.712 148.774 101.102 148.526C99.3496 147.808 98.0824 145.916 97.9044 144.05C97.6671 141.585 99.4521 140.016 101.642 139.331C102.278 139.132 102.553 140.129 101.917 140.334H101.911Z" fill="#522624"/>
<path d="M102.682 144.713C101.183 144.222 99.8296 143.462 98.6324 142.437C98.1255 142.006 98.8481 141.262 99.3496 141.688C100.412 142.594 101.615 143.268 102.941 143.704C103.572 143.909 103.319 144.918 102.682 144.708V144.713Z" fill="#522624"/>
<path d="M146.951 358.857L149.076 413.733H27.8479C27.8479 413.733 24.3049 396.978 22.6008 358.857H146.946H146.951Z" fill="#99A5CF"/>
<path d="M134.941 413.733H133.906C134.127 395.441 134.143 377.154 133.971 358.857H135.006C135.179 377.143 135.157 395.441 134.941 413.733Z" fill="#522624"/>
<path d="M194.148 272.363C194.148 272.363 167.47 216.986 147.264 197.631C133.793 184.727 118.127 183.454 118.127 183.454C118.127 183.454 68.1367 180.289 58.3652 183.087C38.4446 188.782 28.9804 220.486 24.6554 270.39C20.3305 320.299 20.0447 388.5 20.0447 388.5L149.351 384.1L148.218 289.248L194.142 272.363H194.148Z" fill="#B58C58"/>
<path d="M149.183 371.255C106.193 372.867 63.2023 374.49 20.2118 376.103C20.228 375.779 20.2334 375.445 20.2388 375.105C29.4872 374.76 38.7411 374.409 47.9896 374.059C81.7209 372.792 115.447 371.53 149.167 370.257L149.183 371.255Z" fill="#522624"/>
<path d="M109.785 257.76C115.867 269.947 121.945 282.129 128.028 294.317C128.325 294.916 129.22 294.387 128.923 293.794C122.84 281.606 116.763 269.424 110.68 257.237C110.383 256.638 109.488 257.167 109.785 257.76Z" fill="#522624"/>
<path d="M181.157 267.111L194.385 284.206L255.242 235.531L296.728 190.896C296.728 190.896 306.58 201.347 303.096 223.236C300.939 236.772 288.935 242.822 273.097 260.332C257.318 277.772 185.908 368.752 155.353 309.363C144.163 287.614 138.258 277.103 138.258 277.103L181.162 267.105L181.157 267.111Z" fill="#F9A378"/>
<path d="M285.851 202.037C287.937 209.668 290.024 217.293 292.111 224.924C292.289 225.566 293.287 225.296 293.109 224.649C291.022 217.018 288.935 209.393 286.848 201.762C286.67 201.12 285.673 201.39 285.851 202.037Z" fill="#522624"/>
<path d="M273.852 221.801C273.739 225.204 273.625 228.602 273.512 232.004C273.49 232.668 274.526 232.759 274.547 232.091C274.661 228.688 274.774 225.291 274.887 221.888C274.909 221.224 273.873 221.133 273.852 221.801Z" fill="#522624"/>
<path d="M114.627 183.244C114.627 183.244 114.908 179.933 104.343 177.802C93.7789 175.678 65.5374 174.243 65.5374 174.243C65.5374 174.243 63.2563 176.557 58.3651 183.082C58.3651 183.082 69.4633 187.019 87.944 185.751C104.51 184.619 114.627 183.244 114.627 183.244Z" fill="#FFEFEB"/>
<path d="M256.811 243.022H185.913C183.4 243.022 181.917 240.207 183.341 238.136L243.06 151.265C244.575 149.059 247.082 147.744 249.757 147.744H317.29C321.227 147.744 323.551 152.16 321.318 155.401L263.503 239.5C261.988 241.706 259.48 243.022 256.805 243.022H256.811Z" fill="#522624"/>
<path d="M317.554 155.698L267.612 228.343H193.35L244.187 154.393C245.815 152.02 248.512 150.607 251.386 150.607H314.793C318.137 150.607 319.452 152.948 317.56 155.703L317.554 155.698Z" fill="white"/>
<path d="M275.766 175.942H273.577L275.097 173.753H277.287L275.766 175.942Z" fill="#522624"/>
<path d="M280.301 171.973L276.305 177.722H270.557L274.553 171.973H280.301ZM283.316 170.193H274.008L267.542 179.501H276.85L283.316 170.193Z" fill="#522624"/>
<path d="M245.724 187.898L249.045 183.12H250.825L247.503 187.898H245.724Z" fill="#522624"/>
<path d="M250.28 181.34H254.19L252.955 183.12H249.045L250.28 181.34Z" fill="#522624"/>
<path d="M247.18 191.516L243.184 197.265H237.435L241.431 191.516H247.18ZM250.194 189.736H240.886L234.42 199.044H243.728L250.194 189.736Z" fill="#522624"/>
<path d="M249.639 187.898L254.19 181.34H256.029L251.472 187.898H249.639Z" fill="#522624"/>
<path d="M256.228 183.702H262.786L261.513 185.536H254.95L256.228 183.702Z" fill="#522624"/>
<path d="M246.845 197.211H255.242L253.969 199.05H245.567L246.845 197.211Z" fill="#522624"/>
<path d="M265.612 170.193H270.336L269.058 172.027H264.334L265.612 170.193Z" fill="#522624"/>
<path d="M249.52 193.355H254.244L252.966 195.194H248.247L249.52 193.355Z" fill="#522624"/>
<path d="M270.142 183.702L267.456 187.563H265.622L268.303 183.702H270.142Z" fill="#522624"/>
<path d="M260.985 179.501L258.067 183.702H256.228L259.146 179.501H260.985Z" fill="#522624"/>
<path d="M250.086 195.194L248.684 197.211H246.845L248.247 195.194H250.086Z" fill="#522624"/>
<path d="M264.603 197.135L263.277 199.05H261.438L262.764 197.135H264.603Z" fill="#522624"/>
<path d="M270.142 183.702L268.815 185.611H263.298L264.625 183.702H270.142Z" fill="#522624"/>
<path d="M264.091 195.226L262.764 197.135H260.931L262.257 195.226H264.091Z" fill="#522624"/>
<path d="M266.981 177.662H260.419L261.697 175.823H268.26L266.981 177.662Z" fill="#522624"/>
<path d="M261.513 185.536L257.318 191.575H255.479L259.674 185.536H261.513Z" fill="#522624"/>
<path d="M269.322 179.501L265.132 185.536H263.352L267.542 179.501H269.322Z" fill="#522624"/>
<path d="M266.981 177.662L265.703 179.501H263.865L265.143 177.662H266.981Z" fill="#522624"/>
<path d="M255.511 187.375L252.599 191.575H250.76L253.678 187.375H255.511Z" fill="#522624"/>
<path d="M269.058 172.027L266.421 175.823H264.582L267.219 172.027H269.058Z" fill="#522624"/>
<path d="M256.218 175.942H254.028L255.549 173.753H257.738L256.218 175.942Z" fill="#522624"/>
<path d="M242.504 195.69H240.309L241.835 193.501H244.025L242.504 195.69Z" fill="#522624"/>
<path d="M260.758 171.973L256.762 177.722H251.014L255.01 171.973H260.758ZM263.773 170.193H254.465L247.999 179.501H257.312L263.778 170.193H263.773Z" fill="#522624"/>
<path d="M265.072 191.257L263.552 193.447H261.362L262.883 191.257H265.072ZM268.087 189.478H262.338L258.342 195.226H264.091L268.087 189.478Z" fill="#522624"/>
<path d="M231.805 194.245L223.053 206.837H221.219L229.966 194.245H231.805Z" fill="#EB6844"/>
<path d="M274.402 194.245L265.655 206.837H263.816L272.563 194.245H274.402Z" fill="#EB6844"/>
<path d="M233.811 206.837H221.219L222.492 204.998H235.089L233.811 206.837Z" fill="#EB6844"/>
<path d="M253.063 206.837H265.655L266.933 204.998H254.341L253.063 206.837Z" fill="#EB6844"/>
<path d="M245.173 174.993L253.92 162.401H252.081L243.335 174.993H245.173Z" fill="#EB6844"/>
<path d="M264.679 162.401H252.081L250.803 164.24H263.401L264.679 162.401Z" fill="#EB6844"/>
<path d="M285.937 174.993L294.684 162.401H296.523L287.776 174.993H285.937Z" fill="#EB6844"/>
<path d="M283.925 162.401H296.523L295.245 164.24H282.653L283.925 162.401Z" fill="#EB6844"/>
<path d="M274.661 229.874L275.092 215.675C275.092 215.675 267.656 210.827 266.723 207.646C265.277 202.722 268.815 201.476 272.11 201.476C275.405 201.476 285.91 202.188 286.881 205.499C287.851 208.811 291.189 221.602 291.189 221.602L274.666 229.864L274.661 229.874Z" fill="#F9A378"/>
<path d="M204.653 204.885C204.653 204.885 218.205 196.488 220.534 192.126C223.085 187.342 222.179 183.298 218.593 184.042C215.007 184.786 206.001 186.975 197.782 194.784L204.658 204.885H204.653Z" fill="#F9A378"/>
<path d="M194.148 272.363L185.897 256.207L120.742 281.337L128.233 296.334L194.148 272.363Z" fill="#FFEFEB"/>
<path d="M135.707 102.423C135.249 100.202 132.153 100.434 130.455 100.164C128.082 99.7918 125.725 99.3172 123.396 98.7294C118.65 97.5376 114.002 95.9252 109.558 93.8706C105.238 91.8753 101.199 88.9632 96.5777 87.7175C92.0371 86.4934 86.9464 86.4233 82.2979 86.968C77.3258 87.5504 72.5156 89.1142 68.6058 92.3229C65.0521 95.2403 62.6415 99.355 62.1724 103.95C62.1724 103.993 62.1724 104.03 62.167 104.068C60.4521 104.23 58.9367 104.926 57.3189 105.557C55.3183 106.333 53.3014 106.64 51.1659 106.495C49.9256 106.414 49.3378 108.08 50.1736 108.895C51.8939 110.588 53.8514 111.963 55.9977 112.993C55.0648 113.549 54.1912 114.201 53.4038 115.01C51.9964 116.455 50.9286 118.186 50.1467 120.036C48.3131 124.382 48.2538 129.171 48.3671 133.814C48.3886 134.78 49.5858 135.702 50.4864 135.028C52.0934 133.82 53.8784 133.146 55.8953 133.102C57.5724 133.065 57.6964 130.638 56.2566 130.325L60.6085 113.732C60.8188 113.478 60.8889 113.149 60.8512 112.815L62.4096 106.867C62.5337 106.856 62.6577 106.851 62.7817 106.845C63.801 106.829 64.2486 105.929 64.1191 105.152C64.2809 105.082 64.4319 104.985 64.5613 104.861L92.0587 130.358C90.7752 131.56 92.7435 133.491 94.0863 132.31C97.6401 129.177 101.766 126.836 106.241 125.299C110.755 123.752 115.425 122.695 119.685 120.484C123.347 118.585 126.691 116.008 129.489 112.977C130.87 111.483 132.132 109.865 133.248 108.161C133.804 107.309 134.327 106.43 134.807 105.535C135.308 104.591 135.95 103.534 135.718 102.423H135.707Z" fill="#522624"/>
</g>
<defs>
<clipPath id="clip0_1507_15808">
<rect width="626" height="413.733" fill="white"/>
</clipPath>
</defs>
</svg>
